<?xml version="1.0" standalone="no"?>
<!DOCTYPE svg PUBLIC "-//W3C//DTD SVG 1.1//EN" "http://www.w3.org/Graphics/SVG/1.1/DTD/svg11.dtd" >
<svg xmlns="http://www.w3.org/2000/svg" xmlns:xlink="http://www.w3.org/1999/xlink" version="1.1">
<metadata>
Created by FontForge 20190801 at Tue Mar 19 18:57:09 2019
 By www-data
Copyright \(c\) 2018 by Aerotype Corporation. All rights reserved.
</metadata>
<defs>
<font id="TurbinadoLight" horiz-adv-x="163" >
  <font-face 
    font-family="Turbinado Light"
    font-weight="300"
    font-stretch="normal"
    units-per-em="1000"
    panose-1="0 0 0 0 0 0 0 0 0 0"
    ascent="766"
    descent="-234"
    x-height="410"
    cap-height="679"
    bbox="-371 -352 925 890"
    underline-thickness="50"
    underline-position="-100"
    stemh="43"
    stemv="59"
    unicode-range="U+000D-FB02"
  />
<missing-glyph horiz-adv-x="373" 
d="M30 110v511h313v-511h-313zM46 607v-482h283v482h-283z" />
    <glyph glyph-name="t_t" unicode="tt" horiz-adv-x="336" 
d="M208 201c2 7 1 7 7 11l17 23c0 2 0 4 1 6l-5 -7c-3 -2 -5 -11 -9 -11c-1 1 -1 -2 -1 -3c-4 0 -5 -3 -5 -5c-2 -3 -5 -5 -8 -8c-1 -3 -5 -5 -6 -9c0 -3 -5 -3 -5 -4s-1 -3 -2 -3c-1 -3 1 -7 -4 -7c-1 -1 -6 -2 -6 -5c-1 0 -2 -1 -4 -4c-1 0 -7 -7 -7 -9l-4 -5
c-5 -5 -8 -11 -14 -17c5 3 7 10 12 10c1 0 4 6 6 7c3 3 7 7 9 11c0 2 10 9 10 8c3 3 3 6 4 9c2 1 6 3 6 4c0 2 1 3 1 3c2 3 4 5 6 9c1 -2 1 -3 1 -4zM239 233c3 0 4 10 4 13l-6 -9c-2 -8 -3 -15 -3 -15l-2 -8c-4 -13 -8 -36 -9 -47l4 13c4 13 5 21 9 39c0 2 1 4 2 5
c0 2 -1 5 -1 7c0 1 0 2 2 2zM213 97l1 -5c1 0 2 1 2 2c-1 1 -1 4 -1 8c3 18 4 35 7 53v5c0 1 0 2 -2 2c-1 -4 -1 -7 -1 -10c-1 -9 -4 -27 -4 -41v-4l-2 -6v-4zM82 91c9 0 39 19 40 24c0 1 -28 -21 -40 -24zM228 103v6c-3 -1 -4 -4 -5 -6c1 -3 4 -6 6 -6s2 8 2 8zM245 107
l4 -3v5c0 1 -2 5 -4 6c-1 -1 -1 -2 -1 -4c-1 -1 -4 -2 -4 -2c1 -1 5 -1 5 -2zM233 85h4l1 6c-2 0 -3 1 -4 1zM242 250c2 2 3 2 3 3c0 2 2 6 1 6s-2 -1 -4 -2c0 -4 1 -4 1 -4c0 -1 -1 -2 -1 -3zM243 69c0 2 2 4 2 9c-2 0 -3 -3 -3 -6c-1 -3 -3 -6 -3 -6c2 0 2 3 4 3zM215 87
l-1 -4c3 2 5 2 5 4c2 1 3 3 3 3c0 1 -2 0 -3 -1c0 0 -3 -2 -4 -2zM281 268v-4c4 2 4 3 4 3c0 2 -1 3 -1 3c-1 0 -3 -1 -3 -2zM275 265l1 -3c0 1 3 3 3 4s-1 3 -1 3c-1 0 -3 -3 -3 -4zM249 134c0 1 0 2 -1 4c-2 -2 -2 -3 -2 -4v-4c2 2 3 3 3 4zM269 233l-4 -1v-4c1 0 3 1 3 2
zM240 140l-2 -11c1 0 2 2 2 4v7zM226 80l1 -4c1 0 2 1 3 1zM226 65v-6l2 3c0 1 -1 2 -2 3zM255 221c-3 -1 -3 -2 -4 -2l3 -1c0 1 1 2 1 3zM227 37l-5 4c-2 4 -5 1 -6 6c0 2 -1 6 -3 7s-4 6 -4 10v4c1 2 3 2 4 2c2 0 3 0 3 1s-1 2 -2 3c-3 0 -5 -1 -7 -1v6c1 1 3 1 4 1l1 4
l-3 -3c-1 2 -1 4 -1 6v4c-1 0 -1 1 -1 7l2 12v8c0 7 1 12 2 16l2 4v6l2 4c-1 2 -1 3 -1 4v5c0 2 0 4 1 5l6 20c-1 3 -1 6 -1 8l4 17c2 5 4 13 6 21l-8 -11c-10 -13 -61 -78 -76 -85c-5 -9 -10 -12 -17 -18c0 -3 -3 -3 -3 -3c-7 -6 -15 -10 -22 -15c-7 -3 -8 -6 -16 -8
c-4 -1 -8 -3 -15 -3c-9 0 -19 2 -24 7l-5 3c-4 2 -8 6 -9 7c-4 2 -4 6 -6 7l-4 9c-1 1 -1 3 -1 4c-1 6 -2 8 -2 15l-1 6v9c0 1 0 2 1 3c0 0 -1 3 -1 4c0 0 0 5 1 6v13c0 2 1 3 1 4c1 5 2 8 2 11l3 11c0 1 1 7 1 8c0 0 0 1 1 4c0 2 1 3 1 5c0 6 2 10 4 16l2 6c0 5 2 8 3 11
c2 3 3 9 3 14c21 85 54 170 86 250c-42 -3 -78 -5 -99 -5h-37c-12 0 -46 3 -55 14c-4 5 -11 12 -11 18c-1 2 -1 5 -1 7c0 5 2 9 9 9c2 0 5 0 8 -2c21 -3 37 -4 58 -5h14c33 0 80 2 129 4l26 68l7 15c2 2 4 3 6 3c8 0 16 -2 16 -12c0 -3 0 -4 4 -8v-6c-2 -15 -3 -32 -8 -42
l-5 -15c54 2 107 5 148 6c8 27 15 55 23 85c1 4 5 9 6 9c3 0 8 -3 8 -3c0 -1 9 -1 10 -3c6 -6 8 -14 8 -23v-10c0 -8 0 -16 -2 -24c-2 -11 -4 -21 -7 -31c40 -2 92 -6 117 -19c2 0 3 -2 3 -4h-5c-4 0 -9 -1 -5 -4c0 -4 -2 -5 -5 -5c-1 0 -5 1 -7 1h-42c-2 0 -4 -5 -8 -5h-16
l-27 2h-13c-43 -171 -103 -285 -132 -499l1 -11l-7 4c-1 2 -2 4 -2 6c-2 -2 -5 -5 -5 -4l-2 7c-1 -2 -2 -5 -2 -4v5zM75 118c46 24 135 143 185 208c1 9 4 17 8 24c5 12 6 29 13 39c1 1 2 5 2 7c17 50 31 93 44 135c-44 -2 -98 -6 -149 -10c-13 -37 -27 -77 -41 -111
c-32 -89 -70 -222 -71 -284c0 -5 0 -9 4 -9c1 0 3 0 5 1z" />
    <glyph glyph-name="A_t" unicode="At" horiz-adv-x="684" 
d="M561 91c9 0 39 19 40 24c0 1 -28 -21 -40 -24zM249 399c53 12 109 23 163 32l4 14c19 75 38 136 42 226l-1 18c0 1 -4 6 -5 5c-76 -37 -149 -170 -203 -295zM401 389c-45 -9 -91 -20 -140 -32l-33 -8l-15 -40c-2 -6 -5 -12 -7 -19c-31 -91 -75 -224 -84 -262
c-4 -12 -14 -31 -28 -31c-3 -1 -9 -1 -13 -1c-10 0 -22 3 -22 12c0 6 3 12 3 17l6 14c18 67 50 162 75 234l20 57c-49 -15 -101 -33 -117 -46c-3 0 -6 -3 -8 -5c-5 -4 -11 -5 -17 -6c-2 -2 -5 -3 -7 -3c-3 0 -5 3 -5 4c1 0 3 1 3 1c-11 4 -21 0 -27 9c-1 1 -2 4 -4 5
c0 4 -1 8 -1 12c0 2 2 5 2 8c8 25 177 68 202 74c57 137 144 299 257 350c5 2 8 2 14 2c11 0 16 -1 22 -12c1 -4 5 -7 10 -9c11 -11 15 -35 15 -65c0 -67 -20 -163 -31 -208c40 6 78 11 112 14c23 60 46 117 66 171l7 15c2 2 4 3 6 3c8 0 16 -2 16 -12c0 -3 0 -4 4 -8v-6
c-2 -15 -3 -32 -8 -42c-11 -36 -25 -77 -39 -117c14 1 28 2 40 2h22c20 0 39 -1 45 -13c2 -3 4 -9 7 -9c-1 -6 -7 -8 -13 -8c-5 0 -10 1 -15 1c-35 -3 -68 -5 -100 -9l-5 -13c-32 -89 -70 -222 -71 -284c0 -5 0 -9 4 -9c1 0 3 0 5 1c47 25 140 149 189 213l11 14
c3 3 4 7 6 9c3 2 4 4 4 4c5 0 10 -15 10 -22v-5c-1 -2 -2 -5 -6 -6v-12c-4 -8 -5 -4 -11 -15l-5 -5c-1 -3 -8 -10 -11 -13s-6 -6 -8 -11c-3 -1 -6 -2 -9 -5c3 0 3 2 4 2v-5l-3 -3c-3 0 -7 -1 -7 -4c4 0 4 -1 4 -1c0 -2 -3 -4 -5 -4s-3 -1 -3 -2s1 -2 1 -3c-2 0 -6 -8 -8 -10
c-3 -2 -5 -11 -9 -11c-1 1 -1 -2 -1 -3c-4 0 -5 -3 -5 -5c-2 -3 -5 -5 -8 -8c-1 -3 -5 -5 -6 -9c0 -3 -5 -3 -5 -4s-1 -3 -2 -3c-1 -3 1 -7 -4 -7c-1 -1 -6 -2 -6 -5c-1 0 -2 -1 -4 -4c-1 0 -7 -7 -7 -9l-4 -5c-5 -5 -8 -11 -14 -17c5 3 7 10 12 10c1 0 4 6 6 7
c3 3 7 7 9 11c0 2 10 9 10 8c3 3 3 6 4 9c2 1 6 3 6 4c0 2 1 3 1 3c2 3 4 5 6 9c1 -2 1 -3 1 -4c2 7 1 7 7 11l31 42c1 -1 4 10 9 10c0 1 3 8 4 9c3 1 2 4 4 6c2 3 7 5 10 7l-51 -69c-10 -13 -61 -78 -76 -85c-5 -9 -10 -12 -17 -18c0 -3 -3 -3 -3 -3c-7 -6 -15 -10 -22 -15
c-7 -3 -8 -6 -16 -8c-4 -1 -8 -3 -15 -3c-9 0 -19 2 -24 7l-5 3c-4 2 -8 6 -9 7c-4 2 -4 6 -6 7l-4 9c-1 1 -1 3 -1 4c-1 6 -2 8 -2 15l-1 6v9c0 1 0 2 1 3c0 0 -1 3 -1 4c0 0 0 5 1 6v13c0 2 1 3 1 4c1 5 2 8 2 11l3 11c0 1 1 7 1 8c0 0 0 1 1 4c0 2 1 3 1 5c0 6 2 10 4 16
l2 6c0 5 2 8 3 11c2 3 3 9 3 14c12 50 28 100 46 149c-36 -5 -71 -10 -106 -17c-18 -69 -47 -178 -63 -242l-3 -15c-2 -9 -4 -19 -7 -28c-3 -6 -6 -11 -6 -17c-2 -5 -4 -9 -4 -15c-5 -8 -7 -18 -8 -25c-4 -15 -10 -27 -13 -39l-6 -10c-2 0 -2 2 -2 7c1 8 4 14 5 19l1 3
c7 22 8 22 8 22l6 11c0 1 -6 -3 -6 -3l-2 -3l-18 -60c0 -1 -7 -12 -7 -11l-5 12c-1 -2 -2 -3 -2 -4c-1 -1 -3 -1 -3 -1c0 -3 -6 -11 -5 -11h4c1 0 2 -1 2 -3c-1 -1 -2 -3 -2 -4c0 0 0 -2 -2 -2c0 2 -3 3 -5 3c-3 -1 -5 -2 -6 -2s-3 -3 -4 -3c0 -1 0 -2 2 -3
c0 -2 -2 -2 -3 -2c-1 -2 -2 -1 -2 -4c0 -1 0 -2 -6 -2c-5 0 -9 3 -9 7l2 14c0 4 1 7 2 10c18 65 73 267 106 390zM403 209c-3 -7 -6 -16 -6 -25c0 1 -1 -2 -2 -4c1 0 3 0 3 2c1 2 2 6 2 7l20 71c-4 -8 -8 -20 -8 -21c-2 -2 -3 -5 -3 -8c-2 -2 -2 -3 -2 -5
c0 -5 -3 -13 -4 -17zM375 85c0 0 2 15 4 22c0 6 3 11 3 20c-2 -7 -10 -38 -14 -47c2 2 6 5 7 5zM317 6c3 1 5 10 8 16c0 1 -2 1 -3 1c-2 0 -11 -13 -11 -15c0 -1 -1 -3 -1 -3c1 -1 3 2 3 4l3 4c0 -1 0 -3 1 -7zM393 151c0 1 0 4 1 5c-1 0 -2 0 -3 1c1 4 4 11 5 18
c-1 1 -3 -3 -3 -5l-4 -15c0 -3 -2 -7 -2 -11l1 -3c0 1 3 8 5 10zM323 7c-3 0 -5 -1 -7 -5c0 -1 2 -5 4 -5c1 0 2 1 2 2c2 1 3 3 3 5c0 1 -1 2 -2 3zM426 326c-1 -6 -2 -9 -4 -12c5 -1 8 17 9 21c-1 2 -5 -7 -5 -9zM323 31l4 -3v5c0 1 -2 5 -4 6c-1 -1 -1 -2 -1 -4
c-1 -1 -4 -2 -4 -2c1 -1 5 -1 5 -2zM356 148l-2 -10c0 -1 -1 -2 -1 -3v-4c0 -2 0 -3 1 -3l4 20c0 1 0 2 -1 5c0 -3 0 -4 -1 -5zM429 288c-2 0 -2 -2 -3 -3c-1 -6 -3 -8 -3 -11c0 -2 1 -3 1 -3c1 0 2 5 5 17zM305 7c0 -2 -3 -12 -4 -13c0 -3 1 -3 2 -4l3 11c0 3 0 4 -1 6z
M347 41v-8c0 -3 0 -5 1 -6c0 3 1 5 1 7v9c0 1 -1 -2 -2 -2zM327 58c0 1 0 2 -1 4c-2 -2 -2 -3 -2 -4v-4c2 2 3 3 3 4zM400 164c-3 0 -4 -2 -4 -4c-1 -1 -2 -5 -2 -5s5 7 6 9zM443 354c-2 0 -2 -4 -3 -5c0 -2 1 -2 1 -3c2 2 2 6 2 8zM318 64l-2 -11c1 0 2 2 2 4v7zM393 226
c0 -2 -1 -6 -2 -9c2 2 3 4 3 6c0 1 -1 2 -1 3zM390 136c0 -3 0 -4 1 -4c0 2 2 6 2 6c-1 0 -3 -2 -3 -2z" />
    <glyph glyph-name="A_t_t" unicode="Att" horiz-adv-x="823" 
d="M613 126c10 5 21 17 30 28c0 0 2 2 3 4c1 1 1 3 3 3c3 3 7 7 9 11c0 2 10 9 10 8c3 3 3 6 4 9c2 1 6 3 6 4c0 2 1 3 1 3c2 3 4 5 6 9c1 -2 1 -3 1 -4c2 7 1 7 7 11l12 17l1 5c-3 -2 -5 -11 -9 -11c-1 1 -1 -2 -1 -3c-4 0 -5 -3 -5 -5c-2 -3 -5 -5 -8 -8
c-1 -3 -5 -5 -6 -9c0 -3 -5 -3 -5 -4s-1 -3 -2 -3c-1 -3 1 -7 -4 -7c-1 -1 -6 -2 -6 -5c-1 0 -2 -1 -4 -4c-1 0 -7 -7 -7 -9l-16 -18c-1 -1 -20 -22 -20 -22zM714 233c1 0 2 3 3 7l-7 -9c-1 -5 -1 -9 -1 -9l-2 -8c-4 -13 -8 -36 -9 -47l4 13c4 13 5 21 9 39c0 2 1 4 2 5
c0 2 -1 5 -1 7c0 1 0 2 2 2zM688 97l1 -5c1 0 2 1 2 2c-1 1 -1 4 -1 8c3 18 4 35 7 53v5c0 1 0 2 -2 2c-1 -4 -1 -7 -1 -10c-1 -9 -4 -27 -4 -41v-4l-2 -6v-4zM565 91c7 2 35 21 35 24c0 0 -15 -11 -27 -18h-4c-3 0 -7 -2 -9 -6h5zM703 103v6c-3 -1 -4 -4 -5 -6
c1 -3 4 -6 6 -6s2 8 2 8zM720 107l4 -3v5c0 1 -2 5 -4 6c-1 -1 -1 -2 -1 -4c-1 -1 -4 -2 -4 -2c1 -1 5 -1 5 -2zM653 166l-6 -6c-1 -3 -3 -5 -4 -6c-5 0 -7 -7 -12 -10l11 13c1 2 8 9 11 9zM708 85h4l1 6c-2 0 -3 1 -4 1zM718 69c0 2 2 4 2 9c-2 0 -3 -3 -3 -6
c-1 -3 -3 -6 -3 -6c2 0 2 3 4 3zM690 87l-1 -4c3 2 5 2 5 4c2 1 3 3 3 3c0 1 -2 0 -3 -1c0 0 -3 -2 -4 -2zM756 268v-4c4 2 4 3 4 3c0 2 -1 3 -1 3c-1 0 -3 -1 -3 -2zM750 265l1 -3c0 1 3 3 3 4s-1 3 -1 3c-1 0 -3 -3 -3 -4zM724 134c0 1 0 2 -1 4c-2 -2 -2 -3 -2 -4v-4
c2 2 3 3 3 4zM744 233l-4 -1v-4c1 0 3 1 3 2zM573 97c-5 -3 -8 -5 -8 -6c3 2 9 6 8 6zM715 140l-2 -11c1 0 2 2 2 4v7zM717 254c2 0 2 -1 3 -1l-1 4c-2 0 -2 -2 -2 -3zM701 65v-6l2 3c0 1 -1 2 -2 3zM701 80l1 -4c1 0 2 1 3 1zM588 110c-1 0 -2 1 -2 2v-5s1 0 2 3zM730 221
c-3 -1 -3 -2 -4 -2l3 -1c0 1 1 2 1 3zM758 396l15 44c-52 -2 -102 -6 -151 -11c-2 -7 -5 -13 -7 -19c-32 -89 -70 -222 -71 -284c0 -5 0 -9 4 -9c1 0 3 0 5 1c43 23 125 129 176 196l6 12c1 9 4 17 8 24c5 12 6 29 13 39c1 1 2 5 2 7zM249 402c52 13 107 24 164 34
c0 3 1 6 2 9c19 75 38 136 42 226l-1 18c0 1 -4 6 -5 5c-75 -37 -148 -168 -202 -292zM402 394c-62 -13 -120 -27 -173 -42l-17 -43c-2 -6 -5 -12 -7 -19c-31 -91 -75 -224 -84 -262c-4 -12 -14 -31 -28 -31c-3 -1 -9 -1 -13 -1c-10 0 -22 3 -22 12c0 6 3 12 3 17l6 14
c18 67 50 162 75 234l21 59c-41 -13 -103 -37 -117 -46c-2 -1 -5 -4 -8 -5c-5 -4 -11 -6 -17 -6c-1 -3 -4 -4 -6 -4s-3 1 -3 5c-11 4 -21 -1 -27 7c-1 1 -2 4 -4 5c0 4 -1 9 -1 13c0 1 1 4 2 7c2 9 22 20 46 28c47 17 99 34 156 50c57 136 144 297 256 347c5 2 8 2 14 2
c11 0 16 -1 22 -12c1 -4 5 -7 10 -9c11 -11 15 -35 15 -65c0 -65 -19 -156 -30 -203l113 15c22 57 45 113 64 165l7 15c2 2 4 3 6 3c8 0 16 -2 16 -12c0 -3 0 -4 4 -8v-6c-2 -15 -3 -32 -8 -42c-10 -34 -23 -72 -37 -110c49 5 99 8 149 10c19 60 35 113 51 176c1 4 5 9 6 9
c3 0 8 -3 8 -3c0 -1 9 -1 10 -3c6 -6 8 -14 8 -23v-10c0 -8 0 -16 -2 -24c-8 -38 -28 -121 -30 -121c24 -1 55 0 62 -17l6 -14c-1 -4 -4 -6 -9 -6c-7 0 -15 3 -19 3c-12 1 -18 1 -25 1c-6 0 -12 0 -26 -2c-38 -126 -82 -234 -106 -408l1 -11l-7 4c-1 2 -2 4 -2 6
c-2 -2 -5 -5 -5 -4l-2 7c-1 -2 -2 -5 -2 -4v5l-5 4c-2 4 -5 1 -6 6c0 2 -1 6 -3 7s-4 6 -4 10v4c1 2 3 2 4 2c2 0 3 0 3 1s-1 2 -2 3c-3 0 -5 -1 -7 -1v6c1 1 3 1 4 1l1 4l-3 -3c-1 2 -1 4 -1 6v4c-1 0 -1 1 -1 7l2 12v8c0 7 1 12 2 16l2 4v6l2 4c-1 2 -1 3 -1 4v5
c0 2 0 4 1 5l6 20c-1 3 -1 6 -1 8l4 17c2 4 3 9 5 15l-4 -5c-10 -13 -61 -78 -76 -85c-5 -9 -10 -12 -17 -18c0 -3 -3 -3 -3 -3c-7 -6 -15 -10 -22 -15c-7 -3 -8 -6 -16 -8c-4 -1 -8 -3 -15 -3c-9 0 -19 2 -24 7l-5 3c-4 2 -8 6 -9 7c-4 2 -4 6 -6 7l-4 9c-1 1 -1 3 -1 4
c-1 6 -2 8 -2 15l-1 6v9c0 1 0 2 1 3c0 0 -1 3 -1 4c0 0 0 5 1 6v13c0 2 1 3 1 4c1 5 2 8 2 11l3 11c0 1 1 7 1 8c0 0 0 1 1 4c0 2 1 3 1 5c0 6 2 10 4 16l2 6c0 5 2 8 3 11c2 3 3 9 3 14c13 52 30 104 49 154c-37 -5 -72 -11 -107 -17c-18 -69 -48 -183 -64 -247l-3 -15
c-2 -9 -4 -19 -7 -28c-3 -6 -6 -11 -6 -17c-2 -5 -4 -9 -4 -15c-5 -8 -7 -18 -8 -25c-4 -15 -10 -27 -13 -39l-6 -10c-2 0 -2 2 -2 7c1 8 4 14 5 19l1 3c7 22 8 22 8 22l6 11c0 1 -6 -3 -6 -3l-2 -3l-18 -60c0 -1 -7 -12 -7 -11l-5 12c-1 -2 -2 -3 -2 -4c-1 -1 -3 -1 -3 -1
c0 -3 -6 -11 -5 -11h4c1 0 2 -1 2 -3c-1 -1 -2 -3 -2 -4c0 0 0 -2 -2 -2c0 2 -3 3 -5 3c-3 -1 -5 -2 -6 -2s-3 -3 -4 -3c0 -1 0 -2 2 -3c0 -2 -2 -2 -3 -2c-1 -2 -2 -1 -2 -4c0 -1 0 -2 -6 -2c-5 0 -9 3 -9 7l2 14c0 4 1 7 2 10c18 65 74 272 107 395zM403 209
c-3 -7 -6 -16 -6 -25c0 1 -1 -2 -2 -4c1 0 3 0 3 2c1 2 2 6 2 7l20 71c-4 -8 -8 -20 -8 -21c-2 -2 -3 -5 -3 -8c-2 -2 -2 -3 -2 -5c0 -5 -3 -13 -4 -17zM375 85c0 0 2 15 4 22c0 6 3 11 3 20c-2 -7 -10 -38 -14 -47c2 2 6 5 7 5zM317 6c3 1 5 10 8 16c0 1 -2 1 -3 1
c-2 0 -11 -13 -11 -15c0 -1 -1 -3 -1 -3c1 -1 3 2 3 4l3 4c0 -1 0 -3 1 -7zM393 151c0 1 0 4 1 5c-1 0 -2 0 -3 1c1 4 4 11 5 18c-1 1 -3 -3 -3 -5l-4 -15c0 -3 -2 -7 -2 -11l1 -3c0 1 3 8 5 10zM323 7c-3 0 -5 -1 -7 -5c0 -1 2 -5 4 -5c1 0 2 1 2 2c2 1 3 3 3 5
c0 1 -1 2 -2 3zM426 326c-1 -6 -2 -9 -4 -12c5 -1 8 17 9 21c-1 2 -5 -7 -5 -9zM323 31l4 -3v5c0 1 -2 5 -4 6c-1 -1 -1 -2 -1 -4c-1 -1 -4 -2 -4 -2c1 -1 5 -1 5 -2zM356 148l-2 -10c0 -1 -1 -2 -1 -3v-4c0 -2 0 -3 1 -3l4 20c0 1 0 2 -1 5c0 -3 0 -4 -1 -5zM429 288
c-2 0 -2 -2 -3 -3c-1 -6 -3 -8 -3 -11c0 -2 1 -3 1 -3c1 0 2 5 5 17zM305 7c0 -2 -3 -12 -4 -13c0 -3 1 -3 2 -4l3 11c0 3 0 4 -1 6zM347 41v-8c0 -3 0 -5 1 -6c0 3 1 5 1 7v9c0 1 -1 -2 -2 -2zM327 58c0 1 0 2 -1 4c-2 -2 -2 -3 -2 -4v-4c2 2 3 3 3 4zM400 164
c-3 0 -4 -2 -4 -4c-1 -1 -2 -5 -2 -5s5 7 6 9zM443 354c-2 0 -2 -4 -3 -5c0 -2 1 -2 1 -3c2 2 2 6 2 8zM318 64l-2 -11c1 0 2 2 2 4v7zM393 226c0 -2 -1 -6 -2 -9c2 2 3 4 3 6c0 1 -1 2 -1 3zM390 136c0 -3 0 -4 1 -4c0 2 2 6 2 6c-1 0 -3 -2 -3 -2z" />
    <glyph glyph-name="mu" unicode="&#x3c;&#x33;" horiz-adv-x="338" 
d="M208 259c-4 -4 -7 -11 -14 -12c-1 0 -2 -1 -3 -1c-1 -1 -3 -1 -4 -1h-20c-2 0 -4 -1 -5 -1c-12 0 -14 21 -14 30c0 19 0 36 3 52c2 25 6 48 11 74v26c-4 0 -10 -5 -10 -5c-16 -15 -27 -32 -34 -52l-12 -43c-2 -10 -3 -19 -4 -30c0 -5 -1 -10 -1 -15c0 -7 1 -15 2 -23
c1 -14 3 -28 6 -42c0 -1 1 -3 1 -4c5 -20 9 -42 20 -61c5 -12 14 -24 21 -35c0 -1 2 -1 3 -3c2 -2 2 -5 4 -8c0 -1 4 10 5 13c5 10 10 19 16 27c13 23 29 45 46 65l44 52c16 21 42 55 44 82v12c-2 9 -8 14 -15 14c-13 0 -32 -14 -40 -23l-11 -14c1 2 3 4 3 6c1 1 1 3 2 3
c-1 0 -2 -1 -2 -3c-3 -5 -7 -10 -11 -16c1 0 -2 -8 -5 -11l-16 -32c-4 -6 -7 -12 -10 -21zM301 258l-17 -21c1 -3 11 13 13 15c1 1 1 2 1 3c1 1 3 2 3 3zM347 327v4s-4 -5 -4 -8c0 -8 -4 -11 -6 -14l-2 -8c-5 -3 -7 -7 -10 -12c0 -6 -13 -17 -16 -23c1 4 2 6 4 7l2 5l-4 -5
c-4 -3 -9 -5 -12 -9c-1 0 2 -2 2 -3c0 0 -3 -1 -3 -2c4 0 7 3 9 5l1 2l1 1l-1 -1v-2l-16 -20c-7 -10 -16 -21 -23 -32l9 8c0 5 8 11 11 13c-2 -4 -2 -8 -6 -10c-4 -3 -5 -7 -7 -9c3 0 3 2 5 2c0 0 -8 -6 -9 -10c-3 -9 -8 -12 -13 -20c-5 -7 -9 -15 -15 -21l-23 -34
c-4 -5 -6 -10 -10 -15c0 -2 -2 -3 -2 -5c-2 -2 -3 -8 -6 -8c0 0 -2 -1 -2 -3c0 -1 1 -4 1 -5h-5l-11 4c-2 0 -2 -2 -2 -3c1 0 2 -1 2 -2c-1 0 -2 1 -3 1h-4c-2 0 -3 0 -3 -1c-1 -1 -3 -1 -5 -1c0 -7 1 -12 2 -17c0 -3 1 -7 1 -10c-3 -8 -11 -14 -20 -14c-7 0 -23 7 -29 10
c-3 2 -6 5 -8 9c-46 50 -69 132 -69 199c0 50 15 104 45 144c12 20 36 41 61 41c5 0 10 0 15 -2l18 -2c16 -3 22 -11 24 -26c1 -5 2 -11 2 -16c0 -8 -1 -17 -2 -24c-2 -17 -5 -34 -8 -52c8 10 15 19 23 27c17 14 34 28 58 31c4 1 8 1 13 1c6 0 13 -1 19 -3
c9 -1 16 -6 25 -11c1 0 1 -2 1 -3c1 -1 3 -2 3 -2c4 -4 10 -18 11 -24c0 -1 0 -2 -1 -4c0 2 -2 2 -2 3l-1 2v-2c0 -5 1 -9 1 -13c-2 2 -2 4 -3 5v-4c0 -3 0 -5 -3 -9z" />
    <glyph glyph-name="quoteright_m" unicode="&#x27;m" horiz-adv-x="479" 
d="M176 590c0 -36 -71 -122 -87 -122c-6 2 -7 12 -7 15c0 2 -2 5 -4 6c17 28 54 102 60 121c1 3 4 4 7 4c14 0 31 -10 31 -24zM377 122c10 -1 44 51 54 61c28 38 68 96 119 167c0 -1 -2 -7 -6 -16l-4 -6h9l-7 -10l9 -2l-16 -22l11 10v-9l-8 -19c-1 -2 0 -4 -5 -4l-4 2
c-1 -3 -1 -4 -1 -6l-7 -19c-3 -4 -6 -7 -9 -12c-13 -19 -29 -43 -45 -65c-2 -2 -11 -2 -16 -25c-1 2 -1 5 -1 5s-3 -4 -5 -4l3 -2c-11 -17 -51 -58 -78 -58c-5 0 -9 1 -13 4c0 0 0 3 2 3c0 -1 -1 6 -4 6h-5c0 -1 4 -6 5 -6c-1 -1 -2 -2 -3 -2s-1 1 -3 3
c-20 10 -22 36 -22 60c0 75 56 218 56 254c-28 -16 -60 -44 -71 -63l-5 -10c0 1 -2 2 -3 2c0 0 0 -3 -1 -3s-4 -4 -4 -6c0 -1 -2 -2 -3 -2l-2 -3c0 -2 -2 -2 -2 -5c0 -2 -3 -5 -3 -7c0 0 -1 -3 -3 -6c-1 -1 -3 -1 -3 -2c0 0 -1 -5 -1 -7c0 0 0 -2 -3 -2c-1 -2 -4 -6 -4 -6
c-1 -4 -1 -6 -3 -9c0 -3 0 -5 -3 -5c-4 -2 -4 -5 -6 -7c0 -3 -4 -4 -4 -7c-4 -5 -6 -8 -6 -13c-2 -3 -2 -5 -4 -7l-1 -3c-3 -2 -3 -4 -6 -4c2 -2 2 -7 2 -7c0 -1 -3 -2 -3 -3c0 0 -1 -8 -3 -10c-1 -2 -2 -2 -3 -2c0 -3 -2 -5 -2 -7c0 -1 -1 -3 -1 -4c-1 0 -3 -6 -3 -8
s-1 -12 -5 -16l-13 -41c-1 -7 -11 -34 -14 -38c-2 1 -4 1 -5 1c-5 0 -11 -5 -17 -5c-2 0 -4 0 -6 2c-4 4 -2 5 -7 7c-2 0 -5 2 -7 6v4c0 16 16 55 20 72c11 44 26 110 26 161c0 16 -1 26 -4 38c-42 -24 -89 -97 -113 -164c-8 -24 -13 -66 -28 -86c-3 -1 -3 -5 -5 -5
c-1 -4 0 -12 -3 -14c0 -2 -3 -2 -3 -2c-3 -3 -5 -6 -8 -6c-2 0 -12 1 -16 4c0 0 -3 1 -5 1s-5 2 -6 4c0 1 -2 14 -3 21c1 5 1 12 5 20c11 76 47 161 57 220c3 14 7 30 9 45c0 4 1 5 5 5l17 -2c11 -3 18 -12 18 -26v-16c-3 -17 -4 -24 -8 -37c10 16 46 64 81 64
c18 0 28 -9 35 -16c17 -15 17 -42 17 -66v-6c0 -2 2 -2 3 -2c21 46 69 107 122 115c3 1 4 1 6 1c3 0 6 -1 10 -1h4c11 -1 29 -17 33 -27c1 -3 1 -5 1 -6c0 -18 0 -32 -5 -50c0 -1 -2 -11 -2 -12c0 -6 -3 -3 -5 -11c1 -1 1 -3 1 -4c0 -5 -4 -10 -4 -10v-6c0 -9 -4 -15 -6 -24
v-5c-3 -6 -6 -19 -6 -21l-2 -8c0 -9 -4 -16 -4 -26l-4 -10c0 -2 1 -2 1 -6c0 -14 -6 -21 -6 -31c0 -3 -4 -21 -4 -21c-1 0 -2 -5 -2 -6c1 0 1 -1 1 -3c0 -7 -1 -14 -1 -17v-5c0 -2 1 -4 3 -5zM391 252v6c0 3 3 8 3 11c0 1 7 29 6 29l1 6c-4 -5 -25 -108 -27 -120
c-2 -2 -2 -10 -2 -16l-1 -3c0 -2 -1 -5 -1 -9v-12l3 20c2 10 6 34 11 57v5c0 1 2 2 2 3c0 5 1 10 3 15c2 3 1 5 2 8zM373 201c0 1 0 2 1 3c11 53 11 51 11 51c2 4 2 10 3 12c-2 -1 -4 -2 -4 -4c0 -5 -3 -10 -3 -10c-4 -1 -9 -3 -9 -9s-3 -8 -3 -14c0 -2 0 -4 1 -5
c1 1 1 2 1 4s2 3 3 5c0 2 -1 4 -1 5c0 0 5 2 5 7c1 0 3 2 3 1l-2 -10c-1 1 -1 2 -1 3c-1 0 -2 -2 -2 -5c0 -2 0 -3 1 -5l-1 -8c-3 -11 -3 -12 -3 -12v-4c0 -3 -1 -4 -1 -4c-1 -2 -1 -4 -1 -7c1 1 2 2 2 6zM535 269l-8 -11c1 3 4 12 4 13zM460 177c4 5 4 7 5 9l5 8
c-5 -6 -10 -11 -10 -17z" />
    <glyph glyph-name="quoteright_l" unicode="&#x27;l" horiz-adv-x="193" 
d="M93 570c0 -36 -71 -122 -87 -122c-6 2 -7 12 -7 15c0 2 -2 5 -4 6c17 28 54 102 60 121c1 3 4 4 7 4c14 0 31 -10 31 -24zM253 319l-3 -5c0 -2 0 -4 1 -4s3 2 8 9c0 -1 -1 -6 -1 -6c1 -1 -29 -44 -29 -45s28 39 29 37v-9c2 0 5 5 5 3c0 -1 -2 -5 -9 -17
c-7 -10 -19 -32 -31 -35c2 -1 3 -2 5 -2c1 2 3 5 5 5c-23 -37 -131 -191 -166 -191c-7 0 -24 3 -28 7c-12 12 -15 41 -17 49c0 3 1 6 3 10c0 -2 0 -4 1 -6c2 3 2 7 2 11c-1 0 -3 0 -4 -1c-1 3 -2 3 -2 6s1 5 1 12v6c1 8 0 14 3 27c0 0 -3 4 -3 7c-1 -2 -1 -3 -1 -4
c-2 -14 -3 -25 -3 -41v-19c1 -22 7 -45 17 -59c-12 0 -21 36 -22 65v12c0 44 15 92 26 128c27 89 84 233 123 354c3 5 4 8 10 8c3 0 5 -2 6 -5c7 -3 10 -10 10 -17c2 -3 2 -6 2 -9c0 -4 -3 -16 -4 -19c-17 -76 -33 -123 -60 -201c-24 -66 -71 -197 -71 -271v-7
c0 -4 1 -9 4 -9c1 0 3 1 5 2c55 42 154 197 178 227c4 6 6 10 12 11l-4 -6zM29 192c0 2 4 13 4 19c0 1 0 3 -1 3c0 3 1 6 2 5c0 3 1 3 1 3c0 2 2 4 2 6c0 1 -1 2 -3 5c-1 -6 -7 -26 -5 -23c0 -3 0 -11 -3 -13v-4s1 -1 3 -1zM50 274l2 15c-4 -6 -5 -13 -7 -21l4 2
c1 0 1 4 1 4zM64 225c0 -3 1 -7 1 -14c1 1 2 2 2 3v4c0 2 1 7 2 10c-2 -2 -3 -3 -5 -3zM76 263c0 0 -2 -7 -5 -8h7l-2 3l2 6c1 1 2 3 2 6c-3 -1 -3 -4 -4 -7zM97 91c-1 -1 -2 -3 -2 -5l-8 -8c2 0 7 6 9 7c0 2 4 6 6 8c-1 0 -2 -1 -5 -2zM42 250c-2 -1 -4 -3 -4 -6
c0 -2 1 -4 2 -5c0 3 2 7 2 11zM30 109l-2 -11c0 -1 0 -2 1 -3l2 5c0 3 -1 6 -1 9zM45 262c-2 0 -3 -1 -3 -3c0 -1 0 -3 1 -3c2 2 2 4 2 6zM68 244l2 8s-3 -1 -3 -4zM125 145c-2 -1 -3 -3 -4 -4c1 1 3 2 4 2c0 2 2 3 2 5c0 1 -2 -1 -2 -3z" />
    <glyph glyph-name="quoteright_t" unicode="&#x27;t" horiz-adv-x="189" 
d="M97 498c-11 -3 -22 -3 -34 -4c-13 0 -44 11 -44 41c1 7 4 11 9 11c1 0 2 -1 4 -2c5 -2 9 -2 13 -2h7c4 0 7 1 12 1c21 3 45 6 70 9c10 25 19 50 28 74l7 15c2 2 4 3 6 3c8 0 16 -2 16 -12c0 -3 0 -4 4 -8v-6c-2 -15 -3 -32 -8 -42c-2 -7 -4 -13 -6 -20c16 1 31 2 45 2
c23 0 45 -2 69 -6c9 -2 23 -7 27 -16l2 -4c0 -3 -1 -8 -1 -12c2 0 6 -6 7 -6c-1 0 -10 2 -12 2c-13 0 -21 0 -33 2h-16c-7 0 -16 -1 -24 -1c-18 -2 -39 -3 -59 -6c-6 -1 -11 -2 -18 -2c-1 -1 -2 -1 -3 -1c-11 -33 -24 -68 -36 -98c-32 -89 -70 -222 -71 -284c0 -5 0 -9 4 -9
c1 0 3 0 5 1c47 25 140 149 189 213l11 14c3 3 4 7 6 9c3 2 4 4 4 4c5 0 10 -15 10 -22v-5c-1 -2 -2 -5 -6 -6v-12c-4 -8 -5 -4 -11 -15l-5 -5c-1 -3 -8 -10 -11 -13s-6 -6 -8 -11c-3 -1 -6 -2 -9 -5c3 0 3 2 4 2v-5l-3 -3c-3 0 -7 -1 -7 -4c4 0 4 -1 4 -1c0 -2 -3 -4 -5 -4
s-3 -1 -3 -2s1 -2 1 -3c-2 0 -6 -8 -8 -10c-3 -2 -5 -11 -9 -11c-1 1 -1 -2 -1 -3c-4 0 -5 -3 -5 -5c-2 -3 -5 -5 -8 -8c-1 -3 -5 -5 -6 -9c0 -3 -5 -3 -5 -4s-1 -3 -2 -3c-1 -3 1 -7 -4 -7c-1 -1 -6 -2 -6 -5c-1 0 -2 -1 -4 -4c-1 0 -7 -7 -7 -9l-4 -5
c-5 -5 -8 -11 -14 -17c5 3 7 10 12 10c1 0 4 6 6 7c3 3 7 7 9 11c0 2 10 9 10 8c3 3 3 6 4 9c2 1 6 3 6 4c0 2 1 3 1 3c2 3 4 5 6 9c1 -2 1 -3 1 -4c2 7 1 7 7 11l31 42c1 -1 4 10 9 10c0 1 3 8 4 9c3 1 2 4 4 6c2 3 7 5 10 7l-51 -69c-10 -13 -61 -78 -76 -85
c-5 -9 -10 -12 -17 -18c0 -3 -3 -3 -3 -3c-7 -6 -15 -10 -22 -15c-7 -3 -8 -6 -16 -8c-4 -1 -8 -3 -15 -3c-9 0 -19 2 -24 7l-5 3c-4 2 -8 6 -9 7c-4 2 -4 6 -6 7l-4 9c-1 1 -1 3 -1 4c-1 6 -2 8 -2 15l-1 6v9c0 1 0 2 1 3c0 0 -1 3 -1 4c0 0 0 5 1 6v13c0 2 1 3 1 4
c1 5 2 8 2 11l3 11c0 1 1 7 1 8c0 0 0 1 1 4c0 2 1 3 1 5c0 6 2 10 4 16l2 6c0 5 2 8 3 11c2 3 3 9 3 14c20 79 49 158 79 232c-6 -1 -11 -1 -17 -2zM-31 594c14 0 31 -10 31 -24c0 -36 -71 -122 -87 -122c-6 2 -7 12 -7 15c0 2 -2 5 -4 6c17 28 54 102 60 121c1 3 4 4 7 4z
M74 91c9 0 39 19 40 24c0 1 -28 -21 -40 -24z" />
    <glyph glyph-name="quoteright_s" unicode="&#x27;s" horiz-adv-x="218" 
d="M104 570c0 -36 -71 -122 -87 -122c-6 2 -7 12 -7 15c0 2 -2 5 -4 6c17 28 54 102 60 121c1 3 4 4 7 4c14 0 31 -10 31 -24zM5 114c3 5 11 14 11 19c0 6 22 26 26 29c-4 -6 -18 -19 -18 -23c4 5 16 17 17 18c3 0 1 1 3 1c0 1 1 4 1 4c0 1 0 2 1 3l3 4c7 7 36 30 43 35
l-4 8c-21 43 -41 86 -41 131c0 73 70 123 130 123c2 0 15 -6 15 -6l14 -1c20 0 22 -37 22 -54v-4c0 -18 -8 -38 -18 -47c-1 0 -3 2 -4 2c0 0 -13 -7 -20 -7c-5 2 -11 4 -11 7c0 5 14 46 14 65c-1 7 -3 7 -5 7h-4c-38 0 -86 -35 -86 -80c0 -33 29 -93 40 -116
c51 31 135 75 166 103c0 0 -3 -4 -4 -6c-11 -13 -31 -26 -35 -27c10 0 18 11 34 21c-6 -8 -13 -12 -13 -13l-6 -6c-1 -1 14 11 20 11c-8 -4 -13 -13 -24 -22c9 0 25 12 27 15c-1 -14 -41 -29 -39 -32c-6 0 -16 -6 -20 -13c14 0 15 11 18 11c11 0 19 9 26 12
c0 -5 -23 -19 -41 -30l-96 -56c4 -11 6 -17 8 -35c1 -5 1 -9 1 -14c0 -69 -63 -107 -102 -107h-6c-27 2 -50 18 -50 38c0 13 1 21 7 32zM34 85c4 -3 10 -3 15 -3c34 2 58 35 58 69c0 6 0 12 -2 18c-26 -18 -72 -69 -72 -78c0 -2 0 -4 1 -6zM144 198l-1 -4c6 -19 7 -33 7 -46
c0 -4 -1 -8 -1 -11c-1 -9 -3 -16 -6 -22l-1 -5c5 9 10 24 10 42c0 12 -2 29 -8 46zM127 229l3 2c-3 5 -10 18 -12 23c2 -6 6 -21 9 -25zM118 223l-7 15c0 -2 1 -6 2 -10zM127 140l-6 -4c0 -1 3 -3 4 -3c1 1 2 6 2 7zM139 105c-2 -4 -6 -11 -5 -11s2 1 3 4c2 2 2 6 2 7z
M72 319v8c-1 -2 -3 -3 -3 -5c0 -1 2 -2 3 -3zM118 88v9c-1 -2 -2 -4 -2 -5c0 0 1 -1 2 -4zM126 105l2 5c-2 -3 -5 -9 -5 -13c3 5 3 7 3 8z" />
    <glyph glyph-name="quoteright_d" unicode="&#x27;d" horiz-adv-x="281" 
d="M150 98c0 -5 1 -9 2 -9c30 3 165 213 198 255c1 1 2 1 4 1l-1 -8c0 -1 -1 -7 -1 -9c3 3 8 12 8 11c0 -7 -5 -15 -9 -21c7 5 12 7 12 7c0 -6 -5 -15 -5 -16l-2 -8c0 -3 -6 -11 -7 -13l-31 -50c0 -1 -1 -2 -2 -3l-4 -6c-6 -11 -13 -18 -14 -20l-2 -3c0 -1 -7 -12 -8 -13
c-3 0 -6 -9 -7 -10c-6 -10 -28 -40 -33 -48l-5 -6c-3 0 -9 -3 -9 -7c-1 -1 -3 -3 -3 -4s0 -3 -1 -3c-2 -5 -11 -12 -12 -12c0 5 2 7 2 9c0 1 8 8 7 9l-8 -6c0 -4 -1 -4 -2 -4c-1 -2 -2 -3 -2 -4c0 -4 0 -8 2 -8c-13 -17 -39 -42 -61 -42c-42 0 -50 39 -50 73v12
c1 31 9 60 12 75l-31 -38c-18 -23 -22 -22 -32 -32c-7 -6 -12 -8 -24 -8c-2 -1 -3 -1 -5 -1c-7 0 -32 22 -32 31c0 82 66 197 144 228h13c3 0 16 -6 20 -7c22 57 70 162 83 198l16 43c0 5 5 5 10 5c7 0 20 -10 20 -24l-1 -9c-6 -54 -71 -188 -98 -277c0 -1 -4 -9 -4 -11
c-19 -63 -38 -135 -46 -199c0 -2 -1 -11 -1 -18zM114 594c14 0 31 -10 31 -24c0 -36 -71 -122 -87 -122c-6 2 -7 12 -7 15c0 2 -2 5 -4 6c17 28 54 102 60 121c1 3 4 4 7 4zM35 177c5 -1 104 126 123 179c-17 0 -90 -71 -124 -176c0 -1 0 -3 1 -3zM174 251c0 2 0 5 2 6
l12 41l-7 -10c0 -5 -1 -15 -4 -18l-4 -16c-1 -5 -5 -23 -10 -24l3 -6c-4 -5 -9 -28 -9 -39c5 21 9 37 15 56c0 2 2 5 2 6v4zM161 234c5 12 7 22 11 32l-5 -1l2 -4c-4 -2 -8 -22 -8 -27zM42 216c0 2 4 10 8 17c-5 1 -9 -14 -9 -15s0 -3 1 -2zM99 312c1 1 3 4 3 5l4 4
c1 1 2 3 3 3c2 2 8 7 8 7c-2 -1 -6 -2 -8 -4c0 0 -1 -2 -3 -2c-3 -3 -9 -14 -7 -13zM337 286c0 -2 -1 -3 -2 -6l-3 -7c7 8 7 9 7 9l2 3v4l5 8zM198 341c1 0 3 1 3 2l4 13c-3 -2 -5 -5 -6 -8c0 -2 -1 -4 -1 -7zM311 263c0 2 0 4 1 6l-10 -14c-1 -1 -2 -2 -2 -3c2 0 4 2 6 4z
M117 346c-3 0 -9 -3 -10 -5l9 1zM137 140c-1 1 -4 -3 -5 -3h-5c2 -2 2 -4 3 -5l2 5c1 -3 2 -3 2 -3c0 -1 3 6 3 6zM114 159c0 -2 1 -4 1 -5c0 -2 -1 -5 -1 -5s3 3 3 5c0 0 0 2 -2 3c1 0 1 1 3 5c-2 0 -3 -1 -4 -3zM194 325c0 4 3 6 4 9l-4 1l-2 -7s2 -1 2 -3zM210 364l3 10
l-5 -1zM219 390h-4l-1 -4l4 1zM74 288c-2 -1 -4 -2 -4 -3l-2 -6zM120 110c0 2 2 4 3 6c-1 0 -4 -2 -4 -3s0 -2 1 -3zM152 172c0 1 0 3 -1 4l-1 -7c1 1 2 2 2 3zM202 370c0 2 0 3 1 3l3 5l-5 -5c0 -1 1 -2 1 -3z" />
    <glyph glyph-name="quoteright_r" unicode="&#x27;r" horiz-adv-x="183" 
d="M23 103c4 5 7 5 7 10l2 5c1 0 1 1 1 4c-3 -1 -4 -7 -6 -10c0 -5 -3 -4 -6 -9v-4c2 2 2 4 2 4zM160 366c4 4 8 7 12 13c-4 -1 -11 -9 -12 -13zM20 88c1 -1 6 5 9 6l2 4c-3 0 -7 -3 -9 -4c-1 -2 -2 -5 -2 -6zM28 91l-5 -4c0 -1 -1 -3 -2 -4c0 0 6 2 7 4v4zM141 364
c-4 0 -5 -1 -5 -3c-2 0 -4 -4 -4 -4s7 6 9 7zM114 312l6 3c0 2 1 6 1 8c-1 0 -2 -6 -3 -7zM23 132c-1 -6 -2 -11 -2 -17l3 7l2 8c0 1 -2 2 -3 2zM37 200l1 4c-2 0 -4 -1 -4 -3c-1 -1 3 -1 3 -1zM20 76l-7 2c0 1 1 2 1 3h-7s-8 0 -8 3c-3 0 -3 9 -3 11s0 3 1 4c0 3 0 5 2 11
l2 18c1 3 0 4 2 5l3 14c17 88 36 149 58 240c1 5 5 10 5 18c0 7 9 10 14 10s15 -7 20 -11c6 -6 8 -9 8 -17l-11 -49c25 33 89 82 120 82c4 0 6 -6 6 -12c0 -3 -2 -5 -4 -5c-7 -1 -17 -14 -21 -16c-4 0 -6 -2 -6 -4l-8 -7c-3 0 -7 -3 -7 -6l-23 -25c-3 -4 -8 -7 -9 -9
c-6 -5 -8 -10 -13 -15c0 0 0 -2 -3 -2c-1 -3 -4 -6 -4 -9c-3 -2 -5 -7 -5 -9c-2 -2 -4 -2 -4 -4c0 0 0 -1 -1 -4l-3 -2c0 -2 -2 -3 -2 -5c1 -1 -5 -2 -5 -3c0 -2 -1 -4 -1 -6c-3 -2 -5 -9 -5 -11c-4 -5 -8 -8 -14 -19c0 1 -2 3 -2 2c0 -2 0 -3 1 -3c0 -3 -1 -3 -3 -3
c0 -2 -1 -4 -1 -5v-4c-1 -5 -2 -1 -2 -6c-3 0 -3 -2 -5 -5c0 3 0 4 1 4c0 2 1 4 1 4c0 -1 -2 2 -3 2c0 0 -1 -1 1 3c0 2 1 4 1 5c2 2 2 3 2 5c-3 0 -7 -11 -8 -12c0 0 -2 -6 -2 -8c-2 0 -2 -3 -2 -5c-1 -3 -5 -12 -5 -14c0 -1 3 9 7 11c1 5 2 8 3 8c0 2 0 5 2 5
c0 0 -1 -9 -2 -13l4 3c-1 -4 -3 -5 -5 -6v-5s0 -3 -3 -3c-1 -5 -2 -7 -3 -7s-1 4 -1 4c-5 -2 -7 -6 -7 -11l-1 -6c3 6 3 9 3 11c3 0 3 -1 3 -2c0 0 0 -3 -3 -6c0 -1 -1 -2 -1 -3s1 -2 2 -2c0 0 -1 -3 -2 -2l-7 -12c0 -3 0 -6 -2 -8v-7c-3 -3 -3 -6 -4 -9c0 0 -1 -15 -4 -15
l-2 -10c0 -2 -4 -15 -3 -15c0 0 2 7 3 8c2 0 4 12 4 13c0 0 3 10 3 12l4 12c0 3 2 6 2 8c0 3 3 5 3 7c0 3 3 6 4 8c0 3 1 5 2 8c0 2 3 5 4 6l-1 -7c0 -4 -3 -8 -3 -9c-1 -1 -3 -7 -3 -8c1 -1 1 -2 1 -3c0 -2 -1 -3 -1 -4l-3 2c0 -3 -2 -4 -3 -5c2 -2 2 -3 2 -5
c0 -1 4 7 7 10c0 -2 0 -5 -3 -8c-1 -3 -1 -5 -1 -5c-3 -2 -3 -3 -3 -4s0 -3 -1 -4l-6 -13v-9c2 1 2 2 2 3c-1 1 -1 2 -1 3c0 2 1 4 1 5c1 0 2 0 3 1c0 -1 1 -4 1 -6s-1 -3 -1 -3s0 -3 3 -3c0 3 0 6 3 6c0 -3 -3 -6 -3 -8l-1 -8c-2 -1 -7 -13 -7 -15c-1 2 -2 3 -2 4l-3 -4v7
c-1 0 -2 -2 -3 -2c0 0 0 4 1 5c0 0 0 2 2 2c0 0 1 4 2 6c2 1 3 1 3 2c0 3 -10 -9 -10 -10c0 -3 0 -5 -3 -7c0 -3 0 -6 -3 -9c1 1 -3 -6 -6 -7c-1 -1 -3 -3 -5 -3zM120 570c0 -36 -71 -122 -87 -122c-6 2 -7 12 -7 15c0 2 -2 5 -4 6c17 28 54 102 60 121c1 3 4 4 7 4
c14 0 31 -10 31 -24z" />
    <glyph glyph-name="quoteright_v" unicode="&#x27;v" horiz-adv-x="210" 
d="M181 285h4c-23 -61 -48 -114 -83 -171c-3 -3 -4 -6 -8 -10c0 -3 -2 -4 -3 -5c-4 -3 -7 -9 -12 -12c-3 -2 -16 -7 -24 -7c-4 0 -6 1 -6 4c0 1 -1 2 -4 3c-26 0 -34 41 -34 57c2 77 28 143 49 221c1 13 3 15 6 28l5 28c1 5 0 20 10 20l9 -2c6 0 16 -3 21 -11
c3 -3 3 -11 3 -21c0 -13 -1 -29 -3 -39c-13 -86 -53 -197 -56 -240c0 -3 4 -1 4 -3c15 8 98 201 105 231c-2 5 -3 13 -3 19c0 18 7 36 27 36c5 0 16 -10 20 -11s7 -17 7 -21c0 -3 -4 -26 -5 -29c22 -19 55 -31 77 -35c2 -1 4 -1 5 -2c0 -1 -9 -19 -11 -25
c-1 -3 -3 -6 -12 -6c-27 0 -53 15 -73 31c-1 -2 -5 -16 -8 -15c-3 -2 -2 -5 -3 -5c2 0 3 1 4 2l-3 -8l-4 2c2 4 9 19 9 26c0 1 0 2 -1 3l-14 -37c-2 -1 -3 -1 -3 -2c0 -4 -7 -22 -8 -24l-2 -4v7c-1 0 -3 -1 -3 -4c-2 0 -2 -3 -2 -4s1 -2 2 -3c0 -3 0 -5 -2 -5
c0 -1 1 -3 2 -4l-8 -21s7 14 10 21l11 27c1 0 3 2 3 2v5zM21 161h-4c0 -1 -1 -2 -1 -3c0 -2 1 -5 3 -6l8 -6c0 5 -6 9 -6 15zM139 225c4 3 8 14 11 17c-1 0 -5 -5 -5 -5c-2 0 -3 -7 -7 -9c0 0 0 -1 1 -3zM92 570c0 -36 -71 -122 -87 -122c-6 2 -7 12 -7 15c0 2 -2 5 -4 6
c17 28 54 102 60 121c1 3 4 4 7 4c14 0 31 -10 31 -24z" />
    <glyph glyph-name=".notdef" horiz-adv-x="373" 
d="M30 110v511h313v-511h-313zM46 607v-482h283v482h-283z" />
    <glyph glyph-name="uni0000" horiz-adv-x="0" 
 />
    <glyph glyph-name="uni0000" horiz-adv-x="0" 
 />
    <glyph glyph-name="uni000D" unicode="&#xd;" horiz-adv-x="0" 
 />
    <glyph glyph-name="space" unicode=" " horiz-adv-x="133" 
 />
    <glyph glyph-name="exclam" unicode="!" horiz-adv-x="162" 
d="M196 628h9c9 -1 2 -2 9 -9c3 -3 0 -3 5 -6c2 0 4 -2 4 -3c-1 -8 -1 -14 -3 -21l-21 -60c-23 -63 -45 -127 -63 -192l-11 -25l-7 -25c-1 -1 -3 -2 -4 -4c-1 -3 -1 -7 -2 -10c0 1 -2 -1 -3 -2c-2 -5 -7 -15 -7 -14c0 2 2 4 2 7v6c-1 -5 -2 -10 -4 -13c-1 -3 -2 -5 -2 -7
c0 -3 1 -6 1 -8c0 -3 -1 -7 -6 -11c-1 0 -2 0 -2 3c0 -1 -1 -2 -1 -3c-1 -3 -3 -5 -6 -8c0 2 0 4 -1 4c-2 0 -5 -13 -5 -14c-3 0 -3 9 -3 11l-6 -9v4l-4 13c3 9 2 17 5 26v4c9 67 33 133 56 196l53 147c3 13 5 19 17 23zM51 113c-15 5 -25 4 -25 25c4 10 7 10 13 16
c2 0 5 2 6 2s2 0 3 -1h4c2 0 3 -1 5 -2h4c8 -2 15 -8 15 -17c0 -5 -1 -10 -4 -14c-5 -5 -13 -9 -21 -9z" />
    <glyph glyph-name="quotedbl" unicode="&#x22;" horiz-adv-x="249" 
d="M169 610c0 -36 -71 -122 -87 -122c-6 2 -7 12 -7 15c0 2 -2 5 -4 6c17 28 54 102 60 121c1 3 4 4 7 4c14 0 31 -10 31 -24zM263 610c0 -36 -71 -122 -87 -122c-6 2 -7 12 -7 15c0 2 -2 5 -4 6c17 28 54 102 60 121c1 3 4 4 7 4c14 0 31 -10 31 -24z" />
    <glyph glyph-name="numbersign" unicode="#" horiz-adv-x="408" 
d="M52 203v11c0 27 6 53 13 77l7 24c0 1 1 2 1 3s-1 1 -3 1c-15 2 -29 2 -42 4c-7 1 -15 3 -21 7c-6 2 -12 5 -16 9c-4 2 -6 4 -6 7s4 8 7 8c3 1 6 2 9 2c5 0 9 -1 13 -1l48 8c8 1 15 3 23 5c1 0 4 1 5 3c7 22 13 43 21 64c0 5 -1 5 -3 5c-18 -3 -35 -8 -52 -10
c-13 -2 -27 -2 -40 -2c-5 0 -6 0 -12 2h-6c-8 5 -16 10 -23 12c-3 1 -7 4 -10 6c-2 1 -3 3 -3 5c0 3 2 5 5 7l8 2c8 2 16 2 23 3c20 3 40 8 60 11c23 3 44 8 66 11c2 1 4 4 5 5l27 82c4 10 7 20 9 30c3 7 6 13 13 16c6 1 5 5 11 5c2 0 4 -1 6 -2c8 -2 11 -10 11 -19
c-2 -17 -6 -32 -9 -48c-3 -17 -7 -34 -11 -51c0 -3 1 -3 3 -3l39 4c7 1 13 1 18 3c3 0 5 2 5 4l27 68l15 32c3 9 10 14 18 14c8 -1 4 -2 10 -4c2 0 4 -1 7 -2c1 -1 3 -2 3 -4c0 -1 0 -2 -1 -3l-3 -22c-4 -21 -14 -44 -19 -65c0 -5 -1 -8 -2 -13c0 -1 2 -3 3 -3
c21 -1 40 -7 59 -16c6 -2 12 -7 18 -11c2 -1 2 -2 3 -5c1 0 -1 0 -4 0h-18c-3 0 -6 0 -8 -2l6 -2c2 -1 4 -2 6 -4h-6c-2 1 -3 1 -5 1s-4 0 -6 -2h-6h-18c-10 -1 -19 -2 -27 -2s-10 -2 -13 -11c-5 -20 -11 -41 -18 -60c-1 -5 -1 -6 -1 -8c0 -3 2 -4 8 -5c20 -2 39 -9 57 -20
c6 -2 11 -6 15 -10c1 -1 -16 -2 -18 -2h-21c-1 0 -3 0 -3 -1c0 0 3 -2 4 -2c-2 -2 -4 -2 -6 -2s-4 0 -5 -1c-4 -2 -7 -2 -11 -2h-7c-8 -1 -16 -2 -24 -4c-1 0 -2 -3 -3 -4c-2 -2 -4 -4 -5 -6l-9 -30c-7 -18 -14 -37 -20 -55l-9 -18c0 -1 -1 -2 -3 -3c-1 -1 -3 -3 -3 -4
c-2 -4 -7 -8 -10 -8l-1 -3c-3 -1 -6 -2 -8 -2c-1 0 -5 -3 -12 -4c-1 2 -1 3 -3 4c-1 0 -2 0 -3 -1c-1 -2 -2 -3 -3 -3s-2 1 -3 3c-3 4 -4 8 -4 12c0 5 1 10 3 15l12 36c6 19 12 39 19 58c1 2 1 4 1 5c0 2 -1 3 -4 3h-6c-10 -1 -20 -2 -28 -4c-9 -1 -17 -5 -25 -7
c-2 -1 -5 -5 -5 -7c-4 -10 -8 -20 -11 -31l-25 -72c-1 -5 -3 -11 -5 -16c0 -7 -3 -11 -9 -11c-4 0 -7 -4 -11 -4c-2 -1 -3 -1 -4 -1c-3 0 -6 2 -7 5c-4 5 -4 11 -4 16zM151 379l55 3c3 0 4 3 6 6c6 24 14 46 21 70c0 2 -4 2 -4 2c-6 0 -18 -2 -19 -2c-12 -2 -24 -6 -37 -8
c-2 -1 -4 -3 -4 -6c-7 -20 -13 -41 -19 -62c0 -3 1 -3 1 -3z" />
    <glyph glyph-name="dollar" unicode="$" horiz-adv-x="259" 
d="M120 65c-1 3 -4 6 -6 9c0 -3 -1 -6 -1 -9c0 0 -1 1 -3 2c-1 0 -2 5 -2 4c0 0 -3 -8 -2 -9c-1 2 -4 5 -4 6c-1 1 -1 3 -2 5c-3 0 -8 4 -8 3c0 7 -1 7 -1 7c-2 0 -2 -6 -2 -10c0 -3 1 -6 1 -6c0 -1 -1 -2 -1 -4v-6c0 -2 -1 -4 -1 -3c-2 3 -3 7 -6 11c-1 2 -2 5 -2 8
c0 38 6 57 9 112c0 2 -1 3 -2 3l-35 23c-4 4 -4 8 -8 9c-7 3 -8 21 -8 28c1 6 4 41 12 41c1 0 4 -15 5 -15c2 -4 7 -7 13 -18c1 -4 25 -25 30 -25c3 13 5 24 6 35c4 20 7 39 9 58c0 0 0 1 2 4l-34 38c-14 15 -26 30 -33 50c-2 9 -5 19 -5 29c0 7 2 16 4 23c5 14 14 30 21 43
c6 7 11 15 18 22c27 30 61 55 99 68c9 30 18 52 26 83c2 10 4 15 15 17h4c5 0 5 2 10 2c1 0 2 -1 4 -1c4 -3 4 -6 4 -10v-8c-2 -31 -15 -65 -18 -84c0 1 2 0 3 -1c39 -13 59 -41 59 -81c0 -14 -2 -28 -7 -43c-2 -8 -2 -15 -3 -24c-3 -13 -8 -19 -20 -24c-3 -1 -5 -1 -8 -1
c-10 0 -12 4 -20 13c-4 4 -5 9 -5 14c0 3 0 6 1 9c0 1 1 2 1 3c3 16 8 29 8 45v6c0 13 -4 19 -8 31c-1 3 -12 6 -13 7c-31 -102 -38 -157 -51 -208v-9c3 -6 8 -6 12 -11c16 -19 21 -28 33 -51c3 -8 7 -25 7 -34c0 -7 -2 -14 -5 -22c-4 -8 -17 -32 -46 -39
c-8 -2 -15 -6 -24 -6c-5 0 -7 0 -8 -8c-10 -54 -7 -57 -14 -101zM89 425c4 -15 20 -29 34 -43c15 70 37 140 40 158c-50 -30 -71 -79 -75 -100v-6c0 -3 0 -6 1 -9zM168 260c-1 5 -10 22 -16 22c0 -6 -2 -13 -4 -19c-3 -20 -4 -34 -4 -40c0 -2 0 -3 1 -3c12 6 24 17 24 30
c0 2 0 8 -1 10z" />
    <glyph glyph-name="percent" unicode="%" horiz-adv-x="358" 
d="M163 523c-6 -3 -9 -7 -11 -13c-27 -38 -48 -70 -55 -117c0 -9 -1 -17 -1 -27c0 0 2 -1 3 -1c4 3 8 8 12 12c28 44 38 100 52 146zM246 60c-13 2 -19 3 -30 15c-7 12 -10 24 -10 38c0 16 4 31 9 47c0 1 1 2 1 3c9 21 20 42 32 61c19 26 38 50 59 75c7 8 12 7 21 10
c1 0 4 1 6 1c4 0 5 0 7 -2c1 -1 1 -2 3 -3c5 -2 7 -4 7 -9c0 -3 -1 -7 -4 -10c-3 -5 -6 -11 -10 -16c-1 -1 -2 -2 -2 -6c13 -14 17 -33 17 -52c0 -20 -4 -41 -11 -55c-14 -40 -51 -95 -95 -97zM280 130c23 32 33 62 33 103v12c-28 -37 -68 -102 -68 -150l7 1
c10 12 22 21 28 34zM199 508c0 -44 -23 -111 -52 -146l-11 -14c-5 -7 -21 -16 -29 -19c-4 1 -27 4 -28 8c-8 1 -13 5 -19 11c-9 10 -12 23 -12 38c0 38 23 84 36 106c6 9 10 18 17 27c18 31 44 58 74 78c13 9 18 11 33 11c6 0 13 -1 19 -2c3 -1 6 -3 6 -8
c-1 -7 -4 -15 -6 -22c-3 -3 -6 -6 -10 -6c-2 0 -5 8 -6 13c-2 0 -3 -1 -4 -1l-15 -15c0 -4 3 -4 5 -6c2 -1 1 -2 3 -2c7 0 14 0 22 1c64 6 89 7 112 7c12 0 25 0 36 -1c10 -2 14 -16 14 -25c1 -3 2 -4 2 -7c0 -14 -20 -41 -28 -52c-28 -36 -116 -151 -208 -300
c-16 -25 -29 -52 -41 -79l-4 -12c0 -3 -2 -5 -3 -9c-2 -3 -5 -8 -6 -14c-1 -3 -2 -3 -3 -3c-3 0 -6 2 -10 2c-2 0 -4 -1 -7 -1c-10 0 -13 4 -15 11l-2 10c0 2 2 4 2 6c2 7 2 15 4 22l14 34c8 27 48 89 64 112c4 7 9 15 15 22c82 123 132 188 186 252l2 3h-4
c-8 0 -18 -1 -29 -2h-12c-31 -4 -58 -7 -86 -16c-4 -3 -11 0 -13 -6c-1 -2 -3 -3 -3 -6z" />
    <glyph glyph-name="ampersand" unicode="&#x26;" horiz-adv-x="341" 
d="M98 119c1 -15 14 -19 29 -19c17 0 37 5 47 8c5 1 8 4 16 6h9c-5 -2 -5 -5 -5 -9c-8 -8 -9 -10 -8 -10s7 4 7 3c-7 -14 -52 -33 -67 -33h-7c-13 0 -27 1 -37 11c-1 2 -4 5 -7 7c-13 10 -18 24 -18 44c0 7 1 14 2 21c14 64 76 112 123 157c-36 3 -67 6 -100 53
c-3 5 -4 1 -4 7c0 17 7 35 18 52c45 67 137 113 221 119h6c20 0 40 0 47 -20c3 -2 5 -7 6 -10c1 -1 2 -4 2 -6c0 -4 -3 -8 -9 -8h-8c-6 2 -13 3 -20 3c-48 0 -127 -38 -169 -67c-19 -15 -35 -32 -48 -53l-2 -10c0 -7 37 -15 47 -15c29 0 66 5 91 5c11 0 20 -2 25 -7
c6 -4 10 1 11 -7c2 -7 3 -6 4 -15c0 -6 -4 -8 -10 -10c-15 -10 -77 -44 -105 -72c-3 -2 -6 -4 -8 -7c-16 -16 -31 -33 -51 -55c-14 -18 -25 -38 -28 -63zM241 562c-3 -11 -3 -20 -16 -20c-1 1 -5 3 -5 3l-1 15c4 29 14 64 17 74c5 14 10 52 25 53c1 1 5 1 6 1
c13 0 19 -18 25 -26c1 -1 2 -4 2 -4c-5 -24 -17 -48 -26 -72c-2 0 -2 -1 -4 -1c-6 0 -4 -20 -12 -20v6c-2 -4 -4 -8 -7 -11c-2 1 -2 5 -3 5c0 0 0 -1 -1 -3zM148 -85c0 -4 -5 -5 -9 -5c-3 0 -8 0 -12 1c-2 0 -3 1 -12 11c-3 7 -3 14 -3 21v17c1 12 2 24 4 36c1 9 3 17 5 26
l5 22c1 2 6 2 8 2c1 -1 4 -1 6 -2c21 -6 22 -8 22 -11c0 0 6 -4 8 -7v-6c-3 -10 -6 -19 -8 -29c-3 -9 -5 -16 -5 -24c-1 -7 -3 -11 -5 -16c0 -5 0 -8 -1 -12v-14c0 -2 1 -5 1 -7c0 -1 -2 -3 -4 -3z" />
    <glyph glyph-name="quotesingle" unicode="'" horiz-adv-x="170" 
d="M169 610c0 -36 -71 -122 -87 -122c-6 2 -7 12 -7 15c0 2 -2 5 -4 6c17 28 54 102 60 121c1 3 4 4 7 4c14 0 31 -10 31 -24z" />
    <glyph glyph-name="parenleft" unicode="(" horiz-adv-x="224" 
d="M92 -1c0 -2 4 -5 4 -4l-1 3c-1 4 -7 7 -9 8c0 -2 4 -6 6 -7zM49 69l-4 10c0 2 1 4 1 5l-9 52c0 -10 2 -20 3 -31c-2 2 -2 9 -3 11l-4 30c0 -5 1 -34 3 -39c0 -1 2 -15 3 -15c1 -9 6 -21 8 -29c0 -1 2 -7 2 -7v13zM30 162c0 -1 1 -2 1 -3c0 1 1 2 1 3v21
c-1 0 -2 -18 -2 -21zM42 119l3 -16c0 -2 1 -10 3 -9c-1 2 -3 26 -6 25zM53 63c0 -7 2 -12 3 -13c0 4 -1 10 -3 13zM79 4l3 -2c0 7 -11 18 -11 17c0 -2 2 -6 8 -15zM108 -22l-5 9c-1 -2 -2 -2 -2 -3c2 -2 5 -5 7 -6zM57 411l-17 -49c0 11 6 26 9 37c35 122 86 248 171 345
c9 9 8 12 20 12h8c5 0 7 -1 11 -7c2 -2 2 -3 2 -5c0 -4 -3 -8 -3 -16c-1 -8 -6 -12 -10 -18c-95 -138 -170 -352 -170 -522c0 -77 19 -152 75 -202c1 -2 4 -3 5 -5c0 0 -4 -2 -5 -3c-3 -1 -6 -2 -9 -2c-4 -2 -17 -6 -19 -6c-8 0 -27 9 -35 17c-7 6 -12 11 -18 19
c-2 2 -2 9 -5 9c0 0 1 -2 1 -3c0 1 -1 2 -2 3l-8 13c-4 6 -5 11 -8 16l-4 6c-3 13 -5 14 -5 13c0 3 -2 19 -6 20c0 0 -2 8 -4 11l-7 64v23c0 12 2 27 3 41c0 5 1 9 1 14c0 -3 -5 -8 -6 -7c0 18 10 84 13 89v7c0 3 1 10 7 29l10 35c1 7 4 15 5 22z" />
    <glyph glyph-name="parenright" unicode=")" horiz-adv-x="171" 
d="M74 729c0 11 14 14 23 14c62 0 92 -143 99 -194c1 -3 1 -6 1 -9c6 -38 7 -76 7 -112c0 -223 -92 -396 -149 -460l-3 -2c0 1 0 2 1 4c0 1 1 3 2 4h-4c-1 0 -4 -6 -5 -7l-2 4c-1 -1 -1 -3 -3 -3c0 1 1 2 1 4c0 1 -1 2 -2 2c-3 0 -4 -5 -8 -5c-4 -2 -5 -5 -6 -7h-5
c0 3 2 8 2 9c-5 -6 -14 -9 -19 -9c-3 0 -5 2 -5 9c0 6 17 19 20 23c81 103 131 310 131 447c0 90 -16 180 -55 264c-2 2 -3 4 -4 7c-2 1 -3 1 -4 1c0 1 -2 3 -2 4c0 5 -11 8 -11 12z" />
    <glyph glyph-name="asterisk" unicode="*" horiz-adv-x="280" 
d="M196 519l-10 -2v-6c-4 -2 -11 -6 -14 -6c-7 0 -18 4 -24 23l-4 8c-3 3 -5 7 -6 12c-5 8 -7 15 -9 20l-29 -33c-3 -4 -6 -4 -11 -4c-22 0 -29 11 -33 17c2 7 4 10 8 12l27 31l3 6c-17 4 -51 13 -51 36c0 5 1 8 2 11c1 4 3 9 13 9c13 -4 24 -6 34 -8l9 -3
c-7 18 -11 32 -17 57c0 1 3 17 9 23c2 1 5 2 7 2c5 0 20 -7 23 -15c4 -13 13 -33 19 -49l3 -7l50 52c6 -1 27 -8 27 -16c3 -2 4 -3 4 -7c0 -1 -1 -2 -1 -3s-1 -4 -1 -5c-12 -11 -21 -21 -28 -29l-12 -13c-1 -1 -2 -4 -2 -4c6 -2 20 -3 22 -3l20 -5c3 -5 6 -9 6 -14v-25h-6
c-2 -1 -5 -2 -8 -2c-12 0 -27 2 -39 5c-3 0 -5 1 -8 1c4 -13 10 -24 15 -34c7 -17 9 -25 12 -32z" />
    <glyph glyph-name="plus" unicode="+" horiz-adv-x="417" 
d="M365 292c-7 0 -13 1 -19 1h-24c-34 0 -70 -1 -84 -9c-1 0 -2 -1 -2 -4c-7 -25 -11 -58 -17 -84c-3 -18 -5 -37 -9 -54c-1 -4 -2 -9 -4 -13v-5c-1 2 -2 5 -4 6c0 -3 -1 -4 -2 -4c-5 0 -9 3 -13 3c-2 0 -4 -1 -7 -3c3 2 10 6 10 6l-6 -3c-2 0 -3 -1 -4 -1c-6 0 -7 2 -7 6v6
c-1 4 -1 8 -1 11c0 2 1 4 1 7c0 0 0 2 -1 3c0 2 -1 5 -1 7c1 4 2 10 2 17c2 5 2 16 2 22l11 65c0 2 0 4 -4 4l-50 -7c-9 -1 -18 -1 -26 -1c-11 0 -17 3 -23 8c-7 0 -16 10 -19 16c-3 2 -5 6 -5 7s1 2 2 3c1 2 4 2 9 2c5 -1 8 -2 13 -2c4 0 10 1 17 3l93 16c1 0 3 3 3 3l6 30
c3 7 2 24 22 78c1 3 4 7 8 9c6 2 3 8 9 11c2 1 5 1 7 1c11 0 12 -9 12 -23c-3 -24 -10 -45 -17 -95c0 -2 1 -4 2 -4l15 1c14 1 12 2 26 2c20 0 89 -5 89 -28c0 -1 0 -3 -1 -4c-1 -2 -2 -3 -2 -4c0 -3 -4 -6 -7 -6z" />
    <glyph glyph-name="comma" unicode="," horiz-adv-x="169" 
d="M85 146c1 -3 1 -7 1 -9c0 -14 -7 -21 -12 -29c-13 -18 -24 -30 -42 -36l-2 -3c-4 -2 -15 -12 -21 -12c-1 0 -2 0 -2 2c0 5 4 15 6 17c5 9 20 42 20 56c0 2 0 4 -1 5c0 6 4 13 6 16c0 1 13 11 21 11h4c13 -3 21 -7 22 -18z" />
    <glyph glyph-name="hyphen" unicode="-" horiz-adv-x="317" 
d="M129 263c-9 0 -32 10 -32 38c1 6 3 9 6 9c1 0 2 -1 4 -1c3 -2 6 -2 9 -2h5c3 0 4 1 8 1c35 6 62 11 99 12c17 0 33 -2 50 -5c6 -2 16 -7 19 -15l2 -3c0 -3 -1 -8 -1 -12c2 0 4 -5 5 -5c-2 1 -8 3 -11 3c-4 0 -6 -1 -9 -1c-4 0 -8 1 -12 2h-12c-5 0 -11 -1 -17 -1
c-13 -2 -18 -3 -36 -6c-2 0 -5 0 -16 -3c-13 -3 -24 -5 -37 -7c-8 -3 -15 -3 -24 -4z" />
    <glyph glyph-name="period" unicode="." horiz-adv-x="167" 
d="M54 161l6 2c4 -2 10 -2 14 -3c1 -2 5 -7 5 -9c1 -3 1 -6 1 -9c0 -8 -2 -17 -6 -23c-2 -4 -3 -5 -7 -5l-14 -7c-1 -1 -4 -1 -5 -1c-13 0 -25 11 -25 24c1 20 12 31 31 31z" />
    <glyph glyph-name="slash" unicode="/" horiz-adv-x="355" 
d="M299 716c30 0 30 -29 30 -55c0 -27 -3 -51 -11 -77c-10 -29 -20 -56 -32 -85c-56 -136 -126 -266 -180 -409c-7 -18 -12 -36 -14 -54c-1 -5 -2 -8 -2 -13c0 -8 2 -16 5 -23c1 -2 2 -3 2 -5c0 -1 -1 -2 -2 -2c-1 1 -2 2 -3 2s-2 -1 -4 -3c-1 -1 -2 -1 -3 -1
c-9 0 -33 15 -34 25c-2 12 -4 23 -5 34c0 50 34 125 55 170c129 280 153 333 172 391c10 30 14 56 22 86c1 2 -6 10 -6 12c0 4 1 7 10 7zM67 73l-3 -9c3 0 4 2 4 3c0 2 -1 4 -1 6z" />
    <glyph glyph-name="zero" unicode="0" horiz-adv-x="331" 
d="M299 327c0 -1 -2 -10 -4 -15l7 14c3 11 5 27 15 47l1 10c0 -26 -9 -48 -16 -74l-5 -15c-28 -95 -97 -237 -204 -237c-75 0 -87 97 -87 155c-1 3 -1 9 -1 14c2 14 6 49 6 46c11 90 73 224 134 287l6 6c24 23 50 43 90 43c13 -1 23 -1 33 -7c4 -1 6 -3 11 -5
c0 -3 5 -5 5 -6c26 -27 32 -49 36 -91c0 -1 2 -15 2 -15l-1 -27l-5 -53c-1 -4 -11 -10 -11 -13l-5 -18c-2 -3 -3 -7 -3 -11s2 -6 2 -6v9c0 1 0 4 3 4v-7c0 -6 -3 -22 -9 -35zM230 571c-12 0 -42 -8 -43 -20c0 -4 8 -5 8 -7c-26 -32 -48 -75 -61 -105l-28 -89
c-1 -5 -1 -6 -1 -7l-5 -8c-3 -4 -4 -4 -7 -4l-10 1c-3 0 -7 -16 -7 -17c-6 -30 -17 -58 -18 -95v-15c0 -60 10 -108 41 -111c41 0 100 93 115 121c14 31 27 62 39 94l2 6v7c11 32 15 60 21 87c0 9 1 15 3 25v21c1 13 2 24 2 34c0 58 -19 82 -51 82zM204 154l-9 -23
c2 3 3 5 3 7c3 1 4 1 4 2c0 3 1 5 2 5s2 -2 2 -3c0 -3 -2 -4 -2 -4c4 2 4 5 4 8c0 0 -1 4 -1 5c1 3 5 7 5 7c-3 2 -4 7 -4 6c0 -5 -4 -9 -4 -10zM249 203c-1 -3 -4 -8 -3 -8l-1 -6c0 -3 7 13 7 16c1 4 5 8 7 13l-6 -6c-1 -1 -4 -7 -4 -9zM306 405c-2 -1 -3 -2 -3 -6
c0 -5 -3 -18 -4 -21c2 3 8 21 7 21l2 7c0 1 -1 5 -2 5c-1 -1 -1 -2 -1 -3s0 -2 1 -3zM266 249c-4 -1 -5 -14 -5 -16l7 7c-2 2 -1 9 -2 9zM270 258c0 0 1 -1 1 -3v-4l3 5c1 0 2 4 2 4c0 2 -1 3 -2 4c1 1 -2 2 -3 3zM277 319c0 1 -1 3 -2 4l-2 -12c3 1 4 5 4 8zM278 364
c0 1 0 2 -1 3l-1 -4v-7c2 -1 2 -2 2 -3v11zM225 169c1 1 3 2 3 4v5c-1 -3 -3 -5 -3 -9z" />
    <glyph glyph-name="one" unicode="1" horiz-adv-x="178" 
d="M184 550c-39 -152 -99 -312 -121 -485c-2 -12 -3 -25 -3 -45c1 -5 1 -9 1 -12c0 -5 -1 -5 -1 -5c-2 -1 -3 -5 -6 -7c-2 2 -7 3 -10 3h-4c-3 -3 -5 -4 -7 -4c-4 0 -6 4 -6 11c-4 3 -11 19 -11 25c-2 9 -2 20 -2 32c0 62 19 149 38 216v5c0 2 2 3 2 4c43 145 70 217 83 261
l14 50c0 4 0 7 -1 11c-1 0 -2 -1 -2 -2c0 -3 0 -5 -2 -7l-5 -4c0 2 -1 3 -2 6c-1 2 -1 6 -1 7v4l3 5c1 2 2 8 5 11s10 10 18 10l9 -2c4 -2 4 -3 4 -3c11 -6 15 -20 15 -34l-1 -11c0 -4 -1 -10 -7 -40zM60 187c0 1 1 3 1 7c0 6 4 15 4 16c-1 0 -2 -1 -2 -4
c-2 -6 -3 -11 -3 -19zM60 205v4c0 2 1 2 1 6c0 -1 0 -2 -1 -3c0 -3 -3 -5 -3 -8c1 0 3 0 3 1zM77 271v-4l4 6s-1 1 -1 3c0 -2 -2 -3 -2 -3c-1 0 -4 -2 -4 -2c0 -1 0 -3 1 -3zM127 384c-4 -5 -7 -10 -8 -14l-1 -4c1 2 2 2 2 3l8 16v5c-2 -1 -4 -2 -4 -4c1 -1 2 -2 3 -2z
M62 186c0 1 2 5 4 6l1 13c0 4 2 8 2 15l-4 -18c0 -3 -1 -6 -3 -16zM60 119l-2 -8s3 8 4 8c0 1 2 9 2 11v12s-2 -11 -2 -12c0 -3 -2 -7 -2 -11zM65 239c2 1 4 4 4 5v4c-1 -1 -2 -2 -2 -4c-2 -2 -2 -4 -2 -5zM57 80c2 1 3 2 3 2c0 5 1 6 0 6c-1 -1 -3 -6 -3 -8zM97 320
c2 2 3 2 3 3c0 3 0 4 1 7c-2 -2 -4 -4 -4 -10zM88 290c-2 0 -2 -2 -2 -5c0 2 1 3 2 5zM85 300c-1 1 -2 1 -2 4c0 -2 -2 -4 -2 -9c0 3 2 5 4 5zM110 329c3 3 5 4 5 7c-1 0 -3 -3 -3 -4z" />
    <glyph glyph-name="two" unicode="2" horiz-adv-x="353" 
d="M220 64c0 4 -1 4 -2 4c-3 0 -2 -8 -6 -8c-2 0 -4 0 -5 2c0 1 1 2 2 3c0 1 -5 1 -7 1c-1 0 -2 -1 -2 -3c0 0 -3 -3 -3 -5c-5 0 -8 -2 -13 -2c-1 0 -2 2 -5 2c-2 -3 -5 -3 -7 -3h-4c-3 0 -5 -2 -7 -3c-6 -2 -15 -6 -24 -6c-2 0 -3 -1 -4 -1c-6 -5 -17 -1 -22 -5
c-5 -1 -9 -3 -11 -5c-3 -4 -13 -4 -14 -4c-13 -1 -25 -7 -36 -10c-2 -1 -5 -4 -8 -5s-7 -2 -11 -2c-3 0 -7 1 -10 2l-5 4c-4 4 -3 1 -10 4c-7 2 -10 15 -13 21c0 5 -4 12 -4 19c1 11 3 21 5 32c0 1 -1 3 -1 4c3 10 7 20 11 27c28 69 72 128 119 189c17 21 33 39 132 157
c47 56 71 91 72 120c0 4 0 5 -1 8c-1 6 -4 15 -29 15c-42 -6 -99 -34 -125 -73c-2 -3 -5 -6 -11 -6h-4c-1 0 -4 -1 -7 -1c-1 0 -3 1 -3 1c-1 1 -2 3 -6 6s-8 7 -13 8c-5 4 -6 8 -8 12c0 1 1 3 1 4c9 15 21 28 35 38c35 31 84 57 143 57h7c1 -1 4 -1 7 -1h5
c9 -5 40 -16 40 -27c5 -9 9 -17 11 -26c3 -5 4 -9 5 -14c0 -4 -1 -20 -2 -24c0 -1 -1 -3 -1 -4l-1 -4c0 -2 -2 -4 -2 -6c2 1 2 3 4 6v-4l-11 -20c-1 0 -3 -2 -4 -2s0 -1 1 -3c0 -1 -1 -3 -1 -3c-1 -1 -2 -1 -2 -3c0 -1 1 -2 1 -3c0 0 -1 -3 -4 -3c-2 -3 -5 -4 -7 -5l1 -4
c-1 -2 -3 -4 -3 -10c0 -2 -3 -6 -6 -8c-5 -5 -13 -17 -13 -18c-1 -3 -4 -8 -8 -8c-1 -1 -3 0 -3 -2c0 -1 0 -2 1 -3c0 -1 -2 -4 -4 -6c-5 -3 -10 -7 -12 -12c-3 -2 -8 -7 -8 -8c-1 -7 -5 -9 -8 -12c-6 -4 -8 -10 -14 -17l-10 -10l-16 -25s-12 -5 -9 -5c0 -1 0 -2 1 -3
l-11 -11c-8 -9 -9 -9 -9 -9c0 3 1 4 1 5c-5 -3 -5 -5 -6 -5l-4 -2c4 4 6 9 9 13c0 0 -6 -5 -6 -6c-4 -5 -7 -7 -10 -12c0 -7 4 -2 4 -6c0 -1 0 -3 -1 -5l-9 -5s1 -1 3 -2c-1 -1 -3 -2 -3 -1h-5c-2 0 -3 -2 -5 -5c2 -2 3 -3 3 -4c0 -3 -2 -4 -4 -5c-1 0 -2 0 -4 1
c0 0 -3 -1 -3 -2c-2 -3 -7 -7 -10 -12l-2 -3c2 1 5 1 7 3l-5 -7c-1 -2 -3 -2 -4 -2c0 0 0 4 -1 4c-2 -3 -10 -12 -10 -14c1 0 4 0 4 -1s0 -2 -4 -2c-1 -1 -2 -1 -3 -3c-3 -2 -7 -8 -7 -9c0 1 3 2 4 2c0 -3 -4 -11 -7 -11c-2 0 -3 1 -6 1c-1 -2 -2 -2 -4 -3c2 2 3 6 3 7
c-1 0 -3 -1 -3 -1c-1 -1 -1 -3 -1 -5l-7 -8c-2 -1 -2 -4 -3 -6s-3 -4 -5 -5h4c2 7 7 12 11 16h5c1 -1 2 -1 4 -1l-3 -2c-2 -1 -6 -4 -7 -4c-3 0 -3 -4 -6 -4c0 -1 2 -3 3 -3c-2 -2 -6 -3 -7 -5c-2 -2 -6 -3 -6 -7c0 -1 -4 -3 -4 -2h-4c-2 -4 -6 -7 -7 -13c-1 0 2 -2 3 -4
c2 -1 4 -1 4 -2l-1 -3l-7 -2c-1 0 -3 -2 -4 -2c-2 -2 -4 -4 -5 -4c-2 0 -5 -1 -5 -3c1 -1 4 -1 6 -2l4 -1c0 -1 0 -2 -1 -3l-4 -6c-1 -1 -2 -3 -3 -3c0 0 -1 -4 -2 -3c-1 7 -2 5 -2 5c-2 -2 -3 -4 -4 -6l-4 -5c0 -1 -1 -2 -4 -2c-1 -1 -2 -3 -3 -3c-1 -2 -3 -2 -3 -8
c1 1 5 3 6 3c0 1 -1 2 -2 2c1 1 9 7 9 7c1 0 2 -1 2 -4c-4 -5 -6 -9 -10 -13c-3 -4 -9 -11 -10 -11s-2 -1 -2 -2s1 -4 1 -5c-1 -3 -1 -7 -3 -10c-1 -2 -4 -4 -4 -7c0 0 0 -1 1 -3c-4 -1 -4 -3 -4 -9c0 -2 0 -4 -1 -5l-7 -9c1 -1 2 -3 2 -5h4c73 14 144 25 219 25h60
c6 -1 12 -2 18 -5c3 -3 3 -4 4 -7v-5l-7 -9c0 -1 -1 -2 -2 -2c0 -5 -6 0 -6 -6c0 -1 -1 -1 -4 -1h-13c0 1 1 3 2 4c1 0 4 4 4 4s-4 -2 -5 -2c-3 0 -6 1 -9 1l-4 -3l4 1c2 0 4 -2 4 -7c-2 2 -5 0 -7 3c-1 -2 -6 -3 -6 -3c-1 0 -3 1 -3 1c1 0 3 1 3 3c-3 -1 -9 -1 -10 -2
c-1 0 -2 -2 -4 -3c-3 2 -7 3 -11 3h-8c3 3 3 4 7 4c3 0 6 0 10 -1c3 0 6 3 10 3c0 1 -1 2 -2 2c-4 -2 -6 -3 -10 -3c-2 0 -5 0 -7 1l-14 2c-1 0 -2 -1 -3 -2c-5 0 -8 -1 -8 -6c0 -1 0 -5 -1 -5c-4 0 -8 0 -11 1c-3 0 -11 1 -10 2zM81 226c5 6 10 9 15 15l4 5c0 1 -3 4 -3 4
c-1 0 -2 -3 -3 -3c-4 -1 -2 -6 -5 -10c-3 -3 -8 -5 -8 -11zM221 384c5 6 11 12 17 14c1 0 1 4 1 7c-1 -1 -6 -2 -6 -5l-14 -14c0 -1 0 -2 2 -2zM207 371l13 3c-2 0 -5 1 -5 2l1 3c-2 -1 -4 -4 -8 -5c-1 -1 -1 -2 -1 -3z" />
    <glyph glyph-name="three" unicode="3" horiz-adv-x="386" 
d="M366 222l-16 -25c-1 -1 -1 -3 -1 -4c0 -2 -4 -2 -6 -3c1 -1 1 -2 1 -3c0 0 -9 -11 -13 -15c-4 -6 -10 -10 -14 -15c0 -1 1 -3 1 -3c0 -6 -8 -4 -12 -7l-7 -10c-3 -2 -5 -6 -8 -8c-5 0 -6 -1 -9 -2c-1 0 -1 -3 -1 -5c0 -3 -7 -3 -9 -5c-1 -3 -4 -4 -5 -5l-5 -3l-11 -7
c0 -3 -4 -3 -6 -4c-3 -3 -11 -6 -15 -6h-5c-1 0 -3 -3 -4 -3s-1 -5 -1 -5l5 6l7 1c-5 -8 -13 -10 -20 -14c-4 -1 -10 -4 -13 -6c-3 -5 -6 -6 -9 -7c-2 0 -5 1 -7 1l-12 -7c1 0 4 -1 4 -1c-1 0 -6 -3 -10 -4c-4 -2 -7 -7 -12 -8c-4 -3 -9 -3 -12 -4c-3 0 -7 -4 -9 -7
c-1 2 -2 3 -2 3c-4 0 -6 -6 -10 -7l-16 -2c-2 0 -4 -1 -5 -2c-2 -2 -4 -3 -6 -3s-6 1 -6 1c-2 0 -5 -1 -6 -2c-4 -3 -8 -3 -13 -3l-17 1c-3 2 -4 2 -7 2c2 1 3 1 8 1h-14c-15 0 -38 17 -45 29c0 2 -2 5 -4 9l-3 14c-3 5 -4 9 -4 13c0 14 11 30 22 41c3 4 11 8 12 8
s5 -3 5 -6c0 -2 -2 -3 -4 -4c1 0 1 -2 3 -2s3 -1 5 -2c0 -1 4 -1 4 -1c-2 -1 -7 -4 -7 -6c0 -1 1 -1 4 -1c0 -2 -1 -4 -3 -5c-1 -4 -3 -11 -3 -12c1 0 5 -7 5 -8s-2 -4 -2 -4c0 -1 2 -2 2 -4c0 0 6 -3 6 -9c0 -1 0 -2 1 -3c1 -4 6 -7 17 -7h8c6 0 13 0 20 3
c21 7 44 16 65 25c78 36 200 122 200 221c0 35 -22 62 -77 62c-39 0 -69 -9 -112 -31l-10 -7c-11 -6 -26 -9 -39 -9c-4 0 -7 6 -9 12c-2 3 -9 11 -9 11c0 1 -2 2 -2 4c0 4 5 13 11 15c69 38 210 133 210 212c0 23 -9 39 -35 39c-43 0 -106 -31 -152 -88l-6 -7
c-1 -1 -8 -3 -10 -3c-1 1 -3 1 -4 1c-8 0 -16 25 -16 31c0 2 0 3 1 5v5c1 4 4 6 7 10c39 52 104 91 170 91c31 0 67 -14 81 -41l9 -15c2 -6 5 -17 5 -26v-6c-1 -6 -3 -10 -3 -15c0 -11 -4 -19 -6 -29c0 -2 -2 -7 -4 -7l3 7v11c2 4 3 9 4 15c0 1 0 3 -2 3
c-2 -10 -3 -11 -3 -11c0 1 0 2 -2 2c0 -1 0 -2 -2 -3c-1 1 -1 -6 -1 -6l3 4c1 0 2 -1 2 -2s-1 -2 -1 -3c-4 -3 -1 -8 -4 -12c-1 -5 -3 -7 -3 -13c0 -3 -6 -10 -18 -27l-9 -8c-2 -2 -9 -7 -9 -12l6 4c2 3 8 11 11 11l-6 -10c-6 -6 -20 -13 -20 -23l3 1c-2 -3 -4 -8 -9 -10
c-3 -2 -15 -10 -18 -13c1 -2 2 -2 4 -2l14 13c1 0 2 0 3 1c0 -1 -1 -3 -1 -3l-11 -9c-1 -2 -11 -6 -11 -7c-2 0 -3 -1 -4 -2c1 0 -8 -5 -6 -5h14c68 0 121 -39 121 -113c0 -17 -3 -34 -10 -51c0 -1 -9 -21 -10 -22c-2 -3 -4 -6 -4 -9zM299 468h-4c-1 0 -3 -1 -3 -4
c-2 -1 -7 -10 -6 -9c4 5 9 12 13 13zM327 514c1 1 1 3 1 6c1 1 2 4 2 6c-1 -2 -3 -8 -6 -11c1 0 2 0 3 -1z" />
    <glyph glyph-name="four" unicode="4" horiz-adv-x="408" 
d="M242 83c0 -1 0 -3 -1 -7c-2 -3 -3 -6 -3 -8l-2 -17c-1 -2 -1 -3 -1 -5s0 -4 1 -6c0 -2 0 -4 3 -4l-1 12s2 0 2 3c0 1 -1 4 -1 4c0 1 0 3 1 3s1 3 1 4c0 0 1 1 3 1c3 -1 3 -2 3 -3c0 0 0 -1 3 -1c-2 -1 -6 -4 -6 -5s1 -2 2 -2v-14c0 -1 0 -3 1 -3c1 2 4 3 6 3
c-3 -5 -3 -8 -8 -10c2 0 5 -3 5 -5c-2 0 -4 0 -4 -3c3 -2 8 -6 8 -10l1 -11l-3 -9c0 -4 -4 -10 -4 -10c-3 0 -7 1 -12 1l1 -1c0 -1 -1 -3 -1 -4c-1 -1 -9 -3 -10 -3c-8 3 -11 9 -17 16l-3 20v16c10 94 30 152 50 229l-9 -1c-48 -7 -116 -21 -166 -31c-4 0 -6 0 -7 -2
c-1 -1 -8 -1 -11 -1c-9 1 -18 4 -25 10c-1 3 -3 3 -4 4c-10 5 -25 25 -27 37v4c0 76 124 215 175 265l10 10c43 42 102 97 141 114c6 3 10 5 17 6c4 0 7 1 9 1c2 1 4 1 6 1c9 0 16 -4 20 -7c0 0 1 -1 3 -1c3 8 14 18 15 18c6 0 20 -8 22 -14c2 -5 3 -8 4 -14
c0 -3 0 -6 -1 -9c-1 -4 -1 -8 -3 -12c-33 -110 -83 -254 -102 -323c0 -1 -1 -2 -1 -3s1 0 3 0h22c21 0 71 -8 72 -33c0 -1 0 -3 -1 -4c1 -2 -4 -2 -4 -2c-1 0 -3 1 -6 2c-2 0 -6 1 -8 1c-18 0 -88 -2 -90 -9c-9 -26 -23 -81 -33 -123c-11 -47 -10 -48 -12 -48
c0 0 -11 -3 -9 -2c0 2 6 7 4 7c-1 0 -1 4 -3 4c1 1 1 3 1 6c0 2 -1 3 -1 4c-1 -5 -2 -9 -5 -14c0 0 -3 -2 -4 -2c0 0 1 0 3 -1l4 3c0 -2 -1 -3 -1 -5c0 0 -1 -2 -3 -3c-1 -5 -5 -13 -8 -20v4c0 2 0 5 2 9c0 2 -1 3 -3 3zM46 266c0 -6 0 -7 6 -7c1 0 4 0 6 1
c123 32 209 40 209 40c29 95 75 229 111 332c-115 -52 -265 -240 -323 -341c-5 -8 -8 -17 -9 -25z" />
    <glyph glyph-name="five" unicode="5" horiz-adv-x="346" 
d="M43 271v7c0 12 6 24 8 36c15 61 54 139 103 242c2 6 7 16 7 26c-1 4 -2 8 -2 11c-1 3 -2 2 -2 5c0 2 0 5 1 7c1 9 17 9 23 10c102 12 96 18 174 18c9 0 19 0 28 -2c2 0 4 -1 9 -1c17 -3 33 -6 40 -25c0 -4 2 -11 3 -12c0 -1 1 -5 1 -8c-2 0 -3 1 -4 1c-8 2 -14 3 -21 3
c-76 0 -104 -5 -187 -16l-12 -2s-4 -5 -4 -8c1 -11 -53 -130 -62 -148c-9 -19 -21 -44 -29 -63c-1 -1 -2 -3 -2 -5c-10 -24 -18 -44 -26 -69l-5 -19c1 -4 3 -11 11 -13c45 -11 101 -23 139 -44c28 -15 47 -28 60 -65c1 -5 3 -14 3 -20v-6c-4 -72 -99 -106 -160 -106
c-39 0 -94 18 -104 61c-2 6 -6 13 -6 18c-2 9 -1 17 -2 26c9 4 10 4 10 4c3 0 14 -19 16 -20c18 -26 55 -38 89 -38h11c51 3 92 34 96 60v12c0 39 -148 68 -145 68c-32 7 -55 44 -59 75zM76 338l-6 -24c2 5 7 12 8 14v6c0 3 -1 3 -2 4zM177 542l1 -3c0 1 3 3 3 4s-1 3 -1 3
c-1 0 -3 -3 -3 -4zM169 510l-4 -1v-4c1 0 3 1 3 2zM187 545c-1 -1 -1 -2 -1 -3c1 1 1 2 1 3zM121 395l-2 -12c0 -1 6 13 10 24c-2 -4 -5 -7 -8 -12z" />
    <glyph glyph-name="six" unicode="6" horiz-adv-x="358" 
d="M247 96c2 2 6 8 11 8c0 0 1 5 1 6l6 5c-1 -1 -2 -4 -2 -5c0 1 2 2 3 2c10 12 13 22 17 24c0 -3 -6 -14 -10 -19c-1 -2 -2 -4 -4 -6c-3 -4 -4 -9 -12 -9c-1 0 -3 -4 -4 -6c-3 -1 -6 -4 -7 -5s-5 -7 -4 -8l-8 -5c-1 2 -2 2 -2 3c-1 0 -1 2 -1 4c-2 -2 -3 -4 -3 -4
c0 -2 1 -7 2 -8c0 -2 -3 -6 -5 -9c-3 -1 -9 -10 -11 -10c-1 0 -7 -2 -7 -3s0 -2 2 -2c0 -1 -1 -2 -1 -3c-5 -3 -10 -8 -15 -11l-2 -4c-7 -4 -12 -8 -18 -10c-8 -5 -24 -9 -24 -10l-1 -8c0 -5 -1 -9 -1 -15v-7l1 -3v-10c0 -2 0 -4 1 -6l1 -8l-7 1l-3 -1c-2 1 -3 3 -9 3
c2 -2 5 -2 5 -6c-6 4 -8 9 -12 14c2 -3 2 -9 2 -12c-2 1 -5 2 -9 2l-5 3c-3 2 -7 8 -7 13l-4 13c-2 5 -1 11 -2 20c0 0 -2 -1 -3 -1c-65 7 -89 57 -89 110v15c3 92 41 184 81 263c2 4 5 10 8 14l13 25c14 23 26 45 40 67c51 78 119 175 160 180c3 0 7 1 12 1
c6 0 16 -2 19 -10c-12 -13 -41 -47 -47 -57c-16 -19 -30 -38 -45 -57c-4 -8 -11 -15 -15 -20c-59 -91 -107 -164 -144 -270c-3 -10 -6 -18 -8 -28c-1 -1 -4 -4 -4 -7c1 -2 1 -3 1 -4c0 -3 -3 -6 -4 -8v-4c0 -1 0 -3 -2 -3v-9c-2 -3 -4 -6 -4 -9c0 -1 0 -3 1 -4
c0 -1 -3 -4 -3 -5c-2 -3 -5 -33 -5 -36c-2 -12 -1 -18 -3 -30l1 -25c0 -8 4 -15 6 -22c3 -5 4 -7 8 -11c6 -8 17 -13 31 -13l1 3c0 3 1 6 1 8c1 4 3 3 3 10c0 1 3 15 4 15s1 2 1 4v4c0 1 1 2 1 3l7 18c2 2 4 3 4 6c0 1 -1 2 -1 3c0 2 1 3 1 3c6 3 6 6 6 9c1 12 28 68 37 84
l7 16c3 3 4 6 7 9c3 6 6 12 11 16c5 11 59 83 84 88c2 0 4 3 6 4c3 -1 5 -2 7 -2c1 0 3 2 4 2c2 1 7 2 8 2c20 0 39 -24 39 -43v-17c-1 -3 -1 -6 -1 -12c0 -1 0 -3 1 -4l-11 -42c-4 -10 -13 -30 -13 -30c0 -1 0 -3 -3 -4c1 -1 2 -2 2 -3c0 -2 -4 -2 -5 -4c0 -4 -8 -7 -8 -10
v-4l-1 -7c-1 -2 -5 -7 -6 -8c-2 -2 -6 -4 -6 -8c0 1 1 2 3 2c-3 -4 -7 -7 -11 -11c0 -2 3 -3 3 -4c-8 -6 -9 -6 -9 -5c0 3 3 7 3 12c-3 -3 -9 -18 -9 -22c0 -2 -4 -5 -6 -7c-3 -2 -6 -6 -11 -7c1 1 1 2 1 4c0 1 0 3 -1 4c-1 -1 -4 -3 -4 -4c-2 -2 -2 -3 -2 -3c1 0 3 0 3 -1
c0 0 -1 -2 -3 -3c0 -1 0 -2 -1 -4c-1 0 -3 0 -5 -2c-2 0 -3 -1 -3 -4c2 -1 3 -1 3 -2s-3 -3 -4 -5c-1 -1 -6 -4 -6 -6c0 0 0 -1 10 8c0 1 1 1 3 1c0 -1 -1 -2 -1 -3c-1 -1 -5 -3 -4 -4c2 2 7 3 7 7zM165 88c-1 -3 -1 -5 -3 -6l-8 -28c47 25 150 190 150 257
c-41 -19 -68 -69 -95 -119c-1 -4 -3 -6 -5 -10l-8 -16c-3 -3 -4 -5 -7 -7c0 0 -3 -5 -4 -4c-3 -6 -7 -10 -8 -16c-5 -9 -5 -11 -5 -11s2 0 2 2c5 8 5 15 13 20l-3 -9c0 -1 -2 -5 -2 -6c-3 -5 -6 -14 -8 -20s-8 -22 -9 -27zM33 105c0 3 4 23 4 25c-7 -7 -7 -11 -7 -19
c0 1 -2 -5 -2 -7l1 -7c1 0 4 8 4 8zM41 162c0 4 -1 7 -1 9c0 0 -1 4 -5 6l-3 -12c1 0 6 -8 6 -8c2 0 3 1 3 5zM136 -17c-2 5 -4 6 -5 9l3 -18c1 -2 3 -4 6 -7c-2 4 -1 10 -2 11zM26 154c1 0 3 5 3 5v14c-1 -1 -5 -7 -5 -8c0 -2 2 -11 2 -11zM300 189c-1 -1 -5 -2 -5 -3h5
c3 4 6 5 7 8c2 2 3 6 3 10c-3 -3 -4 -6 -6 -9c-2 -2 -3 -7 -4 -6zM192 237c0 0 1 1 2 7c-3 0 -6 0 -6 -1c-1 -1 -1 -7 -2 -10c0 -1 6 4 6 4zM20 158c-1 0 -3 -13 -5 -20c5 0 5 3 5 7v13zM120 -24c0 1 -1 11 -2 14l-3 14v-11c0 -2 0 -4 1 -8zM228 98c-4 0 -5 -3 -8 -5
c0 0 -2 -3 -2 -4c0 0 4 0 5 2c3 0 6 7 5 7zM124 2v2l-2 -2c0 -7 3 -22 4 -22v3c0 5 -2 14 -2 19zM188 185c0 -1 -1 -3 -1 -7l1 3c4 4 8 15 7 15zM47 194c0 2 -1 3 -2 4c-3 0 -3 -8 -3 -9s5 4 5 5zM16 117c0 1 1 4 1 7v7s-2 -3 -3 -5c0 -2 0 -6 2 -9zM177 216c2 0 6 10 7 11
c-1 0 -3 0 -3 -1c-2 -3 -3 -6 -4 -10zM180 161c0 2 1 4 1 7c-2 -3 -5 -8 -6 -12c1 1 5 3 5 5zM211 71c1 1 5 3 5 5v4c-2 0 -5 -7 -5 -9zM153 92c1 3 1 6 3 9c-3 -3 -5 -10 -7 -12c0 -1 1 -1 3 -2c0 0 1 2 1 5zM256 130c1 0 3 0 4 -1v4c1 1 3 2 3 5c-1 -2 -3 -2 -4 -5
c-2 -1 -2 -3 -3 -3zM324 227c0 2 1 6 2 9c-1 -1 -4 -5 -4 -7c0 -1 1 -2 2 -2zM329 240c0 0 -1 2 -3 3c0 -4 0 -5 2 -6c0 1 0 2 1 3z" />
    <glyph glyph-name="seven" unicode="7" horiz-adv-x="330" 
d="M253 372c0 -1 1 -2 1 -4c0 0 -4 -7 -7 -11c-3 0 -6 -2 -8 -4c3 0 3 -3 5 -3c-2 -3 -1 -4 -5 -8l-17 -36c-2 -2 -3 -2 -4 -4c-4 -3 -4 -7 -5 -10c-4 -9 -9 -26 -16 -32c-6 -4 -4 -10 -8 -13l-9 -10c0 -2 -3 -4 -4 -6c1 -1 3 -1 4 -1c3 0 6 8 6 7s-1 -2 -1 -4
c-2 0 -1 -4 -4 -5l-2 -6c1 0 2 1 3 1s-4 -16 -13 -28c2 8 3 7 6 14c0 2 2 5 2 7c-2 -1 -6 -7 -6 -9c0 0 -2 -4 -4 -4c-1 0 -3 -3 -4 -5c-1 -1 2 -2 3 -5c0 -2 -3 -3 -5 -6c1 0 3 -1 3 -2s-1 -3 -5 -5c-1 -5 -5 -9 -5 -13c-5 0 -6 -2 -6 -7c0 -2 0 -4 -3 -7
c-2 -1 -2 -3 -2 -4s1 -2 2 -2s2 1 3 1v-5c-4 0 -6 -5 -9 -6c0 -6 -2 -7 -4 -10c2 0 4 2 4 3v-9c0 1 1 3 1 3c1 -1 1 -2 1 -5c-2 -4 -5 -9 -7 -15c0 4 1 7 1 9l-5 -9c0 4 0 6 -1 6s-2 -2 -2 -4c-1 -3 -3 -5 -3 -7c0 -1 1 -3 2 -4c0 -1 -2 -5 -2 -8c0 -1 1 -2 2 -2
c0 0 1 1 4 8l-7 -23c0 -1 -3 -3 -3 -3s0 1 1 7l-1 -4c-2 -1 -6 -4 -7 -6c0 -1 -1 -3 -1 -4v4l4 7c-4 0 -6 -12 -6 -13c0 -3 -3 -1 -3 -3c0 0 2 -4 2 -5c0 0 -2 0 -3 -1c-1 0 -2 -1 -2 -2s3 -1 3 -3c0 -4 -5 -11 -6 -12s1 -1 2 -1c0 2 3 7 5 9c0 0 0 -3 1 -3
c-5 -2 -7 -13 -9 -15c1 -1 2 -2 3 -2c0 -2 -1 -3 -1 -5c0 0 2 3 3 4c0 -1 -3 -7 -4 -7c-2 -2 -2 -3 -2 -8c-2 0 -5 2 -5 3c0 0 -2 -2 -8 -2c-1 0 -5 -1 -7 -2c-3 0 -4 2 -7 2c-10 0 -19 4 -19 14v10c1 8 2 16 5 24c0 14 7 34 11 47c59 166 170 352 267 510
c-74 -9 -201 -52 -279 -82l-11 -6l-6 -2c-4 0 -16 1 -19 3c-3 4 -10 7 -12 11l-11 12c-1 1 -3 2 -3 3v4c0 1 0 3 1 4c0 2 2 5 5 6c102 46 208 78 313 94c4 0 8 1 13 2h5c8 0 17 -1 24 -3c12 -2 18 -10 23 -20l3 -16v-10c1 -4 2 -7 2 -13v-4c0 -6 -2 -12 -7 -19
c-7 -13 -17 -27 -23 -40l-17 -26c-2 -6 -9 -13 -13 -21l-3 -3c-1 0 -2 -1 -2 -3c0 0 -7 -11 -9 -18h-4c-2 -2 -5 -5 -5 -11c0 -1 -3 -6 -6 -7c0 0 -1 -2 -1 -3s-2 -12 -8 -15l-5 -5c-3 -3 -3 -5 -4 -7l4 1c0 -1 0 -2 -2 -5c-7 -10 -14 -20 -19 -31c-1 0 -7 -7 -7 -8zM103 87
c-2 0 -2 3 -2 3v4s-8 -7 -9 -12c0 0 0 -1 1 -12c1 2 2 3 2 4c5 0 7 8 8 13zM93 62c-3 -5 -7 -13 -8 -21c0 1 2 3 2 4c3 5 5 11 6 17zM105 79c1 -3 2 -5 3 -5c0 1 2 6 4 9c0 2 6 10 7 11c-1 -1 -7 -5 -7 -5c-1 -3 -4 -10 -7 -10zM218 331c-3 -1 -6 -3 -8 -6l2 -4
c2 2 3 7 6 10zM255 398c0 0 -3 -5 -4 -7c3 0 3 2 5 4c1 0 4 4 4 4c0 1 -4 -1 -5 -1zM209 313c0 -2 -4 -3 -4 -3l-5 -8c3 2 7 5 8 8c1 0 1 1 1 3zM227 362c0 0 -3 -9 -3 -10c2 2 4 3 4 3zM87 61c0 -1 2 -2 3 -3l1 6c-2 -2 -4 -2 -4 -3zM110 111c0 0 2 -2 3 -2v4
c-2 0 -3 0 -3 -2zM138 189c1 0 2 2 3 3c-2 1 -3 1 -3 1v-4z" />
    <glyph glyph-name="eight" unicode="8" horiz-adv-x="371" 
d="M216 112c0 0 0 -1 3 -2l-4 -3l3 2c-1 -5 -4 -18 -11 -18c-2 -2 -5 -4 -5 -11c1 0 2 -1 3 -2l-4 -5c-4 0 -4 1 -4 1c-3 0 -7 -5 -7 -9c2 0 8 2 12 4c-1 -2 -2 -4 -3 -4c0 -1 -2 -2 -3 -2c-3 0 -5 -2 -5 -4s1 -3 2 -4c-8 0 -11 -5 -15 -11c-1 -1 -7 -4 -7 -5s1 -2 2 -2
c-1 0 -2 -1 -3 -1c-2 -2 -7 -3 -10 -5l10 8c0 3 4 3 4 6c-3 -1 -14 -9 -15 -9l-4 -2c-5 -3 -10 -5 -14 -8c-2 -1 -8 -2 -9 -4c-2 -1 -2 -3 -2 -3l-16 -8c1 0 2 1 3 1c3 0 5 -1 7 -2c-15 -7 -21 -8 -30 -8c-8 0 -13 3 -14 4c0 1 0 2 1 3c-1 0 -4 2 -5 2c-4 0 -6 3 -13 3
c-1 0 -2 -1 -2 -2s1 -3 3 -3c3 0 3 -2 6 -4c-50 11 -56 52 -56 71v6c1 9 0 15 4 24c4 21 8 26 15 45c26 57 89 147 99 164l-32 55c-21 38 -45 83 -45 127c0 89 98 144 176 160c18 5 38 8 58 9c7 1 13 1 21 1c32 0 66 -6 86 -14c3 0 4 0 5 1c11 13 23 24 34 38c2 2 2 4 3 6
c0 4 3 7 8 7c1 -1 2 -1 4 -1h6c3 -1 5 -1 7 -1c3 0 9 3 10 3s2 0 5 -4l6 -8c1 -2 1 -3 1 -7c0 -2 -1 -6 -2 -9c-6 -12 -16 -19 -23 -30c-8 -10 -20 -23 -20 -23c3 -4 8 -12 8 -16c0 -12 -17 -27 -29 -27c-4 0 -7 2 -11 2c-8 -5 -63 -75 -75 -89l-3 -3c-1 0 -2 -1 -3 -3
c0 0 -8 -10 -11 -16h-4c-2 -2 -5 -4 -6 -10c0 -1 -4 -6 -7 -6c0 0 -1 -2 -1 -3c-1 -1 -4 -12 -10 -14l-6 -4c-3 -3 -4 -5 -5 -7l4 1c0 -1 0 -2 -2 -5c-9 -9 -17 -18 -23 -28c-3 0 -8 -6 -8 -11c0 0 -5 -7 -8 -10c-1 0 -3 -1 -5 -1c-1 0 0 -1 -2 -3c3 -1 1 -3 3 -3
c-2 -2 -1 -4 -6 -7c-11 -14 -25 -33 -35 -48c21 -35 36 -91 38 -139c0 -2 0 -3 -2 -5c-1 0 -1 -1 -1 -5c-1 -10 -4 -23 -4 -33c-1 -6 -2 -12 -6 -18c-4 -3 -4 -2 -4 -2zM322 625c-83 0 -209 -42 -220 -127c0 -32 36 -104 62 -141c37 49 71 100 188 236l22 26
c-16 4 -34 6 -52 6zM171 251c0 2 -6 18 -6 19c-42 -63 -77 -128 -77 -128l-8 -16c-6 -16 -12 -37 -13 -52c0 -4 0 -11 1 -15c2 -12 12 -15 22 -15l21 10c41 28 71 73 73 123v15c0 20 -6 37 -13 59zM55 86c2 10 11 36 11 38l-3 -4l-13 -27c-2 -4 -7 -11 -7 -17
c3 -1 3 -3 3 -5c0 -1 -3 -2 -3 -3c0 -4 3 -7 3 -13c0 -3 1 -11 1 -11c1 1 4 4 4 3c0 0 0 -4 2 -4v23c0 7 1 13 2 20zM388 569c-2 -2 -9 -9 -13 -9l6 6c6 5 7 8 7 11c0 5 -5 7 -5 10l-14 -17c-2 -2 -5 -4 -5 -8c1 1 7 7 7 5c-11 -15 -12 -17 -12 -17c0 -1 1 -1 3 -2
c2 0 4 2 7 2c-1 -2 -5 -6 -5 -8c9 9 28 31 34 36c-1 -1 -2 -1 -4 -1c-2 -1 -2 -5 -6 -8zM72 138c1 1 3 1 3 2l30 56v6l-11 -17c-8 -14 -15 -29 -22 -47zM170 49c0 -1 1 -3 2 -3c2 2 6 2 7 3c1 2 11 10 12 14c-1 0 -1 -1 -5 -1c0 -1 -1 -3 -2 -3c-14 -9 -14 -10 -14 -10z
M338 513c2 3 6 5 6 10c0 1 -1 4 -2 4c-2 -5 -8 -11 -8 -12s3 -2 4 -2zM332 528c2 0 4 1 7 2c1 1 1 2 1 4c0 1 0 3 -1 3c-3 -5 -8 -9 -7 -9zM364 594c-1 0 -2 -1 -2 -3l9 11c-1 -1 -3 -2 -4 -2c-2 0 -4 -2 -4 -3c1 0 2 1 3 1c-1 -1 -2 -2 -2 -4zM212 110c-1 -1 -3 -2 -4 -4
l5 3c1 2 1 3 1 5c-1 -1 -2 -3 -2 -4zM219 118c0 1 -1 1 -1 3c-1 -2 -1 -4 -1 -6z" />
    <glyph glyph-name="nine" unicode="9" horiz-adv-x="340" 
d="M236 239c-9 -26 -27 -85 -70 -245c-3 0 -3 -12 -3 -14c-2 0 -16 2 -19 5c-1 1 0 2 -3 2c-2 0 -1 4 -3 5c0 -1 -3 -10 -3 -9c-3 7 -5 15 -6 24c-1 -1 -1 -2 -4 -2c2 7 4 14 5 24l-1 11c1 4 1 7 3 10c3 9 3 17 6 25c2 9 4 18 7 26l12 48c32 119 86 272 120 355
c-1 -2 -10 -12 -11 -11l-29 -30c-3 -4 -7 -7 -10 -8l-4 -3c-23 -23 -97 -88 -130 -91c-7 -5 -12 -6 -18 -6h-6c-17 6 -39 13 -40 43v8c0 7 0 13 5 22c19 60 91 149 164 194c6 3 7 4 8 5c17 10 29 16 48 22c8 3 18 6 29 6c7 0 24 -1 31 -5c12 -3 11 -6 18 -6l22 42
c0 2 1 4 5 6l11 -2c8 0 7 -2 13 -5c1 -1 5 -2 5 -3v-8s2 1 3 2c0 0 0 -1 1 -3l-10 -30v-7l-10 -30c-7 -15 -8 -27 -17 -42c-2 -8 -5 -12 -6 -20c-2 -1 -4 -3 -6 -7c-1 -1 -1 -2 -1 -3c1 2 2 4 4 4c-2 -3 -1 -6 -2 -8s-6 -4 -7 -4s-3 -4 -3 -6c1 -1 1 -2 1 -4s-5 -9 -8 -17
c-1 -1 -2 -3 -2 -3c0 -1 0 -2 -1 -3c-1 -2 -4 -5 -6 -6c-2 -3 -4 -10 -4 -10c2 0 2 1 4 5c1 0 0 1 2 3c0 -2 1 -3 1 -3c1 -5 1 -6 1 -6c-2 -7 -7 -16 -9 -23l-5 -4s-4 -10 -4 -11c-2 -4 -4 -9 -5 -13c-1 0 -2 -2 -2 -4v-4c-1 0 -2 -1 -2 -3c-4 -4 -9 -18 -9 -24
c-2 -2 -2 -3 -3 -5c-3 -4 -6 -10 -7 -12c0 3 1 15 1 16c-1 -3 -3 -3 -5 -5l1 -10c0 -3 -3 -4 -3 -9c2 0 3 0 3 1c1 3 3 4 4 4c0 2 2 2 3 2c0 -2 0 -3 -1 -3c-4 -15 -19 -55 -24 -71c-2 0 -2 1 -2 3c0 6 4 16 4 17s7 17 7 21c-3 -2 -4 -5 -6 -6c-2 -4 -4 -7 -4 -14
c-2 -5 -2 -6 -4 -8c0 -1 -3 -3 -3 -5c0 -1 1 -2 2 -2c-1 -4 -3 -8 -6 -11l1 -6c-1 -1 -3 -4 -3 -7c0 -1 0 -3 1 -8c-2 -3 -3 -6 -5 -8c0 -3 -3 -7 -5 -8c0 -2 1 -4 1 -4c2 0 7 8 7 12c2 1 9 29 10 30l1 -8c0 -2 -15 -46 -15 -47zM72 397c3 -1 4 -1 5 -1
c39 18 110 81 156 132c70 69 69 71 69 71c-1 1 -3 6 -4 6h-5c-19 -2 -37 -8 -53 -19c-59 -33 -149 -131 -168 -189zM265 394c4 0 4 1 5 3v5c0 2 -3 4 -3 4c-3 0 -2 -9 -3 -9c-2 -2 -6 -15 -6 -15c0 -1 2 7 4 6c2 2 2 5 3 6zM255 371c-1 -1 -1 -2 -1 -3s0 -2 1 -3
c-3 -1 -5 -7 -5 -7v-6c0 1 2 1 4 2c4 17 5 18 5 19s-1 2 -1 3c0 -2 -3 -5 -3 -5zM268 425c-4 -3 -9 -5 -9 -10c0 -2 -5 -11 -5 -11c0 -1 4 5 6 4c1 1 2 3 2 5c3 3 5 8 6 12zM282 410c0 -3 -1 -12 -3 -16c0 0 -1 -3 -1 -5c1 1 1 3 3 4c0 0 1 3 1 4c4 4 4 16 4 16
c-1 0 -2 -1 -4 -3zM199 270v-10c1 0 2 0 3 1c-1 1 -1 2 -1 3c0 3 3 7 4 11c-1 -2 -4 -4 -6 -5zM180 196c-1 0 -3 -2 -3 -3c-1 -2 -2 -5 -2 -7s1 -3 1 -4c2 4 3 9 4 14zM172 178v-5c-2 -2 -2 -3 -2 -6c0 -1 0 -2 3 -2c0 3 1 6 1 8s-1 4 -2 5zM167 117c0 2 2 3 2 5s1 4 2 8
c-1 0 -3 0 -3 -2c-2 -1 -2 -2 -2 -3c0 -2 1 -2 2 -3c-1 -2 -2 -4 -2 -8c0 1 1 1 1 3zM228 248l-6 -14c2 2 3 2 4 2c2 3 4 7 3 7c0 0 -1 -1 -2 -3c0 2 1 6 1 8zM297 439c-3 -4 -7 -14 -8 -14c0 0 2 -1 3 -1c1 2 2 4 2 5c1 3 3 6 3 10zM241 306c-3 -5 -4 -8 -5 -15
c1 1 3 1 3 5s1 6 2 10zM190 210c2 2 3 5 4 8c-1 0 -2 0 -3 -1s-2 -4 -2 -4c0 -1 0 -2 1 -3zM264 357c0 -2 0 -3 -1 -4c1 1 3 1 3 2c2 2 2 3 2 3c-1 0 -4 0 -4 -1zM187 213l-4 3l1 -5c2 0 3 0 3 2zM166 26c0 1 -1 1 -3 3l1 -6c0 2 2 3 2 3z" />
    <glyph glyph-name="colon" unicode=":" horiz-adv-x="191" 
d="M83 268c-9 3 -12 9 -12 16c0 8 4 17 8 22c3 5 11 11 18 13c12 0 28 -8 31 -22c3 -3 4 -6 4 -9c0 -10 -11 -21 -20 -25h-8c-7 0 -12 3 -21 5zM100 161l6 2c4 -2 10 -2 14 -3c1 -2 5 -7 5 -9c1 -3 1 -6 1 -9c0 -7 -3 -28 -13 -28l-14 -7c-1 -1 -4 -1 -5 -1
c-13 0 -25 11 -25 24c1 20 12 31 31 31z" />
    <glyph glyph-name="semicolon" unicode=";" horiz-adv-x="191" 
d="M83 268c-9 3 -12 9 -12 16c0 8 4 17 8 22c3 5 11 11 18 13c12 0 28 -8 31 -22c3 -3 4 -6 4 -9c0 -10 -11 -21 -20 -25h-8c-7 0 -12 3 -21 5zM120 146c1 -3 1 -7 1 -9c0 -14 -7 -21 -12 -29c-13 -18 -24 -30 -42 -36l-2 -3c-4 -2 -15 -12 -21 -12c-1 0 -2 0 -2 2
c0 5 4 15 6 17c5 9 20 42 20 56c0 2 0 4 -1 5c0 6 4 13 6 16c0 1 13 11 21 11h4c13 -3 21 -7 22 -18z" />
    <glyph glyph-name="less" unicode="&#x3c;" horiz-adv-x="284" 
d="M63 263l-4 11c0 1 -1 2 -1 4c0 7 3 15 5 17l10 11l61 58c21 20 34 29 53 51c0 5 5 16 11 18c6 3 11 4 16 4c8 0 17 -3 24 -8c4 -4 9 2 9 -12c0 -22 -45 -62 -60 -76c-20 -17 -44 -36 -63 -55l-4 -4c-3 -4 -4 -6 -4 -8s1 -4 5 -7c14 -9 32 -23 47 -30
c19 -11 38 -20 57 -31c3 -2 6 -5 8 -8h-5c-3 0 -6 0 -10 1c-4 2 -8 2 -13 2c-11 1 -22 2 -33 5h-6c1 -1 2 -4 5 -5c0 0 1 -2 3 -2c-21 0 -75 12 -89 34c-10 15 -15 12 -22 30z" />
    <glyph glyph-name="equal" unicode="=" horiz-adv-x="346" 
d="M34 248c1 2 2 8 4 11c0 1 2 2 4 2c14 3 18 5 33 7l59 10c31 5 43 5 74 9c2 0 6 1 9 1c13 2 28 2 41 2c14 0 26 0 40 -2c5 0 10 -2 13 -3c7 -3 9 -5 9 -11l5 -9c0 -2 -1 -6 -2 -10c0 -3 2 -7 2 -7c0 -1 -2 -1 -3 -1c-2 0 -4 -1 -4 -3c-1 -5 -4 -5 -8 -5c-10 3 -22 4 -34 4
c-10 0 -20 -1 -30 -2c-22 -3 -45 -2 -68 -6c-22 -2 -27 -4 -51 -8c-14 -2 -27 -4 -41 -5c-9 -1 -16 -4 -25 -5c-5 0 -11 1 -17 2l-2 5c-2 1 -2 2 -3 3c-3 2 -3 3 -3 5c0 1 0 4 -1 7s-1 6 -1 9zM291 343h-25c-21 -2 -46 -3 -68 -6c-20 -1 -19 -2 -37 -4c-20 -2 -39 -6 -58 -7
c-9 -2 -17 -3 -25 -3c-10 0 -30 3 -37 10c-7 10 -7 6 -11 17c-1 4 -2 7 -2 11s0 5 2 7l2 3c3 6 6 8 9 8s5 0 9 -2c7 -3 13 -3 18 -3c25 3 49 4 73 5l68 8h69c7 0 14 -1 22 -2c4 0 10 -1 15 -3c2 0 11 -3 11 -7c0 -1 -1 -2 -2 -3c-2 -2 -3 -5 -4 -10c-2 -4 -2 -9 -2 -9
c-3 0 -5 -3 -7 -3c-7 0 -11 -7 -20 -7z" />
    <glyph glyph-name="greater" unicode="&#x3e;" horiz-adv-x="314" 
d="M75 217c-1 -1 -3 -4 -4 -4c0 0 0 6 -2 6c-1 0 -2 -1 -3 -1c-5 0 -12 4 -14 9c-1 1 -1 3 -1 5c0 5 1 10 4 14c10 13 25 18 42 33c23 22 47 37 71 58c2 1 19 11 19 14c0 1 -1 2 -2 2l-70 23c-13 4 -23 11 -32 22c-5 8 -7 12 -7 20c0 6 1 2 2 9v5c0 5 3 9 10 9
c11 -2 20 -9 29 -13c13 -6 28 -9 41 -14c20 -6 38 -14 58 -21c8 -4 18 -6 26 -11c7 -3 11 -8 15 -13c7 -10 1 -5 1 -16c0 -4 0 -7 -1 -10c0 0 -3 -2 -4 -2c0 0 -2 -1 -3 -2c-1 -5 -5 -7 -7 -10l-33 -25c-17 -13 -32 -25 -48 -39c-19 -15 -31 -27 -48 -42
c-3 -3 -19 -13 -19 -16c0 1 0 2 1 3c1 3 2 4 4 6c-3 0 -4 -3 -5 -3c-2 0 -4 -3 -6 -3c-4 -2 -11 -13 -11 -12s1 4 1 6s-1 3 -3 5c0 2 -1 6 -1 6c0 2 2 5 2 5c0 1 0 2 -1 3c0 -1 0 -3 -1 -6z" />
    <glyph glyph-name="question" unicode="?" horiz-adv-x="249" 
d="M210 584c-35 0 -71 -10 -101 -30c-2 -3 -2 -10 -2 -10c-1 0 -5 2 -7 3c-5 5 -11 7 -14 16c0 2 -5 2 -6 3c-2 2 -2 4 -5 5c-1 2 -1 5 -1 7c0 7 8 12 12 16c7 6 13 10 19 14l11 7l12 4c17 7 39 11 59 11c52 0 106 -28 106 -85c0 -24 -12 -44 -27 -59l-33 -38
c-58 -66 -107 -123 -129 -208v-4c-1 -1 -2 -2 -2 -4v-5c0 -2 0 -4 -2 -4c0 -8 1 -17 2 -19c0 -1 0 -3 -1 -5l-2 3c-3 0 -4 2 -5 3c-5 0 -2 3 -6 5c-2 0 -3 1 -3 2c0 2 -7 4 -7 6c0 1 0 3 -1 4l-6 11c-2 7 -3 9 -3 16c0 96 97 191 153 254c13 15 25 31 36 47c1 2 1 3 1 5
c0 10 -1 12 -7 20c-1 0 -2 1 -3 1c-14 5 -24 8 -38 8zM69 110c-11 0 -16 0 -24 6l-7 8c-3 3 -3 6 -3 10v5c0 3 2 7 3 10c2 5 6 6 10 6c0 0 5 3 6 3c3 0 6 -1 8 -3c1 0 2 1 3 1c5 0 9 -6 13 -8c3 -1 6 -6 8 -9c1 -2 1 -3 1 -4v-4v-4c0 -10 -8 -17 -18 -17z" />
    <glyph glyph-name="at" unicode="@" horiz-adv-x="489" 
d="M67 313c0 0 0 2 7 21c-1 2 -5 -6 -6 -7c0 -1 -1 -1 -3 -3v5c-1 -6 -2 -9 -4 -12c-3 -7 -4 -14 -7 -21c-3 -4 -4 -5 -5 -5s1 4 4 7c-1 1 -2 2 -2 3c0 3 3 6 3 9c2 5 3 5 3 5l4 11c1 0 2 1 2 3c0 1 -1 3 -2 4c4 2 16 30 16 34s9 25 16 35c0 5 3 8 4 11c1 0 2 -1 2 -2
s1 2 1 3c0 7 3 12 7 13c2 0 3 2 3 3c0 3 0 6 1 8c5 8 10 13 16 20c2 2 2 5 3 6c6 9 11 19 18 26l9 11c45 45 48 54 103 80c11 5 35 14 56 14h9c6 0 12 0 16 -3c6 0 10 -1 14 -3c10 -1 15 -7 26 -10c3 -1 5 -3 7 -4c-5 0 -12 1 -17 3h-4c3 0 4 -2 6 -2c4 -3 8 -3 14 -4
c4 -1 10 -3 16 -6c1 0 2 -1 4 -3c31 -18 51 -68 58 -102c2 -3 2 -4 2 -7c0 -1 -2 1 -2 3c-1 0 -2 -5 -2 -7c0 4 -7 19 -8 27l5 -10c1 -3 -2 10 -5 14c-2 7 -5 16 -8 23c-2 3 -3 5 -4 10c0 0 -3 0 -3 1c0 -10 5 -21 8 -27c3 -7 6 -13 7 -18c0 -2 -1 -3 -1 -3
c0 -2 3 -19 4 -27c0 -2 2 -2 2 -3v-4c-2 1 -2 2 -2 3c0 0 -1 4 -3 5v-4c0 -1 0 -3 2 -6c2 0 3 0 3 -1c0 0 -3 -4 -2 -4c2 -3 2 -6 2 -9c-1 -2 -2 -4 -2 -6s1 -5 2 -7c0 -1 1 -4 3 -5c-1 -2 -1 -3 -2 -3c0 -2 1 -3 2 -3v-4c-1 2 -3 1 -3 4c0 -1 -2 -3 -2 -3v-6
c1 -2 3 -2 3 -5c0 -4 -1 -9 -1 -12c0 -2 -3 -20 -3 -22v-16c0 4 1 6 1 9c0 0 2 -1 2 -6c1 1 3 3 3 4c0 8 1 16 2 24v46c2 0 2 -2 2 -5v-5s2 -2 3 -2v-18c0 -1 0 -3 -2 -4v-10c0 -2 2 -3 2 -4c-2 -4 -2 -7 -2 -11v-8l-2 -16c0 -23 -10 -44 -12 -66l-11 -40
c-2 -7 -5 -11 -6 -17c-3 -7 -4 -13 -7 -20l-9 -20c-1 -3 -1 -4 -1 -7c-3 -4 -3 -10 -6 -16c-4 -7 -8 -14 -14 -22c-1 0 -1 -3 -1 -3v4l12 20c-4 0 -5 -5 -7 -7c-4 -9 -10 -17 -14 -26c-8 -23 -36 -43 -58 -49l-24 -2c-38 6 -44 46 -44 78v9c0 11 1 18 1 29c0 6 0 11 1 17
c1 10 3 30 3 38c0 -11 -25 -34 -30 -42c-17 -15 -34 -25 -55 -25c-6 0 -11 1 -17 3l-14 15c-4 3 -7 9 -8 13c-2 6 -4 18 -4 24c0 8 2 16 4 25c6 17 3 19 11 36c11 31 26 62 51 85c14 16 27 31 45 40l13 5c0 3 5 4 11 4c7 0 15 -2 17 -3c3 0 7 -3 10 -4c5 0 7 -5 10 -5h19
c8 0 13 -2 13 -8c0 -1 -1 -3 -1 -4c-1 -13 -2 -26 -5 -39l-15 -70l-6 -42c-5 -39 -9 -78 -9 -118c0 -6 0 -12 1 -18c0 -4 3 -9 4 -13c1 0 11 6 14 9l8 8c41 61 59 130 74 201c0 2 1 3 1 5c5 27 8 54 8 81c0 8 0 17 -1 25c-1 16 0 28 -3 44c-4 20 -17 47 -30 64
c-13 19 -29 21 -47 30c-2 0 -3 1 -4 2c-3 1 -6 1 -9 1h-21c-11 0 -18 -1 -30 -8c-5 -2 -38 -18 -43 -25l-16 -15c-6 -7 -13 -13 -17 -21l-10 -13c-1 -1 -33 -53 -41 -73l-33 -78c-9 -21 -14 -42 -18 -65c-3 -10 -4 -20 -7 -31c0 -5 0 -9 -2 -15c0 -1 -1 -2 -1 -4
c0 0 -1 -1 -1 -3c1 -4 1 -8 1 -12c-2 -12 -2 -23 -2 -35c0 -29 5 -57 12 -85c3 -18 11 -35 23 -49c4 -6 8 -12 14 -15l31 -9c3 0 4 0 7 1c2 0 7 2 9 2c3 0 7 2 10 3c15 6 27 12 41 22l10 10c1 2 9 8 11 8c1 0 1 -5 2 -4c3 0 5 -3 7 -3c1 0 -3 -6 -3 -9c0 -11 -2 -5 -7 -16
c0 -3 -6 -8 -6 -9c-1 0 -10 -6 -14 -7l-40 -21c-8 -6 -28 -10 -39 -10c-18 0 -36 6 -53 15c-2 0 -2 1 -3 2l-12 11c-18 16 -25 30 -34 51c-2 1 -2 3 -2 4c0 3 0 4 -1 6c-2 2 -2 4 -2 7s0 6 -2 8c-1 2 -3 3 -3 6c-2 6 -3 11 -3 17c0 0 1 1 1 3c0 8 -4 18 -5 27v6c0 3 0 5 2 5
v-4c0 -1 5 -13 5 -16c0 -1 3 3 3 3s-3 6 -3 9c0 2 2 3 2 4c0 4 -1 11 -1 13v-4c0 -5 0 -6 -1 -6c0 -2 -1 -3 -2 -3v16s-1 9 -1 15c0 -1 -3 -7 -3 -10c1 -2 2 -4 2 -7c0 -2 -1 -4 -2 -6c-1 -1 -2 8 -2 9s0 3 -1 4s-1 3 -1 4c0 3 2 6 2 8c0 1 -1 2 -1 4c2 1 3 3 3 4
c0 2 -2 2 -3 3v4c1 3 2 5 2 7c0 3 -1 5 -2 7c1 7 4 19 4 19c0 2 -1 3 -1 5c0 -1 -1 -4 -1 -6c0 2 -1 3 -1 4s1 7 3 10v10l3 14c2 0 3 2 4 2s4 10 5 14l3 5c1 -1 2 -1 3 -1v4c5 9 6 18 8 26l-4 -5c-1 -2 -1 -4 -1 -5s-5 -6 -5 -6s5 12 5 15c0 0 1 3 2 4c2 7 5 12 6 19
c2 0 3 -1 3 -2c-2 0 -3 -1 -3 -2s1 -2 1 -3c-1 -1 2 0 2 3zM201 230c-4 -11 -6 -23 -9 -34c5 0 7 2 9 4c17 22 31 42 45 67l40 73c2 3 3 7 3 10s-2 10 -6 10c-1 0 -3 -1 -5 -2c-5 -4 -10 -10 -14 -14c-9 -10 -18 -20 -23 -30c-9 -13 -17 -27 -24 -41c-6 -14 -12 -29 -16 -43
zM51 262c0 0 -3 -1 -4 -1v-5c4 0 4 4 4 6z" />
    <glyph glyph-name="A" unicode="A" horiz-adv-x="484" 
d="M531 384h-5l-71 -5c-18 -69 -43 -157 -59 -221l-3 -15c-2 -9 -4 -19 -7 -28c-3 -6 -6 -11 -6 -17c-2 -5 -4 -9 -4 -15c-5 -8 -7 -18 -8 -25c-4 -15 -10 -27 -13 -39l-6 -10c-2 0 -2 2 -2 7c1 8 4 14 5 19l1 3c7 22 8 22 8 22l6 11c0 1 -6 -3 -6 -3l-2 -3l-18 -60
c0 -1 -7 -12 -7 -11l-5 12c-1 -2 -2 -3 -2 -4c-1 -1 -3 -1 -3 -1c0 -3 -6 -11 -5 -11h4c1 0 2 -1 2 -3c-1 -1 -2 -3 -2 -4c0 0 0 -2 -2 -2c0 2 -3 3 -5 3c-3 -1 -5 -2 -6 -2s-3 -3 -4 -3c0 -1 0 -2 2 -3c0 -2 -2 -2 -3 -2c-1 -2 -2 -1 -2 -4c0 -1 0 -2 -6 -2c-5 0 -9 3 -9 7
l2 14c0 4 1 7 2 10c18 65 71 251 104 374c-37 -5 -75 -11 -115 -19l-55 -13c-5 -11 -8 -22 -12 -32c-2 -6 -5 -12 -7 -19c-31 -91 -77 -224 -86 -262c-4 -12 -14 -31 -28 -31c-3 -1 -9 -1 -13 -1c-10 0 -22 3 -22 12c0 6 3 12 3 17l6 14c18 67 50 162 75 234l17 48
c-42 -13 -84 -29 -110 -45c-2 -1 -5 -4 -7 -6c-6 -3 -12 -5 -18 -5c-1 -3 -4 -4 -6 -4c-3 0 -6 3 -6 4c1 0 3 1 3 1c-10 3 -18 8 -24 16c-1 1 -2 4 -4 5c0 4 -1 3 -1 7c1 2 2 5 2 8c15 24 105 52 192 73c56 139 145 306 260 358c5 2 8 2 14 2c11 0 16 -1 22 -12
c1 -4 5 -7 10 -9c11 -11 15 -35 15 -65c0 -67 -20 -164 -31 -209l-6 -25h43c14 0 26 -2 32 -14c4 -7 8 -9 10 -9s3 1 3 1c-2 -8 -13 -9 -21 -9zM343 405c20 3 42 5 64 7l8 33c19 75 38 136 42 226l-1 18c0 1 -4 6 -5 5c-77 -38 -151 -177 -205 -304c33 6 62 11 82 13h10
c2 0 3 2 5 2zM400 209c-3 -7 -6 -16 -6 -25c0 1 -1 -2 -2 -4c1 0 3 0 3 2c1 2 2 6 2 7l20 71c-4 -8 -8 -20 -8 -21c-2 -2 -3 -5 -3 -8c-2 -2 -2 -3 -2 -5c0 -5 -3 -13 -4 -17zM372 85c0 0 2 15 4 22c0 6 3 11 3 20c-2 -7 -10 -38 -14 -47c2 2 6 5 7 5zM314 6c3 1 5 10 8 16
c0 1 -2 1 -3 1c-2 0 -11 -13 -11 -15c0 -1 -1 -3 -1 -3c1 -1 3 2 3 4l3 4c0 -1 0 -3 1 -7zM390 151c0 1 0 4 1 5c-1 0 -2 0 -3 1c1 4 4 11 5 18c-1 1 -3 -3 -3 -5l-4 -15c0 -3 -2 -7 -2 -11l1 -3c0 1 3 8 5 10zM320 7c-3 0 -5 -1 -7 -5c0 -1 2 -5 4 -5c1 0 2 1 2 2
c2 1 3 3 3 5c0 1 -1 2 -2 3zM423 326c-1 -6 -2 -9 -4 -12c5 -1 8 17 9 21c-1 2 -5 -7 -5 -9zM452 431c1 1 1 3 1 8c-1 -1 -7 -8 -7 -9l-1 -6c2 3 7 6 7 7zM320 31l4 -3v5c0 1 -2 5 -4 6c-1 -1 -1 -2 -1 -4c-1 -1 -4 -2 -4 -2c1 -1 5 -1 5 -2zM353 148l-2 -10
c0 -1 -1 -2 -1 -3v-4c0 -2 0 -3 1 -3l4 20c0 1 0 2 -1 5c0 -3 0 -4 -1 -5zM426 288c-2 0 -2 -2 -3 -3c-1 -6 -3 -8 -3 -11c0 -2 1 -3 1 -3c1 0 2 5 5 17zM302 7c0 -2 -3 -12 -4 -13c0 -3 1 -3 2 -4l3 11c0 3 0 4 -1 6zM344 41v-8c0 -3 0 -5 1 -6c0 3 1 5 1 7v9
c0 1 -1 -2 -2 -2zM482 546v-4c4 2 4 3 4 3c0 2 -1 3 -1 3c-1 0 -3 -1 -3 -2zM324 58c0 1 0 2 -1 4c-2 -2 -2 -3 -2 -4v-4c2 2 3 3 3 4zM476 543l1 -3c0 1 3 3 3 4s-1 3 -1 3c-1 0 -3 -3 -3 -4zM397 164c-3 0 -4 -2 -4 -4c-1 -1 -2 -5 -2 -5s5 7 6 9zM440 354
c-2 0 -2 -4 -3 -5c0 -2 1 -2 1 -3c2 2 2 6 2 8zM470 511l-4 -1v-4c1 0 3 1 3 2zM315 64l-2 -11c1 0 2 2 2 4v7zM390 226c0 -2 -1 -6 -2 -9c2 2 3 4 3 6c0 1 -1 2 -1 3zM387 136c0 -3 0 -4 1 -4c0 2 2 6 2 6c-1 0 -3 -2 -3 -2z" />
    <glyph glyph-name="B" unicode="B" horiz-adv-x="487" 
d="M272 399c62 -12 117 -32 152 -70c62 13 132 23 161 26l-13 -5l14 3c-1 -1 -3 -2 -3 -3l-8 -2l6 -2c-3 -4 -4 -4 -5 -5l-10 -5c2 0 4 1 5 1s-13 -9 -14 -14l-13 -7c-3 0 -5 -5 -11 -6c-1 0 -3 -1 -4 -2l-9 -1c-1 -1 -2 -2 -3 -2c-32 -9 -42 -10 -68 -17c-1 0 1 -2 1 -3
c6 -13 8 -26 8 -51c-4 -127 -199 -228 -306 -237c-31 -5 -58 -4 -88 -6h-6c0 1 2 1 5 1h6c4 0 7 3 13 3l11 1c2 1 5 1 6 1s2 0 3 1c1 2 2 3 2 3l-17 -1c1 0 -3 -1 -5 -1h-23c-1 0 -3 -1 -5 -1c-1 0 -2 0 -7 4c-5 0 -10 1 -11 3c-4 1 -8 5 -11 5c-8 1 -11 3 -13 7
c-1 0 -2 -3 -2 -3c-3 1 -8 2 -10 4c-3 4 -5 9 -7 13c1 0 3 -1 5 -3l3 -7c2 0 3 1 3 4c0 2 -5 7 -6 8c0 -1 2 -4 2 -4c-2 0 -7 5 -7 7c-1 0 -2 3 -2 4c-1 0 -5 11 -6 21c5 61 53 96 99 127c13 80 29 136 36 165c0 1 -4 -1 -5 -1c-5 -1 -16 -3 -28 -3h-8c-14 0 -18 13 -18 25
c0 5 5 11 8 13c1 0 3 1 3 2s6 7 11 9l51 10c3 1 4 3 5 6c53 170 75 217 75 221c1 2 2 8 6 8c7 1 5 4 10 6h8c4 0 10 -3 12 -7c9 -6 12 -11 13 -22l-1 -7c0 -2 -1 -3 -1 -4c-15 -43 -48 -131 -60 -179c-1 -4 -2 -5 -2 -6c1 1 2 2 5 2c146 45 261 112 261 182
c0 69 -97 93 -154 93c-118 0 -209 -49 -251 -96l-6 -7c-2 -3 -8 -3 -11 -3c-10 0 -14 15 -14 23c1 3 7 7 7 10v8c1 16 13 30 26 40c49 40 125 75 228 75c89 0 219 -37 219 -146l-1 -8c-10 -116 -182 -181 -236 -198zM408 245c0 10 -3 24 -6 33c-57 -14 -211 -79 -267 -110
c0 -6 -4 -18 -6 -42v-6c0 -5 -5 -12 -5 -16c0 -1 0 -2 1 -3s1 -4 1 -4c0 -1 -2 -1 -3 -2c0 -4 -1 -4 -2 -4c-3 0 -1 2 -4 2c0 -2 0 -4 1 -4c-2 0 -3 1 -5 1c0 -1 -3 -1 -5 -1s-8 2 -10 2c-5 4 -8 8 -11 12l-8 23c-17 -10 -53 -43 -53 -59s26 -25 40 -26l8 -1
c62 0 140 17 203 50c53 28 129 85 131 155zM301 291c1 1 15 5 16 5l7 2c8 3 33 9 48 13c-25 26 -124 46 -169 46c-6 0 -20 -1 -26 -2c-17 -58 -16 -62 -24 -95l-7 -30c0 -3 -1 -6 -1 -6c2 0 2 1 2 2c1 0 2 0 3 1l8 8c0 -1 0 -2 -1 -4c2 0 4 2 5 3l5 1c-1 1 -2 1 -5 2
c1 2 8 2 9 2c4 0 6 2 7 3c1 3 4 3 6 3h4c-3 -1 -5 -3 -6 -4c2 0 5 0 7 1c1 4 42 23 47 23c1 0 2 -1 2 -2c3 0 4 6 8 6c1 0 5 3 10 4c6 0 9 1 13 4c1 2 9 4 16 8c11 4 5 1 16 6zM153 284c0 7 3 17 4 22l12 41c-5 -10 -8 -19 -11 -30l-5 -20c-3 -13 -4 -18 -5 -17
c0 0 -1 -5 -1 -6c0 0 -2 -6 -2 -11l-2 6s-1 -1 -1 -3s1 -6 2 -10c-1 -2 -3 -14 -4 -14c-1 -1 -1 -2 -1 -4s0 -3 -2 -7c0 -2 -1 -5 -1 -8c3 1 4 4 4 8c0 3 1 8 2 10l3 13c1 0 1 2 1 6zM173 212c4 0 20 11 27 18c0 1 -3 -2 -4 -2c-2 0 -5 -1 -4 0c-11 0 -15 -11 -22 -12h9
l-10 -4h4zM195 442c0 -1 1 -2 1 -3l-3 -5l-2 -8c6 9 6 11 21 56l-3 -5l-11 -30c-2 -2 -3 -3 -3 -5zM353 87c3 1 6 3 8 6c9 7 12 8 15 9l9 10c-1 -1 -3 -1 -4 -1c-4 -2 -7 -2 -7 -7l-5 -4c-1 0 -4 0 -4 -1c-4 -4 -10 -9 -16 -13l-5 -4c1 0 3 0 4 1c1 2 3 3 5 4zM357 271
c3 2 9 1 11 2l15 6c-2 1 -3 1 -4 1c-2 0 -2 -1 -3 -3l-3 3c0 1 4 3 5 4c-3 0 -5 0 -7 -2c-3 -4 -12 -7 -14 -11zM14 28c-1 0 -2 1 -5 2l3 -6c11 -5 15 -5 17 -5c1 0 6 -3 6 -3c1 0 -1 3 -1 3c0 1 -2 3 -3 3c-3 1 -7 2 -10 2c-4 0 -5 0 -7 4zM456 515c0 2 0 4 1 5
c-3 -1 -4 -3 -4 -4c-1 -2 -6 -5 -7 -6c0 0 8 3 10 5c0 -2 0 -3 -1 -5c-1 -3 -5 -4 -8 -8c0 -1 9 6 10 7c3 1 6 2 7 3c-1 1 -6 1 -8 3zM324 264c0 0 -1 0 -14 -1c0 0 -6 1 -7 1c0 -2 3 -4 9 -4c7 0 12 2 12 4zM296 413c1 0 3 0 4 1l-4 4h-6l-1 -5c1 -1 2 -1 3 -1s2 0 4 1z
M192 232c1 0 8 2 9 3c0 2 -2 4 -3 4c-6 0 -5 -7 -6 -7zM229 20c1 0 2 1 3 1l18 8h-8c-2 -2 -4 -3 -7 -3zM246 244c2 0 6 2 7 3c2 0 3 1 6 1c-2 1 -2 3 -3 3c-5 0 -11 -7 -10 -7zM290 274c2 3 6 8 13 10h-6c-6 0 -4 -2 -10 -8c1 -2 2 -2 3 -2zM230 248c0 0 12 3 12 4
c0 2 -2 3 -4 3s-5 -5 -8 -7zM339 294c1 0 9 2 11 4c2 0 3 0 5 1c-1 1 -3 1 -4 1l8 2l3 2c-12 0 -12 -9 -28 -9zM168 220c-1 -2 -5 -4 -5 -6c-3 0 -5 -2 -6 -4c5 2 10 3 11 10zM172 5c4 0 6 2 9 3h-5c-1 -1 -4 -2 -6 -2c-1 0 -10 -3 -9 -4zM94 7c3 0 11 1 13 2h-10
c-3 0 -6 0 -9 -1c2 -1 3 -1 6 -1zM312 286c2 0 6 1 8 2h-8c-2 -1 -4 -2 -5 -2h5zM82 8c2 0 4 0 4 2c-1 0 -8 -1 -11 -1c2 -1 4 -1 7 -1zM333 259c-2 0 -2 2 -3 2l-6 -4c5 0 5 1 9 2zM230 237c0 0 2 1 3 1l6 3h-6c-1 -2 -3 -4 -3 -4zM78 5c-1 0 -2 1 -3 1h-4
c-2 0 -4 -1 -5 -1h12zM362 299c-1 0 -4 -3 -4 -3l4 2c2 0 4 0 4 1h-4z" />
    <glyph glyph-name="C" unicode="C" horiz-adv-x="396" 
d="M333 140c0 0 0 3 3 3c-2 0 -4 0 -4 -1c0 0 -2 -3 -2 -5c0 0 3 0 3 3zM377 192c-3 -2 -15 -18 -15 -19c-4 -4 -21 -26 -21 -24c0 1 5 2 6 3c7 9 24 25 30 40zM333 133h-8c1 -2 5 -4 5 -4s2 2 3 4zM148 24h4c37 2 141 97 246 225c3 3 48 55 51 55c-1 -3 -2 -4 -2 -5
c-8 -10 -131 -154 -166 -187l36 33l23 27c6 4 81 93 111 129l1 -6l-2 -3l-1 -8c0 -3 -7 -3 -7 -3v-7c0 -2 3 -4 3 -4c0 -1 0 -2 -2 -3h-6c1 -1 3 -5 3 -6c0 -2 -7 -14 -7 -14c0 -1 -1 -1 -1 -3c-4 -2 -5 -7 -5 -9c-4 0 -6 -3 -6 -7c-4 0 -7 -8 -7 -8l-7 -9
c-3 -2 -1 -2 -5 -5c-7 -8 -5 -6 -7 -9c0 -1 0 -3 -1 -3c-3 -2 -5 -4 -7 -10c1 0 35 41 36 42c-3 -7 -58 -77 -59 -77c0 -4 -6 -7 -8 -12c-5 -4 -7 -4 -7 -7c-2 0 -2 -1 -2 -2s-2 -4 -2 -3c0 2 -1 2 -2 2v-8c-6 0 -6 -3 -9 -7c-3 -2 -8 -6 -9 -8l-15 -14
c-10 -11 -30 -31 -45 -45l-12 -9l-4 -1c0 -3 -2 -2 -3 -3c-2 -2 -57 -48 -110 -48c-34 0 -62 17 -84 41c-31 32 -40 80 -40 132c0 176 127 443 273 548c2 4 7 8 13 8c9 0 11 5 17 5c3 0 6 -1 9 -5c2 1 4 4 5 4c4 0 5 -2 6 -2h23c5 0 5 -2 15 -7c38 -16 66 -67 66 -135v-7
c0 -8 -1 -18 -2 -28c-1 -23 -6 -51 -13 -63l-1 -15c0 -8 -1 -18 -3 -24c-6 -1 -21 -5 -23 -7c-23 3 -32 28 -32 56c13 13 17 70 18 84v9c0 37 -6 90 -51 97c-80 -35 -181 -215 -216 -309c-15 -38 -47 -137 -48 -214v-6c0 -58 27 -120 80 -122z" />
    <glyph glyph-name="D" unicode="D" horiz-adv-x="631" 
d="M372 576c-4 -30 -13 -66 -24 -105c-19 -67 -49 -156 -76 -258l17 6c72 27 158 55 246 74c23 46 42 111 42 174c0 127 -79 206 -204 206c-15 0 -30 0 -44 -2c-1 0 -6 4 -5 4c12 4 28 4 49 5h6c2 0 4 0 4 1l-27 1c-1 0 -31 0 -31 -4c-1 0 -5 1 -5 1c-4 0 -6 0 -8 -1
c-1 0 -2 -1 -2 -3h-5c-5 0 -11 0 -12 -3c-2 -2 -3 -2 -3 -2c-1 0 -4 -2 -4 -3c0 0 3 2 5 2c9 2 18 5 28 5c2 0 6 -4 5 -4c-162 -24 -323 -164 -323 -300c0 -32 18 -52 54 -55c1 -4 1 -5 1 -6v-5c0 -4 -2 -9 -5 -11c-12 -7 -21 -7 -36 -7h-4c-14 1 -48 31 -52 66
c-2 9 -2 14 -2 24v12c21 197 232 331 403 331h16c176 -8 247 -128 247 -258c0 -56 -13 -105 -31 -158c45 8 72 10 100 13c3 0 6 1 9 1c2 0 5 1 7 1h5c5 -1 7 -2 7 -3c-1 -7 -1 -8 -1 -8s-1 -3 -3 -6c-2 0 -5 -9 -7 -8l-3 -4c1 0 3 1 4 1c-2 -2 -5 -4 -5 -7c0 -1 -2 -3 -2 -3
c0 -2 -10 -6 -9 -7l-7 -1c-1 0 -2 0 -6 -1c-43 -6 -76 -13 -111 -22c-81 -129 -198 -226 -342 -246c-1 0 -7 -1 -8 -2c-1 1 -3 -6 -3 -6c-2 -1 -2 -3 -9 -3h-4l-7 -4c-3 1 -9 3 -10 3s-2 1 -4 1c-1 0 -10 0 -11 -1c-5 3 -2 10 -7 10h-6c-31 3 -89 18 -89 58
c7 62 107 113 136 127c2 1 3 2 3 4c40 135 75 257 124 413c1 4 1 21 8 21c8 -1 17 -3 24 -10c6 -7 8 -15 8 -25c0 -4 0 -9 -1 -13zM506 238c-93 -27 -171 -50 -243 -83c-3 -1 -5 -3 -5 -5c-7 -21 -22 -78 -26 -100c126 27 213 108 274 188zM176 50l1 6c2 22 11 52 16 74
c-6 -5 -86 -43 -86 -62c0 -2 1 -4 2 -5c16 -7 28 -12 42 -12l11 -1c1 0 7 -1 11 -1c2 0 3 0 3 1zM444 109c0 5 9 19 12 23c0 1 -8 -5 -8 -5c-2 0 -6 -12 -6 -14c0 -4 2 -4 2 -4zM350 59l9 2c2 0 5 4 5 5s-2 2 -3 2c-5 -2 -6 -7 -11 -9zM557 247l-15 -26c9 13 19 27 19 27
c-1 0 -3 -1 -4 -1zM344 79h5c6 0 15 4 14 4c-3 0 -15 -3 -19 -4zM409 91c1 4 3 5 7 7c-3 1 -4 1 -5 1c0 0 -1 -3 -1 -4c-1 -4 -8 -5 -9 -7c3 0 5 2 8 3zM302 63l-6 -2c0 2 -6 -5 -6 -5c7 2 12 7 12 7zM408 114l-4 4c0 -2 -2 -5 -4 -7c4 2 7 2 8 3zM424 109l8 3
c1 1 -2 2 -5 2c0 -2 -2 -4 -3 -5zM392 81l-4 2c0 -1 -1 -2 -3 -5c2 0 5 2 7 3z" />
    <glyph glyph-name="E" unicode="E" horiz-adv-x="358" 
d="M269 378c46 0 130 0 149 -22h-11c3 -3 3 -4 3 -7c0 -2 1 -4 10 -9h-14c-36 0 -69 2 -102 2c-4 0 -6 -1 -9 -1h-10s0 -2 -4 -2c8 -2 17 -2 24 -2h14c-19 -6 -47 -10 -66 -10c-33 -5 -68 -9 -101 -9c-9 -3 -20 -3 -31 -5c-2 0 -5 0 -5 -3l-2 -8c-20 -62 -41 -131 -41 -197
c0 -33 33 -48 72 -48c55 0 125 23 144 45c3 5 15 21 19 21c0 0 1 -5 3 -5c1 0 -5 -7 -5 -11c3 0 3 4 6 4c0 -4 -3 -4 -3 -4c0 -2 -1 -4 -1 -5h13l3 3c0 -5 -3 -6 -6 -10l3 2s1 -2 1 -3c0 0 -5 -2 -5 -4c1 0 4 1 5 1s3 2 4 2c2 0 -17 -17 -19 -18c-3 0 -5 -4 -5 -4
c-2 -2 -4 -2 -4 -2c-2 0 -8 -4 -8 -6c-4 -4 -11 -7 -14 -7c0 -2 -1 -5 -3 -5l-3 -3l3 1c3 0 6 2 7 3l12 7c-19 -19 -55 -37 -81 -37c-15 -9 -40 -11 -56 -11c-67 0 -123 22 -133 90c-1 4 -1 7 -1 12c0 49 27 157 42 207c-4 6 -10 18 -10 26c0 2 0 4 1 5c4 9 14 17 25 17
c19 53 63 166 67 213c-2 2 -2 3 -2 5v4c0 9 7 17 16 17c10 0 26 -11 26 -25c1 -3 2 -7 2 -11c0 -55 -29 -128 -45 -179c-3 -7 -4 -11 -7 -20c40 4 85 6 124 6h9zM49 676c0 7 10 12 12 12c8 -4 10 -4 13 -4c17 -2 34 -3 51 -3c34 0 68 3 100 3h37c19 0 35 -1 49 -5
c7 0 13 0 19 -3h5c20 0 46 -6 63 -15c3 0 3 -4 6 -6l3 -3h-3c3 -3 8 -3 11 -6h-3l3 -4c-2 -2 -1 -5 -3 -7h-4c-7 0 -8 2 -9 2c-2 0 -4 -2 -6 -2l-4 4h-6s-2 -3 -4 -3c0 -1 5 -1 7 -1c0 -4 -2 -4 -5 -4c-4 0 -9 2 -8 1c0 0 -1 1 -3 1s-2 2 -2 3l-4 -2c-3 0 -5 0 -12 3
c-3 4 -3 5 -6 5c-2 -3 -4 -3 -7 -3h-9c-3 0 -6 0 -9 -4h19c3 0 7 0 6 -1c7 0 11 -2 15 -2c0 0 4 -1 7 -1l-4 -2c-3 0 -6 -1 -9 -1c-2 0 -5 1 -6 2c-26 2 -34 2 -38 2h-19c-25 0 -49 3 -74 3c-3 0 -7 -3 -10 -3h26c-4 -2 -7 -4 -9 -4h-25c-16 0 -29 -1 -43 -1h-49
c-2 0 -5 0 -8 -3h-5c-5 0 -9 3 -12 6c0 2 -2 5 -2 9c-3 0 -7 4 -7 7c-5 5 -18 6 -18 16c0 4 -4 4 -4 8c0 3 -3 3 -3 6zM306 640c0 2 1 4 2 6h-15c-2 0 -4 1 -7 3l-3 -4h7c4 0 8 0 12 -3h-5c-2 0 -4 0 -4 -2c-6 0 -9 1 -18 1c0 0 -4 0 -4 1h-13c-3 0 -7 -3 -7 -3
c3 0 5 -1 7 -1h24c2 -1 4 -1 5 -1c3 0 6 1 9 1c1 0 2 0 4 -1h9c-1 1 -3 1 -3 3z" />
    <glyph glyph-name="F" unicode="F" horiz-adv-x="346" 
d="M302 648l3 -3c1 -1 3 -2 4 -2s8 2 7 4h-8c-3 0 -4 5 -7 5s-8 -2 -8 -2c-2 0 -3 -1 -6 -1h-7c-2 0 -5 0 -4 -1c-2 1 -5 1 -7 1c-3 0 -3 2 -4 2c-4 -1 -9 -4 -11 -5c-3 0 -4 -1 -5 -1h-4c-3 0 -4 0 -4 1c-3 -1 -4 -2 -5 -3c-1 1 -3 3 -4 3s-3 -5 -6 -5c0 0 -5 1 -8 1
c-2 0 -3 -1 -3 -2c0 0 0 -3 1 -3c3 0 5 0 8 3c1 0 12 1 12 1c3 1 7 1 11 1c2 0 7 0 8 2c4 0 7 2 7 2l12 1c2 0 6 -1 6 -2c0 0 4 2 7 2s2 -3 6 -3c0 1 4 5 5 5c0 0 1 -4 2 -4c0 3 2 3 2 3zM402 649l8 -2c0 4 -9 5 -12 5h-4c-1 0 -3 1 -3 1l-5 2c-4 0 -4 -2 -5 -2
c-2 0 -3 1 -5 1s-2 -3 -3 -3s-4 2 -7 2h-26l-3 -1c-1 0 -3 -1 -6 -1l-5 2l-5 -4c0 -4 2 -5 5 -5l-1 3c1 1 2 2 4 2h50l5 2c2 -1 5 -2 7 -2h11zM446 658c-2 -2 -2 -3 -2 -7c1 1 2 1 3 1s3 -2 3 -3c0 0 3 3 3 5c0 1 -1 1 -4 3c-1 0 -3 0 -3 1zM463 642l4 3s-1 3 -4 3
c-2 0 -2 -2 -2 -3c0 -2 1 -3 2 -3zM440 659l-3 3v-5c2 0 3 1 3 2zM330 361l-3 -3c-1 -4 1 -6 -4 -6c-2 3 -2 4 -2 4c-2 -2 -9 -6 -10 -6c-3 3 -4 3 -4 3c-2 0 -3 0 -4 1c-1 -1 -2 -2 -3 -2s-2 1 -2 3l-2 -4l-1 4l-3 1c-1 -3 -2 -4 -4 -4l-2 4s-2 0 -3 -3c-2 0 -4 -1 -4 -2
s0 -2 3 -4l-3 -5l-4 1c-4 0 -6 -1 -8 -1c-1 0 -2 1 -2 2l-1 4h6c1 0 2 0 4 4c0 -1 -1 -1 -3 -1s-5 0 -6 1s-2 1 -9 1h-5c-7 0 -8 1 -9 2h-5l-3 -4l5 -2c0 -2 -3 -5 -3 -5c-1 0 -2 1 -3 2l-1 -3l-3 2c0 -1 -1 -2 -3 -2c0 0 -3 2 -4 4c0 -3 -5 -3 -7 -3s-3 1 -4 2
c0 -7 3 -8 3 -8c0 -1 1 -2 1 -3s-1 -3 -2 -3c-2 0 -5 1 -6 2c-6 0 -7 -1 -7 -4c-1 0 -2 2 -3 2c-2 0 -4 -1 -5 -3c-3 0 -5 0 -7 1l-34 -3l-8 -36c-20 -75 -52 -196 -52 -245v-31c-2 1 -5 1 -7 1c-5 0 -5 -1 -9 -1c-32 0 -32 22 -34 54c0 12 1 27 3 41c7 50 45 193 50 214
l-6 6c-4 4 -8 9 -10 14c-1 9 -3 8 -3 12c0 2 3 18 4 19c4 5 10 8 20 8h4c2 0 7 1 7 3c12 40 48 183 58 236c-2 0 -24 -2 -26 -2c-4 0 -10 -3 -19 -3c-8 0 -18 2 -26 9l-6 6l-10 15c0 3 -1 10 -1 14c3 13 12 16 23 16c5 0 11 -1 17 -1c89 0 143 11 210 11
c44 0 156 -1 176 -34c0 -1 -5 -1 -8 -1c-1 0 -8 -2 -8 -4s1 -3 1 -3c-1 0 -5 3 -7 3c0 0 -1 -5 -1 -7c0 -3 -1 -3 -3 -3l-8 1c0 -5 -4 -7 -9 -7c-2 0 -3 1 -3 2c0 0 -3 2 -3 4c-1 -3 -3 -3 -5 -3c-5 4 -6 4 -8 4c-1 1 -2 1 -3 1l-6 1l-2 -3c0 1 -1 2 -2 2c-2 0 -4 -2 -4 -3
c0 1 -1 2 -9 3h-11c-2 0 -4 2 -5 2s-6 -2 -6 -2h-29l-14 -1c-40 0 -94 -3 -137 -9c1 -1 1 -3 1 -6c0 -37 -42 -197 -53 -241c39 2 84 6 132 6h23h12h19c12 0 24 -1 35 -4s9 -3 14 -11h-5c-2 0 -4 0 -5 -2c1 -2 2 -3 2 -4c0 0 -5 -3 -7 -3s-1 3 -6 4c0 3 -5 2 -7 4
c-4 0 -5 0 -5 1c-1 0 -4 0 -5 -1c0 0 3 -4 3 -6l4 -1c0 -1 0 -2 -2 -2h-8c-4 -1 -3 -3 -6 -3h-8l-1 -8h-4c-5 0 -8 4 -9 8zM215 340c1 0 2 2 7 2c2 -1 4 -2 7 -2l3 -4l-4 -4s-2 0 -2 3c0 1 -1 -1 -3 -1h-5c0 3 0 5 -3 6zM218 355l-6 1l3 -8h5s3 1 2 2c0 4 -1 5 -4 5z
M345 369c3 1 2 5 5 5c0 2 -2 3 -3 3c0 0 -5 -1 -7 -2c3 -5 2 -3 5 -6zM204 340c4 0 5 0 5 1s-2 2 -4 2c-1 1 -2 1 -3 1s-5 2 -5 1s6 -5 7 -5zM234 363l-5 3l-1 -3h-4l2 -6l8 2v4zM233 348l-2 5c0 -5 1 -5 2 -5zM179 350v4h-6c1 -3 3 -4 6 -4zM336 362c-2 3 -5 4 -5 4
c-1 0 3 -4 5 -4zM190 337l5 3l-7 1c1 -1 2 -4 2 -4zM243 358l-5 4v-5c0 1 1 1 5 1zM182 340h4l-1 4s-2 0 -3 -4zM255 360v-4c2 1 4 2 4 3c0 0 -2 0 -4 1zM218 362l1 -3c2 0 3 1 3 2z" />
    <glyph glyph-name="G" unicode="G" horiz-adv-x="545" 
d="M79 213v-10c-1 -4 -2 -5 -2 -5c-1 0 -2 4 -4 4v-7c0 -1 0 -2 -1 -3c4 0 3 -4 4 -6c0 10 5 9 6 23c0 1 -3 4 -3 4zM360 345c7 1 17 11 17 11c1 0 2 0 4 2c-7 0 -14 -4 -21 -13zM72 236l8 16c0 2 0 4 -1 4c0 -6 -5 -11 -6 -10c-2 -3 -4 -7 -4 -12c3 0 3 1 3 2zM441 282
c-2 -5 -11 -16 -12 -16s-3 0 -3 -4c1 -1 2 -1 3 -1c3 0 6 7 6 8c-1 0 7 11 6 13zM419 246v-8c2 0 4 1 4 1c0 7 -4 10 -3 10c-3 -2 -4 -3 -4 -5c0 -1 0 -2 1 -4zM416 381c3 3 6 3 9 7c-6 0 -14 -8 -14 -7c0 -1 0 -4 1 -4c1 1 3 4 4 4zM232 -135c1 -1 2 -1 3 -1c3 0 6 3 8 4
c-4 0 -4 4 -4 4c-3 -4 -6 -4 -7 -7zM305 277l10 6c3 4 4 6 4 6c1 0 -7 -5 -10 -6s-4 -4 -4 -6zM273 -132c-2 0 -4 4 -4 3s-8 -8 -8 -8c1 0 11 4 12 5zM81 301l1 11c-2 -2 -3 -2 -3 -2c0 2 -1 -3 -2 -5c2 0 4 -3 4 -4zM322 -89c1 0 6 0 6 7c-5 -3 -4 -4 -6 -7zM75 293v-5
c5 0 6 0 6 2c-4 0 -5 2 -6 3zM310 -45c0 0 5 0 5 4c-4 -3 -6 -4 -7 -4c-1 -1 -1 -3 -1 -4c0 0 3 0 3 4zM92 275c0 -2 1 -3 3 -4c0 4 0 7 -1 7c-2 0 -2 -2 -2 -3zM99 350h-7l3 -3c4 0 4 3 4 3zM188 510c-2 0 -3 -1 -3 -2c0 -2 1 -3 1 -4c1 1 2 -1 2 6zM86 325c2 0 4 1 6 1
c0 0 -1 3 -1 4c-1 0 -2 -2 -5 -5zM354 205c-2 0 -6 3 -6 2s3 -4 3 -4c1 0 3 2 3 2zM201 520h-6c0 -2 1 -3 2 -3s1 1 4 3zM386 230l-1 -7c3 4 3 5 3 5c0 2 -2 2 -2 2zM82 267l4 4c-3 0 -5 0 -5 -1s1 -2 1 -3zM234 -161l3 -3c1 0 1 3 2 3h-5zM162 452h-5c1 -2 2 -2 3 -2
s2 0 2 2zM309 569l-25 -21c-33 -32 -33 -31 -52 -53c-3 0 -5 -6 -8 -9c-4 -5 -13 -15 -17 -21c-9 -10 -36 -46 -40 -52c-2 -2 -5 -5 -5 -8l-7 -10c-10 -15 -35 -58 -50 -91l-1 -7c0 -6 -7 -10 -7 -15c0 -1 1 -3 2 -4c2 8 6 14 10 15l-6 -16c0 -1 -2 -3 -2 -4
c-1 -1 -2 -3 -2 -5v-4c-3 -7 -19 -59 -19 -83c0 -4 0 -7 1 -9c1 -3 9 -5 10 -5c14 0 106 67 142 96l66 53c53 42 134 117 169 129c3 6 9 10 15 10h18c8 0 5 -6 14 -15c5 -4 7 -17 7 -28c0 -6 -2 -13 -2 -18c0 -4 -6 -46 -6 -46c51 23 58 25 82 30c7 2 17 3 25 3
c12 0 21 -3 22 -9c0 -7 -3 -18 -10 -20c0 0 -5 -1 -30 -10c-59 -22 -68 -32 -101 -57c-39 -154 -69 -231 -153 -353l-10 -5c3 0 3 -1 3 -2l-4 -4c-4 0 -1 -8 -7 -8l-6 -4c-1 -12 -3 -8 -9 -14c0 3 3 3 3 6c-3 -3 -9 -6 -12 -13c0 -1 2 -3 2 -4c0 -2 -1 -4 -4 -4
c-2 0 -4 2 -6 2c-1 0 -2 -1 -2 -4c0 -2 1 -4 1 -4c-3 0 -5 2 -5 3c-1 -4 -3 -7 -6 -7c2 -2 4 -2 5 -2s2 0 3 -1c1 0 -8 -3 -12 -7c-13 -3 -17 -17 -23 -17c-3 0 -12 -7 -16 -9c5 0 7 -2 7 -3c0 -2 -5 -4 -8 -4l-7 -2l-4 2c-1 0 -2 -1 -2 -2c-1 0 -3 -2 -4 -3
c-2 0 -3 -1 -4 -1c-3 0 -8 7 -11 7c0 0 0 -3 -3 -5c3 0 3 2 5 2s3 -5 4 -6c-4 -9 -12 -9 -19 -9c-2 0 -10 -6 -12 -6c-4 0 -2 6 -5 6c-1 -4 -3 -5 -5 -5h-10l-17 3c-4 1 -7 3 -11 5l-9 6c-1 1 -6 1 -7 2c-2 2 -5 3 -7 6c0 2 -6 6 -6 9c-1 2 -1 5 -1 8s0 5 1 8
c6 142 233 384 342 458c8 22 17 75 17 85c-5 -5 -6 -8 -13 -11c-2 0 -7 -4 -9 -7l-7 -4c-1 -3 -5 -5 -5 -5l-4 -4c0 1 -4 -2 -4 -4c-1 -1 -3 -2 -8 -2c-2 0 -2 -4 -4 -6l-7 -8c-3 -1 -5 -1 -6 -3c-2 -4 -11 -8 -11 -8c-2 -1 -16 -13 -16 -14c2 0 6 2 7 2c0 -1 0 -2 -2 -3
c-1 -2 -6 -2 -6 -5c-3 -2 -4 -5 -8 -5c-7 -5 -12 -11 -18 -15c-5 -7 -43 -36 -47 -37c-90 -70 -160 -122 -196 -122c-35 0 -67 27 -69 55v9c0 77 47 177 86 232c4 5 7 8 7 8s3 -1 5 -6c0 3 -2 10 -2 11c4 6 8 12 12 16c1 3 3 1 7 6c0 0 0 4 -1 4c-1 1 2 2 2 3s4 2 4 5
c3 3 4 9 7 9c1 0 -1 -3 -1 -4c3 0 3 3 7 7c-2 0 -3 -1 -3 -2c0 3 2 4 4 4s4 -1 6 -1s5 1 5 5c0 0 -6 0 -5 -1c-3 0 -8 -2 -7 -1c23 36 180 204 313 204c50 0 101 -24 104 -82c-1 -13 -6 -34 -23 -39c-1 0 -2 -1 -3 -1c-2 0 -5 -1 -8 -1c-4 0 -8 1 -10 13v5c0 5 0 12 -3 21
c-1 1 -1 3 -1 11c-9 27 -36 38 -45 38c-45 0 -123 -43 -204 -119c-52 -49 -104 -113 -150 -191c-3 0 -4 -1 -4 -3s1 -4 1 -5c-8 -12 -18 -32 -25 -48c-2 2 -2 5 -2 6c2 7 26 52 28 56c5 8 20 33 20 34l10 14c2 4 2 5 5 8c7 8 19 26 24 32c18 25 58 68 59 69l10 10
c20 21 32 31 37 36zM311 113l-14 -16c-32 -43 -121 -168 -132 -203c0 -1 -2 -6 -2 -4c-1 -2 -4 -8 -4 -10c0 -1 -5 -4 -5 -5l4 -2c-6 -13 -7 -21 -8 -29v-6c0 -1 9 -5 10 -5l19 4c113 56 214 273 252 383l5 21l-59 -58l-8 -6l-28 -31c-4 -3 -7 -8 -10 -10l-9 -9
c-1 -2 -1 -4 -1 -5c-3 -5 -8 -6 -10 -9z" />
    <glyph glyph-name="H" unicode="H" horiz-adv-x="469" 
d="M250 682c0 -3 -3 -10 -3 -10l-5 -17c-17 -59 -43 -146 -66 -237l-9 -35c69 11 150 21 213 27c24 90 48 179 76 271c1 3 2 6 4 9c0 7 2 13 9 19c2 6 3 8 8 8c3 0 3 -1 3 -5c0 -1 0 -2 1 -3h5c14 -9 17 -20 17 -37v-12c-8 -33 -32 -115 -66 -247c7 1 14 1 20 1
c11 0 19 1 25 1c3 0 5 0 6 -1l6 -5c1 1 5 2 7 2c1 0 4 -3 5 -3c-1 -2 -4 -1 -7 -5l8 -2c0 -2 7 -1 10 -4c3 0 8 -3 8 -7c0 0 4 -1 4 -4l-1 -7c-4 -2 -10 -2 -16 -2h-6l-81 -8c-21 -81 -45 -179 -71 -292c0 1 -6 -16 -8 -19c0 6 -2 14 -2 21l-2 -2c-1 0 -2 -2 -3 -12
c0 -3 1 -6 1 -10l6 -2l-12 -6c0 -2 1 -3 1 -5l-2 -7l3 -3l3 3v-5c0 -3 0 -6 -2 -8c0 1 -1 0 -3 0l-1 -6c0 -2 -1 -5 -1 -6c-2 0 -1 -3 -3 -3l-2 -9l-6 -1v-4c-2 2 -2 4 -2 5s-2 -5 -5 -5v4c-5 0 -6 -2 -7 -4l-4 4v-1s-1 2 -1 3c1 -1 1 -1 2 -1c0 1 -1 2 -3 2s-4 -1 -6 -2
c0 1 1 3 1 4c0 2 -1 3 -2 3c-5 0 -12 5 -12 14c4 11 5 17 6 21v8l80 315c-83 -10 -155 -21 -215 -33c-25 -98 -49 -200 -62 -266c-1 -9 -1 -11 -2 -11s-2 1 -4 1c-6 -23 -5 -23 -12 -25h-6c0 1 3 1 3 2c0 0 -1 1 -5 1h-10c3 -3 4 -4 3 -4s-6 3 -8 8c0 4 -1 7 -3 9
c-2 1 -2 2 -2 4l1 10c-3 0 -3 1 -3 3c0 0 0 2 1 5v7l-3 -3v5l3 10v12c0 4 0 8 1 12c13 72 29 141 47 207l-66 -15c-4 0 -17 4 -18 6v13c0 16 6 12 14 24c9 7 16 12 25 13c2 1 4 2 9 3l51 11l10 33c19 71 41 159 77 266c7 20 27 35 39 37l8 3c4 0 9 0 12 -7c1 -1 1 -2 1 -3
c0 -2 -1 -3 -1 -5zM328 362c1 0 3 1 5 2l3 2c-1 1 -1 2 -3 2h-7c-1 0 -2 0 -8 -2c2 -1 3 -1 5 -1s2 -3 5 -3zM347 98c0 0 2 -2 2 -3c1 1 1 3 1 4c0 0 -1 2 -1 5s2 8 2 9c-2 -2 -3 -4 -4 -7v-8zM345 367c0 0 4 2 4 3h-5l-4 -1c1 -1 1 -5 2 -5s2 3 3 3zM342 374c1 0 2 1 3 2
h-7c1 -1 3 -2 4 -2zM358 123c1 1 1 2 1 3s-1 2 -1 3v-6z" />
    <glyph glyph-name="I" unicode="I" horiz-adv-x="152" 
d="M50 50v-4c0 1 -2 3 -3 6v-11c-3 0 -4 0 -4 -1c1 -3 3 -8 3 -9c-2 0 -9 7 -9 9c0 -2 1 -4 1 -5c0 -2 -3 -4 -5 -5c0 0 -1 1 -4 1c1 0 2 -1 2 -3s0 -4 -3 -4c-1 0 -3 0 -5 1c-4 -2 -3 -2 -3 -2c-1 1 0 2 -3 2c-1 0 -3 0 -3 -1c-6 7 -2 18 -2 35c0 51 22 131 29 163
c14 60 30 112 45 165c27 94 71 211 78 277c1 9 4 12 10 14c1 1 3 1 4 1c7 0 5 -3 12 -5c16 -6 15 -19 15 -36c0 -4 -1 -7 -1 -11c-5 -71 -37 -160 -56 -221c-33 -103 -64 -209 -81 -317c0 -1 -1 -3 -2 -4l-3 -11c0 4 -2 7 -4 11c-1 -1 -1 -3 -1 -5v-6l-2 3c0 1 1 2 1 3
c0 3 -2 6 -2 9l-1 -3v-25c-2 0 -3 4 -3 4c-1 0 -1 -1 -1 -3c0 -4 1 -9 1 -12zM47 153c-1 1 2 2 4 3c-2 1 -2 4 -2 4c-8 0 -6 -10 -9 -12h6s1 1 1 5z" />
    <glyph glyph-name="J" unicode="J" horiz-adv-x="343" 
d="M-23 44c-7 4 -9 4 -9 10v4c-4 0 -8 4 -8 4l1 5l-6 5c0 4 -3 8 -7 10c0 2 1 3 1 4c0 2 -1 3 -2 3c-3 0 -8 23 -8 26c-1 2 -1 4 -1 6c0 5 6 12 8 14c3 4 8 5 13 5s10 -2 9 -1l4 -2c3 0 5 -2 5 -4c1 -1 1 -2 1 -3l-2 -4c11 -44 66 -72 110 -72c149 0 238 415 259 587
c-17 0 -68 -6 -139 -20c-8 -4 -23 -4 -32 -7c-10 -4 -19 -3 -32 -6c-2 -1 -5 -1 -7 -1c-4 0 -8 1 -11 4c-5 4 -14 1 -17 9c-3 3 -7 0 -7 7c0 3 -4 3 -4 6v7c-2 0 -3 1 -3 2s1 2 3 4l1 5s0 4 4 4c0 3 1 3 2 3h4c9 0 23 0 33 2l73 11c13 1 26 4 36 5c52 6 64 10 104 13
c36 2 66 4 92 4c47 0 75 -4 91 -7c8 -2 32 -5 32 -15c0 -1 -1 -2 -1 -4s1 -4 5 -4c1 0 2 -1 2 -4c-1 -5 -3 -8 -7 -8c-3 -2 -10 -5 -13 -5c-30 0 -58 1 -83 1c-26 0 -50 -1 -74 -4c-26 -170 -82 -547 -256 -624l-17 -6c-2 0 -5 -3 -8 -3c-4 -2 -9 -3 -13 -3s-8 1 -11 1
c-5 -2 -10 -2 -15 -2s-11 0 -15 2c-6 0 -11 2 -18 2c-2 2 -4 2 -6 2h-4c-3 0 -6 0 -9 3c0 1 -1 2 -3 2s-5 -1 -7 -1c0 0 -1 0 -1 4c-2 0 -7 2 -7 3c0 2 -5 4 -8 4c-1 1 -2 1 -3 1c-2 0 -7 5 -9 5c-11 5 -6 6 -10 11zM332 379c1 -6 2 -6 2 -6c1 0 1 -4 1 -4c2 4 5 20 5 20
c-1 1 0 2 -2 4c1 0 2 1 2 2s-1 2 -1 3c0 3 5 4 5 7c-1 1 -2 2 -2 3v5c0 2 1 5 2 6c3 4 4 8 6 16c1 7 4 15 4 23c-1 0 0 -1 -3 -3c-2 -2 -1 -9 -4 -11v-5c-2 -8 -2 -15 -6 -18v-13c0 -4 -2 -5 -4 -8l-3 -16v-3c1 0 -2 -2 -2 -2zM358 473c-1 -1 -1 -2 -1 -3c0 1 3 3 4 6
c1 2 2 4 2 7c0 2 -1 4 -1 6v6c-4 -7 -4 -14 -4 -22zM366 505c-2 -1 -3 -2 -3 -4c0 -1 0 -3 1 -4c0 2 2 5 2 8zM552 661h-5c0 -1 2 -2 3 -2s2 1 2 2z" />
    <glyph glyph-name="K" unicode="K" horiz-adv-x="352" 
d="M324 83c0 -1 -1 -2 -2 -3c0 -2 1 -3 2 -3c4 -3 11 -6 16 -8c-2 2 -11 12 -13 13c-3 1 -1 6 -4 7c1 -1 1 -3 1 -6zM442 555l-8 1c-3 -2 -5 -2 -6 -5h4c0 -4 -2 -4 -2 -6c1 0 9 7 12 10zM86 318l1 9l-9 -28c2 5 8 16 8 19zM288 105c5 -6 12 -7 17 -13c0 0 -3 4 -3 5l3 -2
c0 3 0 4 -2 5l-10 2c-2 2 -4 3 -4 6c-7 0 -23 9 -27 13c5 -5 11 -8 14 -13l-1 -3c-1 3 -4 4 -4 4c-5 0 -6 0 -6 -1c0 0 6 -7 11 -9c0 -3 2 -4 2 -4l3 1c1 1 2 2 3 2c4 0 10 -4 13 -5l3 -1c-4 6 -11 9 -12 13zM167 374c0 -2 5 -3 7 -3c4 0 6 -1 9 -1l-2 3l-3 1c2 3 4 3 5 5
c-1 0 -11 -3 -16 -5zM188 363c1 1 3 4 3 5s-1 0 -3 -1c-3 0 -6 -5 -9 -7c-7 0 -7 -4 -8 -8c3 3 6 5 9 5c1 0 5 6 8 6zM212 387l-1 -3c4 2 7 5 14 7c3 0 3 3 7 7l-3 1l-4 -5l1 5c-3 0 -7 -5 -7 -8l-4 -2s-1 0 -3 -2zM194 376c1 3 2 2 4 4c-1 1 -8 -4 -11 -7c6 0 10 2 10 2z
M159 359c5 1 11 1 15 5c0 3 -1 3 -3 3c0 0 -5 -3 -7 -3c-1 0 -3 0 -5 -5zM21 23l3 3l1 3c-1 1 -1 2 -1 3v4c0 -1 -3 -9 -3 -13zM268 126l-1 -4c3 0 4 -1 11 -5l1 3c-3 0 -8 6 -11 6zM297 90c-1 0 -4 3 -6 3h-5c0 -1 4 -7 5 -7c2 0 4 2 6 4zM310 97c0 -1 -1 -2 -1 -3
c0 -2 1 -3 3 -5c4 0 5 1 6 2c-2 0 -5 2 -8 6zM281 119c0 -2 1 -2 2 -2s3 1 4 1s2 -1 2 -2l1 4h-5c-2 0 -3 0 -4 -1zM362 51c-2 1 -4 2 -6 2s-5 -1 -8 -1c-2 0 -4 1 -6 2c-6 3 -12 4 -18 5c0 0 -3 2 -6 2c0 -3 3 -3 5 -5v-3c-77 37 -152 141 -198 207c0 4 -4 4 -4 4
c-14 -38 -57 -189 -57 -224v-8c0 -3 0 -5 4 -6c-4 -3 -2 -10 -7 -12c0 0 -3 -7 -5 -10h-9c-2 -1 -3 -1 -4 -1s-4 2 -6 2c-1 -2 -2 -4 -4 -4c-1 0 -4 1 -7 3c-3 -2 -6 -3 -8 -3c-8 0 -11 11 -11 25v6c2 19 7 41 8 46c27 177 150 474 192 627c2 7 4 16 4 25l1 6
c-1 1 -1 2 -1 4c0 7 11 16 17 17c4 4 9 6 14 6c9 0 3 -5 9 -9c11 -6 14 -14 14 -26c0 -7 -2 -14 -3 -21c-19 -95 -82 -247 -97 -306c105 74 209 155 311 237l12 10c9 6 24 23 36 30c2 1 4 3 5 3c6 0 8 -4 8 -10c-3 -12 -4 -8 -4 -20c-6 -17 -10 -15 -18 -29
c-25 -34 -51 -58 -83 -83c-81 -66 -196 -147 -260 -194c-5 -4 -12 -8 -17 -13v-7c37 -76 108 -167 175 -237c14 -14 26 -20 32 -37z" />
    <glyph glyph-name="L" unicode="L" horiz-adv-x="301" 
d="M17 74l-8 -14c-1 -1 -1 -2 -1 -6c1 0 4 3 5 5c3 4 6 10 7 14c0 1 0 2 -1 3c-1 0 -2 -1 -2 -2zM106 269v6c0 1 6 9 5 10l-14 -19c0 -1 2 -3 3 -4c2 2 6 3 6 7zM52 120c-2 9 -2 10 -2 11c-2 -6 -2 -10 -3 -13c0 -1 -2 -3 -4 -4c2 0 5 0 5 -4l2 5c0 1 0 3 2 5zM116 267
c-8 -11 -8 -12 -8 -13v-5c0 2 2 4 3 5c0 2 1 3 3 4l4 7c0 2 -1 1 -2 2zM48 143c0 2 0 5 -3 5c-1 0 -2 -1 -2 -2v-7c3 0 5 3 5 4zM87 229c-1 2 -1 3 -1 3c-4 -6 -7 -10 -9 -16c0 -1 0 -2 1 -3c5 4 5 11 9 16zM281 32c0 -7 -20 -4 -25 -8c-1 1 -4 2 -4 2c-5 0 -16 -4 -18 -7h7
c1 0 4 -1 3 -2c-40 -15 -133 -18 -144 -20c2 -3 3 -3 6 -3h5c11 0 21 3 35 3c6 0 7 1 11 1c3 0 5 1 8 1h5c2 0 6 1 7 1c14 4 31 7 41 7h5c0 -2 -59 -14 -57 -13h-6c-38 -4 -63 -10 -92 -10h-4c-68 3 -76 17 -76 36v8c3 29 20 45 27 63l22 50c74 171 143 318 187 511l8 35
c3 14 7 17 11 17c3 0 10 -2 10 -2c19 -8 23 -17 23 -29c0 -4 -1 -9 -1 -13c0 -2 -1 -4 -1 -6l-3 -15c-16 -93 -58 -214 -85 -287c-43 -119 -109 -258 -141 -323c0 -3 2 -4 6 -4c5 0 13 2 18 3c15 2 88 18 146 30c51 11 91 17 128 17c3 0 4 0 6 -1c8 0 13 -4 18 -10l-4 -4
c3 -4 9 -10 12 -11c-5 -5 -6 -5 -10 -5c-1 -3 -11 -5 -11 -5h-4c-10 0 -7 -3 -27 -3h-8c-5 1 -11 4 -15 4c-1 0 -3 0 -3 -1s-8 -5 -11 -5h-4c-5 0 -11 -1 -15 -2h10h4z" />
    <glyph glyph-name="M" unicode="M" horiz-adv-x="688" 
d="M651 249l-6 -21c0 -1 0 -3 1 -4c0 -3 -2 -3 -2 -3c-1 -10 -1 -11 -1 -12c0 -3 -2 -7 -3 -10l-23 -86c-4 -21 -9 -52 -15 -73c-1 -8 -1 -14 -3 -22c0 -2 -1 -5 -4 -8c-1 3 -1 4 -1 7c0 2 0 3 -1 3c0 -1 0 -3 -1 -5v-5c0 -12 3 -8 3 -13c0 -3 -3 -25 -5 -25c0 -2 0 -3 1 -6
l-4 -7c2 0 4 -4 3 -4c-2 0 -21 0 -21 1c-6 7 -23 3 -23 44v10c2 24 1 31 4 51c2 17 7 35 10 54c1 3 1 9 3 14c0 4 3 9 4 14c2 6 1 12 5 19c1 4 2 10 2 15c1 5 4 10 4 15c1 3 3 4 6 7l2 7l-2 5v5c0 1 0 2 1 4l5 16c1 3 1 6 1 7c5 6 3 11 6 17c1 0 3 1 4 1c1 1 2 2 3 2
c0 2 -1 3 -1 3c0 1 -2 4 -2 6c0 3 1 7 2 13c1 24 10 22 12 43c0 10 5 23 9 29c1 4 3 6 4 11c-1 2 -1 3 -1 5c1 12 20 76 24 82l4 21c1 3 2 4 3 5c5 25 17 59 22 81c1 8 5 16 7 25c7 29 16 49 16 80c-53 -74 -80 -115 -129 -205c-5 -8 -6 -10 -7 -10s-13 -25 -12 -23l-11 -13
c0 4 22 48 21 48c-8 0 -16 -29 -20 -35s-3 -15 -6 -22c-1 -1 -1 -3 -1 -5v-8c-57 -106 -96 -209 -165 -319c-4 -6 -11 -22 -17 -28c-6 -7 -21 -14 -31 -14c-2 0 -4 0 -5 1c-2 -1 -4 -1 -6 -1c-8 0 -8 8 -16 11c-2 0 -3 4 -4 6c-15 12 -18 33 -18 54c0 13 2 26 2 37l5 66
c9 107 20 173 25 259l1 10c0 6 1 11 1 17c2 34 4 61 4 86c0 27 -2 56 -11 82c-1 1 -2 1 -3 1c-12 0 -27 -15 -33 -23c-107 -148 -167 -371 -182 -553v-9c0 -11 -3 -21 2 -31c0 -3 1 -5 1 -7c-1 -16 -20 -20 -31 -20c-6 0 -11 0 -16 1c-10 0 -13 18 -13 43c0 8 1 17 1 26
c2 36 8 76 11 98c24 124 56 237 109 353c34 74 98 170 158 170c47 -3 56 -95 56 -165c0 -26 -1 -49 -2 -64c-8 -136 -27 -255 -34 -376l-1 -15c1 0 3 2 5 3l26 50c150 290 239 494 337 584c6 5 16 6 20 6h8c1 0 2 0 4 -1l6 -3c13 -9 19 -27 19 -32l-1 -4l-3 -2l3 -3
c2 -2 3 -3 3 -5c0 -4 -5 -8 -7 -12c1 1 3 2 4 2h7c0 -13 -1 -21 -2 -29c-7 -24 -6 -37 -12 -58l-22 -80c-2 -12 -19 -62 -21 -76c-1 -10 -7 -21 -9 -28c0 -3 -1 -5 -1 -7c-4 -10 -16 -51 -17 -60c-1 -8 -2 -12 -5 -18c0 -7 -4 -19 -8 -26v-10c-3 -5 -4 -12 -5 -16
c-1 -2 -2 -6 -2 -7c0 -4 0 -7 -2 -9zM621 159l-3 -5l-14 -52c-2 -7 -6 -30 -6 -42c0 0 0 -6 1 -7c1 13 5 33 9 50zM652 383l-1 8c-2 -2 -3 -2 -3 -4l-2 -8c-2 -3 -2 -4 -4 -5v-4c-1 -1 -1 -4 -1 -7l-2 -6c3 0 5 3 6 6c0 1 -1 3 -1 4c0 7 1 6 1 6c4 4 3 6 7 10zM605 158
c1 1 2 2 2 4l-1 4l-2 -3c-4 -8 -9 -23 -9 -33c1 4 5 11 7 13c0 4 1 9 3 15zM660 387l1 7c-2 -2 -3 -6 -3 -9l-1 -5c3 2 3 4 3 7z" />
    <glyph glyph-name="N" unicode="N" horiz-adv-x="465" 
d="M252 380c3 -4 4 -12 4 -18l2 12s-5 7 -6 6zM260 489l5 5s-2 0 -5 -2l-1 -9l5 5c-2 0 -1 1 -4 1zM253 506c0 1 -1 3 -3 4l-1 -9c3 3 3 5 4 5zM246 599c0 -1 0 -5 3 -5v6c-2 2 -4 3 -4 5c0 -2 0 -6 1 -6zM255 436c1 -1 1 1 1 4c0 5 -4 4 -4 8c0 1 3 -7 3 -12zM272 357
c0 2 -1 4 -1 8c0 0 -1 1 -4 1c0 -1 -3 -4 -3 -4l4 -5c0 -1 1 -4 1 -4c0 3 3 4 3 4zM264 453l1 18c0 2 -2 2 -2 4c0 1 0 7 -2 7c-2 -2 -2 -3 -3 -5c2 -1 4 -6 5 -12v-5c0 -1 -1 -2 -1 -3s1 -3 2 -4zM272 256l2 19c-2 1 -3 4 -3 7s1 7 1 10c0 2 -1 3 -1 3c0 3 -3 7 -6 9
c-1 0 -2 -1 -2 -2s2 -6 2 -6c0 -6 2 -6 3 -6l1 -16c0 -2 1 -5 1 -6c-2 -18 -2 -19 -2 -21l-4 -8c0 -1 6 3 8 3v14zM259 537c0 5 0 6 -2 8v-23s3 5 3 6v6c0 1 0 2 -1 3zM260 305c0 5 -1 11 -1 11c-1 0 -3 -15 -4 -18c0 -3 3 -3 3 -5c1 2 3 3 3 5c0 4 -1 5 -1 7zM258 560l-2 6
l-1 -18s2 0 4 -2c-1 2 -1 3 -1 5v9zM261 265l1 7c0 3 0 6 -2 6c-1 2 -6 2 -6 2s2 -6 3 -8v-6c0 -4 0 -6 6 -6c0 0 -2 3 -2 5zM263 498l1 8s0 3 -5 3c2 -3 -1 -9 4 -11zM252 528l-1 5l-1 -11c1 2 2 5 2 6zM266 447v-6c-1 -5 -1 -10 -1 -10c2 0 3 12 3 12c0 1 -2 4 -2 4z
M265 516c-1 2 -4 2 -5 2l-1 -8c3 2 3 5 6 6zM249 543c2 0 3 2 3 3s-2 4 -2 5s-1 -5 -1 -8zM256 402c3 0 3 2 3 3l-4 11c0 -2 1 -9 1 -14zM258 354c-1 0 -1 -4 -1 -4s1 0 1 4zM250 77v-15c3 3 3 6 4 6c-2 0 -4 12 -4 9zM266 164c-1 -1 -3 -12 -3 -12c0 -1 3 -3 4 -4v9
c0 3 0 6 -1 7zM378 129c0 -4 -2 -6 -2 -7s-2 -2 -2 -3v-8l-1 -5l-6 -6c0 -1 1 -2 1 -4c0 -1 -3 -5 -4 -8c0 -5 -2 -8 -4 -8c-1 0 1 -3 2 -3c-2 -2 -11 -16 -11 -16l4 1c-1 -10 -5 -19 -9 -26c0 -1 -1 -1 -5 -5c0 -5 -5 -11 -7 -14c-4 -2 -5 -5 -6 -7c-3 -3 -12 -11 -12 -12
c0 -2 -3 -6 -22 -15c-7 -2 -16 -5 -23 -5c-13 0 -18 8 -23 17c-8 16 -8 34 -12 52c-1 11 -1 22 -1 33v137c0 125 -4 168 -6 306c-2 19 -2 43 -7 76c-2 -1 -7 -13 -8 -15l-6 -17c-35 -88 -108 -270 -152 -466c-2 -4 -2 -7 -7 -17c-2 0 -2 1 -3 1c0 -4 -1 -7 -4 -7
c-1 0 -3 1 -4 1c0 -2 4 -3 4 -6c-4 0 -8 -3 -8 -7c0 0 -2 -3 -3 -3l-13 1c-8 0 -12 4 -12 9c0 3 1 7 1 10l2 27c1 8 2 18 4 26c6 39 15 75 26 113c31 109 72 216 114 321c24 59 29 66 30 73c4 8 5 16 7 24c3 13 13 26 26 26l18 -6c10 -3 17 -11 23 -19c7 -24 10 -50 13 -76
c4 -27 5 -56 11 -181c0 -11 0 -20 3 -137c1 -19 1 -38 1 -55v-141c0 -12 1 -23 1 -34c0 -2 1 -3 1 -6l2 -11c7 4 8 18 12 25c53 202 153 491 212 621l5 11c3 7 10 13 15 19c2 3 4 6 7 7c0 0 17 5 19 6c6 0 5 2 10 4c0 -1 1 -3 1 -4s12 5 14 5l-5 -7c0 -1 0 -2 -1 -3l-13 -30
c-11 -29 -21 -50 -33 -79l-5 -11l1 -6c1 -1 1 -2 1 -3c0 -2 -1 -4 -2 -4l-10 -19l5 18c-1 -3 -3 -7 -3 -10c-9 -14 -26 -74 -81 -234c-1 -11 -8 -19 -9 -29c-1 -5 -5 -10 -5 -14l-1 -9c0 -2 -2 -3 -2 -4c0 0 -2 -6 -4 -9c2 0 3 -2 3 -3c-1 -1 -1 -2 -1 -4l-2 -5
c0 -1 -2 -3 -2 -4c-4 -1 -2 -3 -6 -17c0 -1 1 -2 1 -3c0 0 -4 -4 -5 -6l-3 -3c0 -2 2 -3 2 -6c-1 -6 -3 -10 -5 -14l-1 -11c-2 -7 -5 -14 -5 -15c-6 -21 -10 -24 -15 -48z" />
    <glyph glyph-name="O" unicode="O" horiz-adv-x="477" 
d="M290 46c4 5 9 9 15 13l-2 3c0 -1 -1 -1 -1 -2l1 -2l-8 -6v1c-1 -2 -3 -3 -5 -4c-3 -7 -3 -8 -5 -10l-4 -3c-5 0 -5 -3 -7 -7c0 -1 -1 -1 -3 -1h-4c-2 0 -4 -3 -5 -5c-2 -6 -38 -10 -45 -10c-5 -6 -16 -7 -29 -7h-10c-14 0 -33 3 -45 9c-5 0 -12 3 -18 5c-3 4 -9 8 -12 8
c-65 50 -84 124 -84 210c0 57 10 113 25 168c0 2 1 3 1 5c25 82 73 171 130 222c4 0 7 5 10 5c8 3 12 9 15 17c0 0 5 1 5 4c0 0 0 1 6 5c4 3 7 5 9 8v8c27 29 75 53 112 56h10c2 1 3 1 4 1c3 0 5 -1 8 -1c1 1 3 1 5 1c62 0 117 -46 133 -105l7 -27c3 -5 7 -18 7 -26l1 -9
c0 -2 1 -8 1 -9s0 -7 -1 -8v-36c-1 -3 0 -6 -2 -10c0 6 -2 10 -2 15c0 2 1 5 2 7c-1 3 -1 5 -1 8l1 4c0 8 0 16 -1 25c0 6 -1 11 -1 18c-1 2 -1 5 -6 9c0 -15 2 -15 2 -15c2 -2 3 -4 3 -6c0 -1 -1 -3 -1 -4l1 -9c-1 -2 -1 -4 -1 -6c0 -4 1 -8 1 -13v-74c0 -2 1 -2 1 -6
c0 0 -3 1 -5 -8l-1 -27c-1 -15 -6 -27 -9 -42c0 -2 -5 -35 -10 -35v-6c0 -5 0 -10 -4 -16l-6 -19c-4 -13 -7 -13 -24 -44c0 0 2 -2 9 11c0 2 7 11 8 11c-2 -32 -29 -45 -40 -80c8 9 18 32 29 42c-2 -9 -10 -13 -10 -20c0 -1 -3 -18 -9 -18c0 0 -12 -19 -12 -21
c-3 -5 -25 -17 -27 -23c5 0 7 6 10 8c4 0 9 4 12 6c-35 -64 -89 -119 -119 -137c0 0 -3 -1 -5 -1c3 1 5 5 8 8c-1 0 -5 -1 -8 -3zM283 663c0 0 2 3 3 6c-10 -7 -21 -16 -25 -20c0 -3 -12 -16 -14 -17c-61 -74 -91 -202 -102 -308v-22c0 -31 4 -61 22 -78c4 -3 13 -7 22 -7
s7 5 14 5h13c2 0 4 1 5 2c2 -1 4 -1 4 -2c0 -3 -3 -5 -3 -7c0 -1 -2 -3 -2 -4c-4 -6 -7 -10 -13 -13c-5 0 -4 -4 -7 -11c-4 -5 -24 -8 -31 -8c-57 0 -75 55 -75 121s17 138 34 185c-31 -65 -55 -155 -56 -252c0 -74 21 -187 111 -187c104 0 189 130 239 280
c24 72 34 144 37 195v14c0 65 -26 167 -107 167c-5 0 -10 0 -16 -2c-2 -2 -10 -2 -13 -6c-6 -4 -10 -4 -13 -9c7 3 13 5 16 9h8c0 -4 -1 -4 -4 -4c-7 -2 -13 -5 -22 -11c-4 0 -11 -3 -18 -8c-3 -4 -7 -8 -7 -8zM231 653c0 0 -3 -2 -4 -3c10 5 16 12 19 20l-9 -8
c-2 5 -3 5 -4 5l-4 -6v4c3 0 10 10 12 13c0 2 -1 2 -2 2c-4 0 -14 -8 -18 -13c2 1 3 1 4 1c-5 -4 -25 -18 -25 -29l6 7c0 -4 1 -4 1 -4c11 0 10 11 24 11zM381 166c0 3 6 6 6 6l1 -3l3 12c2 2 5 2 5 5h-5c-8 0 -23 -27 -32 -41l-4 -6v-5l4 5v-4c9 12 19 20 26 34zM335 120
c-8 0 -13 -2 -14 -9v-10c7 7 12 14 19 19h-5zM244 645c0 0 10 6 15 11h-4c0 1 -1 2 -2 2s-4 -5 -5 -6l-11 -9l3 -3zM293 695c-5 0 -9 0 -12 -7l-3 -2h5c4 2 8 6 10 9zM292 90c-1 0 -3 -1 -3 -3l-9 -7c4 1 8 2 11 4zM306 69c0 -4 -2 -5 -3 -6h7v6h-4z" />
    <glyph glyph-name="P" unicode="P" horiz-adv-x="437" 
d="M112 25c0 -6 -1 -3 -4 -6c-3 0 -3 1 -4 1l-1 -4s2 -2 3 -2c-2 -1 -2 -3 -3 -4c0 1 -3 3 -3 4c-1 -4 -1 -5 -1 -5c-2 1 -2 4 -3 6c-2 0 -5 -2 -5 -2c0 -3 1 -4 2 -6c0 -2 -3 -2 -3 -2c2 0 3 -1 3 -5c-1 0 -3 3 -4 5c-2 5 -3 10 -8 18c1 -4 3 -9 3 -13c1 -8 4 -15 8 -17
c1 0 7 -4 10 -4h4c-1 -1 -2 -1 -3 -1c-3 -4 -6 -5 -9 -6c-2 0 -5 1 -7 2c-22 9 -27 42 -25 76c0 8 0 17 2 25c10 65 28 139 54 207c-2 3 -3 9 -3 13v6c-1 2 -1 3 -1 5c1 3 0 7 4 11c0 1 1 4 11 8c25 78 47 152 83 275l-1 11c1 4 5 8 9 12c8 1 10 10 31 10c3 0 5 0 6 -2
c3 -1 6 -4 6 -10l1 -21c-14 -72 -34 -139 -63 -234l-10 -31c130 27 308 100 321 217v5c1 25 -11 46 -22 57c-39 35 -91 50 -149 50c-114 0 -245 -56 -308 -117c-11 -11 -24 -31 -25 -49c0 -5 1 -10 2 -15c-1 -10 -7 -16 -16 -18h-4c-15 0 -32 13 -31 32l-1 4
c2 14 9 26 13 39c59 109 240 170 358 170c73 0 155 -20 198 -76c18 -25 27 -55 25 -85c-3 -99 -103 -162 -181 -203l-11 -6c-6 -2 -11 -6 -18 -6c-1 0 -2 -1 -2 -2c-1 -1 -2 -2 -4 -2c-1 0 -7 -2 -11 -3c-1 0 -2 -2 -3 -2c-5 -3 -14 -6 -21 -8c-1 -3 -4 -2 -6 -3
c-4 -1 -6 -1 -7 -1c-6 -2 -11 -3 -17 -6c-60 -16 -77 -19 -95 -22c-23 -77 -60 -186 -66 -259c0 -3 2 -6 2 -7v-4zM540 573v4c1 5 -2 14 -2 15c-1 11 -9 18 -14 26c0 -6 4 -10 5 -16c0 -1 10 -28 11 -29zM282 331c0 0 -6 -4 -9 -4c-2 -1 3 -2 4 -2l-17 -5h6c6 0 14 1 16 7
c0 1 -1 2 0 4zM198 314c0 -1 5 -1 6 -1l24 9c-2 0 -2 1 -3 1c0 0 -5 -2 -7 -3c-5 -1 -12 -3 -17 -5c-2 0 -3 -1 -3 -1zM289 325c1 -1 12 4 13 7c-4 -1 -6 -1 -9 -1h-4c-1 -1 -1 -4 0 -6zM310 332c2 0 3 1 4 5c-3 -1 -4 -1 -6 -1c0 -2 -1 -2 -1 -3c0 0 2 -1 3 -1zM353 371
c-2 0 -7 -2 -7 -5c0 0 12 7 18 10zM200 324c-1 0 -2 -1 -2 -2h5c-1 1 -2 2 -3 2z" />
    <glyph glyph-name="Q" unicode="Q" horiz-adv-x="467" 
d="M304 727c-3 0 -9 -5 -8 -5c3 0 5 3 7 3l13 3c4 0 13 4 17 4c10 0 18 -2 30 -3c-2 3 -16 5 -20 5h-6c-6 0 -12 -1 -17 -3h-4c-2 0 -5 -1 -7 -3c-4 0 -5 -1 -5 -1zM382 48c-5 0 -8 2 -10 2c0 0 1 -2 9 -9c3 -4 7 -7 10 -7c3 -2 7 -3 10 -4h5c-11 5 -27 17 -24 18zM406 704
c2 0 1 2 3 3c-10 4 -11 8 -17 8c0 0 -1 0 -2 -3l4 -2s4 0 9 -5c1 -1 2 -1 3 -1zM260 100c-4 0 -12 -6 -12 -7c0 -2 1 -3 1 -5c2 5 14 8 14 11c0 0 -1 1 -3 1zM276 117c-11 -6 -12 -7 -12 -12c7 4 13 6 16 12c-3 -1 -4 -3 -5 -3c0 0 0 1 1 3zM245 686c-4 0 -7 -3 -6 -4
c-8 -4 -9 -7 -9 -8s2 -1 3 -1c0 1 11 8 12 13zM372 246c8 3 10 8 10 12c0 2 -2 4 -3 4c0 0 -4 -11 -7 -16zM478 454l-1 -8c1 0 5 16 5 22c0 2 -1 19 -1 18c0 -10 -2 -23 -3 -32zM272 707c0 7 -2 7 -2 7c-4 0 -5 -5 -5 -7c0 -3 2 -3 2 -4c4 0 5 4 5 4zM468 540c1 2 1 3 1 5
c0 5 -4 11 -5 13v-6c0 -6 0 -11 4 -12zM245 87h-7c-4 -4 -4 -7 -4 -11c1 2 7 5 7 6c0 3 1 2 4 5zM177 534c-5 -10 -5 -13 -7 -19l10 19c1 1 3 6 2 5c-1 0 -2 -3 -5 -5zM359 77c-1 -3 -3 -6 -3 -8c0 -1 0 -2 2 -4l5 9c0 2 -1 3 -4 3zM387 268c2 3 3 5 3 7s-1 3 -3 5
c-1 -2 -3 -3 -3 -6c0 -2 2 -4 3 -6zM257 696c-1 1 -2 1 -3 1c-2 0 -3 -3 -6 -7c0 -1 2 -4 3 -4c0 5 3 3 4 6c0 1 2 3 2 4zM451 432h6c-1 2 -2 4 -2 6c0 1 1 2 1 3c-4 -1 -6 -3 -6 -6c0 -1 1 -2 1 -3zM368 716l9 -2c0 5 0 6 -3 6c-4 0 -6 -1 -6 -4zM385 703c0 3 -6 4 -11 4
c-1 0 -3 -1 -3 -1c5 -3 11 -3 14 -3zM156 541c1 4 5 7 5 13c-5 -4 -6 -5 -6 -7s1 -4 1 -6zM223 657h5c3 0 3 3 3 6c-4 -1 -5 -2 -8 -6zM438 362l4 13c0 1 -6 -7 -6 -10c0 -1 1 -2 2 -3zM455 628l-3 2c-2 -2 -2 -4 -2 -5c1 -2 3 -1 4 -2c0 2 1 4 1 5zM138 472
c-2 0 -2 -4 -2 -7c0 -2 1 -4 1 -5c1 2 2 4 2 6c0 1 -1 4 -1 6zM458 621c0 -3 0 -6 3 -10c0 1 1 3 1 4c0 2 -1 4 -4 6zM160 568c-3 0 -4 -1 -4 -4c0 -1 1 -3 1 -5c2 3 3 6 3 9zM209 652c-3 0 -4 0 -4 -3c3 0 8 2 9 5c-2 0 -4 0 -5 -2zM205 632c3 0 5 2 5 5c0 1 2 4 2 4
c-1 0 -7 -7 -7 -9zM417 278c-1 -3 -3 -5 -5 -6c5 0 7 1 7 3c0 1 -1 2 -2 3zM128 397h-4c1 4 2 5 3 7c0 -2 1 -3 1 -7zM367 51c0 4 -7 8 -7 7c0 -4 5 -4 7 -7zM304 695c-3 0 -7 0 -7 -4c4 0 7 4 7 4zM460 545v9c-2 -6 -2 -9 -2 -11c0 -1 2 1 2 2zM310 697c0 -1 3 -1 3 -1
c1 0 1 3 1 5c-2 0 -4 -3 -4 -4zM289 686c-3 -1 -4 -2 -4 -4c0 0 4 0 4 4zM33 256c4 79 48 267 106 309c21 41 85 137 149 162c1 1 16 8 23 8l3 1c7 1 15 3 24 3c35 0 80 -9 111 -48l4 -5c23 -32 39 -89 39 -145v-22c0 -6 -1 -5 -3 -31c-6 -106 -60 -257 -141 -357
c32 -41 70 -75 102 -101c30 -18 39 -26 71 -36l9 -4l4 -5h4c-2 -1 -2 -2 -2 -3c-4 -6 -23 -8 -27 -8c-6 1 -11 0 -16 2c-3 -1 -4 -1 -5 -1s-14 2 -20 2c-3 2 -7 2 -10 5c-4 2 -10 7 -11 7s-2 0 -3 -1c0 0 -1 1 -4 2c-8 7 -13 9 -19 16c-1 -1 8 -9 7 -10s-2 -1 -6 -1
c-2 0 -22 11 -30 16c0 0 -3 6 -4 7s-1 8 -5 8c-5 0 -7 -2 -9 -2c-1 0 -2 1 -4 2c-5 7 -6 7 -7 7c-1 1 -2 1 -4 1c-8 14 -7 15 -7 15c0 1 -3 2 -3 3s0 2 1 3c-4 6 -10 8 -17 12c-3 3 -7 3 -12 7c-5 3 -10 7 -15 11c-41 -36 -88 -58 -138 -58c-6 0 -7 1 -14 1
c-94 13 -122 99 -122 200v14c0 4 0 9 1 14zM147 421l-3 -2l-4 -6c-1 0 -1 2 -1 4v6s-1 -5 -1 -4c-4 0 -5 -12 -5 -11c0 3 -1 11 -1 14c-2 -1 -8 -13 -9 -15c-21 -61 -36 -129 -36 -197c0 -83 27 -141 79 -141c9 0 18 0 28 3c20 8 50 24 79 55c-26 35 -54 81 -80 155
c0 1 -1 2 -1 3c-4 12 -11 33 -11 47c0 3 0 6 1 8c-2 5 -3 15 -3 16c0 5 13 10 17 10c7 0 10 -4 15 -5c4 -2 8 -3 9 -5c10 -6 13 -13 19 -22c-1 0 8 -19 6 -18c12 -46 44 -100 69 -140c79 103 129 244 129 392c0 62 -34 132 -92 132c-18 0 -32 -4 -46 -11c-2 -1 -5 -3 -6 -3
c0 -3 -5 -3 -5 -3c-4 -3 -7 -5 -8 -5l-7 -7c-3 0 -3 -1 -3 -4l-10 -10c0 -4 -4 -9 -7 -10c0 -2 -3 -7 -5 -7c-43 -51 -100 -136 -100 -220l-2 3c0 1 -1 4 -2 3c0 -1 -2 -6 -3 -5z" />
    <glyph glyph-name="R" unicode="R" horiz-adv-x="448" 
d="M363 55l-7 5c1 -1 1 -3 1 -7l-14 7c-2 3 -5 3 -5 3l5 -5c2 -2 2 -3 5 -8c0 -1 2 -3 5 -3c1 0 4 -2 5 -4l-3 1l12 -7c1 -2 2 -3 3 -3s5 -7 6 -7c2 0 2 7 2 8c1 -2 4 -4 4 -5c5 -1 6 -3 6 -3l4 -4c6 -3 9 -4 16 -6c3 -3 6 -3 8 -4l-12 11c-2 2 -9 4 -10 5l-17 15
c-1 1 -2 1 -3 1c0 -2 1 -3 2 -3l6 -5c1 -1 4 -3 4 -6l-14 8l-11 9c5 0 6 1 6 1c0 2 -4 6 -4 6zM412 707c-9 0 -22 1 -22 1c0 -5 14 -3 17 -4c2 0 7 -2 8 -2l26 -5c4 -2 8 -3 13 -4c-11 6 -29 11 -42 14zM536 626c0 5 -14 25 -16 27c-4 3 -16 15 -18 15l-4 3l2 -4l4 -2
c1 -1 2 -3 3 -3c2 -1 6 -5 6 -7c0 -1 0 -3 1 -3s2 0 3 1c3 -1 6 -10 9 -14c0 0 2 1 10 -13zM418 27l5 4h-6c-4 0 -9 1 -11 4c-1 0 -3 2 -3 5c-2 3 -8 6 -9 7c0 0 0 -1 4 -8c1 -2 3 -3 7 -6c3 -4 4 -4 4 -4c3 0 9 -2 9 -2zM354 378c9 4 20 8 28 14c-3 0 -3 1 -3 1l-12 -6
c-3 -2 -7 -3 -13 -9zM349 378l-14 -5c-3 -2 -3 -4 -5 -5l8 3l9 5c2 0 2 2 2 2zM426 21l-4 4s-3 -3 -3 -4s2 -5 3 -5c2 0 3 4 4 5zM364 394l2 3l-15 -9c2 0 3 0 4 1zM339 408l8 5c-3 0 -6 -1 -9 -3l-6 -4c2 0 5 -1 6 -1zM249 343c-1 3 -2 3 -3 3c-4 0 -8 -4 -12 -5
c6 0 11 2 15 2zM480 481c-5 -3 -6 -6 -8 -7s-3 -4 -4 -4c5 0 11 7 12 11zM270 376h7c0 -1 6 2 6 2l-4 -1c-1 1 -3 3 -4 3c-2 0 -3 -3 -5 -4zM494 492c-1 -2 -6 -5 -8 -7c1 0 -3 -2 -3 -3s10 4 11 10zM331 393c-1 -1 -3 -3 -3 -5l10 6c-3 0 -7 -1 -7 -1zM242 356c2 2 4 1 6 2
c1 0 1 2 1 3c-2 -2 -7 0 -7 -5zM321 401l-3 -3c-2 -1 -3 -2 -4 -4c3 0 7 3 7 7zM290 391c-1 -1 -2 -2 -2 -4c2 1 5 4 6 5c-1 0 -2 0 -4 -1zM336 76c3 -3 6 -3 8 -5c0 4 -4 5 -8 5zM364 77l6 -4l-2 5zM168 281c-20 -65 -52 -178 -57 -214v-4c-1 -6 -4 -12 -4 -18v-10
c0 -2 0 -3 -1 -3c-1 -1 -5 0 -5 -4c-1 2 -4 4 -5 5c-1 0 -1 1 -2 3c-3 0 -3 -1 -3 -1c0 -1 -15 -7 -16 -7c-7 2 -2 5 -6 9c-4 5 -7 12 -7 23c-1 3 -1 5 -1 8s0 6 1 9v7c4 58 35 150 49 201h-4c-7 0 -13 1 -19 4c-4 1 0 4 -7 4c-1 0 -3 2 -4 3c-1 2 -2 5 -2 7c0 0 1 3 1 4
c-4 0 -11 9 -11 13c1 3 3 5 6 7c12 5 21 7 58 23c2 1 3 2 3 3c14 45 32 94 47 146l2 33c2 22 12 53 34 66c4 3 6 3 11 3h7c5 0 6 -10 10 -12c1 0 3 -2 3 -2c7 -3 11 -10 11 -17l-2 -3c-7 -52 -44 -140 -61 -206c45 15 316 116 316 217c0 58 -70 97 -155 97
c-46 0 -99 -6 -152 -22c-128 -38 -208 -123 -212 -154c0 -3 0 -18 1 -21c1 -10 9 -17 18 -18c-2 -14 -5 -22 -19 -22l-8 2c-3 0 -15 8 -17 10c-4 2 -10 13 -11 18l-2 12c-1 2 -2 3 -2 4s1 3 1 6v12c0 6 3 14 5 20c57 133 233 198 371 198h22c21 0 41 -4 60 -7c2 0 5 -2 7 -2
c61 -10 133 -57 133 -127v-8c-1 -24 -9 -49 -23 -69c0 -3 -5 -9 -6 -10l10 22c-3 0 -8 -15 -12 -19c-7 -10 -12 -18 -20 -27c-1 -1 -2 -3 -3 -3c1 1 -7 -5 -7 -3c15 14 31 39 38 55c-6 -7 -10 -12 -13 -19c-14 -25 -66 -73 -102 -90c-6 -4 -7 -4 -12 -8c-3 -1 -5 -3 -7 -4
c-2 0 -4 -4 -5 -5c39 19 67 38 98 69c-2 -3 -1 -4 -3 -7c-6 -6 -15 -14 -22 -19c-41 -35 -111 -66 -146 -81l-16 -6c-3 -2 -6 -3 -7 -3s-10 0 -12 -3c-6 -4 -12 -4 -19 -5c-10 0 -15 -8 -23 -10l-31 -11h5c18 5 45 17 45 17c1 0 -1 -2 -2 -3c-12 -6 -42 -17 -44 -17
c37 -105 177 -278 275 -281c5 0 6 0 11 1c3 0 5 1 7 1c4 -1 6 -2 9 -5c-2 -1 -2 -5 -4 -6c-1 0 -17 -12 -21 -13s-6 -3 -6 -3c-3 0 -6 -2 -6 -2c0 -1 -6 -1 -8 -1l8 -5l-5 -1c-8 1 -14 3 -16 3c0 -1 1 -2 1 -4h-6c-1 0 -3 0 -8 2l-3 -2c-4 0 -8 1 -8 1l-14 6c-1 3 -1 4 -2 4
s-4 -2 -4 -3c-7 1 -11 4 -15 9c0 0 -4 1 -7 1c-2 0 -12 5 -12 4c-4 1 -4 2 -4 5c-7 0 -7 1 -7 2c0 0 1 1 -7 6c-2 5 -5 7 -10 7h-4s-2 0 -2 4c-3 0 -5 7 -5 8l-7 3l-9 7c-7 4 -10 8 -17 16c4 -3 9 -3 12 -3c0 3 -10 7 -12 7l-5 3l-7 8c0 5 -4 5 -8 5l-10 13
c-30 28 -83 110 -107 167z" />
    <glyph glyph-name="S" unicode="S" horiz-adv-x="393" 
d="M481 357c-2 0 -1 -2 -4 -3c2 0 4 0 9 2c0 0 -1 1 -5 1zM206 76c-2 0 -3 -3 -5 -3c0 -1 0 -2 -1 -3c1 0 2 0 3 1l4 3c3 0 5 0 6 1c-1 1 -1 2 -1 3c-1 0 -5 -1 -6 -2zM232 213c-1 0 -2 1 -2 2s-1 0 -5 -5c1 0 3 -1 3 -1c2 1 3 3 4 4zM220 76c2 3 4 7 4 7s-3 -4 -4 -4h-5
c-1 -1 2 -2 3 -3l-4 -5c3 0 6 2 6 5zM126 5c-2 0 -3 1 -5 1c-1 0 -2 0 -3 -1c0 -2 1 -2 2 -2c5 0 14 1 19 2c0 2 -1 2 -2 2c-4 0 -10 -2 -11 -2zM163 29c2 1 5 4 5 4c0 1 -4 -1 -6 -1c-3 0 -5 -3 -5 -5c1 0 6 0 6 2zM465 351c-4 0 -8 -1 -10 -4l-2 -3c1 0 3 0 3 1
c3 3 5 5 9 5c2 0 3 1 4 1h-4zM191 47c-1 -2 -2 -2 -3 -3c5 0 6 0 7 1c1 0 2 1 2 2h-6zM257 115c3 3 6 5 7 8c-2 1 -3 1 -4 1c0 -3 -2 -2 -3 -3v-6zM228 68c0 -2 -1 -2 -1 -3c2 0 4 1 5 1c2 3 7 5 9 7h-5c-1 0 -3 0 -4 -1c-3 0 -10 -3 -10 -3h4l3 3c0 -2 -1 -3 -1 -4zM92 -4
c-1 0 -3 -1 -4 -2h10c1 1 3 1 4 1c-2 0 -6 2 -6 2h6l3 2h-6c-3 0 -6 0 -7 -3zM170 20l13 7c2 0 2 1 3 2l-14 -4c-1 -1 -4 -3 -5 -3zM156 16c-3 -1 -7 -3 -8 -5c-1 0 1 3 1 3s-1 0 -7 -3c6 0 9 0 16 2c0 2 0 3 -2 3zM262 109c-1 1 -2 2 -3 2c-3 0 -7 -3 -8 -4c1 -2 2 -2 3 -2
c3 0 2 3 5 3c1 0 2 0 3 1zM275 110c3 0 3 3 4 4v4c-4 0 -12 -15 -12 -20c1 0 2 2 3 3c3 1 3 6 5 9zM107 11c0 1 -2 1 -3 1l-10 -3c-1 0 -2 -1 -3 -1zM210 204c3 1 5 3 7 4c1 0 5 3 6 4c0 0 -4 -1 -5 -1c-3 0 -7 -6 -8 -7zM76 9c1 0 12 1 12 2h-12c-1 1 -2 1 -3 1zM134 150
l-4 -3c0 -1 1 -2 2 -2c2 0 4 2 5 3c-1 1 -2 2 -3 2zM291 194l2 7c-1 1 -1 3 -2 6v-13zM349 271l-7 -3c1 -1 2 -1 3 -1s2 1 3 1c0 0 1 2 1 3zM436 335c2 1 4 3 6 5h-4c-4 0 -5 -4 -5 -4c0 -1 2 -1 3 -1zM153 8h-7c-1 0 -3 0 -4 -1c2 -1 5 -1 7 -1c1 0 2 1 4 2zM236 303
c1 1 1 -2 2 -2c0 0 -2 8 -2 9c-1 -1 -1 -4 -1 -4c0 -1 0 -2 1 -3zM421 330c1 0 2 1 4 1c0 2 -1 2 -3 2c-2 -1 -3 -2 -5 -2c0 -1 3 -1 4 -1zM265 176l3 -4c1 2 2 3 2 4s-1 2 -1 3zM390 314l4 2l2 3c-1 0 -2 -1 -3 -1zM147 18c1 0 3 0 4 1c2 1 -3 2 -5 2c-1 -1 -3 -2 -5 -2
c1 0 3 0 6 -1zM255 151l-3 -3c4 0 5 0 6 1zM265 316c0 2 -4 8 -5 9l1 -3c0 -3 3 -5 4 -6zM216 57c-1 0 -8 -2 -9 -3c0 -1 4 -1 5 -1s4 3 4 4zM115 -3c3 0 3 1 4 1h-10c1 -1 5 -1 6 -1zM276 161c2 0 2 1 2 2v5c0 -2 -1 -4 -2 -7zM470 329c0 1 -1 2 -2 2l-5 -4c3 0 5 1 7 2z
M238 213c-3 0 -3 -1 -5 -1c1 -1 2 -2 3 -2c0 1 1 2 2 3zM130 154c0 1 1 2 1 3l-5 -4c1 0 2 1 4 1zM203 203c0 1 1 4 1 4s-4 -3 -5 -3c-1 -1 -2 -2 -2 -3c0 0 5 2 6 2zM275 170c1 0 2 0 3 1c-2 0 -2 1 -2 2s-1 -1 -1 -3zM148 25h-6c0 0 2 -1 3 -1c0 1 2 1 3 1zM229 120
c14 25 28 63 21 89c-51 -31 -160 -102 -195 -152c-4 -5 -8 -10 -8 -16c0 -2 1 -4 4 -5c4 -2 8 -5 10 -5c5 -1 9 -1 14 -1c48 0 120 35 154 90zM244 59c-4 -4 -11 -9 -16 -12l-2 -3l-5 -3c-2 -2 -4 -3 -5 -5l-8 -5c-1 -2 -4 -3 -5 -4c-42 -24 -87 -38 -128 -38
c-22 0 -36 9 -55 23c-5 0 -3 4 -5 6c-1 -1 -2 4 -3 4c-3 0 -5 12 -5 14v4c0 13 2 28 11 39l11 17c3 5 12 14 12 14c8 7 16 14 23 22c19 19 39 35 58 50c11 2 13 9 14 9l10 6l26 19c6 3 12 6 17 10c1 -1 1 -3 2 -3c0 -1 -6 -4 -8 -6c-2 0 -2 -1 -3 -1c1 0 2 0 3 1
c2 0 4 1 6 2l5 3c1 1 2 1 3 1c2 2 2 5 3 5c0 7 10 11 14 12c2 1 3 3 4 4c5 0 7 3 9 4c1 1 4 1 5 2c1 2 3 3 5 4c4 1 7 4 7 6c-2 27 -72 163 -93 226c-8 18 -11 38 -13 57v10c0 9 1 18 3 27c26 106 128 160 223 173h10c17 0 28 -4 42 -10l43 -25c8 -6 15 -10 22 -16
c5 -5 9 -10 11 -17c0 -1 1 -2 1 -3c1 -5 2 -11 2 -16v-6c-2 -29 -14 -57 -25 -78l-3 -6c-5 -8 -12 -13 -23 -13c-2 0 -8 3 -10 3c-6 1 -7 6 -7 11c0 8 1 16 3 23c6 20 12 47 12 63c0 26 -16 42 -41 46c-5 0 -10 1 -15 1c-86 0 -197 -88 -197 -155c0 -66 91 -210 105 -272
c27 14 168 82 189 82c2 0 7 -1 7 -3c0 -3 1 -4 1 -4l-2 -15c0 -1 -8 -5 -7 -5c5 0 6 -1 8 -1c-3 -4 -12 -5 -12 -8c0 -1 -4 -5 -5 -6c-70 -34 -92 -41 -167 -85c1 -8 3 -17 3 -25c0 -54 -24 -105 -44 -130c-3 -6 -9 -9 -13 -15l-4 -3c0 -1 -1 -2 -4 -6z" />
    <glyph glyph-name="T" unicode="T" horiz-adv-x="216" 
d="M87 30h-10h-5s-4 1 -8 1c-11 0 -14 0 -14 2s6 7 6 13c0 1 -1 3 -1 4c-5 1 -8 6 -8 10c0 1 1 2 1 3c-1 6 -1 13 -1 20c0 129 115 390 191 577c-74 -9 -138 -18 -199 -37c-10 -3 -17 -7 -27 -8c-10 0 -22 -10 -30 -10c-2 0 -4 0 -5 2c-8 7 -11 14 -11 20c0 19 32 33 61 40
c119 28 223 37 311 37c40 0 76 -2 110 -5c30 -2 81 -12 87 -35c2 -1 3 -4 3 -7c0 -2 -1 -3 -1 -3c-44 7 -123 12 -191 12c-29 0 -55 -1 -76 -3c8 -4 11 -10 11 -17c0 -5 -2 -11 -5 -18c-58 -178 -179 -432 -185 -578c0 -5 1 -9 1 -15zM61 66l-5 1c-3 0 -3 -4 -3 -4
c0 -1 0 -2 1 -3l4 -4c0 2 3 7 4 7s2 -1 2 -6c0 -1 -1 -9 -4 -9c1 -3 2 -3 3 -3c1 -1 2 6 4 12c0 3 -2 9 -6 9zM65 151c0 -1 -2 0 -2 -3c-1 -2 -2 -3 -2 -4c0 0 -3 -16 -3 -26c1 0 4 -1 3 0c0 11 4 21 4 33zM88 250v-6c-1 -2 -3 -13 -5 -15l-3 -10c-1 -1 -3 -1 -3 -1
c3 -3 3 -5 3 -6c1 0 2 1 2 2c3 7 2 6 2 6c2 3 7 20 7 26c0 1 -1 3 -3 4zM82 207l-5 -1l1 -9zM56 96c-1 -6 -1 -8 -1 -10v-9s3 -1 2 -2c3 20 3 21 3 22v5s-3 -5 -4 -6zM67 169v-4c0 -2 1 -3 1 -5l2 6c0 2 1 2 2 3h-5zM72 177l6 14c-4 -2 -7 -6 -8 -9l-2 -7c1 0 3 1 4 2z
M57 111l-1 -7c1 1 2 3 2 4s0 2 -1 3z" />
    <glyph glyph-name="U" unicode="U" horiz-adv-x="381" 
d="M261 -15l1 -10c0 -1 1 -3 2 -3c0 0 3 3 3 4v6s2 3 3 4c-5 0 -5 -3 -6 -4v14c0 -2 -1 -3 -1 -4c-1 -3 -2 -5 -2 -7zM266 62c-3 0 -4 -6 -5 -9c1 -2 5 -2 5 -3c1 2 2 3 1 3c0 5 -1 6 -1 9zM282 -11l3 15c0 2 1 7 2 9c1 1 -4 -7 -4 -11l-1 -4c0 -1 1 -2 1 -3
c-1 -2 -2 -3 -4 -4l-1 -4c0 -1 3 -1 3 -1c0 2 1 2 1 3zM312 223v-5c2 3 5 6 5 9c0 4 -1 5 -2 5s-1 -1 -3 -9zM288 76c5 0 6 12 6 12c-4 0 -6 -9 -6 -12zM282 23c0 -2 0 -3 2 -5v4c2 2 4 3 7 4c-1 1 -5 4 -5 6c1 1 -3 -7 -4 -9zM266 33c-1 -2 -2 -3 -2 -4c-1 -3 -5 -6 -5 -9
c6 0 6 6 7 13zM259 26v4c0 3 0 4 -1 4c-2 0 -2 -5 -2 -6s0 -2 3 -2zM250 41l-1 -4c2 1 4 4 4 6v6c-2 0 -2 -1 -2 -2c-1 -1 -1 -4 -1 -6zM306 182c2 0 2 1 4 3l-3 8c0 -1 -1 -5 -2 -8c0 -1 0 -3 1 -3zM283 53h8c-2 2 -3 2 -5 2c-1 0 -2 -1 -3 -2zM274 130l-5 -10c3 0 3 4 4 7
l4 10c-2 -1 -3 -5 -3 -7zM276 160v5c-2 -3 -3 -6 -4 -9c1 -1 4 3 4 4zM278 -5c0 2 -2 3 -2 4c-1 -2 -1 -6 -1 -7c2 0 3 2 3 3zM243 18l4 5c-1 1 -3 -2 -3 -2c-1 0 -1 -1 -1 -3zM277 131c4 2 5 6 6 11l-4 -7c-1 0 -2 -1 -2 -4zM303 173c0 -3 0 -4 1 -5l1 8c-1 0 -2 -2 -2 -3z
M286 104l3 -1v5c-1 0 -3 -3 -3 -4zM260 44c0 -1 1 -2 1 -3c1 0 2 1 2 2s-2 1 -3 1zM278 48l2 4c-3 -3 -4 -4 -4 -9c1 -1 2 3 2 5zM291 140v-4c1 2 2 2 2 3v5c-1 -1 -2 -4 -2 -4zM286 1l2 -4l1 8c-1 -1 -2 -1 -3 -4zM280 7c1 -1 1 -2 1 -3c1 3 1 8 1 8c-1 0 -1 -4 -2 -5z
M293 274c2 10 3 13 4 15c0 1 6 24 6 24c1 5 4 8 4 13l5 17s5 10 5 14l4 13l-10 -20c-44 -82 -81 -160 -135 -238c-22 -32 -61 -80 -103 -80c-38 0 -48 45 -48 75c0 14 1 33 3 61c0 6 0 12 3 31c35 201 121 386 200 517c11 16 19 28 39 33c2 1 3 1 4 1c9 0 6 -5 10 -10
c4 -4 5 -8 6 -12c-1 -3 -2 -7 -4 -11c-56 -103 -194 -383 -209 -605l-1 -21l2 -20c0 -2 3 -3 5 -3s5 1 6 2c117 155 201 348 270 465l18 40c16 31 40 112 66 116c9 0 24 -8 24 -17c0 -5 -3 -11 -3 -14s-1 -6 -2 -10l-19 -51c-35 -92 -62 -186 -86 -281
c-26 -102 -50 -205 -66 -316l-2 -27c0 -4 -2 -4 -3 -4c-3 0 -2 -16 -4 -16c-1 -2 -2 -6 -4 -6c-1 0 -2 6 -2 8c0 -1 -4 -6 -4 -10c-1 0 -2 5 -2 5l1 15c0 2 -2 3 -2 5c-2 -6 -2 -7 -2 -9l-4 -4c-2 0 -2 8 -3 7c-2 0 -3 -1 -3 -1l3 41c-1 0 -3 -5 -4 -8c0 -1 0 -2 1 -3
c0 -5 0 -10 -2 -12v-20c-2 0 -4 3 -6 3c-1 0 0 19 -3 17c-9 0 -9 9 -9 13c0 1 0 3 2 5v4c-1 4 -1 6 -1 9v4l1 10c2 15 2 8 5 24l2 13c0 3 0 10 5 30l2 13c0 1 0 2 1 4l25 114c1 0 3 8 3 9l6 21c1 1 3 3 3 5v8c0 1 1 4 2 5z" />
    <glyph glyph-name="V" unicode="V" horiz-adv-x="296" 
d="M413 679l7 5c-26 -55 -60 -129 -62 -137l2 -4c0 4 3 12 6 17c1 1 4 11 10 21c1 0 3 3 3 4s0 8 2 8c1 1 2 2 3 2s2 -1 3 -2l-10 -21c-2 -6 -5 -11 -6 -17l-6 -13c0 -1 1 -3 1 -4c0 -4 -7 -8 -10 -13c2 -2 3 -2 3 -2c0 -1 -3 -6 -4 -8l-19 -49
c-52 -133 -128 -318 -205 -417c-2 -4 -5 -9 -9 -12c-6 -6 -11 -12 -19 -16c-5 -2 -8 -3 -13 -3c-4 0 -7 -2 -10 -5c-6 -3 -10 -4 -17 -4c-17 0 -25 9 -33 23c-7 19 -11 46 -11 75c0 7 1 15 1 22c10 176 72 380 72 530v18c-5 25 -14 37 -34 49c-2 1 -2 5 -2 7
c1 15 12 16 27 16c42 0 60 -74 60 -107v-39c0 -166 -71 -409 -71 -519c0 -14 0 -28 5 -30c4 4 7 6 10 10c38 61 94 172 136 266l11 25c78 174 117 325 163 325c1 0 17 6 17 6c0 -4 -1 -5 -1 -7zM384 600l38 82l3 4l-2 -5c0 -1 -2 -8 -4 -13c0 -1 -2 -3 -2 -6l-3 -4
c-1 -5 -2 -7 -4 -9l-5 -14l-7 -15c-2 -5 -3 -9 -6 -12c-1 -4 -3 -7 -4 -8h-4zM357 537v5c-8 -14 -34 -86 -37 -93c0 -1 -33 -87 -33 -88l-3 -9c8 17 62 159 73 185z" />
    <glyph glyph-name="W" unicode="W" horiz-adv-x="622" 
d="M513 100c-20 -43 -61 -106 -83 -106c-3 0 -13 3 -14 3h-5c-19 0 -22 24 -27 33c-7 21 -8 41 -8 63v27c0 21 1 44 2 67c6 89 31 300 31 381c0 9 0 26 -1 32c0 1 -1 2 -3 2c-4 0 -16 -14 -17 -16c-26 -28 -89 -162 -127 -254l-36 -84c-32 -75 -93 -213 -126 -236l-8 -5
c-2 -2 -4 -2 -4 -3c-3 -3 -7 -4 -10 -4s-7 1 -10 1c-5 0 -9 9 -13 11c-14 0 -18 16 -19 21c-10 26 -10 50 -10 89v30c2 21 4 44 7 67c20 154 68 300 74 427c0 6 1 12 1 19c0 26 -5 51 -23 57c-5 3 -11 2 -13 5c-4 1 -6 4 -6 8c1 14 20 15 39 15c22 -1 41 -28 47 -45
c6 -19 9 -41 9 -67c0 -144 -81 -390 -81 -569c0 -2 2 -4 3 -7c19 25 53 105 93 201l5 11c1 4 3 7 5 11c57 134 149 329 195 353c4 2 8 1 13 5s2 8 13 8c16 0 30 -13 36 -33c11 -30 13 -71 13 -117c0 -125 -29 -294 -29 -420c0 -23 1 -34 4 -34c1 0 4 3 5 4
c23 26 72 167 113 272l8 20c41 108 72 218 106 321l7 17s3 5 4 5l5 -1c0 -2 3 -3 3 -4l4 -15c0 -4 -1 -3 -3 -7c0 0 3 3 4 3c0 -1 -1 -3 -1 -3c2 0 3 0 3 -2v-14c0 -3 -4 -14 -4 -19v-4s4 6 4 8c0 5 1 6 3 8v-15c0 -6 0 -11 -3 -17c-1 -7 -2 -11 -5 -17c-4 -6 -6 -11 -7 -19
c-4 -3 -4 -6 -5 -8c0 -5 -3 -6 -5 -6c0 0 0 6 2 8l-3 -1c-2 -5 -6 -14 -8 -17c0 -5 0 -13 -7 -13c0 -1 -2 -1 -3 -1c6 11 18 39 20 48c0 1 1 2 1 4c-2 -1 -4 -1 -4 -2c0 -2 1 -5 1 -8c-1 -4 -3 -5 -5 -8c0 -1 -2 -3 -3 -5l-1 -6c-3 -3 -4 -6 -5 -9l-9 -16h5
c-1 -5 -1 -9 -3 -12c0 -3 -2 -4 -3 -6c0 2 1 6 3 8l-1 5c-1 -5 -6 -12 -7 -17h4c1 0 2 0 3 -1c0 -2 -1 -4 -1 -7c-1 -1 -5 -9 -5 -11c0 -1 -1 -6 -3 -7l-4 3c-1 -3 -1 -6 -1 -7c0 -2 -2 -19 -3 -21c1 1 1 3 1 4c0 4 3 8 5 10c0 -3 -2 -5 -2 -8c2 2 3 3 3 4c2 4 2 11 3 14
l5 11l2 -8c0 2 1 4 1 5s0 4 -1 5c1 3 5 3 5 5c-1 1 -1 2 -1 3c0 2 -1 5 -2 6c0 0 3 2 4 4c-2 1 -3 2 -3 2c0 1 2 2 3 5c0 2 3 7 5 10c2 5 6 10 6 15c0 1 3 3 3 5s7 2 8 4c2 4 0 9 6 15c1 2 2 3 2 4c1 -1 1 -2 1 -3c-1 -1 -2 -2 -2 -3c-28 -108 -98 -319 -165 -464zM672 567
c0 1 4 2 4 6c-2 2 -4 3 -4 4s1 2 2 3l6 13v4c-4 -2 -4 -4 -4 -6c-1 -3 -4 -6 -4 -9c-1 -1 -1 -2 -1 -3c-1 -1 -1 -2 -1 -3v-4c0 -2 2 -4 2 -5zM653 572c-1 0 1 -3 0 -3l-4 -10v-6c0 -2 0 -4 1 -4s1 5 3 12c0 2 2 3 2 5l2 7c-1 -1 -2 -1 -4 -1zM621 464c2 0 3 2 3 2
c0 1 0 3 -2 4c0 -3 -1 -4 -1 -6zM652 578c2 0 2 2 4 3c0 2 -1 2 -2 2c0 -2 0 -4 -2 -5zM646 544l1 -4c1 2 1 3 1 4c1 0 2 1 2 2c0 0 -2 -2 -4 -2z" />
    <glyph glyph-name="X" unicode="X" horiz-adv-x="376" 
d="M227 248c-2 5 -4 10 -5 15l-8 -11c-35 -43 -122 -158 -153 -190c-4 -11 -21 -10 -21 -21c-1 -4 -2 -5 -3 -5c-1 -1 -3 -1 -4 -1c-2 0 -4 1 -6 1h-6c-8 0 -9 -5 -18 -5c0 0 -5 4 -10 4c-1 -1 -2 -1 -3 -1c-2 0 -2 2 -2 5c3 3 5 9 10 14c7 20 19 24 28 42
c58 75 111 141 177 231c-11 54 -52 198 -71 294c-4 11 -6 21 -7 33c0 2 8 7 9 8c0 0 14 2 19 2c21 0 33 -32 35 -50c20 -66 42 -170 61 -233c70 88 159 215 217 302c2 2 4 3 6 3c4 0 3 -1 4 -7c0 -7 2 -7 2 -15c-1 -6 -3 -16 -8 -24c0 0 -5 -4 -6 -7c-10 -20 -9 -26 -9 -26
l-6 -7l-11 -9c-1 -1 -2 -2 -2 -3c0 -4 5 -6 5 -7c0 -2 2 -12 2 -13s-2 -3 -6 -7c-8 -8 -9 -11 -9 -13c-1 -4 -3 -8 -6 -13c-5 -4 -11 -14 -13 -18c-5 -7 -5 -6 -9 -11c-5 -4 -3 -8 -6 -10l-4 -7c-1 -4 -2 -7 -6 -9c-4 -11 -9 -11 -18 -26c-1 -4 -7 -9 -12 -17l-5 -7
c-23 -33 -56 -78 -81 -113c27 -104 55 -182 98 -278c4 -6 5 -11 8 -17c-1 1 -3 2 -5 2c-3 0 -1 4 -5 4c-3 0 -6 -2 -11 -3c-10 1 -3 6 -11 6c-5 5 -7 0 -8 7c-7 0 -6 7 -11 9c-11 0 -18 5 -21 11c0 1 -1 2 -1 3c-29 48 -56 130 -74 188zM446 626c-1 1 -8 1 -8 1l-4 -12
c0 -1 -3 2 -4 3l-1 -7c5 1 11 4 11 4c0 -1 -1 -3 -1 -4c0 0 3 2 5 2c1 2 1 4 1 5s4 3 4 2c0 3 1 9 2 12c-3 0 -5 -4 -5 -6zM10 63c0 -1 4 1 7 3c0 -1 -5 -7 -5 -8c-1 -2 -2 -5 -2 -8c0 7 9 10 9 18c0 2 -2 4 -2 5s0 2 1 3c7 4 10 9 13 15l2 6c-4 -3 -13 -18 -20 -25
c-1 -2 -3 -4 -3 -5v-4zM35 71c0 0 -4 -2 -4 -4c-2 -2 -3 -10 -3 -12c1 6 10 15 10 20v4c0 -1 0 -2 -2 -2c0 3 1 4 2 5c6 4 8 9 11 14l3 6c-4 -3 -13 -17 -18 -24c-1 -2 -4 -3 -5 -4v-4c4 0 6 1 6 1zM-5 38c5 0 7 13 12 18c0 1 -1 4 -1 5c0 -2 -1 -2 -2 -4
c-3 -2 -5 -7 -7 -11c-2 -2 -1 -2 -2 -3c0 0 3 1 4 2c1 0 -4 -4 -4 -7zM56 75c3 4 6 11 9 15v4l-10 -14c-1 -5 -2 -6 -3 -8zM51 90c0 2 4 3 6 7c0 1 3 9 3 9c-1 0 -12 -15 -12 -15c-1 -1 -1 -3 -1 -3c1 0 3 2 4 2zM39 62c2 5 5 12 8 16l1 4l-11 -14c0 -6 -1 -7 -4 -9zM17 53
c2 2 9 9 11 13c0 1 -1 4 -1 5c0 -2 -1 -2 -2 -4c-3 -2 -5 -7 -7 -10c0 -1 0 -3 -1 -4zM32 78c0 2 4 6 6 11c0 1 -1 1 -4 1c-2 -5 -6 -13 -6 -14c1 1 2 2 4 2z" />
    <glyph glyph-name="Y" unicode="Y" horiz-adv-x="442" 
d="M223 109c-5 -5 -9 -18 -16 -27c6 0 17 20 19 24c-2 -1 -4 -2 -4 -3c0 2 1 4 1 6zM246 336l2 -8c2 0 3 2 3 2c-1 7 -6 9 -5 9c-2 -3 -3 -4 -3 -6l2 -4zM164 202c-2 -3 -3 -4 -5 -9c6 2 9 11 10 10c-1 1 -1 4 -2 4c-1 -1 -2 -5 -3 -5zM156 33c0 0 4 6 7 7l-7 1
c1 -1 1 -2 1 -3c0 -2 -1 -4 -3 -6c-2 -1 -3 -3 -3 -5c3 0 4 3 5 6zM174 55c1 4 1 11 3 14c-1 -1 -3 -2 -3 -3c-1 -7 -4 -10 -7 -14c3 2 4 3 7 3zM166 50l-3 -7s3 0 4 3zM249 336c3 1 2 2 3 4c-1 0 -3 -2 -3 -4zM89 199h-7l3 -3c4 0 4 3 4 3zM126 414c-2 0 -3 -1 -3 -2
c0 -2 1 -3 1 -4c1 1 2 -1 2 6zM76 174c2 0 4 1 6 1c0 0 -1 3 -1 4c-1 0 -2 -2 -5 -5zM139 424h-6c0 -2 1 -3 2 -3s1 1 4 3zM100 356h-5c1 -2 2 -2 3 -2s2 0 2 2zM293 31l5 11c1 1 1 3 1 4c0 2 -1 3 -1 3c1 0 -3 -8 -5 -11c-1 -1 -1 -2 -1 -3s0 -3 1 -4zM172 -3
c-4 -1 -5 -4 -8 -10c0 -8 -4 -10 -8 -13c-1 -1 -1 -2 -1 -3c-3 0 -3 -1 -3 -1c0 -1 2 -2 3 -2c0 -1 -2 -7 -4 -9c-20 -38 -30 -60 -37 -106c2 0 2 1 3 2c1 0 13 6 17 11c83 102 143 233 177 308c0 2 -7 -6 -7 -6c-1 0 -3 -4 -7 -4c-2 1 -2 2 -2 3c0 3 1 7 4 10c3 2 7 3 8 6
c1 0 2 6 5 7c-1 0 -2 1 -3 1s-3 -10 -6 -10c0 0 -3 -2 -5 -2c-6 -3 -7 -13 -7 -15c-1 -1 -5 -1 -5 -1c0 -1 1 -2 1 -3c0 -2 -2 -3 -5 -5c-1 -5 -3 -5 -5 -5s-5 0 -7 -7l1 -5c5 5 1 0 10 7l-1 -5c-7 -8 -9 -11 -18 -20c-9 -11 -16 -17 -21 -28c-6 -2 -10 -6 -10 -11
c0 -1 -11 -10 -14 -16c-11 -18 -23 -33 -33 -50c-3 -3 -7 -9 -10 -11c0 -3 -1 -5 -2 -7zM514 345c3 0 5 3 10 3l4 3l8 2c1 0 2 1 3 2c3 -1 4 -1 4 -1c0 -2 -13 -9 -15 -9c-2 -2 -12 -5 -20 -8c0 0 -2 -1 -3 -1s-3 0 -5 -1c-2 0 -4 -6 -5 -4c-3 -3 -5 -3 -6 -5
c0 -1 -1 -2 -2 -3c5 2 15 8 15 8c5 5 33 12 41 16c0 0 -2 -6 -6 -6c-12 -4 -28 -11 -40 -19c9 4 19 8 29 11c0 2 10 3 13 3c-8 -13 -29 -25 -36 -29l-14 -7c-12 -5 -23 -10 -24 -10c-5 -2 -11 -9 -18 -9l-3 4c-1 0 -3 -1 -3 -1c4 11 57 27 63 36c-11 -4 -42 -20 -42 -20h-5
c1 3 14 8 11 8c-1 0 -10 -3 -14 -6v-4c-2 -2 -7 -4 -9 -4l5 8c6 3 14 10 18 14l-16 -6c-4 0 -11 -7 -11 -11c2 0 4 0 6 1c-7 -5 -9 -7 -12 -8l4 -1c-2 -4 -3 -8 -5 -10c-4 1 -4 7 -7 7c-1 0 -9 -4 -11 -7c3 0 5 2 8 2c2 -1 3 -2 3 -2s-1 -1 -3 -1s-4 -4 -6 -5
c-1 0 -3 -1 -4 -3c3 0 4 1 6 2c0 0 9 5 10 4l4 -6c-20 -11 -36 -22 -45 -30c-44 -133 -136 -345 -251 -420c0 0 -9 -1 -9 -2c-3 -2 -6 -4 -13 -4c-5 -1 -30 24 -36 24s-8 24 -8 31c1 10 7 27 7 36c44 132 166 272 258 352c25 80 53 186 63 229c-8 -4 -70 -94 -137 -182
c-22 -30 -45 -58 -67 -84l-7 -8c-21 -26 -46 -55 -83 -58c-20 5 -22 8 -27 12c-10 9 -19 23 -19 48v8c0 123 105 340 178 443c20 27 37 30 47 30c12 0 18 -4 18 -12c0 -2 -1 -3 -3 -5c0 -1 -3 -7 -6 -10c-1 -4 -6 -7 -7 -11c-65 -109 -173 -303 -180 -471
c39 17 220 304 297 369c4 4 13 17 22 17c1 0 3 0 4 -1s2 -1 3 -1c14 -6 18 -15 18 -37c0 -4 -1 -8 -1 -11v-4c0 -3 -1 -4 -1 -7c-3 -26 -21 -131 -44 -206c19 12 89 44 134 53l-20 -8c-1 -1 -2 -2 -4 -2c0 -6 -16 -7 -15 -7c6 0 14 2 14 2z" />
    <glyph glyph-name="Z" unicode="Z" horiz-adv-x="391" 
d="M240 303c0 -1 -1 -2 -1 -3s1 -2 4 -2c-2 0 8 8 8 8c1 1 2 3 2 4s-3 0 -3 2c0 1 -6 -7 -10 -9zM210 277c3 1 13 11 11 12l-4 -4c-1 0 -2 0 -3 -1c0 0 -4 -5 -6 -7l-10 -9c0 -1 -10 -10 -11 -11s-2 -3 -1 -3l12 7c5 4 13 13 13 13s-1 2 -1 3zM74 84c7 -6 35 -8 59 -8
c68 0 181 17 212 22c3 1 6 1 7 1c9 1 14 1 17 1h4l-1 -8c0 -6 -5 -10 -9 -10c-1 0 -2 1 -3 1c0 -5 -3 -5 -5 -5c-9 0 -12 -9 -21 -11c-6 -12 -11 -5 -19 -10c-15 -5 -1 -4 -17 -7c-2 0 -5 -1 -5 -1c-8 0 -13 -2 -19 -2c1 -1 2 -2 2 -3s-1 -2 -3 -2c-3 0 -8 2 -9 7h4
c0 0 3 2 3 4h4c2 -1 4 -1 6 -1c9 0 21 5 27 7l6 4c-3 0 -4 0 -5 -1c-6 -2 -19 -7 -29 -7c-3 0 -5 0 -7 1c-7 -1 -9 -3 -9 -3l-8 2c-3 -1 -7 -5 -7 -7c0 -1 1 -2 3 -2c0 5 4 5 8 5c0 -1 2 -4 2 -6s-2 -3 -7 -3h-4h-3c-2 -2 -10 -2 -9 -3c-4 0 -6 -1 -7 -1c-2 0 -3 1 -5 4
c-2 -4 -2 -6 -7 -6c0 4 -2 5 -4 5c-4 0 -11 -4 -12 -6c-3 1 -6 2 -8 2c-10 0 -12 -9 -23 -9c-2 -1 -3 -1 -4 -1c-2 0 -4 1 -5 1c-2 1 -5 1 -7 1s-4 0 -6 -1c-3 0 -3 -1 -3 -1c-7 0 -9 -2 -14 -2h-13c-3 -1 -5 -2 -7 -2c-3 0 -4 1 -6 3c-4 0 -5 -1 -7 -1c-1 0 -3 0 -5 1
c-6 2 -12 2 -21 2c-15 0 -41 14 -41 28c0 1 -2 2 -3 2c-5 -2 -12 28 -12 34c0 22 9 38 21 56c59 94 192 203 285 300c2 2 9 6 13 12c3 5 8 10 15 13c9 12 19 20 27 28c20 20 43 38 58 60c7 10 12 19 12 29c0 7 -3 14 -6 20c-19 16 -52 18 -75 18c-28 0 -119 -16 -190 -16
c-48 0 -87 7 -91 32c0 9 -6 8 -6 13c0 7 3 8 4 9c2 0 4 0 4 -4c65 5 138 18 215 18c80 0 189 -5 189 -99c0 -10 -1 -18 -4 -22c-12 -28 -27 -53 -46 -72c-3 -2 -4 -2 -7 -2c0 -5 -1 -6 -2 -8c-1 0 -7 -5 -10 -7c-3 0 -3 -2 -4 -2c0 2 4 2 4 6c-1 1 -2 1 -3 1
c-2 0 -3 -3 -4 -5c0 -2 -5 -2 -8 -2c0 -2 1 -3 2 -3s4 1 5 1c0 0 -4 -5 -4 -8c0 -1 -7 -5 -7 -9c-4 -4 -11 -6 -14 -10c-2 -2 -5 -7 -9 -9c-3 -3 -3 -4 -7 -4c-4 -6 -8 -8 -12 -12l-34 -36c-3 -1 -8 -6 -9 -6l2 5c0 2 2 6 5 7c3 -1 27 27 36 34c3 4 13 16 19 19c7 6 8 8 8 9
s-1 2 -1 3c0 0 -3 0 -3 -4l-21 -18c-2 -4 -8 -8 -12 -12c-3 -4 -4 -9 -8 -9c-6 -3 -5 -5 -9 -8c0 -3 -3 -3 -3 -3c-2 0 -9 -12 -12 -12h-4c-2 0 -3 0 -3 -1s1 -3 3 -6c-2 -1 -4 -4 -4 -6c0 -1 0 -2 2 -3c-19 -16 -35 -37 -55 -55c-41 -45 -190 -189 -190 -222
c0 -2 1 -5 3 -6z" />
    <glyph glyph-name="bracketleft" unicode="[" horiz-adv-x="233" 
d="M40 102v4c0 6 1 11 2 18c1 3 1 6 1 9c0 4 0 7 1 12l5 27c0 2 1 3 1 4c1 3 4 20 4 23h4v7c0 -4 -3 -4 -4 -5v6l3 15c0 2 0 6 1 9c0 8 1 17 3 26c0 1 1 2 1 3l25 159c3 22 6 42 10 64c42 221 42 229 43 235c-1 5 -1 8 -1 10c0 4 2 7 6 9c26 10 42 17 110 18
c15 0 38 -1 43 -11c1 -2 1 -4 1 -7c0 -7 -3 -16 -11 -16c-6 -2 -14 -5 -20 -5c-18 -1 -70 -8 -81 -18c-7 -81 -99 -630 -99 -684l-1 -14c0 -3 1 -5 3 -5c17 -1 34 -1 50 -1h7c5 0 10 0 13 -3l11 -5c2 -1 6 -8 6 -11c0 -1 -2 -2 -2 -4s1 -8 3 -10l-4 -5c-3 -3 -71 -5 -86 -5
c-4 0 -7 2 -11 3c-4 0 -37 8 -41 12c-1 1 -4 12 -4 13c0 17 1 38 1 68l3 16c0 5 0 11 1 16l2 3s0 -1 3 15c0 1 1 8 1 8s1 -4 1 -5v-6s1 2 1 3l3 24c0 22 2 14 3 35c-1 0 -2 -1 -2 -2c0 -15 -2 -39 -9 -52zM41 67c-1 -1 -1 -2 -1 -3l-2 -16c-1 -19 -1 -29 -1 -36
c2 0 5 29 9 74c0 0 -3 -7 -3 -8c-1 -4 -2 -8 -2 -11zM74 270c-1 -3 -3 -6 -4 -10l-4 -30l4 14zM55 146c1 -1 3 13 3 14c-4 -1 -5 -5 -5 -9c0 -3 0 -5 2 -5zM63 214c1 0 4 7 5 14c-2 0 -4 -4 -4 -7c-1 -2 -1 -7 -1 -7zM64 191c0 1 -5 -5 -5 -8v-4c0 1 4 3 4 4c1 2 1 5 1 8z
M52 110c0 1 -1 3 -1 4c-2 0 -2 -6 -2 -6c1 0 3 1 3 2z" />
    <glyph glyph-name="backslash" unicode="\" horiz-adv-x="343" 
d="M290 2c-15 0 -20 9 -27 16c-16 16 -26 36 -40 57c0 1 -1 2 -1 3s-2 2 -2 3c-45 100 -77 205 -108 310c-63 208 -67 255 -70 264c-4 13 -6 22 -7 35c0 1 -2 4 -2 6c0 1 1 3 1 3c8 11 13 11 23 11c20 0 25 -17 32 -40c15 -52 35 -110 38 -130l11 -39
c53 -186 91 -310 169 -465c0 -7 -4 -5 -4 -8c0 -1 0 -2 1 -4c0 -2 0 -3 -1 -3c-1 -1 -2 -2 -2 -3s2 -2 3 -3c0 -1 -4 -7 -6 -9c-3 -2 -6 -2 -8 -4zM253 78v8c-1 1 -4 2 -4 3c0 -1 0 -2 1 -3c0 -3 2 -8 3 -8zM272 37v-5c0 -1 3 -2 3 -2c2 0 7 -9 9 -11v3c-1 4 -3 11 -4 11
c-5 0 -3 10 -5 11c0 3 -3 5 -5 5c-3 0 -3 1 -3 3s-1 5 -2 5c-5 0 -8 8 -8 11c0 1 1 2 1 3c-3 -1 -3 -9 -3 -12c0 -2 2 -5 4 -6c-1 1 -1 6 -1 7c1 0 3 -5 5 -6l1 -7c1 -3 1 -6 2 -7c0 1 0 3 2 3c1 0 4 -1 4 -6zM235 106v-5c1 -5 3 -9 6 -14c1 -2 8 -14 9 -14
c-4 8 -7 16 -10 26c-3 0 -3 5 -5 7zM284 42l-3 -5s1 -1 2 -3c1 1 1 -1 1 -3l5 -3c-1 2 4 2 4 3s-6 8 -9 11zM261 45l-3 5c-1 2 -2 2 -3 3c1 -5 3 -8 5 -10c0 -2 1 -4 1 -4v6zM231 93c-1 4 -3 6 -5 9c0 -3 2 -6 2 -10c1 0 2 0 3 1z" />
    <glyph glyph-name="bracketright" unicode="]" horiz-adv-x="282" 
d="M228 405l-3 -17c-33 -274 -44 -432 -51 -432c-3 0 -11 -5 -12 -6c-8 -1 -16 -3 -24 -3c-10 0 -21 2 -30 3c-23 2 -53 4 -79 5c2 0 -23 30 -23 33s4 5 5 6l19 3c20 0 40 2 61 2c10 0 21 -1 32 -2c3 0 3 2 3 4c5 113 22 224 36 337c0 5 1 11 2 17c2 12 4 23 5 34l5 47
c3 24 4 48 7 73c13 119 16 145 22 182c0 1 2 10 2 15c0 2 0 4 -1 4c-36 -1 -47 -2 -57 -2c-6 0 -14 0 -21 2c-6 1 -9 6 -11 13c0 2 0 3 -1 5c-3 0 -4 2 -4 4c0 7 11 22 21 22c13 1 46 4 60 4c9 0 13 2 30 2c24 0 48 -4 48 -27c0 -6 -1 -11 -2 -16c-2 -22 -5 -43 -18 -133
c0 -3 -1 -5 -1 -8c-5 -30 -8 -59 -10 -89z" />
    <glyph glyph-name="asciicircum" unicode="^" horiz-adv-x="317" 
d="M244 394v-9c1 -20 6 -37 7 -58c0 -1 3 -4 3 -5v-4c0 -1 0 -3 1 -4l5 -23c4 -10 5 -20 7 -29c0 -1 1 -2 1 -6v-14c0 -5 0 -10 1 -14c0 -3 1 -7 1 -10c1 -1 1 -2 1 -3s-1 -2 -2 -2c-2 0 -3 3 -4 5c-1 0 -3 0 -5 1v-7c-1 0 -2 0 -3 1s-3 -2 -4 -2l-7 -6c-1 0 -3 -3 -3 -4
c-1 0 -1 -2 -2 -3c-2 1 -3 3 -3 3c-3 6 -11 23 -13 30l-34 124c0 1 -2 3 -2 4c-1 -1 -2 -1 -2 -3c-11 -19 -27 -47 -39 -65c-7 -11 -15 -24 -22 -33l-20 -34c-1 -3 -3 -5 -4 -5c-7 -5 -16 -18 -25 -18c-2 0 -3 0 -5 1c-3 1 -5 2 -7 2c-3 0 -6 -1 -9 -1c-4 0 -6 1 -10 6
c-1 1 -1 3 -1 4c0 2 1 3 3 6l111 202c2 2 2 4 3 7c1 11 9 17 15 26c4 5 9 6 15 6c3 0 0 -1 6 -1c16 -3 26 -14 37 -24c4 -4 4 -12 4 -18c1 -8 5 -15 5 -23z" />
    <glyph glyph-name="underscore" unicode="_" horiz-adv-x="313" 
d="M19 138c0 6 2 9 4 13c0 6 5 7 13 7l51 -2c15 0 30 0 45 1c50 3 100 4 150 4c10 -2 14 -9 15 -17c0 -1 1 -7 1 -10s-6 -12 -10 -12c-4 -1 -6 -1 -8 -1h-19c-47 -4 -130 -12 -201 -12h-8c-3 0 -7 1 -10 1c-6 2 -11 7 -15 12c-1 9 -8 8 -8 16z" />
    <glyph glyph-name="grave" unicode="`" horiz-adv-x="99" 
d="M19 801c2 2 2 5 3 7c0 3 1 5 4 6l19 5c2 0 3 0 4 -3c11 -15 19 -31 24 -49l8 -32c0 -6 3 -12 4 -17c0 -4 -2 -6 -7 -6c-2 0 -4 1 -5 2c-1 0 -3 1 -3 2c-1 0 -3 0 -3 -1s-2 -4 -2 -4c-1 0 -2 0 -2 2c-1 1 -1 3 -2 6c0 -1 -1 -1 -1 -3l-5 2c-1 0 -1 2 -2 3
c-5 1 -10 7 -11 10c-5 6 -8 13 -11 20l-8 24c0 9 -1 17 -4 26z" />
    <glyph glyph-name="a" unicode="a" horiz-adv-x="269" 
d="M335 319l-3 -8l12 17l-1 -14l2 4l2 -8l-1 -8l-28 -45c-27 -43 -90 -146 -140 -163c-2 -1 -7 -1 -8 -1c-7 0 -12 2 -18 5c-22 8 -28 34 -28 59v9c0 33 5 60 11 87c-16 -25 -52 -96 -90 -121c-6 -4 -11 -4 -16 -4l-7 2s-1 1 -3 2c-12 7 -19 13 -24 30c0 0 -1 3 -2 5v8
c-1 2 -2 3 -2 5c0 4 3 9 3 15v9c0 5 0 7 3 9l2 9c6 33 23 62 40 89c26 42 56 74 100 88c6 3 17 5 27 5c6 0 13 -1 17 -2c5 6 8 17 25 18l5 -2c11 -7 12 -10 12 -17c-1 -10 -2 -24 -8 -35c-17 -27 -48 -182 -48 -230c2 -8 3 -8 3 -8c10 0 46 45 81 95c27 38 71 105 87 128z
M166 367c-3 0 -8 -1 -10 -1c-16 -2 -49 -39 -75 -79c-19 -28 -39 -72 -48 -99c-2 -5 -2 -9 -2 -13l-3 -9s3 1 5 3c3 4 2 1 46 69c28 43 65 102 87 129zM169 302c0 2 1 7 1 9v9l-5 -19c1 0 -1 1 4 1zM20 266c-4 -3 -6 -9 -8 -14c4 1 7 10 8 14zM159 224c0 6 2 8 4 13l-2 6
c-1 0 0 -1 0 -4c0 -2 -1 -5 -2 -6s-1 -4 -1 -5s0 -3 1 -4zM152 188c2 -2 3 -3 4 -3c0 1 0 4 1 5l-1 9c-1 -5 -1 -8 -4 -11zM20 266l1 8c-2 0 -1 -4 -4 -6c2 0 3 -1 3 -2z" />
    <glyph glyph-name="b" unicode="b" horiz-adv-x="284" 
d="M375 359c0 -3 -4 -6 -4 -9l-6 -6l4 2c-4 -5 -4 -8 -13 -12c-38 -15 -63 -28 -99 -51c-7 -25 -19 -55 -28 -75l-4 -9c-11 -24 -24 -47 -40 -68l-23 -29c-5 -7 -12 -10 -17 -17c-5 -3 -11 -6 -13 -7c8 6 37 37 39 42l7 8c0 1 1 2 2 3l3 4c8 10 19 27 24 39
c-5 -7 -19 -28 -22 -31l-19 -26l-25 -27c-12 -14 -29 -23 -44 -23c-7 0 -25 13 -33 24c-2 0 -1 3 -3 4c-1 1 -2 3 -2 6v5c3 16 6 24 14 42c41 74 106 128 141 153c4 13 6 33 8 49v10c0 3 -2 20 -5 20c-1 0 -2 -1 -4 -1c-42 -37 -43 -42 -65 -66c-2 -3 -4 -6 -7 -9l-3 -5
c-1 -2 -2 -4 -4 -6c-18 -26 -61 -97 -71 -128l-4 -8c-2 -7 -6 -3 -8 -10c-7 -5 -8 -5 -8 -5c-1 0 -2 1 -4 1c-4 0 -8 6 -10 6c-8 0 -14 7 -14 31v6c1 27 7 52 16 87l2 8c31 125 105 319 120 375l3 11c2 3 3 3 5 3c8 0 4 -2 10 -5c8 -6 12 -14 12 -26c0 -4 0 -8 -1 -12
c-5 -34 -28 -108 -54 -187c-22 -68 -37 -117 -48 -154c16 38 86 126 134 126c28 -4 44 -26 47 -56l2 -8v-17c35 18 78 34 106 38c2 1 8 1 9 1c0 -2 -1 -5 -3 -7v-4zM110 111c32 33 60 79 81 117c0 1 3 4 3 6c-20 -19 -49 -53 -64 -72c-7 -8 -11 -18 -17 -26
c-4 -10 -11 -18 -12 -30c1 0 4 1 5 2zM206 185h5c1 0 1 -1 1 -3c3 3 3 5 3 7c0 1 4 5 4 5c2 1 3 2 3 3s-1 2 -1 3c2 3 2 6 4 7c1 1 3 4 3 5v6s-3 -6 -3 -7s-1 -2 -2 -3c0 -1 -4 -7 -5 -9l1 -5c-1 0 -2 -1 -3 -2c-1 0 -2 -3 -2 -5c-1 0 -7 -1 -8 -2zM111 76
c-4 0 -8 -2 -11 -4c1 -1 3 -1 4 -1c3 0 7 1 7 5zM188 266c-4 0 -7 -3 -7 -3c-3 -1 -3 -5 -3 -5c3 1 6 2 6 4c0 1 2 2 4 4zM119 177c-5 0 -7 -3 -7 -4c-2 -2 -2 -5 -2 -5c1 0 3 2 4 3c1 2 3 5 5 6zM84 383c2 0 2 1 5 1c0 2 0 6 -3 7zM119 114c-2 -2 -4 -3 -4 -5h6v7
s-2 0 -2 -2zM166 222c0 -2 5 3 5 3l3 4c-3 0 -8 -5 -8 -7zM351 348c-2 -1 -3 -2 -4 -2c-3 0 -7 -2 -10 -3c0 0 3 0 6 -1l3 2c1 0 4 3 5 4zM175 147c-2 -1 -8 -3 -8 -5c3 0 8 2 8 5zM337 346c1 0 6 0 8 2c0 1 -3 1 -4 2c-2 0 -3 -3 -4 -4zM152 126c0 0 2 0 5 3h-7
c0 -2 0 -4 -1 -5c1 0 2 1 3 2zM191 275c2 0 2 1 2 4c-4 -2 -6 -4 -6 -4h4zM119 102c-1 0 -2 0 -3 2c-1 -1 -1 -3 -1 -5c-1 -1 -1 -2 -1 -3zM354 351c5 0 8 3 8 3h-4c-2 -1 -2 -3 -4 -3zM310 332c1 0 4 3 6 4l-4 -1c-1 -1 -6 -3 -6 -3h4zM350 351c-2 0 -3 0 -5 -1l3 -2
c1 1 2 2 2 3z" />
    <glyph glyph-name="c" unicode="c" horiz-adv-x="229" 
d="M303 326c1 0 2 0 3 -1l-5 -7l4 -2l-4 -11c-3 -9 -12 -24 -20 -36c-12 -21 -49 -75 -65 -95c-5 -1 -7 -8 -8 -10l-13 -15c0 1 -6 -7 -6 -6c-5 -4 -7 -9 -12 -13c-18 -18 -40 -37 -68 -51c0 0 -5 -6 -22 -9c-4 0 -11 -1 -13 -1c-1 0 -3 0 -6 1c-16 4 -39 21 -47 37
c-9 15 -14 36 -14 53l-1 8c0 60 31 165 112 250c10 8 17 12 26 17l4 2c5 2 15 4 16 4c12 0 24 -5 31 -10l10 -8c9 -7 15 -14 15 -27c1 -3 1 -6 1 -9c0 -12 -5 -22 -10 -32c-6 -10 -10 -17 -13 -27c-3 -6 -3 -12 -9 -15c-3 -1 -4 -4 -8 -4c-5 0 -11 2 -15 6c-7 4 -9 12 -9 20
c7 22 16 38 21 61l-2 8c-1 -1 -3 -1 -4 -1c-44 -33 -74 -96 -94 -146l-4 -10c-2 -6 -1 -11 -4 -17l-4 -11c-4 -20 -10 -46 -10 -69c0 -12 4 -45 23 -45h4c1 0 3 0 5 1c67 25 153 161 201 230v-15l6 8c1 0 4 2 6 2l-2 -3l-1 -7zM69 257c1 1 2 -3 2 -3c3 6 8 19 9 24l9 16
c0 3 -12 -14 -12 -15c-1 -5 -4 -17 -8 -22zM54 202c0 -2 0 -4 -1 -6c0 -4 0 -7 1 -9l6 27c-1 -1 -6 -3 -6 -7v-5zM60 255c-2 -3 -6 -10 -7 -14c3 0 7 5 7 8v6zM86 97c-6 -1 -12 -1 -19 -1c0 0 3 -1 6 -1c-1 -3 -3 -4 -4 -4c5 0 11 3 17 6zM49 205c-2 -4 -4 -7 -4 -9
c1 -4 3 -9 4 -8l-1 9c1 1 1 3 1 4v4zM235 214c-3 -1 -5 -6 -7 -8c0 1 1 1 1 3s-2 -3 -4 -4l3 1c-4 -5 -3 -5 -3 -5c3 0 9 11 10 13zM71 274c-1 1 -2 -4 -5 -4c-1 -2 -1 -4 -1 -5v-4c3 2 4 4 5 9zM59 233c1 2 1 3 5 3l-1 4c-5 0 -5 -8 -8 -10c1 0 4 1 4 3zM204 181
c-1 0 -2 -1 -5 -2c-1 -1 -2 -3 -2 -5l-8 -8c2 0 7 6 9 7c0 2 4 6 6 8zM54 179c-3 1 -1 3 -4 3l-2 -8l3 1s2 3 3 4zM19 140c0 -1 1 -3 3 -4c0 8 0 9 -2 9c0 -4 -1 -4 -1 -5z" />
    <glyph glyph-name="d" unicode="d" horiz-adv-x="280" 
d="M150 98c0 -5 1 -9 2 -9c30 3 165 213 198 255c1 1 2 1 4 1l-1 -8c0 -1 -1 -7 -1 -9c3 3 8 12 8 11c0 -7 -5 -15 -9 -21c7 5 12 7 12 7c0 -6 -5 -15 -5 -16l-2 -8c0 -3 -6 -11 -7 -13l-31 -50c0 -1 -1 -2 -2 -3l-4 -6c-6 -11 -13 -18 -14 -20l-2 -3c0 -1 -7 -12 -8 -13
c-3 0 -6 -9 -7 -10c-6 -10 -28 -40 -33 -48l-5 -6c-3 0 -9 -3 -9 -7c-1 -1 -3 -3 -3 -4s0 -3 -1 -3c-2 -5 -11 -12 -12 -12c0 5 2 7 2 9c0 1 8 8 7 9l-8 -6c0 -4 -1 -4 -2 -4c-1 -2 -2 -3 -2 -4c0 -4 0 -8 2 -8c-13 -17 -39 -42 -61 -42c-42 0 -50 39 -50 73v12
c1 31 9 60 12 75l-31 -38c-18 -23 -22 -22 -32 -32c-7 -6 -12 -8 -24 -8c-2 -1 -3 -1 -5 -1c-7 0 -32 22 -32 31c0 82 66 197 144 228h13c3 0 16 -6 20 -7c22 57 70 162 83 198l16 43c0 5 5 5 10 5c7 0 20 -10 20 -24l-1 -9c-6 -54 -71 -188 -98 -277c0 -1 -4 -9 -4 -11
c-19 -63 -38 -135 -46 -199c0 -2 -1 -11 -1 -18zM35 177c5 -1 104 126 123 179c-17 0 -90 -71 -124 -176c0 -1 0 -3 1 -3zM174 251c0 2 0 5 2 6l12 41l-7 -10c0 -5 -1 -15 -4 -18l-4 -16c-1 -5 -5 -23 -10 -24l3 -6c-4 -5 -9 -28 -9 -39c5 21 9 37 15 56c0 2 2 5 2 6v4z
M161 234c5 12 7 22 11 32l-5 -1l2 -4c-4 -2 -8 -22 -8 -27zM42 216c0 2 4 10 8 17c-5 1 -9 -14 -9 -15s0 -3 1 -2zM99 312c1 1 3 4 3 5l4 4c1 1 2 3 3 3c2 2 8 7 8 7c-2 -1 -6 -2 -8 -4c0 0 -1 -2 -3 -2c-3 -3 -9 -14 -7 -13zM337 286c0 -2 -1 -3 -2 -6l-3 -7c7 8 7 9 7 9
l2 3v4l5 8zM198 341c1 0 3 1 3 2l4 13c-3 -2 -5 -5 -6 -8c0 -2 -1 -4 -1 -7zM311 263c0 2 0 4 1 6l-10 -14c-1 -1 -2 -2 -2 -3c2 0 4 2 6 4zM117 346c-3 0 -9 -3 -10 -5l9 1zM137 140c-1 1 -4 -3 -5 -3h-5c2 -2 2 -4 3 -5l2 5c1 -3 2 -3 2 -3c0 -1 3 6 3 6zM114 159
c0 -2 1 -4 1 -5c0 -2 -1 -5 -1 -5s3 3 3 5c0 0 0 2 -2 3c1 0 1 1 3 5c-2 0 -3 -1 -4 -3zM194 325c0 4 3 6 4 9l-4 1l-2 -7s2 -1 2 -3zM210 364l3 10l-5 -1zM219 390h-4l-1 -4l4 1zM74 288c-2 -1 -4 -2 -4 -3l-2 -6zM120 110c0 2 2 4 3 6c-1 0 -4 -2 -4 -3s0 -2 1 -3z
M152 172c0 1 0 3 -1 4l-1 -7c1 1 2 2 2 3zM202 370c0 2 0 3 1 3l3 5l-5 -5c0 -1 1 -2 1 -3z" />
    <glyph glyph-name="e" unicode="e" horiz-adv-x="225" 
d="M267 251c-30 -42 -122 -174 -194 -174c-38 0 -63 44 -63 97c0 6 1 13 1 19c6 81 59 207 142 228c19 -2 52 -13 52 -37v-5c-2 -67 -68 -107 -120 -107c-7 -16 -26 -76 -26 -118v-11c1 -16 9 -32 19 -32c26 0 86 66 105 89c38 45 83 109 111 142v-9l4 5c1 2 -1 -3 -1 -6
c0 0 -3 -3 -5 -6c2 -1 5 -3 5 -3l-3 -5c0 -7 1 -17 2 -16c-1 -1 -2 -3 -3 -5c0 -2 -2 -2 -2 -5c4 4 13 24 18 24c2 0 -16 -29 -18 -31zM163 389c-21 -16 -38 -31 -59 -69l-5 -9c30 7 68 46 68 74c0 3 -3 2 -4 4zM58 211c0 0 -3 -20 -3 -32c3 29 14 68 22 92
c-2 -4 -5 -11 -6 -15l-5 -13c0 -1 2 2 2 2s-1 -5 -2 -6c-1 0 -4 -8 -4 -11c0 0 -1 -3 -2 -3s-2 0 -3 -2l3 13c2 8 11 35 11 35c-1 0 -3 -3 -3 -3c-6 -19 -13 -39 -14 -61l3 16c1 -1 2 -2 2 -5c0 -2 -1 -7 -1 -7zM51 166c0 2 0 4 -4 7v-8c1 0 4 1 4 1zM92 316c0 2 1 6 7 6
c0 1 -6 2 -6 2c-1 0 -3 -3 -4 -3zM51 185c-1 -2 -3 -3 -3 -4c2 -6 2 -7 2 -7c1 0 1 7 1 11zM101 328c2 1 3 2 3 3c0 2 -3 2 -3 2v-5z" />
    <glyph glyph-name="f" unicode="f" horiz-adv-x="214" 
d="M165 129c-1 1 -2 2 -3 2l4 -9l8 -7l11 -23c2 -5 0 -9 3 -14c2 -2 4 -6 4 -9v-7c1 -5 3 -10 3 -15c1 -5 1 -11 1 -17l3 -19v-14c0 -2 -1 -4 -1 -7l-1 -20c-5 -72 -29 -138 -45 -169c0 0 -1 -2 -2 -3c0 -3 -3 -6 -3 -10l-4 -3c-4 -4 -8 -16 -12 -22l-19 -24
c-2 -3 -4 -5 -9 -5l-18 -10c-5 -3 -8 -4 -13 -4h-5c-9 0 -17 2 -26 3c-6 1 -12 2 -19 5c-8 5 -11 10 -18 21l-12 26c-2 4 0 9 -4 11v4c0 2 -1 4 -1 6c-2 5 -2 13 -6 18c-1 0 -1 2 -1 3v8c0 1 0 2 1 4l-1 10c0 3 -2 6 -2 9c0 2 1 3 1 4v13c0 13 0 25 2 36v32c0 5 2 12 2 18
c2 13 4 27 5 41c2 18 3 35 7 52c8 47 17 86 25 119c-1 2 -1 4 -1 6c0 7 3 11 7 15l47 172l30 88c19 57 45 114 72 168c7 18 19 34 29 50l2 4c10 16 21 25 37 36c2 2 3 3 7 3c3 0 5 0 7 -2s4 -2 7 -2c1 0 16 -8 17 -9c7 -6 11 -16 11 -26v-4c0 -17 -4 -33 -8 -48
c-3 -16 -8 -31 -12 -47c-3 -12 -8 -25 -12 -37l-41 -105c-10 -17 -18 -35 -29 -54c-17 -39 -42 -77 -65 -113l-22 -35c66 20 145 68 206 129c1 1 -4 -9 -4 -14c0 -1 1 -3 1 -3v-7c1 0 -4 -7 -4 -7v-7c0 -4 0 -8 -1 -9l-5 -8c-44 -50 -114 -95 -182 -118
c15 -10 31 -24 40 -32c-1 -1 -2 -3 -2 -4c0 -2 3 -4 5 -4c7 -3 12 -11 16 -20zM28 -172c0 -9 4 -19 5 -28c1 -2 1 -5 1 -7c2 -12 3 -24 10 -35c2 -5 5 -7 10 -8c6 0 12 2 16 7c7 6 12 14 19 22c6 8 10 17 15 25c4 6 4 12 8 17c2 6 5 10 7 14l7 19c5 12 13 51 16 64
c3 6 3 13 4 19c0 3 2 7 3 11c0 2 1 4 1 6v4c0 3 0 8 3 18v4c0 5 1 11 1 17l-2 31c-1 11 -2 21 -5 30c-2 12 -4 23 -10 32c-3 5 -7 10 -9 15c-4 12 -14 17 -22 27c-2 2 -34 17 -35 17c-2 -1 -3 -1 -3 -4c-9 -44 -22 -83 -36 -208c-2 -22 -4 -44 -4 -65v-44zM230 617
c-3 -3 -3 -7 -5 -9l-15 -26c0 -1 -1 -2 -1 -4c-1 -1 -1 -3 -1 -4l-25 -53c-7 -13 -12 -28 -18 -43c-1 -4 -3 -8 -6 -11c0 -4 -3 -7 -3 -13c1 -1 1 -2 1 -3l-3 -5c0 -8 -8 -14 -10 -23c0 -5 -3 -7 -3 -9c0 -1 -1 -1 -9 -27l-5 -14c-2 -3 -3 -9 -3 -13l-5 -11
c-1 -7 -12 -36 -12 -36c15 21 39 74 50 96l28 59c9 20 18 40 26 62c11 27 19 53 29 80l5 24c-8 0 -12 -12 -15 -17zM122 289c-7 -3 -12 -9 -14 -21c6 3 11 15 11 17c1 0 1 1 3 4zM140 336c-5 -5 -9 -11 -9 -18c4 4 12 16 11 16c-1 -1 -2 2 -2 2zM182 -6c0 2 1 3 2 5v17
c-1 1 -1 5 -1 5c-1 0 -2 -4 -2 -5l1 -17c-1 -2 -1 -3 -1 -4s0 -3 2 -4c0 0 -1 2 -1 3zM186 56l-1 4c0 2 -2 10 -3 11c0 3 -1 5 -2 6c0 -2 1 -5 2 -7c0 -1 1 -2 1 -3c-1 -1 -2 -3 -2 -4c0 -3 2 -7 5 -7zM185 40v-6c0 -1 2 -1 3 -1l-1 7c0 2 1 4 2 6c0 1 -1 2 -1 3
c-2 -1 -3 -7 -3 -9zM64 309c0 -2 -4 -12 -5 -14c1 -1 5 6 5 6s2 0 2 6c1 0 -2 3 -2 2zM96 334c0 -4 1 -6 1 -9l3 6c0 2 2 4 2 5c0 0 -6 -1 -6 -2zM109 359c2 3 2 6 4 11c-1 2 -6 -11 -6 -12c-1 -1 -1 -3 -1 -4zM291 310c-1 0 -3 -11 -6 -13c4 2 7 5 7 8c0 1 -1 5 -1 5z
M108 397c0 0 2 -1 5 -2v6c-3 0 -5 0 -5 -4zM188 -50c2 2 1 6 2 9l2 8c-1 1 -3 -4 -3 -5s1 -2 1 -3c-1 -1 -3 -2 -3 -2s1 -4 1 -7zM147 -182c0 -2 1 -2 1 -3c2 4 5 8 5 10c0 0 -5 -4 -6 -7z" />
    <glyph glyph-name="g" unicode="g" horiz-adv-x="308" 
d="M67 -53c0 -1 -1 -2 -2 -4c2 1 3 1 3 3c1 0 2 2 2 3c0 0 -2 -1 -3 -2zM193 164l2 4c1 1 4 8 5 8s2 1 2 2c-3 -1 -4 -1 -5 -3s-2 -4 -5 -7c-1 -1 -3 -2 -3 -4h4zM131 94c-1 -1 -1 -2 -1 -3c2 0 4 1 4 2c1 1 1 3 1 4c-1 0 -1 -1 -4 -3zM189 157c-4 -1 -4 -7 -7 -10
c4 0 6 2 6 4c0 0 3 3 5 3c0 1 -3 3 -4 3zM123 78c-2 -4 -4 -6 -4 -8s2 -3 3 -3c0 1 3 4 3 6c-2 0 -3 0 -3 1s1 2 1 4zM117 76c-2 -3 -2 -5 -4 -7c2 0 8 6 8 8c-1 1 -3 2 -3 2c-1 0 -1 -1 -1 -3zM189 171c-5 -1 -7 -5 -10 -8c4 1 4 3 6 4c1 1 2 3 4 4zM132 100
c-1 0 -1 2 -1 3c-2 -1 -2 -3 -3 -5c3 0 3 1 4 2zM210 347c0 1 0 6 1 7l5 5c1 1 1 6 1 6c-4 -4 -11 -11 -11 -18c1 0 2 0 2 -4c0 1 3 3 2 4zM103 74c1 1 5 5 4 4c0 -3 0 -4 1 -4c3 0 2 6 4 8c-1 1 2 2 3 4l-6 -3l4 5c2 2 1 0 3 3c4 6 9 12 14 18l3 5c1 0 4 2 5 3
c-1 0 1 4 0 3l5 6c3 1 3 2 3 2c0 2 2 4 3 5l12 16c0 -2 -1 -3 -1 -3c1 0 5 9 8 9c0 8 8 6 10 14c0 4 10 14 12 16c4 0 8 6 9 8c1 0 6 12 6 13c5 31 21 108 27 153c-3 -6 -2 -8 -8 -13c-2 -1 -7 -10 -9 -13l-7 -8c-1 -3 -4 -6 -4 -6c-2 -4 -3 -5 -3 -5s0 2 -2 -2
c-1 -1 -1 -2 -1 -3c-1 -2 -2 -3 -2 -3c-2 0 -16 -19 -16 -22c-1 -4 -8 -10 -8 -10c-2 -2 -12 -17 -12 -18l3 3c3 2 3 1 3 1c0 -1 0 -2 -1 -3c-1 -3 -5 -4 -5 -7c-2 -3 -2 -6 -6 -7c-6 -6 -9 -13 -14 -19c-3 -8 -24 -38 -27 -40l-7 -10c-2 -2 -4 -3 -6 -4
c-5 -6 -4 -10 -12 -14c-1 -2 -8 -4 -9 -6c2 0 -4 -5 -2 -5c0 -2 -1 -3 -2 -3c-6 -3 -11 -9 -18 -11c-3 -1 -9 -6 -11 -6h-7c-2 -1 -4 -2 -6 -2c-3 0 -5 1 -7 3c-3 0 -4 0 -6 1c-22 12 -26 22 -26 46v7c0 36 19 82 40 120c4 6 8 9 12 16c6 8 7 15 14 23c26 32 72 76 113 87
l6 1c2 0 4 0 6 1c2 0 5 4 8 4l6 -2h9c9 0 15 -1 24 -5l4 -2c5 5 12 10 23 11h4c3 0 5 0 7 -4c6 -6 5 -10 6 -14c0 -2 2 -3 2 -6c0 -7 6 -11 8 -15c0 -2 1 -3 1 -7c0 -10 -6 -20 -9 -28c0 -5 -12 -97 -16 -108c49 42 112 88 154 109l2 -4c-1 -6 -2 -10 -2 -17
c0 -3 -1 -8 -3 -10c0 -4 -2 -5 -3 -6c-2 0 -4 -1 -8 -3c1 1 2 2 2 3l-5 1c0 -1 -1 2 -3 2l-9 -8c5 1 4 2 8 2c1 0 5 0 5 -1c0 -4 -8 -7 -11 -7c2 1 4 3 4 4c-2 0 -4 -2 -6 -2c-1 0 -2 0 -3 1c-2 -1 0 -10 -3 -11c-1 -2 -2 -4 -6 -5c0 1 -1 2 -2 3c-1 0 -2 -11 -4 -11
c-2 -1 -3 -1 -5 -1l-5 1s-1 -5 -2 -5c-3 -3 0 -1 -4 -5c-1 -1 -2 3 -4 3l2 -4c-3 -1 -6 -4 -8 -6c2 5 3 6 3 7c0 0 -5 -2 -7 -4c-1 -1 2 -3 1 -4c-1 0 -6 -2 -6 -4l-4 -2c0 -3 1 -3 1 -5l-3 -3c-1 2 -2 2 -3 2c-4 0 -10 -10 -11 -9c-1 0 -9 -11 -11 -10c-4 0 -10 -5 -10 -6
s-3 -3 -2 -4c-3 0 -6 -2 -11 -3c-2 0 -4 -1 -5 -2c-5 -4 -6 -4 -10 -9c-1 -1 -1 -2 -1 -5c1 5 8 8 10 11l3 2c1 -1 2 -1 3 -1l-27 -30c-18 -112 -130 -516 -255 -516c-3 0 -7 5 -8 5c-2 0 -4 0 -6 1c-4 0 -12 6 -13 7l-3 3c-13 10 -11 30 -12 43c3 12 1 21 4 32l6 22
c1 11 6 24 10 32c23 78 61 142 77 169l3 5c2 4 5 7 6 11h4c0 1 1 7 2 8c1 0 25 44 35 56zM104 -6c1 1 5 6 4 5c-64 -122 -101 -195 -114 -280c0 -2 0 -4 2 -5l4 2c6 4 11 8 15 13c89 106 146 284 167 357c2 7 3 14 5 18c-1 2 -1 3 -1 4c0 3 3 5 4 12c-1 -1 -3 -2 -3 -3
c-2 -1 -1 -2 -2 -3c-1 -2 -1 -3 -3 -4l2 7c-6 -2 -4 -7 -8 -9c0 -1 1 -2 1 -3c-1 0 -8 -6 -10 -10c-1 0 -1 -2 -2 -3c-1 -4 -6 -7 -6 -7c-2 0 -1 -5 -3 -7c-3 -4 -3 -7 -6 -11c0 -1 -1 -4 -3 -4c-3 0 -3 -3 -4 -5c0 -1 0 -3 -3 -4c-1 -3 -4 -14 -6 -14c-1 0 -3 -1 -3 -1
c-2 -2 -4 -2 -3 -3c0 -5 -11 -23 -13 -26c0 0 -2 1 -4 1c-1 -1 -2 -3 -2 -4c0 -2 -3 -9 -3 -9c0 -2 -5 -4 -5 -5l3 2c-2 -2 -2 -3 -3 -5c3 1 3 2 3 4zM36 165c21 7 80 100 99 130l2 3c14 25 48 71 61 86c-1 0 -2 1 -3 1c-12 0 -20 -10 -30 -14c-4 -2 -16 -13 -22 -15
c-20 -15 -35 -33 -48 -53l-9 -11c-12 -20 -41 -69 -45 -88c-2 -14 -6 -17 -6 -26c0 -2 -1 -6 -1 -10c0 -1 1 -1 2 -3z" />
    <glyph glyph-name="h" unicode="h" horiz-adv-x="349" 
d="M70 264c0 2 -1 3 -1 4s2 2 2 4c0 1 0 2 1 3c0 0 1 2 2 3c-1 0 -2 -1 -3 -2c-1 -2 -5 -8 -5 -13c0 -2 0 -4 1 -5c0 0 3 4 3 6zM219 295c0 1 3 -2 3 -2l-1 -3c1 0 3 2 3 6c1 -1 1 3 1 3c-4 0 -6 -3 -8 -4c0 -1 0 -3 -1 -5c2 3 3 5 3 5zM193 134v-4c2 3 6 8 6 12
c-2 -1 -6 -5 -6 -8zM215 208c2 2 2 5 2 7c-2 -2 -6 -8 -6 -10c1 -2 2 -5 2 -5v4c0 2 1 3 2 4zM80 282l-5 -16c2 2 4 1 4 8c1 0 1 5 1 8zM212 210l-1 4c-2 -1 -3 -3 -3 -4s-3 -6 -3 -6s3 2 3 3c2 0 4 3 4 3zM212 262v6c-1 1 -3 -4 -3 -4l2 -7c0 1 1 2 1 5zM200 191
c2 1 3 3 3 6c-2 -3 -3 -5 -3 -5c0 -1 -2 -2 -2 -3s0 -3 1 -3c1 1 1 3 1 5zM226 270l-2 -4c2 3 3 2 3 5l2 3c0 1 -1 3 -1 3c-1 -2 -2 -5 -2 -7zM215 196l4 -4c0 1 0 3 1 5c-1 0 -4 0 -5 -1zM101 401c3 0 3 1 4 1c0 1 4 4 3 4c-3 0 -6 -4 -7 -5zM223 227v4c-1 0 -3 -2 -3 -3
c0 0 1 -1 3 -1zM224 50c-8 -4 -15 -6 -21 -6c-19 0 -41 16 -45 26l-2 3c-1 4 -2 9 -2 14v17l1 12c7 67 48 133 60 199c0 2 1 7 1 13c-40 -20 -109 -132 -148 -191l-6 -9c-1 -3 -3 -5 -6 -7c-6 -5 -16 -5 -22 -5c-9 0 -7 5 -16 7c-10 3 -13 16 -13 24c1 14 6 26 10 41
c33 120 136 372 140 445c0 1 3 -1 6 -1c2 0 6 -1 7 -1c2 -1 7 -3 7 -3c0 -1 4 -4 6 -7c4 -4 5 -12 5 -23c-6 -74 -47 -195 -115 -382c34 54 82 122 120 147c1 1 4 3 6 3c4 4 8 4 13 4h6c8 0 30 -4 36 -10c1 -2 5 -6 5 -8c3 -3 7 -15 7 -19c0 -26 -2 -48 -9 -74
c0 -1 -5 -6 -5 -4c0 1 0 2 1 4l1 4c1 3 4 8 5 8c0 2 -1 2 -2 4c-1 1 -4 -6 -6 -12v-4c-1 -2 -1 -4 -1 -5c0 -2 0 -3 2 -3l-2 -15c-12 -34 -20 -59 -34 -101c-4 -12 -13 -42 -14 -50v-4c0 -1 0 -3 2 -3c37 25 164 198 210 262c0 -8 5 -14 5 -17c0 -1 0 -2 -1 -4l2 -5
c2 3 3 6 4 6c0 0 4 -5 4 -10c-15 -31 -32 -55 -55 -86c0 -2 -4 -3 -4 -4c-1 -2 -3 -2 -3 -4c0 -1 -1 -4 -2 -4c-1 -1 -5 -3 -5 -4c0 -2 -2 -5 -3 -5s-1 1 -1 3l-10 -11l3 -1c2 4 3 4 6 6c-16 -28 -95 -130 -128 -150zM268 109c3 0 4 2 4 4v8c-1 -2 -3 -4 -5 -6
c0 -2 -1 -4 -2 -6l-3 -3c4 0 5 2 6 3zM391 265c-2 0 -4 -1 -4 -3c-1 -1 -3 -3 -3 -5s1 -2 2 -3c0 2 0 4 1 5c2 2 3 4 4 6zM252 97c-1 -1 -7 -5 -7 -7c0 -1 4 2 4 2c1 0 3 3 4 4c0 1 1 2 2 3c-2 -2 -3 -2 -3 -2zM267 102l-8 -11c2 2 8 10 11 10c-1 0 -2 0 -3 1zM316 162
c-5 -1 -8 -9 -11 -12c0 0 0 -1 11 12zM254 86c-2 0 -3 0 -4 -2c-1 -1 -3 -5 -3 -5c2 1 7 5 7 7zM308 160c3 0 4 2 4 3l2 3c-1 0 -6 -5 -6 -6z" />
    <glyph glyph-name="i" unicode="i" 
d="M242 316l-2 -10c1 1 3 2 4 2s4 5 4 3c0 -3 -4 -8 -4 -9l-82 -113c-28 -38 -60 -70 -76 -79c-2 -1 -4 -1 -5 -2c-10 -6 -19 -8 -28 -8c-4 0 -8 3 -13 5c-26 12 -30 35 -30 64c0 77 48 156 72 224c2 7 6 8 14 8c9 0 14 -9 16 -17c0 -5 1 -10 1 -14v-4
c-1 -21 -18 -68 -30 -99l-3 -7c-12 -34 -21 -65 -25 -94l-1 -9c0 -5 -2 -24 -1 -24c3 0 8 1 10 2c38 23 140 171 175 217c0 -1 -2 -7 -3 -15h5l3 -3c0 -3 1 -8 1 -9c0 -3 -3 -9 -2 -9zM124 477c10 0 25 -9 25 -18c-2 -6 -12 -15 -13 -16c-4 -5 -12 -7 -17 -7c-3 0 -4 0 -7 1
c-6 3 -11 3 -13 8c-3 6 -4 10 -4 14c0 19 26 16 29 18zM117 162c0 -1 0 -6 -1 -7l-6 -4c-2 -1 -2 -4 -3 -7c7 6 14 13 14 17c0 1 -1 3 -1 4c-1 -1 -4 -2 -3 -3zM43 195v-12c0 -1 -1 -7 -1 -10c2 2 3 3 3 5c1 15 1 16 1 19zM47 248c-1 0 -2 1 -3 1c-3 0 -5 -4 -6 -7
c1 -1 3 -2 3 -2c1 0 6 6 6 8zM43 204c1 0 1 1 1 3v5c0 1 0 3 1 4c-2 -1 -4 -3 -4 -7c0 -1 -2 -4 -2 -4c0 -1 1 -1 4 -1zM152 198c-4 -2 -8 -4 -8 -7c0 -1 1 -5 1 -5c1 -1 4 10 7 12zM83 113c3 1 7 6 7 6c-3 -2 -3 -1 -5 -3c-3 -1 -13 -7 -13 -9c0 0 9 5 11 6zM38 249
c2 4 4 6 4 8s-2 3 -3 3c0 -1 -3 -4 -3 -6c2 0 3 0 3 -1s-1 -2 -1 -4zM51 206c0 -1 0 -11 -2 -15c4 4 6 12 5 11c-2 0 -2 6 -3 4zM50 222c3 0 6 3 6 6c-2 0 -4 -1 -4 -2c-1 -1 -2 -3 -2 -4zM138 181l-2 -7l6 9zM197 275l4 7l-10 -12s5 4 6 5zM54 219c1 0 1 -2 1 -3
c2 1 2 3 3 5c-3 0 -3 -1 -4 -2zM65 316c0 1 1 2 2 4c-2 -1 -3 -1 -3 -3c-1 0 -2 -2 -2 -3c0 0 2 1 3 2zM126 176c2 1 3 3 4 4c-1 -1 -3 -2 -4 -2c0 -2 -2 -3 -2 -5c0 -1 2 1 2 3z" />
    <glyph glyph-name="j" unicode="j" horiz-adv-x="108" 
d="M101 432c-6 4 -10 11 -10 16c0 2 1 3 1 6c5 3 9 9 17 12c2 2 7 4 12 4c3 0 7 -1 10 -4c5 -4 10 -11 10 -18c-1 -2 -1 -5 -4 -6c-1 -2 -2 -6 -6 -6l-2 -4c-4 -4 -7 -5 -12 -5s-12 2 -16 5zM-171 -139h6c4 0 10 3 12 4l-9 -1c-1 0 -3 -2 -9 -3zM-191 -143c0 0 -1 2 -1 4
l2 10c-2 -2 -4 -3 -4 -8c0 -2 2 -5 3 -6zM-122 -109l1 3c-1 0 -2 1 -3 1s-3 -1 -4 -2l3 -3c1 0 2 0 3 1zM-126 -115c-3 -1 -5 -1 -8 -6c0 1 3 1 3 1c2 0 4 1 5 5zM-240 -131c-4 3 -5 6 -5 10c0 5 0 7 1 12c0 2 3 6 5 7c1 1 5 1 6 1c2 0 3 -1 3 -2c10 -10 24 -19 39 -19
c40 0 77 49 91 67c55 73 97 205 129 305l5 16c30 94 41 135 52 135c1 0 10 -4 12 -4c2 -1 7 -3 7 -6c0 -1 3 -4 4 -6s1 -4 1 -7c0 -6 -1 -12 -1 -13c-12 -62 -65 -229 -93 -304c-32 -86 -98 -202 -192 -210h-6c-19 0 -45 4 -58 18z" />
    <glyph glyph-name="k" unicode="k" horiz-adv-x="233" 
d="M42 83v-8c0 -3 0 -10 -3 -10h-6c-1 -1 -2 -1 -6 -1c-2 0 -5 0 -5 1h-6c0 -1 2 -1 4 -3h7s0 -6 1 -8l-17 7c-4 2 -8 11 -10 16c-2 2 -2 5 -2 8v6c0 35 5 73 28 157c36 135 83 250 122 382l4 12c2 3 4 5 7 5c2 0 5 -1 5 -4c8 -3 14 -5 14 -15l1 -21c0 -17 -4 -38 -9 -62
c-17 -74 -55 -171 -74 -234v-4c67 55 108 94 170 161c2 4 6 6 11 6s8 -2 12 -8c3 -4 -5 -7 -5 -11c0 -5 -2 -10 -5 -15c-40 -64 -120 -145 -182 -189c-1 -1 -1 -3 -1 -5s2 -8 9 -25l11 -24c16 -35 41 -77 65 -77c2 0 4 0 8 2c6 2 28 4 42 4c3 0 7 -1 7 -5c-2 0 -4 -3 -7 -3
c-8 0 -17 -3 -23 -8c-1 -2 -4 -5 -8 -7c-3 0 -2 -3 -5 -3c-12 -7 -14 -11 -28 -11c-57 0 -93 74 -104 119c-10 -45 -18 -75 -22 -125zM47 162v7c-4 -1 -4 -5 -4 -12l-3 -6v-4l-1 -4c1 1 3 1 4 3v9c2 0 4 6 4 7zM130 128c0 -2 -5 -10 -5 -9c0 0 8 3 8 4c0 2 0 3 -3 5zM54 277
c0 -3 -1 -3 -1 -4v-4c3 0 1 4 4 5l-1 6c-2 0 -2 -3 -2 -3zM230 120c0 1 -1 1 -3 1c-5 0 -15 -3 -17 -7l7 4c3 1 10 2 13 2zM10 90l1 4c0 1 -1 3 -1 4c0 -1 0 -2 -1 -3c0 -2 -2 -3 -3 -4c1 -1 3 -1 4 -1zM51 194c2 1 3 9 3 11c-2 -2 -2 -4 -2 -4c-1 -2 -1 -6 -1 -7zM62 264
l2 11c-1 0 -3 -9 -4 -14c1 1 2 2 2 3zM89 211v-8c2 1 3 1 3 2c0 0 -1 4 -3 6zM17 183l-1 9c0 -2 0 -3 -2 -10zM10 110c0 -1 4 -1 6 -2v4c-1 -1 -6 -2 -6 -2zM7 83v7c-1 -1 -2 -4 -2 -5c0 -2 1 -2 2 -2zM41 259l-4 -4c1 -2 1 -3 2 -3c0 0 1 5 2 7zM17 107l-1 -5l3 -1
s0 1 -2 6z" />
    <glyph glyph-name="l" unicode="l" horiz-adv-x="189" 
d="M251 319l-3 -5c0 -2 0 -4 1 -4s3 2 8 9c0 -1 -1 -6 -1 -6c1 -1 -29 -44 -29 -45s28 39 29 37v-9c2 0 5 5 5 3c0 -1 -2 -5 -9 -17c-7 -10 -19 -32 -31 -35c2 -1 3 -2 5 -2c1 2 3 5 5 5c-23 -37 -131 -191 -166 -191c-7 0 -24 3 -28 7c-12 12 -15 41 -17 49c0 3 1 6 3 10
c0 -2 0 -4 1 -6c2 3 2 7 2 11c-1 0 -3 0 -4 -1c-1 3 -2 3 -2 6s1 5 1 12v6c1 8 0 14 3 27c0 0 -3 4 -3 7c-1 -2 -1 -3 -1 -4c-2 -14 -3 -25 -3 -41v-19c1 -22 7 -45 17 -59c-12 0 -21 36 -22 65v12c0 44 15 92 26 128c27 89 84 233 123 354c3 5 4 8 10 8c3 0 5 -2 6 -5
c7 -3 10 -10 10 -17c2 -3 2 -6 2 -9c0 -4 -3 -16 -4 -19c-17 -76 -33 -123 -60 -201c-24 -66 -71 -197 -71 -271v-7c0 -4 1 -9 4 -9c1 0 3 1 5 2c55 42 154 197 178 227c4 6 6 10 12 11l-4 -6zM27 192c0 2 4 13 4 19c0 1 0 3 -1 3c0 3 1 6 2 5c0 3 1 3 1 3c0 2 2 4 2 6
c0 1 -1 2 -3 5c-1 -6 -7 -26 -5 -23c0 -3 0 -11 -3 -13v-4s1 -1 3 -1zM48 274l2 15c-4 -6 -5 -13 -7 -21l4 2c1 0 1 4 1 4zM62 225c0 -3 1 -7 1 -14c1 1 2 2 2 3v4c0 2 1 7 2 10c-2 -2 -3 -3 -5 -3zM74 263c0 0 -2 -7 -5 -8h7l-2 3l2 6c1 1 2 3 2 6c-3 -1 -3 -4 -4 -7z
M95 91c-1 -1 -2 -3 -2 -5l-8 -8c2 0 7 6 9 7c0 2 4 6 6 8c-1 0 -2 -1 -5 -2zM40 250c-2 -1 -4 -3 -4 -6c0 -2 1 -4 2 -5c0 3 2 7 2 11zM28 109l-2 -11c0 -1 0 -2 1 -3l2 5c0 3 -1 6 -1 9zM43 262c-2 0 -3 -1 -3 -3c0 -1 0 -3 1 -3c2 2 2 4 2 6zM66 244l2 8s-3 -1 -3 -4z
M123 145c-2 -1 -3 -3 -4 -4c1 1 3 2 4 2c0 2 2 3 2 5c0 1 -2 -1 -2 -3z" />
    <glyph glyph-name="m" unicode="m" horiz-adv-x="479" 
d="M377 122c10 -1 44 51 54 61c28 38 68 96 119 167c0 -1 -2 -7 -6 -16l-4 -6h9l-7 -10l9 -2l-16 -22l11 10v-9l-8 -19c-1 -2 0 -4 -5 -4l-4 2c-1 -3 -1 -4 -1 -6l-7 -19c-3 -4 -6 -7 -9 -12c-13 -19 -29 -43 -45 -65c-2 -2 -11 -2 -16 -25c-1 2 -1 5 -1 5s-3 -4 -5 -4l3 -2
c-11 -17 -51 -58 -78 -58c-5 0 -9 1 -13 4c0 0 0 3 2 3c0 -1 -1 6 -4 6h-5c0 -1 4 -6 5 -6c-1 -1 -2 -2 -3 -2s-1 1 -3 3c-20 10 -22 36 -22 60c0 75 56 218 56 254c-28 -16 -60 -44 -71 -63l-5 -10c0 1 -2 2 -3 2c0 0 0 -3 -1 -3s-4 -4 -4 -6c0 -1 -2 -2 -3 -2l-2 -3
c0 -2 -2 -2 -2 -5c0 -2 -3 -5 -3 -7c0 0 -1 -3 -3 -6c-1 -1 -3 -1 -3 -2c0 0 -1 -5 -1 -7c0 0 0 -2 -3 -2c-1 -2 -4 -6 -4 -6c-1 -4 -1 -6 -3 -9c0 -3 0 -5 -3 -5c-4 -2 -4 -5 -6 -7c0 -3 -4 -4 -4 -7c-4 -5 -6 -8 -6 -13c-2 -3 -2 -5 -4 -7l-1 -3c-3 -2 -3 -4 -6 -4
c2 -2 2 -7 2 -7c0 -1 -3 -2 -3 -3c0 0 -1 -8 -3 -10c-1 -2 -2 -2 -3 -2c0 -3 -2 -5 -2 -7c0 -1 -1 -3 -1 -4c-1 0 -3 -6 -3 -8s-1 -12 -5 -16l-13 -41c-1 -7 -11 -34 -14 -38c-2 1 -4 1 -5 1c-5 0 -11 -5 -17 -5c-2 0 -4 0 -6 2c-4 4 -2 5 -7 7c-2 0 -5 2 -7 6v4
c0 16 16 55 20 72c11 44 26 110 26 161c0 16 -1 26 -4 38c-42 -24 -89 -97 -113 -164c-8 -24 -13 -66 -28 -86c-3 -1 -3 -5 -5 -5c-1 -4 0 -12 -3 -14c0 -2 -3 -2 -3 -2c-3 -3 -5 -6 -8 -6c-2 0 -12 1 -16 4c0 0 -3 1 -5 1s-5 2 -6 4c0 1 -2 14 -3 21c1 5 1 12 5 20
c11 76 47 161 57 220c3 14 7 30 9 45c0 4 1 5 5 5l17 -2c11 -3 18 -12 18 -26v-16c-3 -17 -4 -24 -8 -37c10 16 46 64 81 64c18 0 28 -9 35 -16c17 -15 17 -42 17 -66v-6c0 -2 2 -2 3 -2c21 46 69 107 122 115c3 1 4 1 6 1c3 0 6 -1 10 -1h4c11 -1 29 -17 33 -27
c1 -3 1 -5 1 -6c0 -18 0 -32 -5 -50c0 -1 -2 -11 -2 -12c0 -6 -3 -3 -5 -11c1 -1 1 -3 1 -4c0 -5 -4 -10 -4 -10v-6c0 -9 -4 -15 -6 -24v-5c-3 -6 -6 -19 -6 -21l-2 -8c0 -9 -4 -16 -4 -26l-4 -10c0 -2 1 -2 1 -6c0 -14 -6 -21 -6 -31c0 -3 -4 -21 -4 -21c-1 0 -2 -5 -2 -6
c1 0 1 -1 1 -3c0 -7 -1 -14 -1 -17v-5c0 -2 1 -4 3 -5zM391 252v6c0 3 3 8 3 11c0 1 7 29 6 29l1 6c-4 -5 -25 -108 -27 -120c-2 -2 -2 -10 -2 -16l-1 -3c0 -2 -1 -5 -1 -9v-12l3 20c2 10 6 34 11 57v5c0 1 2 2 2 3c0 5 1 10 3 15c2 3 1 5 2 8zM373 201c0 1 0 2 1 3
c11 53 11 51 11 51c2 4 2 10 3 12c-2 -1 -4 -2 -4 -4c0 -5 -3 -10 -3 -10c-4 -1 -9 -3 -9 -9s-3 -8 -3 -14c0 -2 0 -4 1 -5c1 1 1 2 1 4s2 3 3 5c0 2 -1 4 -1 5c0 0 5 2 5 7c1 0 3 2 3 1l-2 -10c-1 1 -1 2 -1 3c-1 0 -2 -2 -2 -5c0 -2 0 -3 1 -5l-1 -8c-3 -11 -3 -12 -3 -12
v-4c0 -3 -1 -4 -1 -4c-1 -2 -1 -4 -1 -7c1 1 2 2 2 6zM535 269l-8 -11c1 3 4 12 4 13zM460 177c4 5 4 7 5 9l5 8c-5 -6 -10 -11 -10 -17z" />
    <glyph glyph-name="n" unicode="n" horiz-adv-x="302" 
d="M251 122c-29 -37 -52 -52 -69 -55c-9 0 -18 7 -26 10c-16 10 -17 17 -19 46v7c0 2 0 5 1 7v6c0 7 3 22 4 27c0 4 10 40 12 47c13 41 35 110 38 134l1 16c0 2 0 3 -1 3c-17 -7 -62 -71 -114 -169c-12 -21 -12 -36 -26 -59c0 -3 -2 -6 -3 -9c-5 -12 -15 -13 -26 -13
c-13 3 -7 12 -10 11c-3 0 -6 1 -7 4c-1 2 -5 3 -5 5s1 4 2 7c27 99 59 217 70 266c2 7 6 10 10 10c22 0 27 -18 27 -35v-5c0 -14 -9 -44 -16 -70c15 25 63 95 97 95c2 0 4 0 6 -1c25 -10 38 -18 43 -46c1 -2 1 -5 1 -7c0 -36 -14 -83 -25 -117c-12 -39 -32 -97 -34 -130
c0 -5 0 -6 1 -6c18 0 166 217 182 239c0 -1 -2 -7 -6 -16l-8 -11l13 12l1 -5l-13 -25c10 13 21 28 25 32l-11 -25l11 15v-9l-28 -49l-14 -19c-1 -2 -5 -6 -5 -6c0 1 3 5 3 9c0 1 -7 -8 -7 -10s2 -1 2 -2s-1 -3 -3 -6c-4 -7 -10 -8 -10 -8c0 -2 0 -3 -1 -3
c0 -1 -7 -10 -5 -10c-1 0 8 9 9 9c-21 -31 -43 -62 -67 -91zM176 128c0 -1 -3 -4 -3 -6c1 -1 3 -5 3 -5c0 -2 -3 -7 -3 -12l3 2c0 1 1 3 1 3c0 3 0 7 1 11c0 2 1 3 1 4c1 0 1 3 1 5c1 3 1 7 4 10v5c-1 0 -3 -1 -4 -4c0 -2 0 -5 -1 -5c0 0 -3 -3 -3 -2c0 3 3 11 3 12s1 2 1 5
c0 0 2 0 2 4c2 0 2 4 2 5c0 -1 2 2 2 3c0 0 4 3 3 3c0 2 -2 2 -3 2l-2 6v-5h-4s0 -2 1 -3c-1 0 -4 -3 -4 -4l4 1c0 -2 -4 -3 -4 -6c0 -2 0 -3 -2 -4c0 -1 1 -4 1 -4c0 -2 -3 -2 -3 -3v-14c1 -1 3 -3 3 -4zM291 183c0 0 1 1 8 9c1 1 3 5 6 8c-8 -8 -14 -7 -14 -17zM288 180
c-3 -1 -5 -6 -7 -8c0 1 1 1 1 3s-2 -3 -4 -4l3 1c-4 -5 -3 -5 -3 -5c3 0 9 11 10 13zM190 199c-1 -1 -3 -3 -3 -6l-3 2c1 -1 2 -4 4 -4c1 0 2 1 3 2c0 3 1 8 1 8c-1 0 -2 -1 -2 -2zM329 263c-1 0 -2 -9 -5 -11c4 2 7 5 7 8c0 1 -2 3 -2 3zM263 144c-1 0 -2 -1 -5 -2
c-1 -1 -2 -3 -2 -5l-8 -8c2 0 7 6 9 7c0 2 4 6 6 8zM213 275c0 1 -2 -3 -2 -4c0 -2 -4 -10 -5 -12c0 -1 5 7 5 7c1 0 2 1 2 5v4zM350 269c-1 -2 -4 -5 -4 -6l-4 -5l5 2zM201 262c-4 -1 -5 -4 -6 -6c-1 -3 -3 -6 -3 -9c1 4 7 13 9 15zM335 268c0 2 4 2 4 5
c-8 -7 -11 -8 -10 -8c2 0 5 1 6 3zM186 156c-2 -3 -2 -5 -2 -7c0 -1 1 0 1 2z" />
    <glyph glyph-name="o" unicode="o" horiz-adv-x="204" 
d="M114 423c46 -5 75 -54 75 -100c0 -70 -66 -182 -135 -209c-6 -2 -11 -3 -16 -3c-23 0 -41 20 -41 47c1 36 10 65 15 84c0 2 1 3 1 5c0 1 1 3 1 4s1 2 1 3c7 24 29 89 75 147c0 1 -2 2 -3 2c-4 0 -11 0 -11 10c0 3 1 5 4 7c5 3 15 4 25 4c2 0 6 -1 9 -1zM47 155
c42 35 92 118 95 184c-2 18 -6 27 -17 38c-2 0 -9 -9 -33 -64c-7 -17 -54 -138 -54 -158c0 -2 0 -3 1 -3s4 1 5 1s2 2 3 2zM166 273c0 3 1 5 1 10c4 2 3 7 5 11c-1 0 -2 0 -2 2c0 3 2 6 4 8c-5 -3 -8 -13 -8 -19c-3 -3 -5 -14 -5 -15c1 0 5 3 5 3zM136 195
c-1 -1 -1 -3 -1 -3s-1 -1 -2 -4c3 0 1 1 3 4l6 6c0 1 0 2 -1 7l5 2c3 4 4 7 4 12c3 6 9 11 11 17c13 31 13 32 13 33l4 17c-3 -14 -17 -42 -28 -62c-1 -1 -5 -8 -5 -7c-2 -1 -2 -2 -2 -7l-8 -11c-17 -35 -59 -79 -99 -83h6c4 0 7 2 13 4c17 4 51 31 62 47l13 18
c2 1 1 8 6 10zM157 250c0 1 0 4 1 5c-1 0 -2 -1 -3 -3l-3 -7c0 -2 -5 -14 -6 -15s4 3 4 3c2 5 6 9 7 17zM147 244c2 2 3 7 5 8l-1 12l-3 -7s2 -1 3 -2c-4 -6 -6 -10 -6 -14c1 0 2 1 2 3zM167 363c0 4 -1 7 -1 10l-4 2c-1 -1 4 -11 5 -12zM168 380c-2 7 -4 11 -7 14v-4z
M136 227c0 -1 2 -1 2 -4c1 1 2 4 2 7c-2 -1 -4 -2 -4 -3z" />
    <glyph glyph-name="p" unicode="p" horiz-adv-x="272" 
d="M383 384c-3 0 -4 -3 -4 -4c1 0 3 0 4 1c-1 -4 -4 -8 -5 -10c0 -4 -1 -10 -6 -10c-1 0 -2 -3 -3 -3c0 0 0 -1 3 -1c0 -1 -2 -4 -2 -5c-37 -10 -85 -28 -125 -52c-30 -96 -76 -150 -101 -169c-3 -3 -6 -9 -11 -10c-1 0 -3 -1 -4 -3c-1 0 -4 -2 -5 -3l-10 -6c1 2 4 5 7 7
c5 3 10 7 15 12c4 3 6 6 8 11c4 3 8 5 11 9c0 0 0 2 1 3l-16 -12c-1 -2 -2 -5 -4 -6c-1 -1 -5 -2 -6 -2c-1 -1 2 -2 3 -2c-2 -1 -3 -1 -3 -2c-2 0 -2 -2 -2 -3c-1 0 -5 -5 -5 -5s-7 -1 -10 -3c-3 -3 -6 -3 -9 -5c-4 -3 -7 -4 -12 -6c-1 0 -2 1 -4 1h-4c-20 5 -30 15 -37 25
c-4 -9 -10 -26 -23 -79l-17 -85c-2 -8 -3 -19 -5 -26c-1 -1 -1 -3 -1 -4c0 -3 1 -8 1 -11s-1 -5 -3 -5c-1 0 -1 -1 -1 -3v-9c0 -6 -1 -11 -5 -14c-9 0 -24 6 -26 15c-3 12 -4 24 -4 36c0 10 1 20 2 30c21 177 98 352 149 524c3 3 4 5 11 5c4 0 4 -1 5 -2c0 -1 0 -2 1 -4
c4 -6 6 -12 7 -20l2 -19c-4 -35 -9 -45 -17 -71c-1 -5 -3 -9 -4 -12l2 3c18 22 43 48 73 56c4 0 8 -6 13 -6c3 0 6 -1 9 -3c0 -1 3 -2 4 -2c5 -1 10 -6 13 -11l2 -3c9 -14 16 -34 16 -51v-17c0 1 47 20 55 23c28 9 50 17 84 23c1 0 -5 -3 -7 -5zM210 363v11
c-1 11 -3 21 -7 30c-40 -22 -101 -106 -138 -218c29 44 78 97 138 133c5 17 6 26 7 44zM87 142c28 5 90 86 98 115l-7 -5c-27 -22 -87 -87 -91 -110zM-1 14c0 -2 2 -4 2 -7s-2 -5 -2 -9c0 -5 2 -10 3 -10s2 3 2 11c0 1 1 3 3 6v5c1 1 1 2 1 3s0 3 1 4c2 3 3 3 3 3
c2 0 -3 2 -3 5c0 1 0 2 1 3s2 5 2 10c0 2 7 9 6 10c-2 0 -4 -2 -7 -5c1 2 2 5 2 7c-1 2 -2 5 -2 8c-1 -1 -2 -1 -2 -3c0 -1 0 -2 2 -5c0 -3 -1 -5 -2 -6s-1 -2 -1 -5c-1 0 -2 -1 -2 -2l1 -4c-1 -2 -1 -22 -3 -22s-2 4 -2 4c-1 2 -1 3 -1 6c-1 -2 -2 -5 -2 -7zM121 126
c4 2 5 5 5 8c-3 -2 -3 -3 -5 -3c0 1 4 4 4 7c-1 0 -2 -1 -3 -1c-1 -3 -4 -5 -6 -6l-13 -13s3 2 15 11c0 -2 1 -3 3 -3zM33 115c-2 3 -2 4 -2 6c-3 -2 -3 -3 -3 -5l-5 -14c5 1 7 11 10 13zM171 161l6 8c0 2 4 6 4 7l4 8c-1 0 -11 -13 -11 -13c0 -3 -2 -5 -3 -10zM-17 47l6 12
c0 1 -3 6 -3 6s-3 -16 -3 -18zM14 84l3 -6c2 2 2 4 2 6v4s-3 -4 -5 -4zM165 265c2 0 7 1 9 3c0 3 -1 1 -1 3c-3 -1 -7 -4 -8 -6zM89 140c7 0 11 3 13 6l-10 -4c-1 -1 -2 -2 -3 -2zM255 325l5 4c2 0 2 1 2 2c-2 0 -3 1 -3 0l-6 -5c-1 -1 1 -1 2 -1zM252 313l3 6
c-1 -1 -2 -1 -3 -1s-2 -1 -2 -2c0 -3 1 -2 2 -3zM374 366c-3 2 -6 1 -8 2c0 -3 3 -3 5 -3c1 1 2 1 3 1zM-7 -42v5c-2 0 -2 -7 -2 -8c2 0 2 1 2 3zM3 -41c0 1 -1 2 -1 4l-3 -6c2 0 3 1 4 2zM171 261c0 -2 -1 -3 -2 -4c2 0 2 1 3 1c0 0 0 2 -1 3z" />
    <glyph glyph-name="q" unicode="q" horiz-adv-x="288" 
d="M160 115l-5 -15c-12 -38 -31 -101 -45 -149l-2 -6s-26 -93 -26 -123c0 -6 1 -11 3 -11c1 0 2 3 3 4l5 9c27 53 70 147 70 235v23c0 2 -1 8 -1 10zM179 -67l8 46c-3 -3 -2 -5 -3 -8l-3 -7c0 -1 0 -6 -1 -7c-3 -11 0 -9 -4 -18v-8c1 -6 1 -5 1 -5c0 2 2 6 2 7zM176 -81
c-2 0 -8 -7 -8 -8c0 0 -6 -1 -5 -1c0 -4 0 -21 -8 -29c4 1 7 7 7 12c1 4 4 6 5 9l5 7c0 4 4 7 4 10zM69 -109c-3 -4 -3 -8 -3 -13c2 2 5 3 5 7c-1 2 -1 5 -2 6zM73 -132v9c-2 -3 -3 -8 -6 -14c1 1 6 2 6 5zM256 203c-1 -1 -3 -3 -3 -4l-8 -8c2 0 7 6 9 6c0 2 5 6 7 8
c-1 0 -2 -1 -5 -2zM123 -170c1 1 1 2 1 3s-1 2 -1 3c-1 -1 -2 -2 -2 -3s1 -1 2 -3zM321 260l59 73c0 -6 -11 -28 -13 -28c-8 -4 -19 -17 -19 -25l-3 -4c4 0 6 4 7 5c-3 -6 -5 -9 -10 -12v4c-1 0 -7 -8 -8 -9l-3 -3c-2 0 -2 -1 -2 -5c-1 -1 -1 -2 -1 -3s0 -2 1 -3l-32 -37
c-5 -7 -7 -4 -13 -13c-2 0 -3 -2 -4 -3c-13 -20 -69 -61 -80 -74c2 -10 5 -20 5 -32v-7c0 -2 0 -4 -1 -4c-3 0 -3 -4 -3 -8l2 -8c0 -2 1 -3 2 -4c1 -5 1 -6 1 -7v-4c-1 -1 0 -5 -2 -6l1 -11l-3 -6v-5c-1 2 -1 4 -1 6c-2 0 -3 -6 -3 -11l2 3c0 -2 1 -4 1 -8v-5l-3 2
c0 -2 2 -4 2 -7c0 -8 -2 -10 -2 -11c0 -2 -1 -10 -2 -18l-6 -23c0 -9 -5 -14 -5 -20c-2 -7 -3 -13 -5 -17c0 -1 -2 -4 -2 -5c-2 -3 -3 -5 -3 -6s1 -2 1 -3l-3 -5c0 -1 -3 -7 -2 -7c0 -2 -1 -9 -3 -9c0 -2 0 -3 -1 -4c-2 0 -11 -20 -11 -23c-7 -14 -22 -39 -28 -45
c0 -3 -1 -4 -3 -5l-12 -14l-4 -3c-2 -5 -15 -6 -16 -6c-35 10 -49 18 -49 57v22c0 8 4 25 4 34v4c27 146 88 292 117 367l-16 -28c-2 -4 -5 -8 -9 -13c-2 -7 -11 -21 -12 -22l-43 -57l-16 -16c-7 -7 -21 -13 -31 -13c-15 0 -41 18 -43 34l-2 25c0 8 1 16 2 26
c2 10 1 17 5 22c0 7 27 75 37 80c0 2 2 6 2 7c3 6 9 9 12 14c0 8 10 16 16 20c3 2 4 6 6 10c36 34 65 54 100 58c4 0 3 1 7 1h21c2 0 3 0 5 -1c3 0 7 -1 10 -2c7 14 13 20 15 27c5 6 8 7 16 7c5 0 24 -17 24 -22c0 -3 -1 -7 -4 -9c-7 -18 -9 -22 -16 -43
c-14 -38 -59 -169 -72 -206c1 0 3 2 4 3c40 31 74 67 109 105c32 34 70 85 76 85c1 0 1 -1 3 -1l-91 -109l32 33c-2 -8 -3 -8 -3 -8c-5 -10 -6 -12 -27 -33c-1 1 -3 -3 -3 -4c-3 -3 -6 -8 -10 -12c-4 -1 -6 -4 -6 -7c3 0 2 5 4 4l6 4c33 36 34 37 34 36c1 1 1 3 1 4l11 13
c0 -3 -2 -5 -2 -7l-1 -4c0 -1 3 4 3 5c3 3 6 6 7 9c0 1 1 2 1 3c-1 0 -1 -2 -2 -3c-1 1 -1 -1 -2 -2c-1 0 -2 1 -3 1c14 18 15 17 15 16l7 6c2 2 2 5 3 10l10 11c-3 0 -5 -3 -7 -5l-10 -12c-1 -1 -6 -4 -14 -17c-1 -1 -2 -2 -2 -3c-1 -3 -5 -3 -6 -5l1 6l20 25c3 2 7 5 7 8
l26 30c1 0 4 2 6 2l-7 -9c-12 -16 -13 -17 -12 -17c2 0 5 1 6 2c0 2 6 2 7 7c0 1 -2 0 -2 -2l-4 -2c3 6 13 16 13 16c1 0 2 0 3 -2l-18 -22c-2 0 -5 -3 -5 -3l-2 -3l3 1c-18 -21 -29 -38 -44 -57zM37 151c1 0 4 0 3 1c48 52 87 132 131 193c3 8 5 5 7 13l7 9
c-4 0 -5 -2 -7 -2s-4 -1 -7 -1c-12 -1 -54 -36 -83 -82l-3 -5c-23 -36 -48 -83 -48 -126z" />
    <glyph glyph-name="r" unicode="r" horiz-adv-x="171" 
d="M21 103c4 5 7 5 7 10l2 5c1 0 1 1 1 4c-3 -1 -4 -7 -6 -10c0 -5 -3 -4 -6 -9v-4c2 2 2 4 2 4zM158 366c4 4 8 7 12 13c-4 -1 -11 -9 -12 -13zM18 88c1 -1 6 5 9 6l2 4c-3 0 -7 -3 -9 -4c-1 -2 -2 -5 -2 -6zM26 91l-5 -4c0 -1 -1 -3 -2 -4c0 0 6 2 7 4v4zM139 364
c-4 0 -5 -1 -5 -3c-2 0 -4 -4 -4 -4s7 6 9 7zM112 312l6 3c0 2 1 6 1 8c-1 0 -2 -6 -3 -7zM21 132c-1 -6 -2 -11 -2 -17l3 7l2 8c0 1 -2 2 -3 2zM35 200l1 4c-2 0 -4 -1 -4 -3c-1 -1 3 -1 3 -1zM18 76l-7 2c0 1 1 2 1 3h-7s-8 0 -8 3c-3 0 -3 9 -3 11s0 3 1 4c0 3 0 5 2 11
l2 18c1 3 0 4 2 5l3 14c17 88 36 149 58 240c1 5 5 10 5 18c0 7 9 10 14 10s15 -7 20 -11c6 -6 8 -9 8 -17l-11 -49c25 33 89 82 120 82c4 0 6 -6 6 -12c0 -3 -2 -5 -4 -5c-7 -1 -17 -14 -21 -16c-4 0 -6 -2 -6 -4l-8 -7c-3 0 -7 -3 -7 -6l-23 -25c-3 -4 -8 -7 -9 -9
c-6 -5 -8 -10 -13 -15c0 0 0 -2 -3 -2c-1 -3 -4 -6 -4 -9c-3 -2 -5 -7 -5 -9c-2 -2 -4 -2 -4 -4c0 0 0 -1 -1 -4l-3 -2c0 -2 -2 -3 -2 -5c1 -1 -5 -2 -5 -3c0 -2 -1 -4 -1 -6c-3 -2 -5 -9 -5 -11c-4 -5 -8 -8 -14 -19c0 1 -2 3 -2 2c0 -2 0 -3 1 -3c0 -3 -1 -3 -3 -3
c0 -2 -1 -4 -1 -5v-4c-1 -5 -2 -1 -2 -6c-3 0 -3 -2 -5 -5c0 3 0 4 1 4c0 2 1 4 1 4c0 -1 -2 2 -3 2c0 0 -1 -1 1 3c0 2 1 4 1 5c2 2 2 3 2 5c-3 0 -7 -11 -8 -12c0 0 -2 -6 -2 -8c-2 0 -2 -3 -2 -5c-1 -3 -5 -12 -5 -14c0 -1 3 9 7 11c1 5 2 8 3 8c0 2 0 5 2 5
c0 0 -1 -9 -2 -13l4 3c-1 -4 -3 -5 -5 -6v-5s0 -3 -3 -3c-1 -5 -2 -7 -3 -7s-1 4 -1 4c-5 -2 -7 -6 -7 -11l-1 -6c3 6 3 9 3 11c3 0 3 -1 3 -2c0 0 0 -3 -3 -6c0 -1 -1 -2 -1 -3s1 -2 2 -2c0 0 -1 -3 -2 -2l-7 -12c0 -3 0 -6 -2 -8v-7c-3 -3 -3 -6 -4 -9c0 0 -1 -15 -4 -15
l-2 -10c0 -2 -4 -15 -3 -15c0 0 2 7 3 8c2 0 4 12 4 13c0 0 3 10 3 12l4 12c0 3 2 6 2 8c0 3 3 5 3 7c0 3 3 6 4 8c0 3 1 5 2 8c0 2 3 5 4 6l-1 -7c0 -4 -3 -8 -3 -9c-1 -1 -3 -7 -3 -8c1 -1 1 -2 1 -3c0 -2 -1 -3 -1 -4l-3 2c0 -3 -2 -4 -3 -5c2 -2 2 -3 2 -5
c0 -1 4 7 7 10c0 -2 0 -5 -3 -8c-1 -3 -1 -5 -1 -5c-3 -2 -3 -3 -3 -4s0 -3 -1 -4l-6 -13v-9c2 1 2 2 2 3c-1 1 -1 2 -1 3c0 2 1 4 1 5c1 0 2 0 3 1c0 -1 1 -4 1 -6s-1 -3 -1 -3s0 -3 3 -3c0 3 0 6 3 6c0 -3 -3 -6 -3 -8l-1 -8c-2 -1 -7 -13 -7 -15c-1 2 -2 3 -2 4l-3 -4v7
c-1 0 -2 -2 -3 -2c0 0 0 4 1 5c0 0 0 2 2 2c0 0 1 4 2 6c2 1 3 1 3 2c0 3 -10 -9 -10 -10c0 -3 0 -5 -3 -7c0 -3 0 -6 -3 -9c1 1 -3 -6 -6 -7c-1 -1 -3 -3 -5 -3z" />
    <glyph glyph-name="s" unicode="s" horiz-adv-x="226" 
d="M13 114c3 5 11 14 11 19c0 6 22 26 26 29c-4 -6 -18 -19 -18 -23c4 5 16 17 17 18c3 0 1 1 3 1c0 1 1 4 1 4c0 1 0 2 1 3l3 4c7 7 36 30 43 35l-4 8c-21 43 -41 86 -41 131c0 73 70 123 130 123c2 0 15 -6 15 -6l14 -1c20 0 22 -37 22 -54v-4c0 -18 -8 -38 -18 -47
c-1 0 -3 2 -4 2c0 0 -13 -7 -20 -7c-5 2 -11 4 -11 7c0 5 14 46 14 65c-1 7 -3 7 -5 7h-4c-38 0 -86 -35 -86 -80c0 -33 29 -93 40 -116c51 31 135 75 166 103c0 0 -3 -4 -4 -6c-11 -13 -31 -26 -35 -27c10 0 18 11 34 21c-6 -8 -13 -12 -13 -13l-6 -6c-1 -1 14 11 20 11
c-8 -4 -13 -13 -24 -22c9 0 25 12 27 15c-1 -14 -41 -29 -39 -32c-6 0 -16 -6 -20 -13c14 0 15 11 18 11c11 0 19 9 26 12c0 -5 -23 -19 -41 -30l-96 -56c4 -11 6 -17 8 -35c1 -5 1 -9 1 -14c0 -69 -63 -107 -102 -107h-6c-27 2 -50 18 -50 38c0 13 1 21 7 32zM42 85
c4 -3 10 -3 15 -3c34 2 58 35 58 69c0 6 0 12 -2 18c-26 -18 -72 -69 -72 -78c0 -2 0 -4 1 -6zM152 198l-1 -4c6 -19 7 -33 7 -46c0 -4 -1 -8 -1 -11c-1 -9 -3 -16 -6 -22l-1 -5c5 9 10 24 10 42c0 12 -2 29 -8 46zM135 229l3 2c-3 5 -10 18 -12 23c2 -6 6 -21 9 -25z
M126 223l-7 15c0 -2 1 -6 2 -10zM135 140l-6 -4c0 -1 3 -3 4 -3c1 1 2 6 2 7zM147 105c-2 -4 -6 -11 -5 -11s2 1 3 4c2 2 2 6 2 7zM80 319v8c-1 -2 -3 -3 -3 -5c0 -1 2 -2 3 -3zM126 88v9c-1 -2 -2 -4 -2 -5c0 0 1 -1 2 -4zM134 105l2 5c-2 -3 -5 -9 -5 -13c3 5 3 7 3 8z
" />
    <glyph glyph-name="t" unicode="t" horiz-adv-x="196" 
d="M63 85c-9 0 -19 2 -24 7l-5 3c-4 2 -8 6 -9 7c-4 2 -4 6 -6 7l-4 9c-1 1 -1 3 -1 4c-1 6 -2 8 -2 15l-1 6v9c0 1 0 2 1 3c0 0 -1 3 -1 4c0 0 0 5 1 6v13c0 2 1 3 1 4c1 5 2 8 2 11l3 11c0 1 1 7 1 8c0 0 0 1 1 4c0 2 1 3 1 5c0 6 2 10 4 16l2 6c0 5 2 8 3 11
c2 3 3 9 3 14c19 76 48 153 76 226h-40c-8 0 -26 1 -33 7c-8 5 -12 3 -16 12c0 4 -12 7 -12 11c0 1 3 6 4 6h111c13 33 26 65 37 96l7 15c2 2 4 3 6 3c8 0 16 -2 16 -12c0 -3 0 -4 4 -8v-6c-2 -15 -3 -32 -8 -42l-15 -46c10 -1 19 -2 34 -2h6c19 -1 44 -2 58 -21
c0 0 1 -4 1 -8c1 -2 1 -3 1 -3c1 -1 1 -2 1 -3c-1 1 -13 1 -14 1h-99c-10 -29 -21 -58 -31 -84c-32 -89 -70 -222 -71 -284c0 -5 0 -9 4 -9c1 0 3 0 5 1c47 25 140 149 189 213l11 14c3 3 4 7 6 9c3 2 4 4 4 4c5 0 10 -15 10 -22v-5c-1 -2 -2 -5 -6 -6v-12
c-4 -8 -5 -4 -11 -15l-5 -5c-1 -3 -8 -10 -11 -13s-6 -6 -8 -11c-3 -1 -6 -2 -9 -5c3 0 3 2 4 2v-5l-3 -3c-3 0 -7 -1 -7 -4c4 0 4 -1 4 -1c0 -2 -3 -4 -5 -4s-3 -1 -3 -2s1 -2 1 -3c-2 0 -6 -8 -8 -10c-3 -2 -5 -11 -9 -11c-1 1 -1 -2 -1 -3c-4 0 -5 -3 -5 -5
c-2 -3 -5 -5 -8 -8c-1 -3 -5 -5 -6 -9c0 -3 -5 -3 -5 -4s-1 -3 -2 -3c-1 -3 1 -7 -4 -7c-1 -1 -6 -2 -6 -5c-1 0 -2 -1 -4 -4c-1 0 -7 -7 -7 -9l-4 -5c-5 -5 -8 -11 -14 -17c5 3 7 10 12 10c1 0 4 6 6 7c3 3 7 7 9 11c0 2 10 9 10 8c3 3 3 6 4 9c2 1 6 3 6 4c0 2 1 3 1 3
c2 3 4 5 6 9c1 -2 1 -3 1 -4c2 7 1 7 7 11l31 42c1 -1 4 10 9 10c0 1 3 8 4 9c3 1 2 4 4 6c2 3 7 5 10 7l-51 -69c-10 -13 -61 -78 -76 -85c-5 -9 -10 -12 -17 -18c0 -3 -3 -3 -3 -3c-7 -6 -15 -10 -22 -15c-7 -3 -8 -6 -16 -8c-4 -1 -8 -3 -15 -3zM72 91c9 0 39 19 40 24
c0 1 -28 -21 -40 -24z" />
    <glyph glyph-name="u" unicode="u" horiz-adv-x="296" 
d="M184 115c18 1 122 144 158 197l10 15c4 5 12 17 12 17c1 0 9 -22 9 -27l1 -7c-1 -1 -18 -42 -83 -130c-27 -37 -79 -96 -109 -96c-26 0 -38 22 -38 66v6c2 31 7 56 12 75c-23 -44 -69 -113 -104 -113c-11 2 -36 19 -39 38c0 2 -3 6 -3 8v11c-1 3 -1 6 -1 9
c0 43 14 84 36 133c17 39 54 93 71 93c11 0 24 -2 24 -13c0 -2 -2 -5 -2 -5c-34 -62 -77 -153 -84 -227l2 -6c17 3 145 234 163 234h6c3 0 7 -1 10 -5c0 -5 1 -6 1 -8c0 -4 8 -8 8 -9c-25 -66 -54 -175 -63 -246v-4c0 -4 1 -6 3 -6zM204 257l17 60c-12 -29 -27 -89 -29 -99
l-1 -14zM180 143c0 4 3 6 3 19c-1 -1 -5 -7 -5 -22l1 -5c0 3 1 7 1 8zM28 178l2 6c-2 -2 -3 -6 -6 -6c0 0 4 -2 5 -5c0 1 3 3 4 6c0 2 1 4 2 8c-2 -1 -3 -5 -4 -7c-1 -1 -3 -3 -3 -2zM244 148c4 1 5 3 6 6v7c-4 -4 -4 -8 -6 -13zM35 192c0 1 0 2 1 3c0 3 2 8 3 11
c-3 -4 -5 -11 -5 -12s-3 -2 -4 -2v-4c1 2 3 3 5 4zM166 138l-2 9c1 1 2 3 2 3c-3 0 -4 -5 -4 -8c1 -4 3 -3 4 -4zM183 168c1 1 4 5 4 8c0 2 -1 4 -3 4c0 -3 0 -10 -1 -12zM190 201c-3 -2 -2 -4 -4 -7l3 -5c0 2 1 11 1 12zM159 182l-6 -1c1 -3 4 -2 4 -5c2 2 2 3 2 6zM32 168
l1 5c-2 0 -1 -3 -3 -3c0 -2 1 -10 2 -10v8zM163 171c1 3 3 6 3 10c-1 -2 -2 -7 -6 -7c1 -2 2 -3 3 -3zM173 131c-1 -1 -1 -8 -1 -8c2 2 3 3 3 4s-2 3 -2 4zM194 316l-2 -3c-1 0 -2 -1 -2 -3c3 0 4 1 4 6z" />
    <glyph glyph-name="v" unicode="v" horiz-adv-x="212" 
d="M183 285h4c-23 -61 -48 -114 -83 -171c-3 -3 -4 -6 -8 -10c0 -3 -2 -4 -3 -5c-4 -3 -7 -9 -12 -12c-3 -2 -16 -7 -24 -7c-4 0 -6 1 -6 4c0 1 -1 2 -4 3c-26 0 -34 41 -34 57c2 77 28 143 49 221c1 13 3 15 6 28l5 28c1 5 0 20 10 20l9 -2c6 0 16 -3 21 -11
c3 -3 3 -11 3 -21c0 -13 -1 -29 -3 -39c-13 -86 -53 -197 -56 -240c0 -3 4 -1 4 -3c15 8 98 201 105 231c-2 5 -3 13 -3 19c0 18 7 36 27 36c5 0 16 -10 20 -11s7 -17 7 -21c0 -3 -4 -26 -5 -29c22 -19 55 -31 77 -35c2 -1 4 -1 5 -2c0 -1 -9 -19 -11 -25
c-1 -3 -3 -6 -12 -6c-27 0 -53 15 -73 31c-1 -2 -5 -16 -8 -15c-3 -2 -2 -5 -3 -5c2 0 3 1 4 2l-3 -8l-4 2c2 4 9 19 9 26c0 1 0 2 -1 3l-14 -37c-2 -1 -3 -1 -3 -2c0 -4 -7 -22 -8 -24l-2 -4v7c-1 0 -3 -1 -3 -4c-2 0 -2 -3 -2 -4s1 -2 2 -3c0 -3 0 -5 -2 -5
c0 -1 1 -3 2 -4l-8 -21s7 14 10 21l11 27c1 0 3 2 3 2v5zM23 161h-4c0 -1 -1 -2 -1 -3c0 -2 1 -5 3 -6l8 -6c0 5 -6 9 -6 15zM141 225c4 3 8 14 11 17c-1 0 -5 -5 -5 -5c-2 0 -3 -7 -7 -9c0 0 0 -1 1 -3z" />
    <glyph glyph-name="w" unicode="w" horiz-adv-x="389" 
d="M239 116c0 0 -2 5 -2 6v7c1 1 -3 2 -4 2s-2 -1 -2 -3s1 -4 2 -4c0 -3 2 -7 6 -8zM215 166v-12c0 -2 3 5 3 6s-1 2 -1 3c1 1 1 3 1 4v5c-1 -1 -2 -2 -2 -3c-1 -1 -1 -2 -1 -3zM188 255l-8 -16c4 1 5 3 5 6c2 3 3 6 3 10zM238 169l-2 -6c0 -1 1 -4 1 -6
c-1 -7 -2 -11 -2 -12c0 1 1 2 2 3c1 2 1 5 1 8v13zM228 142l-2 -3c1 -1 2 -1 4 -1c1 -1 3 -1 4 -1c0 1 -1 2 -1 4zM235 245c-1 -4 -1 -7 -2 -9l3 2c1 0 2 1 2 2c0 2 -2 4 -3 5zM226 167l1 5c0 1 1 3 1 3c-1 -1 -6 -2 -6 -5c2 0 4 -2 4 -3zM281 108c-2 -5 -7 -7 -13 -10
c-5 -5 -8 -7 -14 -7h-6c-28 0 -48 30 -48 56c0 68 30 157 33 195c-20 -32 -32 -69 -40 -86c-1 -3 -2 -4 -2 -6c-3 -5 -4 -9 -10 -14c0 -4 -1 -8 -3 -11l-4 -4c-1 0 -6 -5 -7 -8c0 3 2 6 6 9c0 2 0 3 -2 5c1 1 1 3 3 3c1 0 4 9 6 13c-7 -4 -8 -11 -10 -16c0 -2 -1 -2 -2 -3
c2 0 3 1 3 1c1 0 0 -2 -3 -5l-5 -8c0 -3 -1 -6 -1 -8c0 1 0 2 2 2v-5c-2 -3 -4 -8 -6 -13c-2 -1 -3 -2 -3 -7c-8 -15 -14 -25 -24 -41c-3 -10 -15 -25 -26 -34c-5 -5 -16 -18 -24 -18c-1 -1 -5 -2 -6 -2c-19 0 -20 6 -25 8c-21 7 -27 27 -27 48v5c0 91 70 258 72 285l2 14
c2 1 2 2 2 3c1 2 5 4 9 4c12 0 29 -9 29 -24v-17c-4 -62 -65 -217 -72 -284c14 5 41 59 50 75l15 32c29 58 69 155 88 161c2 1 4 1 5 1c6 0 9 -7 14 -7c9 -4 22 -6 30 -15c9 -11 10 -22 10 -35v-5c-2 -39 -30 -139 -32 -186v-13c1 -4 0 -7 2 -7s5 4 7 7c32 56 66 149 82 193
l6 19c-1 2 -2 8 -2 14c0 4 2 8 2 10c1 8 6 23 20 23c9 -1 33 -12 33 -21c1 -2 1 -4 1 -6c0 -5 -1 -10 -4 -18c22 -19 55 -31 77 -35c2 -1 4 -1 5 -2c0 -1 -8 -18 -10 -24c-1 -3 -3 -6 -12 -6c-25 0 -54 13 -73 29c-4 -8 -19 -44 -24 -56l-2 5c4 12 13 31 20 48l2 5
c0 1 -1 2 -2 3c-22 -50 -43 -115 -72 -168c18 29 32 66 44 92c3 6 3 10 7 15c1 -2 1 -3 1 -3c0 -3 -4 -7 -4 -8c0 -2 -1 -4 -1 -5c-5 -17 -13 -38 -22 -53l-2 -4c-11 -21 -24 -51 -43 -75z" />
    <glyph glyph-name="x" unicode="x" horiz-adv-x="215" 
d="M223 387c0 2 3 6 3 6c0 -1 -6 -4 -6 -5c0 0 2 -1 3 -1zM50 421l6 -3c13 0 18 -1 25 -12c4 -7 29 -96 29 -96l29 38c22 27 69 82 100 97c5 3 9 9 15 9c5 0 10 3 15 3c2 0 4 0 7 -1c1 -2 3 -7 3 -10c0 -6 -1 -9 -10 -9c-2 -1 -3 -1 -4 -1c1 -4 2 -4 3 -4h4
c-2 -2 -2 -3 -3 -3l-8 -6c-27 -25 -136 -155 -136 -170c14 -41 33 -102 60 -147c1 -1 5 -3 5 -5c0 -1 -1 -2 -3 -4c-1 -2 -2 -3 -4 -3h-6c1 -1 3 -1 3 -1v-5s-4 1 -6 3c0 1 -2 1 -3 1c0 -3 -2 -4 -5 -4c-1 0 -2 -3 -2 -3c-1 -1 -3 -1 -4 -1s-3 0 -2 1c-11 0 -15 2 -21 11
c-11 12 -35 70 -46 106c-16 -24 -56 -80 -66 -86l-9 -6c-2 0 -3 0 -4 1c0 0 -1 4 -1 5c-1 0 -4 -1 -6 -1s-6 10 -7 10c0 0 -3 -6 -9 -6c-1 0 -2 0 -3 1c-8 0 -10 6 -14 10c0 1 1 5 2 6c27 5 69 79 86 103l13 20v5c0 1 0 2 -1 3l-24 87c-3 13 -17 47 -17 59c0 4 8 9 9 9
c2 0 4 -2 5 -2c1 1 3 1 5 1zM157 128c1 -1 2 -1 6 -1c1 0 3 -1 3 -1l-9 6l-3 -2zM166 123h-5c-1 -1 -1 -2 -1 -4l2 -6c0 -3 2 -5 3 -7c0 1 -1 2 -1 3s1 2 2 2c1 -1 1 -2 1 -4c0 2 0 3 3 6l-5 -1c1 1 1 3 1 4v7zM141 181c0 -2 0 -3 1 -4c1 -2 2 -6 2 -8c0 -1 1 -7 2 -7
c0 -2 2 -5 2 -6c-1 0 -2 -10 -2 -11c1 0 2 1 3 2c1 -1 5 -5 7 -5c-4 4 -4 6 -4 6c2 0 3 -4 4 -4c0 0 4 -5 4 -4s-4 8 -5 8s-3 1 -3 2h3c0 1 0 2 1 3c-1 0 -3 0 -3 1c0 2 -1 4 -1 4c-1 2 -3 5 -3 5c-1 1 -1 2 -1 7c0 1 -2 3 -2 3c-1 2 -2 5 -2 7c-1 3 -2 6 -2 10
c-1 1 -3 1 -4 1c1 0 4 -3 4 -7c0 -1 -1 -2 -1 -3zM132 118l5 -11c0 -5 6 -15 8 -16c3 -3 4 -3 4 -3c1 0 2 0 3 1c0 2 -3 4 -3 5l-3 2z" />
    <glyph glyph-name="y" unicode="y" horiz-adv-x="321" 
d="M38 152c2 16 9 44 16 64c0 1 4 2 6 3c-8 -22 -15 -48 -18 -69l-2 -14l2 -3c25 10 98 155 196 233c3 3 12 5 17 5c9 0 13 -5 12 -10c-3 -11 -6 -20 -6 -33c0 -5 -3 -36 -4 -46c0 -5 -3 -38 -4 -41c0 -1 4 4 7 6c30 24 87 61 106 66c4 0 10 3 15 3h9c2 -1 3 -1 3 -2
s-1 -2 -1 -3l5 -5c0 -3 -3 -4 -3 -5s1 -1 2 -3c-47 -29 -108 -71 -152 -125c-33 -204 -103 -361 -171 -362c-1 0 -4 2 -4 6c0 2 -2 -1 -8 3c-12 1 -25 12 -25 34v4c2 49 23 97 40 132l1 5c8 16 28 54 41 76l4 5c0 4 2 9 5 9l2 4c19 30 37 58 75 102c3 29 8 61 12 96
c-56 -59 -107 -149 -157 -189c-3 -4 -7 -5 -12 -5c-13 0 -16 3 -17 3c-18 6 -28 18 -31 35v29c0 29 20 105 39 138c0 4 3 9 6 13c6 12 18 36 27 45c3 8 12 16 16 22c14 22 52 65 66 65c12 0 28 -2 28 -10c0 -2 -1 -3 -3 -5c0 -1 -3 -9 -6 -12c1 -1 -4 -1 -4 -4
c-2 0 -2 -2 -3 -5c-25 -32 -68 -96 -97 -165c0 8 4 21 4 22c16 33 35 65 52 91c5 9 12 18 20 29c-25 -25 -68 -100 -79 -131c0 -4 -6 -16 -11 -29l-4 -9c-1 -3 -2 -5 -2 -7v-5c0 -1 -1 -2 -1 -3c-4 -11 -7 -29 -9 -43l-1 -11c1 1 1 4 1 6zM188 96c0 0 1 6 2 11l-9 -13
c-15 -20 -107 -190 -110 -241c0 -7 1 -8 1 -8c4 0 7 2 10 6c40 50 70 136 103 234c1 0 2 1 2 2s-1 2 -1 3c0 2 2 4 2 6zM123 -130c0 -1 4 -3 5 -3c0 -4 -4 -5 -4 -7l5 4c1 2 5 6 6 7c2 3 6 9 7 15c3 0 4 11 4 13c-3 -3 -6 -17 -10 -20c-1 -2 -3 -7 -4 -7c-1 1 -3 4 -4 4
s-5 -4 -5 -6zM167 119c2 0 3 0 3 2l21 27c3 5 7 10 9 10v5c-4 -4 -28 -37 -33 -44zM316 252c-2 -1 -1 -2 -2 -4l24 17c7 4 9 6 9 7c-2 -1 -8 -5 -13 -7c-2 -2 -4 -5 -8 -5c-1 0 -2 0 -3 -1s-1 -5 -4 -5c-1 0 -2 -1 -3 -2zM153 -99l4 7c3 2 7 21 7 25c-2 -6 -1 -9 -4 -11
c-3 -7 -3 -12 -6 -17c-1 -1 -1 -2 -1 -4zM184 -28v5c-1 -2 -1 -6 -4 -8c0 -1 -2 -4 -2 -5c0 -2 2 -3 3 -5c3 4 2 9 3 13zM153 64l-3 -2c-1 -3 -4 -4 -5 -9c-1 -3 -3 -3 -3 -6c-2 -1 -3 -2 -3 -4c0 -1 1 -2 1 -3c2 6 4 7 7 13c2 5 3 6 6 11zM29 156c0 2 1 4 2 6v-6
c0 -1 1 -3 3 -3c0 0 0 3 -2 6l1 3c0 1 -2 4 -3 5c0 -3 -3 -4 -4 -4c2 -1 2 -5 3 -7zM199 20l-5 -3c2 -1 2 -5 2 -6c0 -3 -2 -5 -2 -5c2 0 3 4 6 7c0 0 0 6 -1 7zM172 -61c-5 -3 -3 -9 -5 -10c0 -7 1 -6 1 -6c2 5 4 11 4 16zM134 -115l1 6l-4 -3c1 -6 0 -9 3 -9c1 1 2 2 2 3
s-1 3 -2 3zM174 -38l-4 -6c-1 -1 2 -3 5 -7c0 3 -1 6 -1 13zM180 -17c-4 -8 -6 -11 -6 -12c6 0 6 8 6 12zM66 238c-2 -4 -4 -9 -5 -14c0 3 -1 6 -1 7c0 2 4 4 6 7zM194 71c0 4 1 9 1 15c-1 -5 -4 -11 -4 -12s1 -3 3 -3zM33 150c-3 0 -4 0 -6 2c2 -4 3 -4 3 -4c2 0 3 -4 3 -6
c0 -1 0 -2 1 -3c0 -2 1 -2 3 -3c-2 4 -4 9 -4 14zM36 167c0 1 -3 4 -3 8c0 1 1 2 1 3c-2 -1 -2 -3 -3 -4v-5c2 0 2 -1 5 -2zM154 104c-3 -3 -5 -3 -5 -3l-1 -3c0 -1 1 -2 4 -2l-1 4c3 0 3 1 3 4zM149 -85c-2 -2 -2 -5 -2 -5c0 -1 1 -3 1 -5c1 2 2 4 2 6s-1 3 -1 4zM202 174
l-8 -8c3 1 7 3 7 5zM306 241l3 2c-2 0 -2 -1 -3 -2z" />
    <glyph glyph-name="z" unicode="z" horiz-adv-x="211" 
d="M1 94c-5 4 -8 7 -10 14c0 3 -3 3 -3 6c0 1 -1 4 -1 7c1 5 1 13 4 17c0 3 0 6 3 6c2 6 3 14 7 20c0 1 1 2 3 2c1 0 3 -1 3 -2c0 0 2 1 5 4h-5c15 29 62 78 90 109c-1 2 10 11 10 10c0 2 6 7 8 8c0 3 4 7 7 7c4 6 5 5 7 8l9 8c0 1 4 4 5 5c14 15 55 53 62 66c0 2 1 4 1 6
s-2 4 -9 4c-19 0 -43 -7 -62 -19c-4 -1 -7 -2 -12 -5c-3 0 -5 0 -6 -4l-24 -17h-8c-2 0 -4 -2 -6 -2c-5 0 -5 4 -7 4s-8 1 -10 3c0 1 -1 3 -1 3c-5 0 -8 11 -8 12c0 11 16 19 23 25c28 18 59 35 94 38c3 1 7 1 12 1h5c14 0 22 -3 29 -9l7 -7c5 -2 9 -10 12 -16
c3 -4 3 -7 3 -9v-7c-4 -27 -31 -65 -40 -74c-4 -4 -10 -10 -12 -16c-3 0 -4 -5 -6 -6c0 0 -11 -6 -11 -9c0 -2 -3 -5 -4 -6l-19 -19c-3 -5 -12 -12 -14 -17c-2 0 -3 0 -6 -3h6c-2 -2 -5 -4 -7 -4c-21 -23 -95 -101 -99 -116c3 0 5 0 5 -2l4 1c6 4 15 6 23 6c3 0 5 0 8 3
c27 8 58 16 89 18h10c8 0 16 -1 21 -5c3 -2 3 -8 3 -13v-6c-1 0 -2 1 -3 1s-2 -1 -2 -2c0 -2 -4 -3 -6 -3h-4c-2 0 -1 -1 -2 -3c-5 -1 -5 -3 -9 -4c-5 -3 -11 -1 -15 -4c-1 -1 -5 -2 -5 -4c0 0 -2 1 -3 1c-5 -5 -6 -5 -6 -5c-1 0 -2 1 -3 1s-3 -2 -3 -2c-3 0 -4 -2 -6 -2
c-6 -3 -6 -2 -9 -3c-3 0 -8 -3 -11 -3c-4 -3 -21 -6 -27 -8c-2 0 -5 -1 -5 -2s-12 -3 -15 -3c-1 0 -2 0 -3 1h-12c-4 0 -14 2 -18 5h5s0 3 3 3c-3 3 -5 3 -5 4c-3 0 -10 -3 -11 -3c-3 1 -4 1 -7 4c0 2 -5 3 -6 3zM81 199c1 0 -11 -16 -10 -16c24 27 64 71 74 81
c13 14 17 16 19 19c-2 0 -4 -1 -6 -3c0 -1 0 -3 -1 -3c-3 0 -7 0 -7 -1c-1 0 -2 -2 -2 -4c0 -1 0 -3 1 -3c0 0 -2 -1 -5 -1l-3 -6c-2 0 -4 -4 -5 -4c0 -2 -1 -3 -3 -3c-3 -2 -6 -3 -6 -6c0 -1 -1 -1 -3 -2c0 -2 -3 -5 -4 -5c-3 0 -3 -6 -3 -6l-6 -6c-4 -3 -5 -2 -7 -5l-5 -4
c0 -2 -3 -3 -3 -6c-1 -1 -2 -3 -4 -3c-3 0 -5 -3 -5 -6c-1 -2 -7 -6 -6 -7zM19 151c0 1 2 1 3 1s3 5 7 6c0 2 2 2 2 5c-2 0 -2 -3 -5 -5h-4c0 -2 -5 -5 -5 -6c-1 -3 -6 -12 -9 -13c1 0 6 0 6 1c3 2 5 5 5 11zM23 139h-4c0 1 3 1 3 4l-3 -3c0 -1 -3 -1 -3 -1
c-2 0 -2 -3 -5 -3c0 -3 -3 -5 -3 -8c3 0 3 3 3 3c3 2 3 5 5 8v-8c-2 0 -2 -3 -2 -6c2 3 5 8 8 11c1 0 1 3 1 3zM148 115c4 3 7 6 7 11l-3 -3c-4 0 -8 -2 -8 -5h4c0 -3 -4 -3 -5 -4c1 0 3 0 5 1zM54 162c1 3 4 3 4 6c-3 0 -11 -1 -11 -8c1 1 4 2 7 2zM158 118c2 3 8 3 12 5
l-3 3h-7c-1 -2 -2 -4 -2 -8zM44 169c-3 0 -6 -1 -6 -4c2 2 5 3 8 3c3 1 6 4 6 7c0 0 -3 -3 -6 -3c-2 0 -2 -3 -2 -3zM6 143c-3 -3 -3 -7 -6 -12c0 -4 0 -6 3 -6v8c0 4 3 7 3 10zM177 324c-2 0 -5 -6 -9 -6c1 -2 3 -2 4 -4c0 2 3 2 3 4c1 1 2 3 2 6zM112 267c3 0 3 4 3 7
c-3 -3 -5 -7 -7 -7h4zM47 155c-4 0 -4 -3 -7 -3v-4c3 3 6 4 7 7zM29 148c2 2 9 8 9 7l3 3h-4zM166 131c-2 0 -4 0 -8 -2h5c1 0 3 0 3 2z" />
    <glyph glyph-name="braceleft" unicode="{" horiz-adv-x="245" 
d="M312 731c-74 -14 -133 -65 -133 -138c0 -5 0 -10 1 -15c0 -4 1 -8 1 -12c5 -48 10 -86 10 -137c-2 -38 -12 -62 -56 -81c31 -15 50 -35 50 -61c0 -72 -83 -172 -83 -241c0 -41 40 -68 79 -68c12 0 24 3 34 7c2 0 2 -3 2 -3c6 0 9 -10 9 -17c0 -22 -39 -27 -52 -27
c-67 0 -126 50 -126 113c0 18 3 34 10 50c20 48 75 131 75 175c0 13 -4 22 -15 27c-16 9 -43 9 -49 15c-7 10 -16 26 -16 38c0 2 1 2 3 3l20 12c20 11 41 20 53 35c5 8 8 15 8 23c0 63 -14 106 -14 167c0 43 19 77 46 104c27 24 64 56 106 56c18 0 20 -2 32 -14
c3 -2 5 -6 5 -11z" />
    <glyph glyph-name="bar" unicode="|" horiz-adv-x="283" 
d="M100 80c8 143 12 319 19 472c0 2 1 6 7 135c3 7 8 13 15 17c6 3 1 5 6 5c4 0 5 -1 10 -2c11 -3 16 -8 16 -19v-52c2 -16 2 -30 2 -45v-12c0 -9 -1 -18 -2 -27c0 -45 -4 -105 -5 -145l-11 -336c-1 -15 -4 -30 -6 -46c-5 -2 -5 -5 -5 -10c-1 -5 -2 -8 -5 -10s-6 -6 -8 -9
c-6 0 -7 -7 -7 -7c0 -1 -2 -6 -4 -6l-7 4c-14 12 -15 58 -15 75c-1 2 -1 6 -1 9s0 6 1 9z" />
    <glyph glyph-name="braceright" unicode="}" horiz-adv-x="255" 
d="M42 -17c59 0 101 35 101 94c0 56 -38 119 -38 173c0 29 19 58 46 71c-27 9 -46 36 -46 66c0 4 0 8 1 12c3 24 16 46 28 64c37 59 98 114 98 191c0 38 -31 49 -61 59c-2 1 -13 3 -13 7v10c0 10 9 16 18 16h4c29 -2 62 -9 85 -39c13 -19 18 -37 18 -56
c0 -111 -125 -212 -125 -269c0 -19 15 -22 33 -22c10 0 11 1 20 1c12 0 21 -2 23 -9c2 -5 3 -9 3 -13s-1 -8 -3 -11c-2 -4 -7 -6 -10 -9c-27 -16 -67 -30 -67 -64c0 -62 37 -121 37 -186c0 -25 -5 -49 -18 -72l-5 -8c-20 -24 -38 -36 -69 -36c-8 0 -16 1 -23 2
c-26 4 -38 28 -37 28z" />
    <glyph glyph-name="asciitilde" unicode="~" horiz-adv-x="405" 
d="M318 273h-5c-43 2 -86 30 -124 51c-6 4 -31 13 -37 16c-4 1 -9 2 -15 2c-11 0 -22 -2 -31 -7c-22 -17 -30 -28 -49 -47c-6 -6 -11 -9 -17 -9c-3 0 -8 5 -8 5l-7 9c-4 2 -5 6 -5 9s0 6 2 10c21 43 66 81 113 82c15 0 31 -4 46 -8c28 -8 50 -25 117 -58c3 -1 9 -2 12 -2
c9 0 39 5 55 51c1 3 3 4 4 4s3 -2 5 -4l11 -14c0 -1 -1 -3 -1 -4c0 -5 5 -7 8 -9c2 -3 2 -5 2 -7c0 -3 -1 -6 -2 -10l-14 -24c-27 -36 -52 -36 -60 -36z" />
    <glyph glyph-name="exclamdown" unicode="&#xa1;" horiz-adv-x="215" 
d="M58 99h-8c-7 0 -10 3 -16 6c-4 5 -6 10 -6 15v6l10 45c1 6 76 257 79 264c6 9 5 17 9 26l6 21c2 2 2 5 3 7c4 7 6 14 8 19c0 1 1 3 3 3s5 0 5 -3v-9c1 -2 2 3 2 5c0 -2 1 -4 1 -6v-5c1 1 1 3 1 4c3 7 5 12 7 20c0 -8 -1 -16 -2 -26v-6c1 1 2 2 2 3c4 14 10 37 13 40
c1 4 7 11 7 11c1 0 1 -2 1 -3c-22 -91 -36 -142 -49 -195l-46 -187c0 -4 -1 -10 -3 -14c-1 -3 -2 -6 -2 -8c0 -1 0 -3 1 -5c1 -1 1 -3 1 -4c0 -4 -3 -8 -7 -10c-9 -4 -11 -8 -20 -14zM171 632c9 0 17 -1 23 -5l4 -3c2 -3 5 -6 6 -9c1 -2 1 -5 1 -10c-1 -4 -2 -8 -4 -11
c-1 -5 -5 -8 -10 -9c-4 -2 -9 -2 -13 -2c-5 0 -10 0 -14 5c-7 6 -10 13 -10 20c0 5 1 9 2 13c4 8 9 11 15 11z" />
    <glyph glyph-name="cent" unicode="&#xa2;" horiz-adv-x="318" 
d="M123 69l3 -17c0 -1 -4 8 -4 9c0 -8 1 -12 2 -16c-1 -2 -11 13 -11 56c0 12 2 26 3 40c0 12 3 24 3 36c0 1 0 3 -1 3l-18 6c-3 2 -8 5 -11 8c-3 1 -7 5 -9 9c-6 7 -12 14 -15 23c-5 8 -9 17 -11 26c-2 12 -3 23 -3 35c0 34 6 68 15 101c13 58 58 135 106 170
c6 4 25 9 31 11c2 3 4 8 5 13c6 20 8 35 13 55c2 4 4 10 5 14c1 5 5 8 7 9c1 0 3 7 6 7c2 0 4 -1 6 -1c7 -1 8 -8 15 -9c1 -1 2 -3 2 -5c1 0 1 -2 1 -3c0 0 1 2 1 3v-8c1 2 2 2 3 2c0 -1 0 -7 -2 -8c-1 -17 -4 -30 -8 -45c0 -2 -1 -3 -1 -5l-3 -15c0 -1 -1 -7 -2 -10
c45 -20 47 -71 47 -125v-8c0 -8 -3 -14 -4 -21c0 -9 -5 -15 -11 -18c-8 -6 -15 -8 -22 -8c-10 0 -3 2 -11 8c-5 2 -4 5 -4 8s1 6 1 9c0 23 5 35 5 57v21c0 11 -2 22 -5 25c-1 0 -5 4 -5 6c-1 -2 -1 -3 -1 -4c-19 -89 -46 -210 -64 -297c-1 -1 -1 -2 -1 -3s1 -2 2 -2s6 1 7 1
c18 4 31 15 45 28l4 2c0 -2 -1 -3 -1 -6l-2 -6c3 1 6 3 7 3s2 0 3 -1s-11 -22 -13 -24c-3 -4 -11 -8 -11 -15c0 -3 -7 -6 -11 -7c-4 0 -33 -6 -33 -12c-2 -4 -2 -10 -3 -14l-6 -23c-1 -3 -2 -6 -2 -19v-5c-1 -4 -4 -1 -4 -7c-1 -3 -1 -6 -1 -10c0 -1 -3 5 -3 7
c0 3 -1 8 -3 10c-1 -1 -2 -3 -2 -5s0 -4 -2 -4s-3 -1 -3 -1c-5 0 -6 2 -6 5c0 5 0 8 -1 10c0 -4 -2 -8 -3 -12c0 -2 0 3 0 8c-2 -2 -3 -3 -7 -26c0 1 0 2 -1 4c0 -8 0 -15 2 -23v-5c-1 1 -2 3 -4 4c0 2 -1 2 -1 8c0 1 0 -4 0 -7zM103 275c0 -22 4 -41 25 -54c2 5 9 38 10 44
c15 83 47 216 56 256c-22 -10 -65 -98 -79 -164c-6 -27 -12 -54 -12 -82zM121 92c0 -4 0 -6 1 -7c0 3 0 6 -1 7z" />
    <glyph glyph-name="sterling" unicode="&#xa3;" horiz-adv-x="351" 
d="M257 211c7 1 14 5 19 9c2 1 3 1 4 1s3 0 3 -2c4 0 7 1 9 1c0 0 3 -1 3 -2s-1 -2 -1 -3c-1 -1 -2 -3 -2 -4c1 0 2 0 3 1c2 0 1 1 7 1l-2 -4l-21 -20l5 -6s2 1 3 1c1 -1 2 -1 4 -1l-3 -4c-13 -12 -30 -11 -45 -14c-11 -3 -20 -4 -31 -4c-5 0 -12 1 -17 1c-16 3 -16 5 -33 7
c-3 0 -12 3 -24 3c-7 0 -15 -1 -24 -4c-4 -1 -17 -7 -20 -11s-7 -8 -13 -11l-6 -2c-1 2 -3 3 -3 3c-2 0 -4 3 -9 8c0 0 -2 4 -8 4l-7 2c-6 0 -7 6 -9 9c0 1 1 5 2 7c2 4 4 5 4 8v4c14 9 46 126 53 149c-10 -3 -21 -4 -31 -6c-16 0 -27 1 -43 8c-9 3 -15 11 -21 18
c-2 2 -3 3 -3 5c0 3 2 5 5 7c34 6 64 10 97 15c5 1 9 2 10 9c12 32 31 113 51 141c16 22 31 39 53 53c6 3 16 8 23 10h15c10 0 3 -2 12 -3l24 -8c9 -3 17 -9 24 -17c7 -9 9 -20 9 -32v-41c0 -11 -4 -17 -13 -20c-4 -1 -8 -2 -11 -2c-14 0 -25 21 -25 34l-1 27
c0 5 -2 9 -7 12c-6 6 -10 8 -15 8c-6 0 -12 -3 -22 -11c-21 -20 -31 -39 -47 -83l-18 -65c0 -3 1 -3 2 -3c38 0 76 -2 110 -21c0 -6 -5 -6 -8 -6c-3 -1 -4 -3 -7 -3c-1 0 -3 1 -5 2s-4 1 -7 1s-7 0 -11 -1c-8 0 -14 -1 -22 -3c-12 -2 -22 -5 -32 -7c-9 -2 -15 -4 -23 -5
c-6 -1 -8 -2 -10 -8c-16 -64 -20 -75 -40 -124c0 -1 2 -4 3 -4c5 1 17 1 22 1c29 0 43 -11 71 -11c17 0 34 2 50 6z" />
    <glyph glyph-name="currency" unicode="&#xa4;" horiz-adv-x="345" 
d="M280 476c2 15 2 22 3 37c0 4 1 8 1 12c0 9 -2 17 -4 25c-2 3 -3 6 -5 8h-7c-16 -7 -24 -20 -34 -33c-7 -8 -14 -17 -20 -26l-23 -39l-11 -23c0 -3 1 -4 1 -4c12 2 22 4 32 4h27c12 0 24 0 36 -5c5 -1 9 -2 13 -4c7 -5 12 -8 17 -14c2 0 2 -2 3 -5h-6c-1 0 -3 -1 -4 -1
s-2 -1 -3 -1h-7c1 0 2 -1 2 -2l-33 -6c-8 0 -14 -1 -21 -2c-7 0 -14 -2 -19 -7c-15 -2 -31 -6 -46 -8c-5 0 -8 -1 -11 -2c-4 0 -6 -3 -7 -6c-8 -27 -9 -28 -9 -28c0 -1 1 -2 3 -2l47 9c16 2 32 5 47 5s24 -2 38 -8c3 -1 5 -4 8 -5c0 -3 -1 -3 -2 -3h-6c-10 -1 -16 -4 -23 -7
c-6 -3 -12 -5 -17 -6c-2 0 -3 -2 -2 -2c0 -1 0 -3 -1 -3l-10 -2c-1 0 -2 -1 -3 -2c1 0 2 -1 3 -1h8l-3 -2c-4 0 -6 -1 -10 -1l-33 -9c-16 -5 -32 -9 -48 -13c-5 -1 -7 -4 -8 -9c-1 -11 -2 -22 -2 -32c0 -16 4 -32 10 -47c3 -11 8 -15 16 -15c2 0 6 1 9 2c12 2 22 8 31 16
c24 16 45 37 64 58c3 4 4 7 9 7c2 0 3 -5 6 -5s7 4 10 5c2 0 3 0 5 -1c0 -1 0 -2 -1 -4c-2 -2 -4 -4 -5 -7l-2 -7l-6 -12c0 -2 2 -2 3 -2c-1 -1 -7 -10 -11 -14c-10 -12 -19 -25 -33 -34l-8 -7c-7 -11 -18 -14 -30 -16c-7 -4 -16 -5 -23 -7c-6 0 -14 -2 -20 -3
c-2 0 -5 1 -7 1c-1 0 -3 1 -5 1c-3 -1 -6 -1 -8 -1c-12 0 -17 4 -28 16c-19 18 -25 42 -29 68c-2 32 -3 32 -3 32h-11c-4 0 -9 0 -12 1h-7c-3 0 -7 0 -9 2c-12 2 -22 5 -29 16c-2 4 -3 10 -4 14c0 5 3 6 6 6c5 0 8 -1 12 -1h15c20 3 23 6 45 11c1 0 1 1 1 3l8 30
c0 2 -1 3 -2 4c-10 1 -19 1 -28 6c-1 2 -3 2 -6 3c-10 2 -18 14 -18 25c0 9 1 15 7 17c4 0 9 1 15 1c4 -1 9 -1 13 -1s9 0 13 1c10 0 19 2 26 5c2 0 3 2 3 2c25 54 77 160 137 177c3 2 4 2 5 2c9 -4 12 -4 21 -6c12 -2 15 0 27 -5c9 -6 16 -11 23 -21c8 -14 12 -29 12 -45
c0 -3 -1 -7 -1 -11c-1 -16 -3 -22 -10 -37c-2 -2 -2 -5 -4 -8c-5 -11 -14 -15 -27 -15c-7 2 -3 2 -8 6c-8 3 -7 10 -8 17z" />
    <glyph glyph-name="yen" unicode="&#xa5;" horiz-adv-x="316" 
d="M177 304l32 -1c16 -1 32 -2 47 -2c1 0 3 -1 5 -1c8 -1 9 -3 12 -10c0 -1 -1 -3 -3 -3c-4 0 -8 -1 -12 -1c-9 -1 -18 -2 -28 -5c-5 -2 -11 -3 -15 -6c-4 0 -4 -5 -7 -5c0 -1 2 -2 3 -2c-6 0 -20 -4 -28 -5l-11 -3c-5 -2 -9 -4 -10 -11c-2 -8 -3 -18 -7 -28
c-1 -5 -3 -12 -6 -19c-2 -2 -3 -5 -3 -8c-1 -1 -1 -2 -1 -3c-1 1 -2 3 -2 3v-5c-1 1 -1 3 -1 4c0 -5 -4 -13 -5 -18c0 -2 -1 -2 -1 -3c0 4 -1 4 -1 5v-9l-3 4c-5 -2 -9 -7 -15 -7c-4 0 -4 -5 -11 -5h-4l-3 15c0 4 -1 10 -1 14c0 14 3 27 4 40c1 6 2 13 4 20c0 3 -2 4 -5 4
c-7 1 -14 1 -22 3c-23 3 -30 5 -51 15c-3 6 -10 7 -10 13c0 2 1 3 3 6c0 1 3 2 5 2c11 2 25 3 37 4l47 5c1 0 3 1 4 2c1 4 1 7 1 10c0 6 1 12 1 18v5c0 2 4 4 3 4c-16 -1 -33 -3 -48 -3c-11 0 -22 0 -33 4c-12 2 -22 11 -30 22c-3 2 -4 5 -4 9c0 3 1 6 3 10c0 1 3 2 4 2
c11 3 22 6 33 7h69c5 2 5 4 5 6l-14 154c0 1 -2 19 -2 29c0 3 0 6 1 6c9 8 6 12 17 12c21 0 33 -21 36 -40c2 -21 3 -44 6 -66c2 -20 3 -44 6 -65c15 9 73 105 88 126c6 9 14 18 20 28c4 3 8 5 13 5c2 1 5 1 7 1s5 -1 5 -2c2 -2 3 -2 4 -2c2 0 4 2 6 2c2 1 3 1 4 1v-4
c0 -5 -5 -7 -6 -11c1 -2 2 -3 2 -4c0 -4 -6 -16 -8 -19l-3 -4c-2 -6 -4 -10 -6 -13c0 -10 -25 -45 -30 -51l-8 -13c-3 -5 -6 -10 -6 -11c1 1 2 3 7 10l36 53c0 2 3 7 3 8c0 -1 0 -10 -1 -11c-9 -11 -13 -22 -23 -36c-19 -26 -36 -51 -56 -81c-1 -2 -7 -7 -7 -8
c12 0 21 -1 31 -1h19c8 0 16 -1 26 -7c4 -2 6 -8 6 -12c0 -5 -2 -9 -6 -11c-3 -10 -51 -16 -64 -16l-35 -3c-1 0 -4 -1 -4 -4c-4 -10 -6 -19 -7 -29c0 -4 0 -4 2 -4z" />
    <glyph glyph-name="brokenbar" unicode="&#xa6;" horiz-adv-x="283" 
d="M130 412c-2 16 -3 31 -3 47c0 65 14 147 15 237c9 14 3 16 18 18c16 0 24 -12 28 -24c3 -6 4 -15 4 -23c0 -12 -2 -25 -2 -34c-4 -53 -14 -122 -14 -173v-16c0 -9 1 -18 2 -27c0 -2 -1 -2 -5 -2c0 -3 1 -10 1 -14c-1 0 -3 1 -3 2c0 -1 0 -2 -1 -3c0 -1 0 -3 -1 -3
c-4 -1 -7 -4 -7 -6v-6c-7 -4 -7 -8 -16 -8c-2 0 -1 -4 -3 -4h-4c-8 0 -9 35 -9 39zM114 30l-3 20c4 134 10 181 12 209l2 30v17c0 15 2 27 19 27s23 -11 28 -23c2 -6 2 -10 2 -15c0 -70 -10 -149 -10 -210c0 -9 0 -16 1 -24c0 -9 2 -18 2 -28c0 -2 -1 -2 -2 -2
c-4 0 -4 -1 -4 -2c1 -4 2 -7 2 -10c-4 0 -5 -3 -6 -4c-3 -1 -5 -3 -5 -7c0 -3 -5 -11 -8 -12h-8c-2 0 -8 -2 -8 -2s-5 -3 -6 -3c-7 0 -7 33 -8 39z" />
    <glyph glyph-name="section" unicode="&#xa7;" horiz-adv-x="327" 
d="M14 134v7c2 35 10 85 50 95c6 1 8 1 13 1h7c1 0 2 -1 3 -1c0 0 -6 -4 -8 -5c0 0 1 -3 2 -4c-11 -30 -17 -46 -17 -62c0 -15 5 -28 17 -51c5 -9 14 -10 22 -10c34 0 49 36 49 65c0 20 -6 40 -12 55c-7 17 -17 33 -25 50l-18 39c-2 6 -7 8 -12 8c-4 0 -6 0 -6 3
c0 0 -5 4 -7 6c-2 14 -3 24 -3 35c0 35 18 79 49 95c4 2 9 3 14 5c0 13 -22 22 -22 33c-10 10 -19 38 -19 54c0 37 23 75 50 99l5 4c15 12 32 23 52 23c5 0 7 0 9 1c1 0 11 2 16 2c12 0 9 -1 19 -1c22 -2 49 -19 49 -46c0 -4 -1 -9 -1 -18c-2 -13 -4 -28 -8 -40
c-2 -11 -7 -16 -18 -17c-3 -1 -6 -1 -9 -1c-8 0 -1 2 -8 6c-2 3 -6 5 -7 8c-1 1 -1 2 -1 4c0 1 0 3 1 4c4 10 6 21 6 32c0 6 -1 12 -2 18c-2 7 -7 13 -13 18c-15 0 -34 -8 -47 -17c-23 -22 -39 -45 -45 -76c-1 -3 -1 -6 -1 -10c0 -9 2 -19 8 -27c7 -10 13 -20 20 -29
c17 -17 41 -44 52 -66c10 -17 11 -28 11 -46c-3 -28 -27 -56 -55 -64l-15 -3c-1 0 -2 -3 -2 -6c12 -32 52 -85 52 -134c0 -30 -9 -59 -33 -79l-26 -16c-9 -5 -19 -8 -28 -8c-5 0 -9 1 -14 2h-27c-50 1 -67 60 -67 65zM179 388c-1 19 -10 34 -19 48c-1 2 -2 3 -3 3
s-3 -1 -5 -3c-10 -12 -15 -27 -20 -43c-1 -5 -2 -9 -2 -14c0 -11 4 -22 11 -32c1 -2 4 -4 6 -4s8 4 9 5c13 10 22 24 23 40z" />
    <glyph glyph-name="dieresis" unicode="&#xa8;" horiz-adv-x="129" 
d="M13 794c5 3 10 3 14 3c16 0 27 -14 27 -26c0 -11 -14 -24 -25 -26c-4 -3 -8 -3 -11 -3c-12 0 -19 11 -20 14c-2 1 -2 4 -2 6c0 12 9 28 17 32zM81 749c0 2 0 5 1 7c-1 2 -3 2 -3 4c0 1 -1 4 -1 5c0 14 19 26 26 32h4c8 0 18 -4 24 -8c1 -4 1 -10 1 -15
c0 -14 -4 -29 -19 -34c-2 0 -4 -1 -7 -1c-10 0 -24 4 -26 10z" />
    <glyph glyph-name="copyright" unicode="&#xa9;" horiz-adv-x="482" 
d="M260 423c13 0 20 -4 31 -11l3 -2c14 -6 16 -34 16 -47l-3 -15l-1 -10c0 -4 -5 -14 -10 -14c-6 -3 -8 -6 -12 -6c-3 0 -7 2 -13 6l4 50c0 6 -2 13 -6 17c-3 1 -7 1 -9 1c-1 0 -3 -2 -6 -3c-5 -2 -6 -9 -10 -13c-16 -26 -30 -67 -34 -97c0 -5 -2 -11 -2 -17v-17
c0 -12 2 -26 8 -36c3 -4 13 -8 19 -8s12 1 15 2c3 0 6 2 11 4c4 2 6 6 8 8c4 4 6 5 7 5c2 0 5 -7 5 -12l-8 -13c-2 -3 -7 -5 -9 -8c-7 -10 -31 -17 -45 -17c-2 0 -10 1 -12 2c-12 5 -22 15 -28 26c-3 7 -6 14 -6 22c-3 10 -3 18 -3 28c-1 3 -1 6 -1 10s0 8 1 13
c3 66 45 152 90 152zM389 396v-8c1 -2 1 -5 1 -6v-6c-2 -11 -2 -24 -2 -35c-2 -10 -2 -19 -5 -28c0 2 4 4 4 7l2 8c0 6 1 12 1 18c0 2 1 2 1 3c3 3 3 8 3 13c0 11 -3 24 -3 31c0 1 -2 14 -3 24c-2 11 -6 28 -12 31c1 -5 2 -10 4 -13c3 -8 3 -16 6 -23c3 -5 2 -11 3 -16z
M349 474c3 -2 6 -4 6 -5c0 -2 -1 -1 -1 -3c5 -2 7 -7 10 -12c-4 16 -13 23 -20 26c-1 1 -10 6 -10 6s7 -6 7 -7c0 0 7 -2 8 -5zM372 464c-5 9 -8 13 -11 16c-3 2 -8 6 -8 6c0 -5 11 -13 13 -15c1 -2 3 -5 6 -7zM334 501l12 -7c-5 7 -13 11 -21 14c0 -4 8 -5 9 -7zM383 258
c-6 -3 -6 -14 -9 -19c2 2 3 4 3 5c3 4 3 10 6 14zM402 357c2 0 2 -5 2 -10v-12c-1 -3 -3 -5 -3 -8c0 -13 -4 -24 -6 -37c0 -1 -2 -2 -2 -4l4 2l6 27c1 2 1 3 1 7c2 4 3 10 3 14c0 2 1 5 2 5c0 -9 -3 -18 -5 -28c-1 -11 -5 -23 -7 -34l-7 -24c0 -2 1 -2 1 -3s-1 -3 -1 -3
c0 1 -1 2 -2 2c0 0 -1 -5 -2 -7c-1 -1 1 7 1 10c0 2 -7 -13 -7 -17c-5 -12 -11 -23 -16 -34c0 -7 -4 -12 -9 -18l-23 -38c-8 -9 -12 -15 -21 -24c-5 -7 -12 -11 -18 -17c-6 -5 -15 -10 -21 -14l-29 -15c-9 -5 -16 -4 -26 -6c-7 -2 -16 -3 -24 -3c-18 0 -39 7 -56 20
c-5 3 -8 6 -13 10l-11 11c-4 5 -7 10 -8 17c0 1 -2 1 -3 1c-3 8 -7 16 -8 24c-8 18 -11 41 -11 74c0 52 8 98 27 146c0 2 0 4 1 6c0 2 1 6 2 8l6 8v4c0 2 0 4 2 6c2 1 2 2 2 3c2 5 3 13 6 15c3 4 4 8 7 12l27 38c2 3 17 19 20 21l6 3c6 6 13 10 20 13l21 11c5 2 11 4 15 4
c2 1 7 2 10 2c1 0 3 0 3 -2c1 0 7 2 11 3c1 2 2 3 3 3s2 -2 4 -2h4c0 -2 1 -2 2 -2h7c4 0 8 -1 11 -1c0 0 32 -17 34 -18c6 -3 12 -8 18 -12c5 -4 11 -10 15 -15c2 -4 5 -7 7 -12c3 -7 12 -30 17 -35c2 -2 2 -4 2 -7s2 -4 3 -5l4 -16c1 -4 1 -9 3 -17c0 -3 -1 -3 -1 -3
c0 -1 1 -9 1 -14c0 -1 -2 -3 -2 -4c-1 1 -1 3 -1 4c-1 -1 0 -4 -2 -5l-2 -13c0 -4 0 -9 -1 -14c0 -3 1 -4 1 -4c4 1 4 23 6 23zM296 492c-2 0 -6 1 -9 2c-2 1 -5 3 -8 3c-7 0 -15 0 -21 1h-4c-10 0 -17 -4 -24 -8l-4 -2c-5 -4 -9 -5 -13 -9l-7 -8c1 2 4 8 4 9
c0 0 -7 -3 -9 -6l-14 -14l-5 -7l14 3v-4c0 -1 -1 -2 -3 -3c-5 -9 -11 -17 -17 -28c-10 -18 -18 -39 -25 -60c-3 -6 -4 -11 -7 -16c-2 -4 -6 -15 -6 -20c-1 -9 -5 -18 -8 -28v-9c0 -7 -1 -15 -3 -23c-1 -9 -2 -19 -2 -28c0 -14 1 -30 2 -45c2 -15 6 -23 10 -38
c12 -33 27 -55 65 -55c25 0 50 12 69 28c15 14 27 24 38 42c9 13 15 27 23 41c0 4 8 13 9 18c6 15 11 29 16 44c6 26 9 52 10 80v4c0 46 -24 120 -71 136z" />
    <glyph glyph-name="guillemotleft" unicode="&#xab;" horiz-adv-x="343" 
d="M297 428c3 2 11 3 12 3c0 -2 5 -11 8 -10c4 -1 5 -4 5 -7c0 -25 -88 -80 -125 -108c43 -31 104 -62 104 -107c0 -8 -10 -10 -21 -10c-37 5 -137 94 -137 109c0 38 56 61 80 88c8 14 48 51 65 51c8 0 6 -6 9 -9zM174 428c5 2 8 3 10 3c7 0 2 -10 10 -10c4 -1 5 -4 5 -8
c0 -24 -85 -77 -125 -107c45 -31 104 -63 104 -107c0 -8 -9 -10 -21 -10c-36 6 -137 94 -137 109c0 38 56 61 80 88c8 14 48 51 65 51c8 0 6 -6 9 -9z" />
    <glyph glyph-name="registered" unicode="&#xae;" horiz-adv-x="482" 
d="M246 436c6 3 15 4 22 4c5 0 10 0 14 -2l13 -8c16 -11 22 -33 22 -50c-1 -8 -3 -17 -6 -26l-8 -19c-2 -4 -3 -8 -7 -11c-3 -3 -4 -7 -8 -10c-2 -4 -6 -8 -9 -11c-7 -8 -16 -16 -25 -24c-4 -4 -11 -7 -17 -10c-2 -1 -2 -2 -2 -4c11 -24 32 -47 51 -63c4 -5 11 -8 17 -11v-6
c-6 -2 -11 -2 -17 -2h-12c-16 1 -28 9 -37 19c-8 6 -17 14 -24 21l-3 4c-1 -2 -1 -4 -1 -5c-3 -16 -4 -33 -8 -47c0 0 -1 -2 -1 -3c0 -10 -5 -18 -15 -21c-2 -1 -4 -1 -5 -1c-8 0 -18 12 -18 20v8c3 69 13 232 84 258zM277 397v5c0 5 -1 6 -3 6s-2 -1 -5 -1
c-32 -21 -44 -69 -50 -105c15 0 28 18 35 29c15 20 23 40 23 66zM389 396v-8c1 -2 1 -5 1 -6v-6c-2 -11 -2 -24 -2 -35c-2 -10 -2 -19 -5 -28c0 2 4 4 4 7l2 8c0 6 1 12 1 18c0 2 1 2 1 3c3 3 3 8 3 13c0 11 -3 24 -3 31c0 1 -2 14 -3 24c-2 11 -6 28 -12 31
c1 -5 2 -10 4 -13c3 -8 3 -16 6 -23c3 -5 2 -11 3 -16zM349 474c3 -2 6 -4 6 -5c0 -2 -1 -1 -1 -3c5 -2 7 -7 10 -12c-4 16 -13 23 -20 26c-1 1 -10 6 -10 6s7 -6 7 -7c0 0 7 -2 8 -5zM366 471c2 -5 3 -7 3 -6s-3 9 -8 15c-3 2 -8 6 -8 6c0 -5 11 -13 13 -15zM334 501l12 -7
c-5 7 -13 11 -21 14c0 -4 8 -5 9 -7zM383 258c-6 -3 -6 -14 -9 -19c2 2 3 4 3 5c3 4 3 10 6 14zM402 357c2 0 2 -5 2 -10v-12c-1 -3 -3 -5 -3 -8c0 -13 -4 -24 -6 -37c0 -1 -2 -2 -2 -4l4 2l6 27c1 2 1 3 1 7c2 4 3 10 3 14c0 2 1 5 2 5c0 -9 -3 -18 -5 -28
c-1 -11 -5 -23 -7 -34l-7 -24c0 -2 1 -2 1 -3s-1 -3 -1 -3c0 1 -1 2 -2 2c0 0 -1 -5 -2 -7c-1 -1 1 7 1 10c0 2 -7 -13 -7 -17c-5 -12 -11 -23 -16 -34c0 -7 -4 -12 -9 -18l-23 -38c-8 -9 -12 -15 -21 -24c-5 -7 -12 -11 -18 -17c-6 -5 -15 -10 -21 -14l-29 -15
c-9 -5 -16 -4 -26 -6c-7 -2 -16 -3 -24 -3c-18 0 -39 7 -56 20c-5 3 -8 6 -13 10l-11 11c-4 5 -7 10 -8 17c0 1 -2 1 -3 1c-3 8 -7 16 -8 24c-8 18 -11 41 -11 74c0 52 8 98 27 146c0 2 0 4 1 6c0 2 1 6 2 8l6 8v4c0 2 0 4 2 6c2 1 2 2 2 3c2 5 3 13 6 15c3 4 4 8 7 12
l27 38c2 3 17 19 20 21l6 3c6 6 13 10 20 13l21 11c5 2 11 4 15 4c2 1 7 2 10 2c1 0 3 0 3 -2c1 0 7 2 11 3c1 2 2 3 3 3s2 -2 4 -2h4c0 -2 1 -2 2 -2h7c4 0 8 -1 11 -1c0 0 32 -17 34 -18c6 -3 12 -8 18 -12c5 -4 11 -10 15 -15c2 -4 5 -7 7 -12c3 -7 12 -30 17 -35
c2 -2 2 -4 2 -7s2 -4 3 -5l4 -16c1 -4 1 -9 3 -17c0 -3 -1 -3 -1 -3c0 -1 1 -9 1 -14c0 -1 -2 -3 -2 -4c-1 1 -1 3 -1 4c-1 -1 0 -4 -2 -5l-2 -13c0 -4 0 -9 -1 -14c0 -3 1 -4 1 -4c4 1 4 23 6 23zM296 492c-2 0 -6 1 -9 2c-2 1 -5 3 -8 3c-7 0 -15 0 -21 1h-4
c-10 0 -17 -4 -24 -8l-4 -2c-5 -4 -9 -5 -13 -9l-7 -8c1 2 4 8 4 9c0 0 -7 -3 -9 -6l-14 -14l-5 -7l14 3v-4c0 -1 -1 -2 -3 -3c-5 -9 -11 -17 -17 -28c-10 -18 -18 -39 -25 -60c-3 -6 -4 -11 -7 -16c-2 -4 -6 -15 -6 -20c-1 -9 -5 -18 -8 -28v-9c0 -7 -1 -15 -3 -23
c-1 -9 -2 -19 -2 -28c0 -14 1 -30 2 -45c2 -15 6 -23 10 -38c12 -33 27 -55 65 -55c25 0 50 12 69 28c15 14 27 24 38 42c9 13 15 27 23 41c0 4 8 13 9 18c6 15 11 29 16 44c6 26 9 52 10 80v4c0 46 -24 120 -71 136z" />
    <glyph glyph-name="macron" unicode="&#xaf;" horiz-adv-x="182" 
d="M29 771l76 -1h-8h23c10 -1 20 -2 27 -6c4 -2 7 -3 9 -8c2 -4 10 -11 11 -12c0 0 -1 0 -3 -1c3 0 5 -2 5 -5s0 -4 1 -5c-5 1 -14 3 -15 3c0 -1 2 -3 2 -3l-31 -2h-14c-14 -1 -27 -3 -41 -3c-10 0 -21 1 -31 4c-9 1 -15 5 -20 12c-3 6 -6 11 -8 18c0 1 0 4 1 5
c0 4 14 4 16 4z" />
    <glyph glyph-name="degree" unicode="&#xb0;" horiz-adv-x="257" 
d="M281 602c1 1 1 7 4 8c-4 -49 -78 -91 -118 -91c-49 0 -85 29 -85 98c0 59 54 112 110 112h14c16 0 40 -2 40 -20c0 -1 -6 -13 -4 -13c1 0 4 -5 4 -3c0 1 -1 2 -1 5c17 -27 37 -54 37 -85c0 -3 -1 -7 -1 -11zM173 563c42 0 60 23 60 50c0 26 -15 57 -34 79
c-46 -18 -72 -39 -72 -92c5 -29 25 -37 46 -37z" />
    <glyph glyph-name="acute" unicode="&#xb4;" horiz-adv-x="97" 
d="M66 822c6 0 10 -3 13 -7c7 0 11 -10 11 -19c0 -1 -1 -3 -1 -4c-3 -13 -9 -27 -17 -38c-2 -2 -3 -6 -7 -9l-11 -9c-2 0 -3 -1 -4 -3c-2 -4 -4 -7 -9 -11l1 5l-7 -11c-1 0 -1 4 -5 4l-4 -6l-12 -9c2 5 3 9 3 12c1 12 6 22 10 34l22 59c0 1 1 2 1 3c1 8 11 9 16 9z" />
    <glyph glyph-name="paragraph" unicode="&#xb6;" horiz-adv-x="275" 
d="M194 336l3 -3c-2 -1 -9 -7 -9 -7c0 -2 -4 -3 -4 -3c0 5 -3 6 -7 6c0 -3 -2 -3 -2 -4c0 -2 4 -2 4 -5c0 0 -3 2 -4 3c0 0 -2 -1 -2 -5c-8 4 -13 8 -13 18c0 4 2 13 2 16c3 16 6 32 11 48c4 21 10 42 15 64l25 100c3 16 8 31 13 48c0 2 1 6 3 8c0 5 -3 6 -6 8h-15
c-8 -33 -28 -99 -35 -129c0 -1 0 -2 1 -3l3 -4c2 -2 3 -5 3 -8c0 -4 -2 -9 -6 -11l-7 -5c-1 -2 -4 -6 -4 -6c0 -1 -1 -2 -1 -4c-3 -16 -11 -36 -24 -104l-6 -21c-1 -1 -3 -4 -5 -5c-1 0 -2 -1 -2 -2c-1 0 -3 2 -3 2c-2 0 -3 1 -3 1s0 -3 1 -3c0 -1 -1 -2 -1 -3
c-1 0 -2 0 -3 -1c0 -1 -4 4 -5 4c0 -3 1 -3 1 -3c-1 -1 -6 -4 -7 -4c-5 1 -8 4 -9 6c-2 2 -3 5 -3 8v12v7c0 22 5 44 10 65l11 46s-10 1 -16 1c-12 0 -25 1 -37 4c-11 0 -35 14 -44 26c-7 10 -10 21 -10 31c0 60 55 109 107 134c24 11 52 15 78 15c19 0 38 -2 46 -6
c12 -5 15 -18 25 -26l9 -4c5 -5 8 -8 8 -13c0 -3 -1 -4 -2 -7l-64 -254s-4 -2 -5 -2l-5 -10c0 -2 -1 -2 -1 -3v-4c-3 0 -3 -3 -3 -6c0 0 -1 -1 -1 -3c-2 0 -2 2 -2 3c0 4 3 9 3 13c0 -1 -2 -3 -2 -6c-2 -1 -2 -3 -2 -4zM153 620c-52 -15 -91 -52 -100 -89v-4
c0 -15 17 -23 32 -23c4 -1 8 -1 13 -1h23c1 0 3 1 3 3c7 23 8 24 31 108c1 1 1 3 1 4s-1 2 -3 2z" />
    <glyph glyph-name="periodcentered" unicode="&#xb7;" horiz-adv-x="201" 
d="M98 265l7 2c6 -2 13 -2 18 -4c2 -3 7 -9 7 -11c1 -4 1 -8 1 -12c0 -10 -2 -21 -8 -29c-2 -4 -4 -6 -8 -7l-18 -9c-2 -1 -5 -1 -7 -1c-16 0 -32 14 -32 31c2 25 15 40 40 40z" />
    <glyph glyph-name="cedilla" unicode="&#xb8;" horiz-adv-x="145" 
d="M78 -13c-6 1 -11 1 -17 3c-3 1 -6 2 -10 5c-6 4 -13 8 -21 11c-2 1 -7 4 -10 5c1 2 7 2 9 2h5c6 0 12 -1 19 -2h7c6 0 11 2 18 4c10 2 17 17 17 27c0 5 -1 9 -5 11c-3 2 -8 3 -14 3c-9 0 -18 3 -22 10c-1 2 -1 4 -1 6c0 1 1 4 2 5c18 13 33 33 45 49c5 6 10 7 18 7
c9 0 18 -1 18 -12c-2 -11 -11 -23 -17 -31c-4 -3 -5 -5 -5 -7c0 -3 3 -3 6 -6c11 -5 18 -13 20 -27v-5c0 -24 -21 -51 -45 -55c-5 -2 -12 -2 -17 -3z" />
    <glyph glyph-name="guillemotright" unicode="&#xbb;" horiz-adv-x="343" 
d="M45 204c-3 -2 -11 -3 -12 -3c0 2 -5 11 -8 10c-4 1 -5 4 -5 7c0 25 88 80 125 108c-43 31 -104 62 -104 107c0 8 10 10 21 10c37 -5 137 -94 137 -109c0 -38 -56 -61 -80 -88c-8 -14 -48 -51 -65 -51c-8 0 -6 6 -9 9zM168 204c-5 -2 -8 -3 -10 -3c-7 0 -2 10 -10 10
c-4 1 -5 4 -5 8c0 24 85 77 125 107c-45 31 -104 63 -104 107c0 8 9 10 21 10c36 -6 137 -94 137 -109c0 -38 -56 -61 -80 -88c-8 -14 -48 -51 -65 -51c-8 0 -6 6 -9 9z" />
    <glyph glyph-name="questiondown" unicode="&#xbf;" horiz-adv-x="320" 
d="M157 96c-24 0 -46 7 -65 23c-16 11 -24 29 -24 48c0 17 8 41 17 55c46 71 164 211 164 289c0 6 -1 12 -2 18v8s9 0 9 -4c0 0 1 -1 3 -1c13 0 16 -8 19 -16c6 -9 10 -20 14 -32c1 -4 1 -9 1 -13c0 -42 -28 -94 -51 -127c-21 -30 -43 -60 -65 -89c-17 -22 -35 -43 -51 -64
c-9 -11 -10 -19 -14 -32l4 -12c0 -4 2 -6 8 -7c29 0 62 11 90 21c4 3 7 6 11 8c4 3 9 5 14 5c12 0 21 -14 21 -25c0 -3 -1 -5 -1 -8c-3 -11 -12 -16 -21 -21c-16 -16 -57 -24 -81 -24zM296 591c-11 0 -16 0 -24 6l-7 8c-3 3 -3 6 -3 10v5c0 3 2 7 3 10c2 5 6 6 10 6
c0 0 5 3 6 3c3 0 6 -1 8 -3c1 0 2 1 3 1c5 0 9 -6 13 -8c3 -1 6 -6 8 -9c1 -2 1 -3 1 -4v-4v-4c0 -10 -8 -17 -18 -17z" />
    <glyph glyph-name="Eth" unicode="&#xd0;" horiz-adv-x="695" 
d="M570 238c-93 -27 -171 -50 -243 -83c-3 -1 -5 -3 -5 -5c-7 -21 -22 -78 -26 -100c126 27 213 108 274 188zM240 50l1 6c2 22 11 52 16 74c-6 -5 -86 -43 -86 -62c0 -2 1 -4 2 -5c16 -7 28 -12 42 -12l11 -1c1 0 7 -1 11 -1c2 0 3 0 3 1zM508 109c0 5 9 19 12 23
c0 1 -8 -5 -8 -5c-2 0 -6 -12 -6 -14c0 -4 2 -4 2 -4zM414 59l9 2c2 0 5 4 5 5s-2 2 -3 2c-5 -2 -6 -7 -11 -9zM621 247l-15 -26c9 13 19 27 19 27c-1 0 -3 -1 -4 -1zM408 79h5c6 0 15 4 14 4c-3 0 -15 -3 -19 -4zM473 91c1 4 3 5 7 7c-3 1 -4 1 -5 1c0 0 -1 -3 -1 -4
c-1 -4 -8 -5 -9 -7c3 0 5 2 8 3zM366 63l-6 -2c0 2 -6 -5 -6 -5c7 2 12 7 12 7zM472 114l-4 4c0 -2 -2 -5 -4 -7c4 2 7 2 8 3zM488 109l8 3c1 1 -2 2 -5 2c0 -2 -2 -4 -3 -5zM456 81l-4 2c0 -1 -1 -2 -3 -5c2 0 5 2 7 3zM436 576c-4 -30 -13 -66 -24 -105l-19 -64
c16 3 32 6 48 6c8 0 16 -1 24 -2l31 -6c2 0 4 -3 4 -5h4c2 -1 4 -3 4 -3l-3 -4h-26c-14 -4 -14 -5 -14 -5v-5c-1 -3 -6 -3 -10 -3h-5c-2 0 -4 0 -5 -1c-6 -4 -15 -5 -20 -5c-7 -3 -15 -5 -21 -5c-2 0 -13 -2 -24 -4c-14 -46 -30 -97 -44 -152l17 6c72 27 158 55 246 74
c23 46 42 111 42 174c0 127 -79 206 -204 206c-15 0 -30 0 -44 -2c-1 0 -6 4 -5 4c12 4 28 4 49 5h6c2 0 4 0 4 1l-27 1c-1 0 -31 0 -31 -4c-1 0 -5 1 -5 1c-4 0 -6 0 -8 -1c-1 0 -2 -1 -2 -3h-5c-5 0 -11 0 -12 -3c-2 -2 -3 -2 -3 -2c-1 0 -4 -2 -4 -3c0 0 3 2 5 2
c9 2 18 5 28 5c2 0 6 -4 5 -4c-162 -24 -323 -164 -323 -300c0 -32 18 -52 54 -55c1 -4 1 -5 1 -6v-5c0 -4 -2 -9 -5 -11c-12 -7 -21 -7 -36 -7h-4c-14 1 -48 31 -52 66c-2 9 -2 14 -2 24v12c21 197 232 331 403 331h16c176 -8 247 -128 247 -258c0 -56 -13 -105 -31 -158
c45 8 72 10 100 13c3 0 6 1 9 1c2 0 5 1 7 1h5c5 -1 7 -2 7 -3c-1 -7 -1 -8 -1 -8s-1 -3 -3 -6c-2 0 -5 -9 -7 -8l-3 -4c1 0 3 1 4 1c-2 -2 -5 -4 -5 -7c0 -1 -2 -3 -2 -3c0 -2 -10 -6 -9 -7l-7 -1c-1 0 -2 0 -6 -1c-43 -6 -76 -13 -111 -22c-81 -129 -198 -226 -342 -246
c-1 0 -7 -1 -8 -2c-1 1 -3 -6 -3 -6c-2 -1 -2 -3 -9 -3h-4l-7 -4c-3 1 -9 3 -10 3s-2 1 -4 1c-1 0 -10 0 -11 -1c-5 3 -2 10 -7 10h-6c-31 3 -89 18 -89 58c7 62 107 113 136 127c2 1 3 2 3 4l47 162h-1l-32 -4c-8 -1 -17 0 -26 -2l-23 2c-3 0 -6 2 -10 2c-7 4 -12 6 -19 12
c0 0 -4 5 -5 10c1 3 2 6 9 6c2 0 3 0 6 -2h7c2 0 3 -1 5 -1c4 0 8 1 11 3c28 5 53 12 80 16c2 0 6 0 11 1c20 65 40 132 64 208c1 4 1 21 8 21c8 -1 17 -3 24 -10c6 -7 8 -15 8 -25c0 -4 0 -9 -1 -13z" />
    </font>
</defs>
</svg>
